G75*
G70*
%OFA0B0*%
%FSLAX24Y24*%
%IPPOS*%
%LPD*%
%AMOC8*
5,1,8,0,0,1.08239X$1,22.5*
%
%ADD10C,0.0000*%
D10*
X018751Y014838D02*
X038399Y014838D01*
X038416Y014870D02*
X038416Y054240D01*
X038374Y054242D02*
X018731Y054242D01*
X018731Y054240D02*
X018731Y014870D01*
X020581Y018838D02*
X020583Y018886D01*
X020589Y018934D01*
X020599Y018981D01*
X020612Y019027D01*
X020630Y019072D01*
X020650Y019116D01*
X020675Y019158D01*
X020703Y019197D01*
X020733Y019234D01*
X020767Y019268D01*
X020804Y019300D01*
X020842Y019329D01*
X020883Y019354D01*
X020926Y019376D01*
X020971Y019394D01*
X021017Y019408D01*
X021064Y019419D01*
X021112Y019426D01*
X021160Y019429D01*
X021208Y019428D01*
X021256Y019423D01*
X021304Y019414D01*
X021350Y019402D01*
X021395Y019385D01*
X021439Y019365D01*
X021481Y019342D01*
X021521Y019315D01*
X021559Y019285D01*
X021594Y019252D01*
X021626Y019216D01*
X021656Y019178D01*
X021682Y019137D01*
X021704Y019094D01*
X021724Y019050D01*
X021739Y019005D01*
X021751Y018958D01*
X021759Y018910D01*
X021763Y018862D01*
X021763Y018814D01*
X021759Y018766D01*
X021751Y018718D01*
X021739Y018671D01*
X021724Y018626D01*
X021704Y018582D01*
X021682Y018539D01*
X021656Y018498D01*
X021626Y018460D01*
X021594Y018424D01*
X021559Y018391D01*
X021521Y018361D01*
X021481Y018334D01*
X021439Y018311D01*
X021395Y018291D01*
X021350Y018274D01*
X021304Y018262D01*
X021256Y018253D01*
X021208Y018248D01*
X021160Y018247D01*
X021112Y018250D01*
X021064Y018257D01*
X021017Y018268D01*
X020971Y018282D01*
X020926Y018300D01*
X020883Y018322D01*
X020842Y018347D01*
X020804Y018376D01*
X020767Y018408D01*
X020733Y018442D01*
X020703Y018479D01*
X020675Y018518D01*
X020650Y018560D01*
X020630Y018604D01*
X020612Y018649D01*
X020599Y018695D01*
X020589Y018742D01*
X020583Y018790D01*
X020581Y018838D01*
X019914Y023984D02*
X019916Y024021D01*
X019922Y024058D01*
X019931Y024094D01*
X019945Y024128D01*
X019962Y024161D01*
X019982Y024193D01*
X020005Y024222D01*
X020031Y024248D01*
X020060Y024271D01*
X020091Y024291D01*
X020125Y024308D01*
X020159Y024322D01*
X020195Y024331D01*
X020232Y024337D01*
X020269Y024339D01*
X020306Y024337D01*
X020343Y024331D01*
X020379Y024322D01*
X020413Y024308D01*
X020446Y024291D01*
X020478Y024271D01*
X020507Y024248D01*
X020533Y024222D01*
X020556Y024193D01*
X020576Y024162D01*
X020593Y024128D01*
X020607Y024094D01*
X020616Y024058D01*
X020622Y024021D01*
X020624Y023984D01*
X020622Y023947D01*
X020616Y023910D01*
X020607Y023874D01*
X020593Y023840D01*
X020576Y023807D01*
X020556Y023775D01*
X020533Y023746D01*
X020507Y023720D01*
X020478Y023697D01*
X020447Y023677D01*
X020413Y023660D01*
X020379Y023646D01*
X020343Y023637D01*
X020306Y023631D01*
X020269Y023629D01*
X020232Y023631D01*
X020195Y023637D01*
X020159Y023646D01*
X020125Y023660D01*
X020092Y023677D01*
X020060Y023697D01*
X020031Y023720D01*
X020005Y023746D01*
X019982Y023775D01*
X019962Y023806D01*
X019945Y023840D01*
X019931Y023874D01*
X019922Y023910D01*
X019916Y023947D01*
X019914Y023984D01*
X023454Y023984D02*
X023456Y024021D01*
X023462Y024058D01*
X023471Y024094D01*
X023485Y024128D01*
X023502Y024161D01*
X023522Y024193D01*
X023545Y024222D01*
X023571Y024248D01*
X023600Y024271D01*
X023631Y024291D01*
X023665Y024308D01*
X023699Y024322D01*
X023735Y024331D01*
X023772Y024337D01*
X023809Y024339D01*
X023846Y024337D01*
X023883Y024331D01*
X023919Y024322D01*
X023953Y024308D01*
X023986Y024291D01*
X024018Y024271D01*
X024047Y024248D01*
X024073Y024222D01*
X024096Y024193D01*
X024116Y024162D01*
X024133Y024128D01*
X024147Y024094D01*
X024156Y024058D01*
X024162Y024021D01*
X024164Y023984D01*
X024162Y023947D01*
X024156Y023910D01*
X024147Y023874D01*
X024133Y023840D01*
X024116Y023807D01*
X024096Y023775D01*
X024073Y023746D01*
X024047Y023720D01*
X024018Y023697D01*
X023987Y023677D01*
X023953Y023660D01*
X023919Y023646D01*
X023883Y023637D01*
X023846Y023631D01*
X023809Y023629D01*
X023772Y023631D01*
X023735Y023637D01*
X023699Y023646D01*
X023665Y023660D01*
X023632Y023677D01*
X023600Y023697D01*
X023571Y023720D01*
X023545Y023746D01*
X023522Y023775D01*
X023502Y023806D01*
X023485Y023840D01*
X023471Y023874D01*
X023462Y023910D01*
X023456Y023947D01*
X023454Y023984D01*
X028317Y025754D02*
X028319Y025791D01*
X028325Y025828D01*
X028334Y025864D01*
X028348Y025898D01*
X028365Y025931D01*
X028385Y025963D01*
X028408Y025992D01*
X028434Y026018D01*
X028463Y026041D01*
X028494Y026061D01*
X028528Y026078D01*
X028562Y026092D01*
X028598Y026101D01*
X028635Y026107D01*
X028672Y026109D01*
X028709Y026107D01*
X028746Y026101D01*
X028782Y026092D01*
X028816Y026078D01*
X028849Y026061D01*
X028881Y026041D01*
X028910Y026018D01*
X028936Y025992D01*
X028959Y025963D01*
X028979Y025932D01*
X028996Y025898D01*
X029010Y025864D01*
X029019Y025828D01*
X029025Y025791D01*
X029027Y025754D01*
X029025Y025717D01*
X029019Y025680D01*
X029010Y025644D01*
X028996Y025610D01*
X028979Y025577D01*
X028959Y025545D01*
X028936Y025516D01*
X028910Y025490D01*
X028881Y025467D01*
X028850Y025447D01*
X028816Y025430D01*
X028782Y025416D01*
X028746Y025407D01*
X028709Y025401D01*
X028672Y025399D01*
X028635Y025401D01*
X028598Y025407D01*
X028562Y025416D01*
X028528Y025430D01*
X028495Y025447D01*
X028463Y025467D01*
X028434Y025490D01*
X028408Y025516D01*
X028385Y025545D01*
X028365Y025576D01*
X028348Y025610D01*
X028334Y025644D01*
X028325Y025680D01*
X028319Y025717D01*
X028317Y025754D01*
X028337Y028907D02*
X028339Y028944D01*
X028345Y028981D01*
X028354Y029017D01*
X028368Y029051D01*
X028385Y029084D01*
X028405Y029116D01*
X028428Y029145D01*
X028454Y029171D01*
X028483Y029194D01*
X028514Y029214D01*
X028548Y029231D01*
X028582Y029245D01*
X028618Y029254D01*
X028655Y029260D01*
X028692Y029262D01*
X028729Y029260D01*
X028766Y029254D01*
X028802Y029245D01*
X028836Y029231D01*
X028869Y029214D01*
X028901Y029194D01*
X028930Y029171D01*
X028956Y029145D01*
X028979Y029116D01*
X028999Y029085D01*
X029016Y029051D01*
X029030Y029017D01*
X029039Y028981D01*
X029045Y028944D01*
X029047Y028907D01*
X029045Y028870D01*
X029039Y028833D01*
X029030Y028797D01*
X029016Y028763D01*
X028999Y028730D01*
X028979Y028698D01*
X028956Y028669D01*
X028930Y028643D01*
X028901Y028620D01*
X028870Y028600D01*
X028836Y028583D01*
X028802Y028569D01*
X028766Y028560D01*
X028729Y028554D01*
X028692Y028552D01*
X028655Y028554D01*
X028618Y028560D01*
X028582Y028569D01*
X028548Y028583D01*
X028515Y028600D01*
X028483Y028620D01*
X028454Y028643D01*
X028428Y028669D01*
X028405Y028698D01*
X028385Y028729D01*
X028368Y028763D01*
X028354Y028797D01*
X028345Y028833D01*
X028339Y028870D01*
X028337Y028907D01*
X028337Y032447D02*
X028339Y032484D01*
X028345Y032521D01*
X028354Y032557D01*
X028368Y032591D01*
X028385Y032624D01*
X028405Y032656D01*
X028428Y032685D01*
X028454Y032711D01*
X028483Y032734D01*
X028514Y032754D01*
X028548Y032771D01*
X028582Y032785D01*
X028618Y032794D01*
X028655Y032800D01*
X028692Y032802D01*
X028729Y032800D01*
X028766Y032794D01*
X028802Y032785D01*
X028836Y032771D01*
X028869Y032754D01*
X028901Y032734D01*
X028930Y032711D01*
X028956Y032685D01*
X028979Y032656D01*
X028999Y032625D01*
X029016Y032591D01*
X029030Y032557D01*
X029039Y032521D01*
X029045Y032484D01*
X029047Y032447D01*
X029045Y032410D01*
X029039Y032373D01*
X029030Y032337D01*
X029016Y032303D01*
X028999Y032270D01*
X028979Y032238D01*
X028956Y032209D01*
X028930Y032183D01*
X028901Y032160D01*
X028870Y032140D01*
X028836Y032123D01*
X028802Y032109D01*
X028766Y032100D01*
X028729Y032094D01*
X028692Y032092D01*
X028655Y032094D01*
X028618Y032100D01*
X028582Y032109D01*
X028548Y032123D01*
X028515Y032140D01*
X028483Y032160D01*
X028454Y032183D01*
X028428Y032209D01*
X028405Y032238D01*
X028385Y032269D01*
X028368Y032303D01*
X028354Y032337D01*
X028345Y032373D01*
X028339Y032410D01*
X028337Y032447D01*
X028318Y034752D02*
X028320Y034771D01*
X028325Y034790D01*
X028335Y034806D01*
X028347Y034821D01*
X028362Y034833D01*
X028378Y034843D01*
X028397Y034848D01*
X028416Y034850D01*
X028435Y034848D01*
X028454Y034843D01*
X028470Y034833D01*
X028485Y034821D01*
X028497Y034806D01*
X028507Y034790D01*
X028512Y034771D01*
X028514Y034752D01*
X028512Y034733D01*
X028507Y034714D01*
X028497Y034698D01*
X028485Y034683D01*
X028470Y034671D01*
X028454Y034661D01*
X028435Y034656D01*
X028416Y034654D01*
X028397Y034656D01*
X028378Y034661D01*
X028362Y034671D01*
X028347Y034683D01*
X028335Y034698D01*
X028325Y034714D01*
X028320Y034733D01*
X028318Y034752D01*
X027964Y034752D02*
X027966Y034771D01*
X027971Y034790D01*
X027981Y034806D01*
X027993Y034821D01*
X028008Y034833D01*
X028024Y034843D01*
X028043Y034848D01*
X028062Y034850D01*
X028081Y034848D01*
X028100Y034843D01*
X028116Y034833D01*
X028131Y034821D01*
X028143Y034806D01*
X028153Y034790D01*
X028158Y034771D01*
X028160Y034752D01*
X028158Y034733D01*
X028153Y034714D01*
X028143Y034698D01*
X028131Y034683D01*
X028116Y034671D01*
X028100Y034661D01*
X028081Y034656D01*
X028062Y034654D01*
X028043Y034656D01*
X028024Y034661D01*
X028008Y034671D01*
X027993Y034683D01*
X027981Y034698D01*
X027971Y034714D01*
X027966Y034733D01*
X027964Y034752D01*
X027315Y034752D02*
X027317Y034771D01*
X027322Y034790D01*
X027332Y034806D01*
X027344Y034821D01*
X027359Y034833D01*
X027375Y034843D01*
X027394Y034848D01*
X027413Y034850D01*
X027432Y034848D01*
X027451Y034843D01*
X027467Y034833D01*
X027482Y034821D01*
X027494Y034806D01*
X027504Y034790D01*
X027509Y034771D01*
X027511Y034752D01*
X027509Y034733D01*
X027504Y034714D01*
X027494Y034698D01*
X027482Y034683D01*
X027467Y034671D01*
X027451Y034661D01*
X027432Y034656D01*
X027413Y034654D01*
X027394Y034656D01*
X027375Y034661D01*
X027359Y034671D01*
X027344Y034683D01*
X027332Y034698D01*
X027322Y034714D01*
X027317Y034733D01*
X027315Y034752D01*
X026960Y034752D02*
X026962Y034771D01*
X026967Y034790D01*
X026977Y034806D01*
X026989Y034821D01*
X027004Y034833D01*
X027020Y034843D01*
X027039Y034848D01*
X027058Y034850D01*
X027077Y034848D01*
X027096Y034843D01*
X027112Y034833D01*
X027127Y034821D01*
X027139Y034806D01*
X027149Y034790D01*
X027154Y034771D01*
X027156Y034752D01*
X027154Y034733D01*
X027149Y034714D01*
X027139Y034698D01*
X027127Y034683D01*
X027112Y034671D01*
X027096Y034661D01*
X027077Y034656D01*
X027058Y034654D01*
X027039Y034656D01*
X027020Y034661D01*
X027004Y034671D01*
X026989Y034683D01*
X026977Y034698D01*
X026967Y034714D01*
X026962Y034733D01*
X026960Y034752D01*
X026173Y034752D02*
X026175Y034771D01*
X026180Y034790D01*
X026190Y034806D01*
X026202Y034821D01*
X026217Y034833D01*
X026233Y034843D01*
X026252Y034848D01*
X026271Y034850D01*
X026290Y034848D01*
X026309Y034843D01*
X026325Y034833D01*
X026340Y034821D01*
X026352Y034806D01*
X026362Y034790D01*
X026367Y034771D01*
X026369Y034752D01*
X026367Y034733D01*
X026362Y034714D01*
X026352Y034698D01*
X026340Y034683D01*
X026325Y034671D01*
X026309Y034661D01*
X026290Y034656D01*
X026271Y034654D01*
X026252Y034656D01*
X026233Y034661D01*
X026217Y034671D01*
X026202Y034683D01*
X026190Y034698D01*
X026180Y034714D01*
X026175Y034733D01*
X026173Y034752D01*
X025385Y034752D02*
X025387Y034771D01*
X025392Y034790D01*
X025402Y034806D01*
X025414Y034821D01*
X025429Y034833D01*
X025445Y034843D01*
X025464Y034848D01*
X025483Y034850D01*
X025502Y034848D01*
X025521Y034843D01*
X025537Y034833D01*
X025552Y034821D01*
X025564Y034806D01*
X025574Y034790D01*
X025579Y034771D01*
X025581Y034752D01*
X025579Y034733D01*
X025574Y034714D01*
X025564Y034698D01*
X025552Y034683D01*
X025537Y034671D01*
X025521Y034661D01*
X025502Y034656D01*
X025483Y034654D01*
X025464Y034656D01*
X025445Y034661D01*
X025429Y034671D01*
X025414Y034683D01*
X025402Y034698D01*
X025392Y034714D01*
X025387Y034733D01*
X025385Y034752D01*
X024598Y034752D02*
X024600Y034771D01*
X024605Y034790D01*
X024615Y034806D01*
X024627Y034821D01*
X024642Y034833D01*
X024658Y034843D01*
X024677Y034848D01*
X024696Y034850D01*
X024715Y034848D01*
X024734Y034843D01*
X024750Y034833D01*
X024765Y034821D01*
X024777Y034806D01*
X024787Y034790D01*
X024792Y034771D01*
X024794Y034752D01*
X024792Y034733D01*
X024787Y034714D01*
X024777Y034698D01*
X024765Y034683D01*
X024750Y034671D01*
X024734Y034661D01*
X024715Y034656D01*
X024696Y034654D01*
X024677Y034656D01*
X024658Y034661D01*
X024642Y034671D01*
X024627Y034683D01*
X024615Y034698D01*
X024605Y034714D01*
X024600Y034733D01*
X024598Y034752D01*
X023811Y034752D02*
X023813Y034771D01*
X023818Y034790D01*
X023828Y034806D01*
X023840Y034821D01*
X023855Y034833D01*
X023871Y034843D01*
X023890Y034848D01*
X023909Y034850D01*
X023928Y034848D01*
X023947Y034843D01*
X023963Y034833D01*
X023978Y034821D01*
X023990Y034806D01*
X024000Y034790D01*
X024005Y034771D01*
X024007Y034752D01*
X024005Y034733D01*
X024000Y034714D01*
X023990Y034698D01*
X023978Y034683D01*
X023963Y034671D01*
X023947Y034661D01*
X023928Y034656D01*
X023909Y034654D01*
X023890Y034656D01*
X023871Y034661D01*
X023855Y034671D01*
X023840Y034683D01*
X023828Y034698D01*
X023818Y034714D01*
X023813Y034733D01*
X023811Y034752D01*
X023023Y034752D02*
X023025Y034771D01*
X023030Y034790D01*
X023040Y034806D01*
X023052Y034821D01*
X023067Y034833D01*
X023083Y034843D01*
X023102Y034848D01*
X023121Y034850D01*
X023140Y034848D01*
X023159Y034843D01*
X023175Y034833D01*
X023190Y034821D01*
X023202Y034806D01*
X023212Y034790D01*
X023217Y034771D01*
X023219Y034752D01*
X023217Y034733D01*
X023212Y034714D01*
X023202Y034698D01*
X023190Y034683D01*
X023175Y034671D01*
X023159Y034661D01*
X023140Y034656D01*
X023121Y034654D01*
X023102Y034656D01*
X023083Y034661D01*
X023067Y034671D01*
X023052Y034683D01*
X023040Y034698D01*
X023030Y034714D01*
X023025Y034733D01*
X023023Y034752D01*
X022630Y034752D02*
X022632Y034771D01*
X022637Y034790D01*
X022647Y034806D01*
X022659Y034821D01*
X022674Y034833D01*
X022690Y034843D01*
X022709Y034848D01*
X022728Y034850D01*
X022747Y034848D01*
X022766Y034843D01*
X022782Y034833D01*
X022797Y034821D01*
X022809Y034806D01*
X022819Y034790D01*
X022824Y034771D01*
X022826Y034752D01*
X022824Y034733D01*
X022819Y034714D01*
X022809Y034698D01*
X022797Y034683D01*
X022782Y034671D01*
X022766Y034661D01*
X022747Y034656D01*
X022728Y034654D01*
X022709Y034656D01*
X022690Y034661D01*
X022674Y034671D01*
X022659Y034683D01*
X022647Y034698D01*
X022637Y034714D01*
X022632Y034733D01*
X022630Y034752D01*
X022236Y034752D02*
X022238Y034771D01*
X022243Y034790D01*
X022253Y034806D01*
X022265Y034821D01*
X022280Y034833D01*
X022296Y034843D01*
X022315Y034848D01*
X022334Y034850D01*
X022353Y034848D01*
X022372Y034843D01*
X022388Y034833D01*
X022403Y034821D01*
X022415Y034806D01*
X022425Y034790D01*
X022430Y034771D01*
X022432Y034752D01*
X022430Y034733D01*
X022425Y034714D01*
X022415Y034698D01*
X022403Y034683D01*
X022388Y034671D01*
X022372Y034661D01*
X022353Y034656D01*
X022334Y034654D01*
X022315Y034656D01*
X022296Y034661D01*
X022280Y034671D01*
X022265Y034683D01*
X022253Y034698D01*
X022243Y034714D01*
X022238Y034733D01*
X022236Y034752D01*
X021842Y034752D02*
X021844Y034771D01*
X021849Y034790D01*
X021859Y034806D01*
X021871Y034821D01*
X021886Y034833D01*
X021902Y034843D01*
X021921Y034848D01*
X021940Y034850D01*
X021959Y034848D01*
X021978Y034843D01*
X021994Y034833D01*
X022009Y034821D01*
X022021Y034806D01*
X022031Y034790D01*
X022036Y034771D01*
X022038Y034752D01*
X022036Y034733D01*
X022031Y034714D01*
X022021Y034698D01*
X022009Y034683D01*
X021994Y034671D01*
X021978Y034661D01*
X021959Y034656D01*
X021940Y034654D01*
X021921Y034656D01*
X021902Y034661D01*
X021886Y034671D01*
X021871Y034683D01*
X021859Y034698D01*
X021849Y034714D01*
X021844Y034733D01*
X021842Y034752D01*
X021448Y034752D02*
X021450Y034771D01*
X021455Y034790D01*
X021465Y034806D01*
X021477Y034821D01*
X021492Y034833D01*
X021508Y034843D01*
X021527Y034848D01*
X021546Y034850D01*
X021565Y034848D01*
X021584Y034843D01*
X021600Y034833D01*
X021615Y034821D01*
X021627Y034806D01*
X021637Y034790D01*
X021642Y034771D01*
X021644Y034752D01*
X021642Y034733D01*
X021637Y034714D01*
X021627Y034698D01*
X021615Y034683D01*
X021600Y034671D01*
X021584Y034661D01*
X021565Y034656D01*
X021546Y034654D01*
X021527Y034656D01*
X021508Y034661D01*
X021492Y034671D01*
X021477Y034683D01*
X021465Y034698D01*
X021455Y034714D01*
X021450Y034733D01*
X021448Y034752D01*
X021055Y034752D02*
X021057Y034771D01*
X021062Y034790D01*
X021072Y034806D01*
X021084Y034821D01*
X021099Y034833D01*
X021115Y034843D01*
X021134Y034848D01*
X021153Y034850D01*
X021172Y034848D01*
X021191Y034843D01*
X021207Y034833D01*
X021222Y034821D01*
X021234Y034806D01*
X021244Y034790D01*
X021249Y034771D01*
X021251Y034752D01*
X021249Y034733D01*
X021244Y034714D01*
X021234Y034698D01*
X021222Y034683D01*
X021207Y034671D01*
X021191Y034661D01*
X021172Y034656D01*
X021153Y034654D01*
X021134Y034656D01*
X021115Y034661D01*
X021099Y034671D01*
X021084Y034683D01*
X021072Y034698D01*
X021062Y034714D01*
X021057Y034733D01*
X021055Y034752D01*
X020661Y034752D02*
X020663Y034771D01*
X020668Y034790D01*
X020678Y034806D01*
X020690Y034821D01*
X020705Y034833D01*
X020721Y034843D01*
X020740Y034848D01*
X020759Y034850D01*
X020778Y034848D01*
X020797Y034843D01*
X020813Y034833D01*
X020828Y034821D01*
X020840Y034806D01*
X020850Y034790D01*
X020855Y034771D01*
X020857Y034752D01*
X020855Y034733D01*
X020850Y034714D01*
X020840Y034698D01*
X020828Y034683D01*
X020813Y034671D01*
X020797Y034661D01*
X020778Y034656D01*
X020759Y034654D01*
X020740Y034656D01*
X020721Y034661D01*
X020705Y034671D01*
X020690Y034683D01*
X020678Y034698D01*
X020668Y034714D01*
X020663Y034733D01*
X020661Y034752D01*
X020267Y034752D02*
X020269Y034771D01*
X020274Y034790D01*
X020284Y034806D01*
X020296Y034821D01*
X020311Y034833D01*
X020327Y034843D01*
X020346Y034848D01*
X020365Y034850D01*
X020384Y034848D01*
X020403Y034843D01*
X020419Y034833D01*
X020434Y034821D01*
X020446Y034806D01*
X020456Y034790D01*
X020461Y034771D01*
X020463Y034752D01*
X020461Y034733D01*
X020456Y034714D01*
X020446Y034698D01*
X020434Y034683D01*
X020419Y034671D01*
X020403Y034661D01*
X020384Y034656D01*
X020365Y034654D01*
X020346Y034656D01*
X020327Y034661D01*
X020311Y034671D01*
X020296Y034683D01*
X020284Y034698D01*
X020274Y034714D01*
X020269Y034733D01*
X020267Y034752D01*
X019874Y034752D02*
X019876Y034771D01*
X019881Y034790D01*
X019891Y034806D01*
X019903Y034821D01*
X019918Y034833D01*
X019934Y034843D01*
X019953Y034848D01*
X019972Y034850D01*
X019991Y034848D01*
X020010Y034843D01*
X020026Y034833D01*
X020041Y034821D01*
X020053Y034806D01*
X020063Y034790D01*
X020068Y034771D01*
X020070Y034752D01*
X020068Y034733D01*
X020063Y034714D01*
X020053Y034698D01*
X020041Y034683D01*
X020026Y034671D01*
X020010Y034661D01*
X019991Y034656D01*
X019972Y034654D01*
X019953Y034656D01*
X019934Y034661D01*
X019918Y034671D01*
X019903Y034683D01*
X019891Y034698D01*
X019881Y034714D01*
X019876Y034733D01*
X019874Y034752D01*
X019480Y034752D02*
X019482Y034771D01*
X019487Y034790D01*
X019497Y034806D01*
X019509Y034821D01*
X019524Y034833D01*
X019540Y034843D01*
X019559Y034848D01*
X019578Y034850D01*
X019597Y034848D01*
X019616Y034843D01*
X019632Y034833D01*
X019647Y034821D01*
X019659Y034806D01*
X019669Y034790D01*
X019674Y034771D01*
X019676Y034752D01*
X019674Y034733D01*
X019669Y034714D01*
X019659Y034698D01*
X019647Y034683D01*
X019632Y034671D01*
X019616Y034661D01*
X019597Y034656D01*
X019578Y034654D01*
X019559Y034656D01*
X019540Y034661D01*
X019524Y034671D01*
X019509Y034683D01*
X019497Y034698D01*
X019487Y034714D01*
X019482Y034733D01*
X019480Y034752D01*
X019086Y034752D02*
X019088Y034771D01*
X019093Y034790D01*
X019103Y034806D01*
X019115Y034821D01*
X019130Y034833D01*
X019146Y034843D01*
X019165Y034848D01*
X019184Y034850D01*
X019203Y034848D01*
X019222Y034843D01*
X019238Y034833D01*
X019253Y034821D01*
X019265Y034806D01*
X019275Y034790D01*
X019280Y034771D01*
X019282Y034752D01*
X019280Y034733D01*
X019275Y034714D01*
X019265Y034698D01*
X019253Y034683D01*
X019238Y034671D01*
X019222Y034661D01*
X019203Y034656D01*
X019184Y034654D01*
X019165Y034656D01*
X019146Y034661D01*
X019130Y034671D01*
X019115Y034683D01*
X019103Y034698D01*
X019093Y034714D01*
X019088Y034733D01*
X019086Y034752D01*
X018692Y034752D02*
X018694Y034771D01*
X018699Y034790D01*
X018709Y034806D01*
X018721Y034821D01*
X018736Y034833D01*
X018752Y034843D01*
X018771Y034848D01*
X018790Y034850D01*
X018809Y034848D01*
X018828Y034843D01*
X018844Y034833D01*
X018859Y034821D01*
X018871Y034806D01*
X018881Y034790D01*
X018886Y034771D01*
X018888Y034752D01*
X018886Y034733D01*
X018881Y034714D01*
X018871Y034698D01*
X018859Y034683D01*
X018844Y034671D01*
X018828Y034661D01*
X018809Y034656D01*
X018790Y034654D01*
X018771Y034656D01*
X018752Y034661D01*
X018736Y034671D01*
X018721Y034683D01*
X018709Y034698D01*
X018699Y034714D01*
X018694Y034733D01*
X018692Y034752D01*
X019794Y036653D02*
X019796Y036701D01*
X019802Y036749D01*
X019812Y036796D01*
X019825Y036842D01*
X019843Y036887D01*
X019863Y036931D01*
X019888Y036973D01*
X019916Y037012D01*
X019946Y037049D01*
X019980Y037083D01*
X020017Y037115D01*
X020055Y037144D01*
X020096Y037169D01*
X020139Y037191D01*
X020184Y037209D01*
X020230Y037223D01*
X020277Y037234D01*
X020325Y037241D01*
X020373Y037244D01*
X020421Y037243D01*
X020469Y037238D01*
X020517Y037229D01*
X020563Y037217D01*
X020608Y037200D01*
X020652Y037180D01*
X020694Y037157D01*
X020734Y037130D01*
X020772Y037100D01*
X020807Y037067D01*
X020839Y037031D01*
X020869Y036993D01*
X020895Y036952D01*
X020917Y036909D01*
X020937Y036865D01*
X020952Y036820D01*
X020964Y036773D01*
X020972Y036725D01*
X020976Y036677D01*
X020976Y036629D01*
X020972Y036581D01*
X020964Y036533D01*
X020952Y036486D01*
X020937Y036441D01*
X020917Y036397D01*
X020895Y036354D01*
X020869Y036313D01*
X020839Y036275D01*
X020807Y036239D01*
X020772Y036206D01*
X020734Y036176D01*
X020694Y036149D01*
X020652Y036126D01*
X020608Y036106D01*
X020563Y036089D01*
X020517Y036077D01*
X020469Y036068D01*
X020421Y036063D01*
X020373Y036062D01*
X020325Y036065D01*
X020277Y036072D01*
X020230Y036083D01*
X020184Y036097D01*
X020139Y036115D01*
X020096Y036137D01*
X020055Y036162D01*
X020017Y036191D01*
X019980Y036223D01*
X019946Y036257D01*
X019916Y036294D01*
X019888Y036333D01*
X019863Y036375D01*
X019843Y036419D01*
X019825Y036464D01*
X019812Y036510D01*
X019802Y036557D01*
X019796Y036605D01*
X019794Y036653D01*
X020581Y031850D02*
X020583Y031898D01*
X020589Y031946D01*
X020599Y031993D01*
X020612Y032039D01*
X020630Y032084D01*
X020650Y032128D01*
X020675Y032170D01*
X020703Y032209D01*
X020733Y032246D01*
X020767Y032280D01*
X020804Y032312D01*
X020842Y032341D01*
X020883Y032366D01*
X020926Y032388D01*
X020971Y032406D01*
X021017Y032420D01*
X021064Y032431D01*
X021112Y032438D01*
X021160Y032441D01*
X021208Y032440D01*
X021256Y032435D01*
X021304Y032426D01*
X021350Y032414D01*
X021395Y032397D01*
X021439Y032377D01*
X021481Y032354D01*
X021521Y032327D01*
X021559Y032297D01*
X021594Y032264D01*
X021626Y032228D01*
X021656Y032190D01*
X021682Y032149D01*
X021704Y032106D01*
X021724Y032062D01*
X021739Y032017D01*
X021751Y031970D01*
X021759Y031922D01*
X021763Y031874D01*
X021763Y031826D01*
X021759Y031778D01*
X021751Y031730D01*
X021739Y031683D01*
X021724Y031638D01*
X021704Y031594D01*
X021682Y031551D01*
X021656Y031510D01*
X021626Y031472D01*
X021594Y031436D01*
X021559Y031403D01*
X021521Y031373D01*
X021481Y031346D01*
X021439Y031323D01*
X021395Y031303D01*
X021350Y031286D01*
X021304Y031274D01*
X021256Y031265D01*
X021208Y031260D01*
X021160Y031259D01*
X021112Y031262D01*
X021064Y031269D01*
X021017Y031280D01*
X020971Y031294D01*
X020926Y031312D01*
X020883Y031334D01*
X020842Y031359D01*
X020804Y031388D01*
X020767Y031420D01*
X020733Y031454D01*
X020703Y031491D01*
X020675Y031530D01*
X020650Y031572D01*
X020630Y031616D01*
X020612Y031661D01*
X020599Y031707D01*
X020589Y031754D01*
X020583Y031802D01*
X020581Y031850D01*
X028317Y022214D02*
X028319Y022251D01*
X028325Y022288D01*
X028334Y022324D01*
X028348Y022358D01*
X028365Y022391D01*
X028385Y022423D01*
X028408Y022452D01*
X028434Y022478D01*
X028463Y022501D01*
X028494Y022521D01*
X028528Y022538D01*
X028562Y022552D01*
X028598Y022561D01*
X028635Y022567D01*
X028672Y022569D01*
X028709Y022567D01*
X028746Y022561D01*
X028782Y022552D01*
X028816Y022538D01*
X028849Y022521D01*
X028881Y022501D01*
X028910Y022478D01*
X028936Y022452D01*
X028959Y022423D01*
X028979Y022392D01*
X028996Y022358D01*
X029010Y022324D01*
X029019Y022288D01*
X029025Y022251D01*
X029027Y022214D01*
X029025Y022177D01*
X029019Y022140D01*
X029010Y022104D01*
X028996Y022070D01*
X028979Y022037D01*
X028959Y022005D01*
X028936Y021976D01*
X028910Y021950D01*
X028881Y021927D01*
X028850Y021907D01*
X028816Y021890D01*
X028782Y021876D01*
X028746Y021867D01*
X028709Y021861D01*
X028672Y021859D01*
X028635Y021861D01*
X028598Y021867D01*
X028562Y021876D01*
X028528Y021890D01*
X028495Y021907D01*
X028463Y021927D01*
X028434Y021950D01*
X028408Y021976D01*
X028385Y022005D01*
X028365Y022036D01*
X028348Y022070D01*
X028334Y022104D01*
X028325Y022140D01*
X028319Y022177D01*
X028317Y022214D01*
X028317Y019120D02*
X028319Y019157D01*
X028325Y019194D01*
X028334Y019230D01*
X028348Y019264D01*
X028365Y019297D01*
X028385Y019329D01*
X028408Y019358D01*
X028434Y019384D01*
X028463Y019407D01*
X028494Y019427D01*
X028528Y019444D01*
X028562Y019458D01*
X028598Y019467D01*
X028635Y019473D01*
X028672Y019475D01*
X028709Y019473D01*
X028746Y019467D01*
X028782Y019458D01*
X028816Y019444D01*
X028849Y019427D01*
X028881Y019407D01*
X028910Y019384D01*
X028936Y019358D01*
X028959Y019329D01*
X028979Y019298D01*
X028996Y019264D01*
X029010Y019230D01*
X029019Y019194D01*
X029025Y019157D01*
X029027Y019120D01*
X029025Y019083D01*
X029019Y019046D01*
X029010Y019010D01*
X028996Y018976D01*
X028979Y018943D01*
X028959Y018911D01*
X028936Y018882D01*
X028910Y018856D01*
X028881Y018833D01*
X028850Y018813D01*
X028816Y018796D01*
X028782Y018782D01*
X028746Y018773D01*
X028709Y018767D01*
X028672Y018765D01*
X028635Y018767D01*
X028598Y018773D01*
X028562Y018782D01*
X028528Y018796D01*
X028495Y018813D01*
X028463Y018833D01*
X028434Y018856D01*
X028408Y018882D01*
X028385Y018911D01*
X028365Y018942D01*
X028348Y018976D01*
X028334Y019010D01*
X028325Y019046D01*
X028319Y019083D01*
X028317Y019120D01*
X028317Y015580D02*
X028319Y015617D01*
X028325Y015654D01*
X028334Y015690D01*
X028348Y015724D01*
X028365Y015757D01*
X028385Y015789D01*
X028408Y015818D01*
X028434Y015844D01*
X028463Y015867D01*
X028494Y015887D01*
X028528Y015904D01*
X028562Y015918D01*
X028598Y015927D01*
X028635Y015933D01*
X028672Y015935D01*
X028709Y015933D01*
X028746Y015927D01*
X028782Y015918D01*
X028816Y015904D01*
X028849Y015887D01*
X028881Y015867D01*
X028910Y015844D01*
X028936Y015818D01*
X028959Y015789D01*
X028979Y015758D01*
X028996Y015724D01*
X029010Y015690D01*
X029019Y015654D01*
X029025Y015617D01*
X029027Y015580D01*
X029025Y015543D01*
X029019Y015506D01*
X029010Y015470D01*
X028996Y015436D01*
X028979Y015403D01*
X028959Y015371D01*
X028936Y015342D01*
X028910Y015316D01*
X028881Y015293D01*
X028850Y015273D01*
X028816Y015256D01*
X028782Y015242D01*
X028746Y015233D01*
X028709Y015227D01*
X028672Y015225D01*
X028635Y015227D01*
X028598Y015233D01*
X028562Y015242D01*
X028528Y015256D01*
X028495Y015273D01*
X028463Y015293D01*
X028434Y015316D01*
X028408Y015342D01*
X028385Y015371D01*
X028365Y015402D01*
X028348Y015436D01*
X028334Y015470D01*
X028325Y015506D01*
X028319Y015543D01*
X028317Y015580D01*
X033181Y023984D02*
X033183Y024021D01*
X033189Y024058D01*
X033198Y024094D01*
X033212Y024128D01*
X033229Y024161D01*
X033249Y024193D01*
X033272Y024222D01*
X033298Y024248D01*
X033327Y024271D01*
X033358Y024291D01*
X033392Y024308D01*
X033426Y024322D01*
X033462Y024331D01*
X033499Y024337D01*
X033536Y024339D01*
X033573Y024337D01*
X033610Y024331D01*
X033646Y024322D01*
X033680Y024308D01*
X033713Y024291D01*
X033745Y024271D01*
X033774Y024248D01*
X033800Y024222D01*
X033823Y024193D01*
X033843Y024162D01*
X033860Y024128D01*
X033874Y024094D01*
X033883Y024058D01*
X033889Y024021D01*
X033891Y023984D01*
X033889Y023947D01*
X033883Y023910D01*
X033874Y023874D01*
X033860Y023840D01*
X033843Y023807D01*
X033823Y023775D01*
X033800Y023746D01*
X033774Y023720D01*
X033745Y023697D01*
X033714Y023677D01*
X033680Y023660D01*
X033646Y023646D01*
X033610Y023637D01*
X033573Y023631D01*
X033536Y023629D01*
X033499Y023631D01*
X033462Y023637D01*
X033426Y023646D01*
X033392Y023660D01*
X033359Y023677D01*
X033327Y023697D01*
X033298Y023720D01*
X033272Y023746D01*
X033249Y023775D01*
X033229Y023806D01*
X033212Y023840D01*
X033198Y023874D01*
X033189Y023910D01*
X033183Y023947D01*
X033181Y023984D01*
X036721Y023984D02*
X036723Y024021D01*
X036729Y024058D01*
X036738Y024094D01*
X036752Y024128D01*
X036769Y024161D01*
X036789Y024193D01*
X036812Y024222D01*
X036838Y024248D01*
X036867Y024271D01*
X036898Y024291D01*
X036932Y024308D01*
X036966Y024322D01*
X037002Y024331D01*
X037039Y024337D01*
X037076Y024339D01*
X037113Y024337D01*
X037150Y024331D01*
X037186Y024322D01*
X037220Y024308D01*
X037253Y024291D01*
X037285Y024271D01*
X037314Y024248D01*
X037340Y024222D01*
X037363Y024193D01*
X037383Y024162D01*
X037400Y024128D01*
X037414Y024094D01*
X037423Y024058D01*
X037429Y024021D01*
X037431Y023984D01*
X037429Y023947D01*
X037423Y023910D01*
X037414Y023874D01*
X037400Y023840D01*
X037383Y023807D01*
X037363Y023775D01*
X037340Y023746D01*
X037314Y023720D01*
X037285Y023697D01*
X037254Y023677D01*
X037220Y023660D01*
X037186Y023646D01*
X037150Y023637D01*
X037113Y023631D01*
X037076Y023629D01*
X037039Y023631D01*
X037002Y023637D01*
X036966Y023646D01*
X036932Y023660D01*
X036899Y023677D01*
X036867Y023697D01*
X036838Y023720D01*
X036812Y023746D01*
X036789Y023775D01*
X036769Y023806D01*
X036752Y023840D01*
X036738Y023874D01*
X036729Y023910D01*
X036723Y023947D01*
X036721Y023984D01*
X035581Y018838D02*
X035583Y018886D01*
X035589Y018934D01*
X035599Y018981D01*
X035612Y019027D01*
X035630Y019072D01*
X035650Y019116D01*
X035675Y019158D01*
X035703Y019197D01*
X035733Y019234D01*
X035767Y019268D01*
X035804Y019300D01*
X035842Y019329D01*
X035883Y019354D01*
X035926Y019376D01*
X035971Y019394D01*
X036017Y019408D01*
X036064Y019419D01*
X036112Y019426D01*
X036160Y019429D01*
X036208Y019428D01*
X036256Y019423D01*
X036304Y019414D01*
X036350Y019402D01*
X036395Y019385D01*
X036439Y019365D01*
X036481Y019342D01*
X036521Y019315D01*
X036559Y019285D01*
X036594Y019252D01*
X036626Y019216D01*
X036656Y019178D01*
X036682Y019137D01*
X036704Y019094D01*
X036724Y019050D01*
X036739Y019005D01*
X036751Y018958D01*
X036759Y018910D01*
X036763Y018862D01*
X036763Y018814D01*
X036759Y018766D01*
X036751Y018718D01*
X036739Y018671D01*
X036724Y018626D01*
X036704Y018582D01*
X036682Y018539D01*
X036656Y018498D01*
X036626Y018460D01*
X036594Y018424D01*
X036559Y018391D01*
X036521Y018361D01*
X036481Y018334D01*
X036439Y018311D01*
X036395Y018291D01*
X036350Y018274D01*
X036304Y018262D01*
X036256Y018253D01*
X036208Y018248D01*
X036160Y018247D01*
X036112Y018250D01*
X036064Y018257D01*
X036017Y018268D01*
X035971Y018282D01*
X035926Y018300D01*
X035883Y018322D01*
X035842Y018347D01*
X035804Y018376D01*
X035767Y018408D01*
X035733Y018442D01*
X035703Y018479D01*
X035675Y018518D01*
X035650Y018560D01*
X035630Y018604D01*
X035612Y018649D01*
X035599Y018695D01*
X035589Y018742D01*
X035583Y018790D01*
X035581Y018838D01*
X036074Y031858D02*
X036076Y031906D01*
X036082Y031954D01*
X036092Y032001D01*
X036105Y032047D01*
X036123Y032092D01*
X036143Y032136D01*
X036168Y032178D01*
X036196Y032217D01*
X036226Y032254D01*
X036260Y032288D01*
X036297Y032320D01*
X036335Y032349D01*
X036376Y032374D01*
X036419Y032396D01*
X036464Y032414D01*
X036510Y032428D01*
X036557Y032439D01*
X036605Y032446D01*
X036653Y032449D01*
X036701Y032448D01*
X036749Y032443D01*
X036797Y032434D01*
X036843Y032422D01*
X036888Y032405D01*
X036932Y032385D01*
X036974Y032362D01*
X037014Y032335D01*
X037052Y032305D01*
X037087Y032272D01*
X037119Y032236D01*
X037149Y032198D01*
X037175Y032157D01*
X037197Y032114D01*
X037217Y032070D01*
X037232Y032025D01*
X037244Y031978D01*
X037252Y031930D01*
X037256Y031882D01*
X037256Y031834D01*
X037252Y031786D01*
X037244Y031738D01*
X037232Y031691D01*
X037217Y031646D01*
X037197Y031602D01*
X037175Y031559D01*
X037149Y031518D01*
X037119Y031480D01*
X037087Y031444D01*
X037052Y031411D01*
X037014Y031381D01*
X036974Y031354D01*
X036932Y031331D01*
X036888Y031311D01*
X036843Y031294D01*
X036797Y031282D01*
X036749Y031273D01*
X036701Y031268D01*
X036653Y031267D01*
X036605Y031270D01*
X036557Y031277D01*
X036510Y031288D01*
X036464Y031302D01*
X036419Y031320D01*
X036376Y031342D01*
X036335Y031367D01*
X036297Y031396D01*
X036260Y031428D01*
X036226Y031462D01*
X036196Y031499D01*
X036168Y031538D01*
X036143Y031580D01*
X036123Y031624D01*
X036105Y031669D01*
X036092Y031715D01*
X036082Y031762D01*
X036076Y031810D01*
X036074Y031858D01*
X036114Y034752D02*
X036116Y034771D01*
X036121Y034790D01*
X036131Y034806D01*
X036143Y034821D01*
X036158Y034833D01*
X036174Y034843D01*
X036193Y034848D01*
X036212Y034850D01*
X036231Y034848D01*
X036250Y034843D01*
X036266Y034833D01*
X036281Y034821D01*
X036293Y034806D01*
X036303Y034790D01*
X036308Y034771D01*
X036310Y034752D01*
X036308Y034733D01*
X036303Y034714D01*
X036293Y034698D01*
X036281Y034683D01*
X036266Y034671D01*
X036250Y034661D01*
X036231Y034656D01*
X036212Y034654D01*
X036193Y034656D01*
X036174Y034661D01*
X036158Y034671D01*
X036143Y034683D01*
X036131Y034698D01*
X036121Y034714D01*
X036116Y034733D01*
X036114Y034752D01*
X036567Y034752D02*
X036569Y034771D01*
X036574Y034790D01*
X036584Y034806D01*
X036596Y034821D01*
X036611Y034833D01*
X036627Y034843D01*
X036646Y034848D01*
X036665Y034850D01*
X036684Y034848D01*
X036703Y034843D01*
X036719Y034833D01*
X036734Y034821D01*
X036746Y034806D01*
X036756Y034790D01*
X036761Y034771D01*
X036763Y034752D01*
X036761Y034733D01*
X036756Y034714D01*
X036746Y034698D01*
X036734Y034683D01*
X036719Y034671D01*
X036703Y034661D01*
X036684Y034656D01*
X036665Y034654D01*
X036646Y034656D01*
X036627Y034661D01*
X036611Y034671D01*
X036596Y034683D01*
X036584Y034698D01*
X036574Y034714D01*
X036569Y034733D01*
X036567Y034752D01*
X036960Y034752D02*
X036962Y034771D01*
X036967Y034790D01*
X036977Y034806D01*
X036989Y034821D01*
X037004Y034833D01*
X037020Y034843D01*
X037039Y034848D01*
X037058Y034850D01*
X037077Y034848D01*
X037096Y034843D01*
X037112Y034833D01*
X037127Y034821D01*
X037139Y034806D01*
X037149Y034790D01*
X037154Y034771D01*
X037156Y034752D01*
X037154Y034733D01*
X037149Y034714D01*
X037139Y034698D01*
X037127Y034683D01*
X037112Y034671D01*
X037096Y034661D01*
X037077Y034656D01*
X037058Y034654D01*
X037039Y034656D01*
X037020Y034661D01*
X037004Y034671D01*
X036989Y034683D01*
X036977Y034698D01*
X036967Y034714D01*
X036962Y034733D01*
X036960Y034752D01*
X037315Y034752D02*
X037317Y034771D01*
X037322Y034790D01*
X037332Y034806D01*
X037344Y034821D01*
X037359Y034833D01*
X037375Y034843D01*
X037394Y034848D01*
X037413Y034850D01*
X037432Y034848D01*
X037451Y034843D01*
X037467Y034833D01*
X037482Y034821D01*
X037494Y034806D01*
X037504Y034790D01*
X037509Y034771D01*
X037511Y034752D01*
X037509Y034733D01*
X037504Y034714D01*
X037494Y034698D01*
X037482Y034683D01*
X037467Y034671D01*
X037451Y034661D01*
X037432Y034656D01*
X037413Y034654D01*
X037394Y034656D01*
X037375Y034661D01*
X037359Y034671D01*
X037344Y034683D01*
X037332Y034698D01*
X037322Y034714D01*
X037317Y034733D01*
X037315Y034752D01*
X037708Y034752D02*
X037710Y034771D01*
X037715Y034790D01*
X037725Y034806D01*
X037737Y034821D01*
X037752Y034833D01*
X037768Y034843D01*
X037787Y034848D01*
X037806Y034850D01*
X037825Y034848D01*
X037844Y034843D01*
X037860Y034833D01*
X037875Y034821D01*
X037887Y034806D01*
X037897Y034790D01*
X037902Y034771D01*
X037904Y034752D01*
X037902Y034733D01*
X037897Y034714D01*
X037887Y034698D01*
X037875Y034683D01*
X037860Y034671D01*
X037844Y034661D01*
X037825Y034656D01*
X037806Y034654D01*
X037787Y034656D01*
X037768Y034661D01*
X037752Y034671D01*
X037737Y034683D01*
X037725Y034698D01*
X037715Y034714D01*
X037710Y034733D01*
X037708Y034752D01*
X038102Y034752D02*
X038104Y034771D01*
X038109Y034790D01*
X038119Y034806D01*
X038131Y034821D01*
X038146Y034833D01*
X038162Y034843D01*
X038181Y034848D01*
X038200Y034850D01*
X038219Y034848D01*
X038238Y034843D01*
X038254Y034833D01*
X038269Y034821D01*
X038281Y034806D01*
X038291Y034790D01*
X038296Y034771D01*
X038298Y034752D01*
X038296Y034733D01*
X038291Y034714D01*
X038281Y034698D01*
X038269Y034683D01*
X038254Y034671D01*
X038238Y034661D01*
X038219Y034656D01*
X038200Y034654D01*
X038181Y034656D01*
X038162Y034661D01*
X038146Y034671D01*
X038131Y034683D01*
X038119Y034698D01*
X038109Y034714D01*
X038104Y034733D01*
X038102Y034752D01*
X035326Y034752D02*
X035328Y034771D01*
X035333Y034790D01*
X035343Y034806D01*
X035355Y034821D01*
X035370Y034833D01*
X035386Y034843D01*
X035405Y034848D01*
X035424Y034850D01*
X035443Y034848D01*
X035462Y034843D01*
X035478Y034833D01*
X035493Y034821D01*
X035505Y034806D01*
X035515Y034790D01*
X035520Y034771D01*
X035522Y034752D01*
X035520Y034733D01*
X035515Y034714D01*
X035505Y034698D01*
X035493Y034683D01*
X035478Y034671D01*
X035462Y034661D01*
X035443Y034656D01*
X035424Y034654D01*
X035405Y034656D01*
X035386Y034661D01*
X035370Y034671D01*
X035355Y034683D01*
X035343Y034698D01*
X035333Y034714D01*
X035328Y034733D01*
X035326Y034752D01*
X034972Y034752D02*
X034974Y034771D01*
X034979Y034790D01*
X034989Y034806D01*
X035001Y034821D01*
X035016Y034833D01*
X035032Y034843D01*
X035051Y034848D01*
X035070Y034850D01*
X035089Y034848D01*
X035108Y034843D01*
X035124Y034833D01*
X035139Y034821D01*
X035151Y034806D01*
X035161Y034790D01*
X035166Y034771D01*
X035168Y034752D01*
X035166Y034733D01*
X035161Y034714D01*
X035151Y034698D01*
X035139Y034683D01*
X035124Y034671D01*
X035108Y034661D01*
X035089Y034656D01*
X035070Y034654D01*
X035051Y034656D01*
X035032Y034661D01*
X035016Y034671D01*
X035001Y034683D01*
X034989Y034698D01*
X034979Y034714D01*
X034974Y034733D01*
X034972Y034752D01*
X034322Y034752D02*
X034324Y034771D01*
X034329Y034790D01*
X034339Y034806D01*
X034351Y034821D01*
X034366Y034833D01*
X034382Y034843D01*
X034401Y034848D01*
X034420Y034850D01*
X034439Y034848D01*
X034458Y034843D01*
X034474Y034833D01*
X034489Y034821D01*
X034501Y034806D01*
X034511Y034790D01*
X034516Y034771D01*
X034518Y034752D01*
X034516Y034733D01*
X034511Y034714D01*
X034501Y034698D01*
X034489Y034683D01*
X034474Y034671D01*
X034458Y034661D01*
X034439Y034656D01*
X034420Y034654D01*
X034401Y034656D01*
X034382Y034661D01*
X034366Y034671D01*
X034351Y034683D01*
X034339Y034698D01*
X034329Y034714D01*
X034324Y034733D01*
X034322Y034752D01*
X033968Y034752D02*
X033970Y034771D01*
X033975Y034790D01*
X033985Y034806D01*
X033997Y034821D01*
X034012Y034833D01*
X034028Y034843D01*
X034047Y034848D01*
X034066Y034850D01*
X034085Y034848D01*
X034104Y034843D01*
X034120Y034833D01*
X034135Y034821D01*
X034147Y034806D01*
X034157Y034790D01*
X034162Y034771D01*
X034164Y034752D01*
X034162Y034733D01*
X034157Y034714D01*
X034147Y034698D01*
X034135Y034683D01*
X034120Y034671D01*
X034104Y034661D01*
X034085Y034656D01*
X034066Y034654D01*
X034047Y034656D01*
X034028Y034661D01*
X034012Y034671D01*
X033997Y034683D01*
X033985Y034698D01*
X033975Y034714D01*
X033970Y034733D01*
X033968Y034752D01*
X033318Y034752D02*
X033320Y034771D01*
X033325Y034790D01*
X033335Y034806D01*
X033347Y034821D01*
X033362Y034833D01*
X033378Y034843D01*
X033397Y034848D01*
X033416Y034850D01*
X033435Y034848D01*
X033454Y034843D01*
X033470Y034833D01*
X033485Y034821D01*
X033497Y034806D01*
X033507Y034790D01*
X033512Y034771D01*
X033514Y034752D01*
X033512Y034733D01*
X033507Y034714D01*
X033497Y034698D01*
X033485Y034683D01*
X033470Y034671D01*
X033454Y034661D01*
X033435Y034656D01*
X033416Y034654D01*
X033397Y034656D01*
X033378Y034661D01*
X033362Y034671D01*
X033347Y034683D01*
X033335Y034698D01*
X033325Y034714D01*
X033320Y034733D01*
X033318Y034752D01*
X032964Y034752D02*
X032966Y034771D01*
X032971Y034790D01*
X032981Y034806D01*
X032993Y034821D01*
X033008Y034833D01*
X033024Y034843D01*
X033043Y034848D01*
X033062Y034850D01*
X033081Y034848D01*
X033100Y034843D01*
X033116Y034833D01*
X033131Y034821D01*
X033143Y034806D01*
X033153Y034790D01*
X033158Y034771D01*
X033160Y034752D01*
X033158Y034733D01*
X033153Y034714D01*
X033143Y034698D01*
X033131Y034683D01*
X033116Y034671D01*
X033100Y034661D01*
X033081Y034656D01*
X033062Y034654D01*
X033043Y034656D01*
X033024Y034661D01*
X033008Y034671D01*
X032993Y034683D01*
X032981Y034698D01*
X032971Y034714D01*
X032966Y034733D01*
X032964Y034752D01*
X032315Y034752D02*
X032317Y034771D01*
X032322Y034790D01*
X032332Y034806D01*
X032344Y034821D01*
X032359Y034833D01*
X032375Y034843D01*
X032394Y034848D01*
X032413Y034850D01*
X032432Y034848D01*
X032451Y034843D01*
X032467Y034833D01*
X032482Y034821D01*
X032494Y034806D01*
X032504Y034790D01*
X032509Y034771D01*
X032511Y034752D01*
X032509Y034733D01*
X032504Y034714D01*
X032494Y034698D01*
X032482Y034683D01*
X032467Y034671D01*
X032451Y034661D01*
X032432Y034656D01*
X032413Y034654D01*
X032394Y034656D01*
X032375Y034661D01*
X032359Y034671D01*
X032344Y034683D01*
X032332Y034698D01*
X032322Y034714D01*
X032317Y034733D01*
X032315Y034752D01*
X031960Y034752D02*
X031962Y034771D01*
X031967Y034790D01*
X031977Y034806D01*
X031989Y034821D01*
X032004Y034833D01*
X032020Y034843D01*
X032039Y034848D01*
X032058Y034850D01*
X032077Y034848D01*
X032096Y034843D01*
X032112Y034833D01*
X032127Y034821D01*
X032139Y034806D01*
X032149Y034790D01*
X032154Y034771D01*
X032156Y034752D01*
X032154Y034733D01*
X032149Y034714D01*
X032139Y034698D01*
X032127Y034683D01*
X032112Y034671D01*
X032096Y034661D01*
X032077Y034656D01*
X032058Y034654D01*
X032039Y034656D01*
X032020Y034661D01*
X032004Y034671D01*
X031989Y034683D01*
X031977Y034698D01*
X031967Y034714D01*
X031962Y034733D01*
X031960Y034752D01*
X031330Y034752D02*
X031332Y034771D01*
X031337Y034790D01*
X031347Y034806D01*
X031359Y034821D01*
X031374Y034833D01*
X031390Y034843D01*
X031409Y034848D01*
X031428Y034850D01*
X031447Y034848D01*
X031466Y034843D01*
X031482Y034833D01*
X031497Y034821D01*
X031509Y034806D01*
X031519Y034790D01*
X031524Y034771D01*
X031526Y034752D01*
X031524Y034733D01*
X031519Y034714D01*
X031509Y034698D01*
X031497Y034683D01*
X031482Y034671D01*
X031466Y034661D01*
X031447Y034656D01*
X031428Y034654D01*
X031409Y034656D01*
X031390Y034661D01*
X031374Y034671D01*
X031359Y034683D01*
X031347Y034698D01*
X031337Y034714D01*
X031332Y034733D01*
X031330Y034752D01*
X030976Y034752D02*
X030978Y034771D01*
X030983Y034790D01*
X030993Y034806D01*
X031005Y034821D01*
X031020Y034833D01*
X031036Y034843D01*
X031055Y034848D01*
X031074Y034850D01*
X031093Y034848D01*
X031112Y034843D01*
X031128Y034833D01*
X031143Y034821D01*
X031155Y034806D01*
X031165Y034790D01*
X031170Y034771D01*
X031172Y034752D01*
X031170Y034733D01*
X031165Y034714D01*
X031155Y034698D01*
X031143Y034683D01*
X031128Y034671D01*
X031112Y034661D01*
X031093Y034656D01*
X031074Y034654D01*
X031055Y034656D01*
X031036Y034661D01*
X031020Y034671D01*
X031005Y034683D01*
X030993Y034698D01*
X030983Y034714D01*
X030978Y034733D01*
X030976Y034752D01*
X030189Y034752D02*
X030191Y034771D01*
X030196Y034790D01*
X030206Y034806D01*
X030218Y034821D01*
X030233Y034833D01*
X030249Y034843D01*
X030268Y034848D01*
X030287Y034850D01*
X030306Y034848D01*
X030325Y034843D01*
X030341Y034833D01*
X030356Y034821D01*
X030368Y034806D01*
X030378Y034790D01*
X030383Y034771D01*
X030385Y034752D01*
X030383Y034733D01*
X030378Y034714D01*
X030368Y034698D01*
X030356Y034683D01*
X030341Y034671D01*
X030325Y034661D01*
X030306Y034656D01*
X030287Y034654D01*
X030268Y034656D01*
X030249Y034661D01*
X030233Y034671D01*
X030218Y034683D01*
X030206Y034698D01*
X030196Y034714D01*
X030191Y034733D01*
X030189Y034752D01*
X029795Y034752D02*
X029797Y034771D01*
X029802Y034790D01*
X029812Y034806D01*
X029824Y034821D01*
X029839Y034833D01*
X029855Y034843D01*
X029874Y034848D01*
X029893Y034850D01*
X029912Y034848D01*
X029931Y034843D01*
X029947Y034833D01*
X029962Y034821D01*
X029974Y034806D01*
X029984Y034790D01*
X029989Y034771D01*
X029991Y034752D01*
X029989Y034733D01*
X029984Y034714D01*
X029974Y034698D01*
X029962Y034683D01*
X029947Y034671D01*
X029931Y034661D01*
X029912Y034656D01*
X029893Y034654D01*
X029874Y034656D01*
X029855Y034661D01*
X029839Y034671D01*
X029824Y034683D01*
X029812Y034698D01*
X029802Y034714D01*
X029797Y034733D01*
X029795Y034752D01*
X029401Y034752D02*
X029403Y034771D01*
X029408Y034790D01*
X029418Y034806D01*
X029430Y034821D01*
X029445Y034833D01*
X029461Y034843D01*
X029480Y034848D01*
X029499Y034850D01*
X029518Y034848D01*
X029537Y034843D01*
X029553Y034833D01*
X029568Y034821D01*
X029580Y034806D01*
X029590Y034790D01*
X029595Y034771D01*
X029597Y034752D01*
X029595Y034733D01*
X029590Y034714D01*
X029580Y034698D01*
X029568Y034683D01*
X029553Y034671D01*
X029537Y034661D01*
X029518Y034656D01*
X029499Y034654D01*
X029480Y034656D01*
X029461Y034661D01*
X029445Y034671D01*
X029430Y034683D01*
X029418Y034698D01*
X029408Y034714D01*
X029403Y034733D01*
X029401Y034752D01*
X029007Y034752D02*
X029009Y034771D01*
X029014Y034790D01*
X029024Y034806D01*
X029036Y034821D01*
X029051Y034833D01*
X029067Y034843D01*
X029086Y034848D01*
X029105Y034850D01*
X029124Y034848D01*
X029143Y034843D01*
X029159Y034833D01*
X029174Y034821D01*
X029186Y034806D01*
X029196Y034790D01*
X029201Y034771D01*
X029203Y034752D01*
X029201Y034733D01*
X029196Y034714D01*
X029186Y034698D01*
X029174Y034683D01*
X029159Y034671D01*
X029143Y034661D01*
X029124Y034656D01*
X029105Y034654D01*
X029086Y034656D01*
X029067Y034661D01*
X029051Y034671D01*
X029036Y034683D01*
X029024Y034698D01*
X029014Y034714D01*
X029009Y034733D01*
X029007Y034752D01*
X020581Y049947D02*
X020583Y049995D01*
X020589Y050043D01*
X020599Y050090D01*
X020612Y050136D01*
X020630Y050181D01*
X020650Y050225D01*
X020675Y050267D01*
X020703Y050306D01*
X020733Y050343D01*
X020767Y050377D01*
X020804Y050409D01*
X020842Y050438D01*
X020883Y050463D01*
X020926Y050485D01*
X020971Y050503D01*
X021017Y050517D01*
X021064Y050528D01*
X021112Y050535D01*
X021160Y050538D01*
X021208Y050537D01*
X021256Y050532D01*
X021304Y050523D01*
X021350Y050511D01*
X021395Y050494D01*
X021439Y050474D01*
X021481Y050451D01*
X021521Y050424D01*
X021559Y050394D01*
X021594Y050361D01*
X021626Y050325D01*
X021656Y050287D01*
X021682Y050246D01*
X021704Y050203D01*
X021724Y050159D01*
X021739Y050114D01*
X021751Y050067D01*
X021759Y050019D01*
X021763Y049971D01*
X021763Y049923D01*
X021759Y049875D01*
X021751Y049827D01*
X021739Y049780D01*
X021724Y049735D01*
X021704Y049691D01*
X021682Y049648D01*
X021656Y049607D01*
X021626Y049569D01*
X021594Y049533D01*
X021559Y049500D01*
X021521Y049470D01*
X021481Y049443D01*
X021439Y049420D01*
X021395Y049400D01*
X021350Y049383D01*
X021304Y049371D01*
X021256Y049362D01*
X021208Y049357D01*
X021160Y049356D01*
X021112Y049359D01*
X021064Y049366D01*
X021017Y049377D01*
X020971Y049391D01*
X020926Y049409D01*
X020883Y049431D01*
X020842Y049456D01*
X020804Y049485D01*
X020767Y049517D01*
X020733Y049551D01*
X020703Y049588D01*
X020675Y049627D01*
X020650Y049669D01*
X020630Y049713D01*
X020612Y049758D01*
X020599Y049804D01*
X020589Y049851D01*
X020583Y049899D01*
X020581Y049947D01*
X035581Y052447D02*
X035583Y052495D01*
X035589Y052543D01*
X035599Y052590D01*
X035612Y052636D01*
X035630Y052681D01*
X035650Y052725D01*
X035675Y052767D01*
X035703Y052806D01*
X035733Y052843D01*
X035767Y052877D01*
X035804Y052909D01*
X035842Y052938D01*
X035883Y052963D01*
X035926Y052985D01*
X035971Y053003D01*
X036017Y053017D01*
X036064Y053028D01*
X036112Y053035D01*
X036160Y053038D01*
X036208Y053037D01*
X036256Y053032D01*
X036304Y053023D01*
X036350Y053011D01*
X036395Y052994D01*
X036439Y052974D01*
X036481Y052951D01*
X036521Y052924D01*
X036559Y052894D01*
X036594Y052861D01*
X036626Y052825D01*
X036656Y052787D01*
X036682Y052746D01*
X036704Y052703D01*
X036724Y052659D01*
X036739Y052614D01*
X036751Y052567D01*
X036759Y052519D01*
X036763Y052471D01*
X036763Y052423D01*
X036759Y052375D01*
X036751Y052327D01*
X036739Y052280D01*
X036724Y052235D01*
X036704Y052191D01*
X036682Y052148D01*
X036656Y052107D01*
X036626Y052069D01*
X036594Y052033D01*
X036559Y052000D01*
X036521Y051970D01*
X036481Y051943D01*
X036439Y051920D01*
X036395Y051900D01*
X036350Y051883D01*
X036304Y051871D01*
X036256Y051862D01*
X036208Y051857D01*
X036160Y051856D01*
X036112Y051859D01*
X036064Y051866D01*
X036017Y051877D01*
X035971Y051891D01*
X035926Y051909D01*
X035883Y051931D01*
X035842Y051956D01*
X035804Y051985D01*
X035767Y052017D01*
X035733Y052051D01*
X035703Y052088D01*
X035675Y052127D01*
X035650Y052169D01*
X035630Y052213D01*
X035612Y052258D01*
X035599Y052304D01*
X035589Y052351D01*
X035583Y052399D01*
X035581Y052447D01*
M02*
