%
M48
M72
T01C0.0197
T02C0.0236
T03C0.0315
T04C0.0320
T05C0.0394
T06C0.0400
T07C0.0433
T08C0.0440
T09C0.0470
T10C0.0710
T11C0.1181
%
T01
X25424Y28256
X24224Y32330
X25228Y32783
X25483Y34752
X24696Y34752
X23909Y34752
X23121Y34752
X22728Y34752
X22334Y34752
X21940Y34752
X21546Y34752
X21153Y34752
X20759Y34752
X20365Y34752
X19972Y34752
X19578Y34752
X19184Y34752
X18790Y34752
X19322Y38098
X22865Y38885
X23456Y35933
X23298Y33216
X26271Y34752
X27058Y34752
X27413Y34752
X28062Y34752
X28416Y34752
X29105Y34752
X29499Y34752
X29893Y34752
X30287Y34752
X31074Y34752
X31428Y34752
X32058Y34752
X32413Y34752
X33062Y34752
X33416Y34752
X34066Y34752
X34420Y34752
X35070Y34752
X35424Y34752
X36212Y34752
X36665Y34752
X37058Y34752
X37413Y34752
X37806Y34752
X38200Y34752
X35070Y33177
X29991Y28964
X29539Y33059
X26409Y38885
X29283Y40145
X34086Y41700
X35326Y42960
X26940Y22448
X26724Y20165
T02
X30739Y30618
X29775Y42567
X37747Y51011
X33318Y52409
X21487Y44988
X20700Y43807
T03
X21624Y52966
X21624Y52978
X22604Y52978
X22604Y52966
X23594Y52966
X23594Y52978
X24584Y52978
X24584Y52966
X25561Y52972
X25561Y52972
X27574Y52966
X27574Y52978
X28554Y52978
X28554Y52966
X29544Y52966
X29544Y52978
X30534Y52978
X30534Y52966
X31511Y52972
X31511Y52972
X33844Y49303
X34844Y49303
X35844Y49303
X35844Y48303
X34844Y48303
X33844Y48303
X36844Y48303
X36844Y49303
X36651Y40300
X37451Y39952
X37451Y39119
X36651Y39119
X37451Y38286
X36651Y37938
T04
X34725Y40972
X33725Y40972
X33357Y42054
X32725Y40972
X31725Y40972
X30725Y40972
X30357Y42054
X29725Y40972
X28725Y40972
X27725Y40972
X26725Y40972
X25725Y40972
X24725Y40972
X23725Y40972
X22725Y40972
X21725Y40972
X20725Y40972
X20725Y46947
X21700Y48047
X21725Y46947
X22725Y46947
X23725Y46947
X24725Y46947
X25725Y46947
X26725Y46947
X27725Y46947
X28725Y46947
X29725Y46947
X29725Y48197
X28725Y48197
X27725Y48197
X26725Y48197
X25725Y48197
X24725Y48197
X23725Y48197
X22700Y48047
X23725Y51197
X24725Y51197
X25725Y51197
X26725Y51197
X27725Y51197
X28725Y51197
X29725Y51197
X30725Y51197
X31725Y51197
X32767Y50964
X31550Y49626
X31725Y48197
X30725Y48197
X30725Y46947
X31725Y46947
X32725Y46947
X32767Y47964
X33725Y46947
X34725Y46947
X34928Y46051
X34393Y45056
X34393Y44056
X37928Y46051
X28550Y49626
X32157Y31212
X33082Y31212
X34007Y31212
X34932Y31212
X34932Y28212
X34007Y28212
X33082Y28212
X32157Y28212
X32499Y23984
X31499Y23984
X31930Y21390
X32884Y21385
X32884Y18385
X31930Y18390
X28672Y20157
X28672Y21157
X25846Y23984
X24846Y23984
X23450Y20784
X23450Y17784
X28672Y26811
X28672Y27811
X24047Y28051
X23156Y28058
X23156Y31058
X24047Y31051
T05
X37213Y43489
X37218Y43495
X37213Y44867
X37218Y44873
T06
X35995Y44555
X35995Y43555
X35243Y39496
X33243Y39496
X32798Y35657
X31798Y35657
X30798Y35657
X30798Y33964
X31798Y33964
X32798Y33964
X33798Y33964
X34798Y33964
X35798Y33964
X35798Y35657
X34798Y35657
X33798Y35657
X30133Y38019
X29133Y38019
X28133Y38019
X27133Y38019
X25591Y37870
X25783Y33925
X26739Y33944
X27739Y33944
X28739Y33944
X29739Y33944
X29977Y31567
X29977Y29787
X27417Y29787
X27417Y31567
X24783Y33925
X23783Y33925
X22783Y33925
X22591Y37870
X20542Y38964
X19542Y38964
X22712Y43385
X22712Y44385
X23712Y44385
X23712Y43385
X24712Y43385
X24712Y44385
X25712Y44385
X25712Y43385
X26712Y43385
X26712Y44385
X27712Y44385
X27712Y43385
X28712Y43385
X28712Y44385
X29712Y44385
X29712Y43385
X33775Y50413
X34775Y50413
X35775Y50413
X36775Y50413
X36192Y25258
X34412Y25258
X34412Y22698
X36192Y22698
X29952Y23088
X29952Y24868
X27392Y24868
X27392Y23088
X27394Y18240
X27394Y16460
X29954Y16460
X29954Y18240
X22932Y22703
X21152Y22703
X21152Y25263
X22932Y25263
T07
X36651Y36658
X37451Y37446
X37451Y40792
X36651Y41580
T08
X35775Y38019
X31775Y38019
T09
X31152Y31657
X31152Y29697
X34326Y26444
X36286Y26444
X36286Y21524
X34326Y21524
X31132Y23004
X31132Y24964
X26212Y24964
X26212Y23004
X23019Y21524
X21059Y21524
X21059Y26444
X23019Y26444
X26232Y29697
X26232Y31657
X26212Y18330
X26212Y16370
X31132Y16370
X31132Y18330
T10
X20269Y23984
X23809Y23984
X28672Y25754
X28692Y28907
X28692Y32447
X33536Y23984
X37076Y23984
X28672Y22214
X28672Y19120
X28672Y15580
T11
X21172Y18838
X21172Y31850
X20385Y36653
X21172Y49947
X36172Y52447
X36665Y31858
X36172Y18838
M30
