G75*
G70*
%OFA0B0*%
%FSLAX24Y24*%
%IPPOS*%
%LPD*%
%AMOC8*
5,1,8,0,0,1.08239X$1,22.5*
%
%ADD10C,0.0000*%
%ADD11C,0.0080*%
%ADD12C,0.0030*%
%ADD13C,0.0050*%
%ADD14C,0.0040*%
%ADD15R,0.1633X0.0017*%
%ADD16R,0.1650X0.0017*%
%ADD17R,0.1650X0.0017*%
%ADD18R,0.0033X0.0017*%
%ADD19R,0.0050X0.0017*%
%ADD20R,0.0067X0.0017*%
%ADD21R,0.0083X0.0017*%
%ADD22R,0.0100X0.0017*%
%ADD23R,0.0083X0.0017*%
%ADD24R,0.0083X0.0017*%
%ADD25R,0.0017X0.0017*%
%ADD26R,0.0383X0.0017*%
%ADD27R,0.0550X0.0017*%
%ADD28R,0.0650X0.0017*%
%ADD29R,0.0750X0.0017*%
%ADD30R,0.0817X0.0017*%
%ADD31R,0.0917X0.0017*%
%ADD32R,0.0983X0.0017*%
%ADD33R,0.1033X0.0017*%
%ADD34R,0.1100X0.0017*%
%ADD35R,0.1150X0.0017*%
%ADD36R,0.1217X0.0017*%
%ADD37R,0.1267X0.0017*%
%ADD38R,0.1317X0.0017*%
%ADD39R,0.1350X0.0017*%
%ADD40R,0.1383X0.0017*%
%ADD41R,0.1417X0.0017*%
%ADD42R,0.1433X0.0017*%
%ADD43R,0.1417X0.0017*%
%ADD44R,0.1433X0.0017*%
%ADD45R,0.1433X0.0017*%
%ADD46R,0.0083X0.0017*%
%ADD47R,0.0100X0.0017*%
%ADD48R,0.1383X0.0017*%
%ADD49R,0.1367X0.0017*%
%ADD50R,0.1350X0.0017*%
%ADD51R,0.1333X0.0017*%
%ADD52R,0.1300X0.0017*%
%ADD53R,0.1267X0.0017*%
%ADD54R,0.1233X0.0017*%
%ADD55R,0.1200X0.0017*%
%ADD56R,0.1167X0.0017*%
%ADD57R,0.1133X0.0017*%
%ADD58R,0.1083X0.0017*%
%ADD59R,0.1017X0.0017*%
%ADD60R,0.0950X0.0017*%
%ADD61R,0.0883X0.0017*%
%ADD62R,0.0800X0.0017*%
%ADD63R,0.0683X0.0017*%
%ADD64R,0.0017X0.0017*%
%ADD65R,0.0500X0.0017*%
%ADD66R,0.0283X0.0017*%
%ADD67R,0.0350X0.0017*%
%ADD68R,0.0400X0.0017*%
%ADD69R,0.0483X0.0017*%
%ADD70R,0.0533X0.0017*%
%ADD71R,0.0583X0.0017*%
%ADD72R,0.0667X0.0017*%
%ADD73R,0.0700X0.0017*%
%ADD74R,0.0767X0.0017*%
%ADD75R,0.0850X0.0017*%
%ADD76R,0.0900X0.0017*%
%ADD77R,0.0967X0.0017*%
%ADD78R,0.1000X0.0017*%
%ADD79R,0.1033X0.0017*%
%ADD80R,0.1050X0.0017*%
%ADD81R,0.1067X0.0017*%
%ADD82R,0.0067X0.0017*%
%ADD83R,0.1083X0.0017*%
%ADD84R,0.1117X0.0017*%
%ADD85R,0.1117X0.0017*%
%ADD86R,0.1133X0.0017*%
%ADD87R,0.1133X0.0017*%
%ADD88R,0.1150X0.0017*%
%ADD89R,0.1117X0.0017*%
%ADD90R,0.1100X0.0017*%
%ADD91R,0.1050X0.0017*%
%ADD92R,0.1017X0.0017*%
%ADD93R,0.1000X0.0017*%
%ADD94R,0.0950X0.0017*%
%ADD95R,0.0717X0.0017*%
%ADD96R,0.0517X0.0017*%
%ADD97R,0.0367X0.0017*%
%ADD98R,0.0200X0.0017*%
%ADD99C,0.0010*%
%ADD100C,0.0059*%
%ADD101R,0.0010X0.0010*%
%ADD102R,0.0020X0.0010*%
%ADD103R,0.0040X0.0010*%
%ADD104R,0.0060X0.0010*%
%ADD105R,0.0080X0.0010*%
%ADD106R,0.0090X0.0010*%
%ADD107R,0.0100X0.0010*%
%ADD108R,0.0110X0.0010*%
%ADD109R,0.0130X0.0010*%
%ADD110R,0.0150X0.0010*%
%ADD111R,0.0170X0.0010*%
%ADD112R,0.0180X0.0010*%
%ADD113R,0.0190X0.0010*%
%ADD114R,0.0200X0.0010*%
%ADD115R,0.0220X0.0010*%
%ADD116R,0.0240X0.0010*%
%ADD117R,0.0260X0.0010*%
%ADD118R,0.0270X0.0010*%
%ADD119R,0.0280X0.0010*%
%ADD120R,0.0300X0.0010*%
%ADD121R,0.0310X0.0010*%
%ADD122R,0.0330X0.0010*%
%ADD123R,0.0350X0.0010*%
%ADD124R,0.0360X0.0010*%
%ADD125R,0.0370X0.0010*%
%ADD126R,0.0390X0.0010*%
%ADD127R,0.0400X0.0010*%
%ADD128R,0.0420X0.0010*%
%ADD129R,0.0440X0.0010*%
%ADD130R,0.0460X0.0010*%
%ADD131R,0.0480X0.0010*%
%ADD132R,0.0490X0.0010*%
%ADD133R,0.0510X0.0010*%
%ADD134R,0.0530X0.0010*%
%ADD135R,0.0550X0.0010*%
%ADD136R,0.0570X0.0010*%
%ADD137R,0.0580X0.0010*%
%ADD138R,0.0600X0.0010*%
%ADD139R,0.0610X0.0010*%
%ADD140R,0.0620X0.0010*%
%ADD141R,0.0640X0.0010*%
%ADD142R,0.0660X0.0010*%
%ADD143R,0.0670X0.0010*%
%ADD144R,0.0690X0.0010*%
%ADD145R,0.0700X0.0010*%
%ADD146R,0.0710X0.0010*%
%ADD147R,0.0730X0.0010*%
%ADD148R,0.0750X0.0010*%
%ADD149R,0.0770X0.0010*%
%ADD150R,0.0780X0.0010*%
%ADD151R,0.0790X0.0010*%
%ADD152R,0.0800X0.0010*%
%ADD153R,0.0820X0.0010*%
%ADD154R,0.0840X0.0010*%
%ADD155R,0.0860X0.0010*%
%ADD156R,0.0870X0.0010*%
%ADD157R,0.0880X0.0010*%
%ADD158R,0.0890X0.0010*%
%ADD159R,0.0910X0.0010*%
%ADD160R,0.0930X0.0010*%
%ADD161R,0.0950X0.0010*%
%ADD162R,0.0960X0.0010*%
%ADD163R,0.0940X0.0010*%
%ADD164R,0.0920X0.0010*%
%ADD165R,0.0850X0.0010*%
%ADD166R,0.0830X0.0010*%
%ADD167R,0.0810X0.0010*%
%ADD168R,0.0760X0.0010*%
%ADD169R,0.0740X0.0010*%
%ADD170R,0.0720X0.0010*%
%ADD171R,0.0650X0.0010*%
%ADD172R,0.0630X0.0010*%
%ADD173R,0.0560X0.0010*%
%ADD174R,0.0540X0.0010*%
%ADD175R,0.0500X0.0010*%
%ADD176R,0.0470X0.0010*%
%ADD177R,0.0450X0.0010*%
%ADD178R,0.0410X0.0010*%
%ADD179R,0.0380X0.0010*%
%ADD180R,0.0340X0.0010*%
%ADD181R,0.0320X0.0010*%
%ADD182R,0.0290X0.0010*%
%ADD183R,0.0250X0.0010*%
%ADD184R,0.0230X0.0010*%
%ADD185R,0.0160X0.0010*%
%ADD186R,0.0140X0.0010*%
%ADD187R,0.0070X0.0010*%
%ADD188R,0.0050X0.0010*%
%ADD189R,0.0030X0.0010*%
%ADD190R,0.0120X0.0010*%
%ADD191R,0.0430X0.0010*%
%ADD192R,0.0520X0.0010*%
%ADD193R,0.0590X0.0010*%
%ADD194R,0.0210X0.0010*%
%ADD195R,0.0010X0.0020*%
%ADD196R,0.0010X0.0040*%
%ADD197R,0.0010X0.0060*%
%ADD198R,0.0010X0.0080*%
%ADD199R,0.0010X0.0090*%
%ADD200R,0.0010X0.0100*%
%ADD201R,0.0010X0.0110*%
%ADD202R,0.0010X0.0130*%
%ADD203R,0.0010X0.0150*%
%ADD204R,0.0010X0.0170*%
%ADD205R,0.0010X0.0180*%
%ADD206R,0.0010X0.0190*%
%ADD207R,0.0010X0.0200*%
%ADD208R,0.0010X0.0220*%
%ADD209R,0.0010X0.0240*%
%ADD210R,0.0010X0.0260*%
%ADD211R,0.0010X0.0270*%
%ADD212R,0.0010X0.0280*%
%ADD213R,0.0010X0.0300*%
%ADD214R,0.0010X0.0310*%
%ADD215R,0.0010X0.0330*%
%ADD216R,0.0010X0.0350*%
%ADD217R,0.0010X0.0360*%
%ADD218R,0.0010X0.0370*%
%ADD219R,0.0010X0.0390*%
%ADD220R,0.0010X0.0400*%
%ADD221R,0.0010X0.0420*%
%ADD222R,0.0010X0.0440*%
%ADD223R,0.0010X0.0460*%
%ADD224R,0.0010X0.0480*%
%ADD225R,0.0010X0.0490*%
%ADD226R,0.0010X0.0510*%
%ADD227R,0.0010X0.0530*%
%ADD228R,0.0010X0.0550*%
%ADD229R,0.0010X0.0570*%
%ADD230R,0.0010X0.0580*%
%ADD231R,0.0010X0.0600*%
%ADD232R,0.0010X0.0610*%
%ADD233R,0.0010X0.0620*%
%ADD234R,0.0010X0.0640*%
%ADD235R,0.0010X0.0660*%
%ADD236R,0.0010X0.0670*%
%ADD237R,0.0010X0.0690*%
%ADD238R,0.0010X0.0700*%
%ADD239R,0.0010X0.0710*%
%ADD240R,0.0010X0.0730*%
%ADD241R,0.0010X0.0750*%
%ADD242R,0.0010X0.0770*%
%ADD243R,0.0010X0.0780*%
%ADD244R,0.0010X0.0790*%
%ADD245R,0.0010X0.0800*%
%ADD246R,0.0010X0.0820*%
%ADD247R,0.0010X0.0840*%
%ADD248R,0.0010X0.0860*%
%ADD249R,0.0010X0.0870*%
%ADD250R,0.0010X0.0880*%
%ADD251R,0.0010X0.0890*%
%ADD252R,0.0010X0.0910*%
%ADD253R,0.0010X0.0930*%
%ADD254R,0.0010X0.0950*%
%ADD255R,0.0010X0.0960*%
%ADD256R,0.0010X0.0940*%
%ADD257R,0.0010X0.0920*%
%ADD258R,0.0010X0.0850*%
%ADD259R,0.0010X0.0830*%
%ADD260R,0.0010X0.0810*%
%ADD261R,0.0010X0.0760*%
%ADD262R,0.0010X0.0740*%
%ADD263R,0.0010X0.0720*%
%ADD264R,0.0010X0.0650*%
%ADD265R,0.0010X0.0630*%
%ADD266R,0.0010X0.0560*%
%ADD267R,0.0010X0.0540*%
%ADD268R,0.0010X0.0500*%
%ADD269R,0.0010X0.0470*%
%ADD270R,0.0010X0.0450*%
%ADD271R,0.0010X0.0410*%
%ADD272R,0.0010X0.0380*%
%ADD273R,0.0010X0.0340*%
%ADD274R,0.0010X0.0320*%
%ADD275R,0.0010X0.0290*%
%ADD276R,0.0010X0.0250*%
%ADD277R,0.0010X0.0230*%
%ADD278R,0.0010X0.0160*%
%ADD279R,0.0010X0.0140*%
%ADD280R,0.0010X0.0070*%
%ADD281R,0.0010X0.0050*%
%ADD282R,0.0010X0.0030*%
%ADD283C,0.0060*%
%ADD284R,0.0680X0.0010*%
D10*
X018751Y014838D02*
X038399Y014838D01*
X038416Y014870D02*
X038416Y054240D01*
X038374Y054242D02*
X018731Y054242D01*
X018731Y054240D02*
X018731Y014870D01*
X020581Y018838D02*
X020583Y018886D01*
X020589Y018934D01*
X020599Y018981D01*
X020612Y019027D01*
X020630Y019072D01*
X020650Y019116D01*
X020675Y019158D01*
X020703Y019197D01*
X020733Y019234D01*
X020767Y019268D01*
X020804Y019300D01*
X020842Y019329D01*
X020883Y019354D01*
X020926Y019376D01*
X020971Y019394D01*
X021017Y019408D01*
X021064Y019419D01*
X021112Y019426D01*
X021160Y019429D01*
X021208Y019428D01*
X021256Y019423D01*
X021304Y019414D01*
X021350Y019402D01*
X021395Y019385D01*
X021439Y019365D01*
X021481Y019342D01*
X021521Y019315D01*
X021559Y019285D01*
X021594Y019252D01*
X021626Y019216D01*
X021656Y019178D01*
X021682Y019137D01*
X021704Y019094D01*
X021724Y019050D01*
X021739Y019005D01*
X021751Y018958D01*
X021759Y018910D01*
X021763Y018862D01*
X021763Y018814D01*
X021759Y018766D01*
X021751Y018718D01*
X021739Y018671D01*
X021724Y018626D01*
X021704Y018582D01*
X021682Y018539D01*
X021656Y018498D01*
X021626Y018460D01*
X021594Y018424D01*
X021559Y018391D01*
X021521Y018361D01*
X021481Y018334D01*
X021439Y018311D01*
X021395Y018291D01*
X021350Y018274D01*
X021304Y018262D01*
X021256Y018253D01*
X021208Y018248D01*
X021160Y018247D01*
X021112Y018250D01*
X021064Y018257D01*
X021017Y018268D01*
X020971Y018282D01*
X020926Y018300D01*
X020883Y018322D01*
X020842Y018347D01*
X020804Y018376D01*
X020767Y018408D01*
X020733Y018442D01*
X020703Y018479D01*
X020675Y018518D01*
X020650Y018560D01*
X020630Y018604D01*
X020612Y018649D01*
X020599Y018695D01*
X020589Y018742D01*
X020583Y018790D01*
X020581Y018838D01*
X019914Y023984D02*
X019916Y024021D01*
X019922Y024058D01*
X019931Y024094D01*
X019945Y024128D01*
X019962Y024161D01*
X019982Y024193D01*
X020005Y024222D01*
X020031Y024248D01*
X020060Y024271D01*
X020091Y024291D01*
X020125Y024308D01*
X020159Y024322D01*
X020195Y024331D01*
X020232Y024337D01*
X020269Y024339D01*
X020306Y024337D01*
X020343Y024331D01*
X020379Y024322D01*
X020413Y024308D01*
X020446Y024291D01*
X020478Y024271D01*
X020507Y024248D01*
X020533Y024222D01*
X020556Y024193D01*
X020576Y024162D01*
X020593Y024128D01*
X020607Y024094D01*
X020616Y024058D01*
X020622Y024021D01*
X020624Y023984D01*
X020622Y023947D01*
X020616Y023910D01*
X020607Y023874D01*
X020593Y023840D01*
X020576Y023807D01*
X020556Y023775D01*
X020533Y023746D01*
X020507Y023720D01*
X020478Y023697D01*
X020447Y023677D01*
X020413Y023660D01*
X020379Y023646D01*
X020343Y023637D01*
X020306Y023631D01*
X020269Y023629D01*
X020232Y023631D01*
X020195Y023637D01*
X020159Y023646D01*
X020125Y023660D01*
X020092Y023677D01*
X020060Y023697D01*
X020031Y023720D01*
X020005Y023746D01*
X019982Y023775D01*
X019962Y023806D01*
X019945Y023840D01*
X019931Y023874D01*
X019922Y023910D01*
X019916Y023947D01*
X019914Y023984D01*
X023454Y023984D02*
X023456Y024021D01*
X023462Y024058D01*
X023471Y024094D01*
X023485Y024128D01*
X023502Y024161D01*
X023522Y024193D01*
X023545Y024222D01*
X023571Y024248D01*
X023600Y024271D01*
X023631Y024291D01*
X023665Y024308D01*
X023699Y024322D01*
X023735Y024331D01*
X023772Y024337D01*
X023809Y024339D01*
X023846Y024337D01*
X023883Y024331D01*
X023919Y024322D01*
X023953Y024308D01*
X023986Y024291D01*
X024018Y024271D01*
X024047Y024248D01*
X024073Y024222D01*
X024096Y024193D01*
X024116Y024162D01*
X024133Y024128D01*
X024147Y024094D01*
X024156Y024058D01*
X024162Y024021D01*
X024164Y023984D01*
X024162Y023947D01*
X024156Y023910D01*
X024147Y023874D01*
X024133Y023840D01*
X024116Y023807D01*
X024096Y023775D01*
X024073Y023746D01*
X024047Y023720D01*
X024018Y023697D01*
X023987Y023677D01*
X023953Y023660D01*
X023919Y023646D01*
X023883Y023637D01*
X023846Y023631D01*
X023809Y023629D01*
X023772Y023631D01*
X023735Y023637D01*
X023699Y023646D01*
X023665Y023660D01*
X023632Y023677D01*
X023600Y023697D01*
X023571Y023720D01*
X023545Y023746D01*
X023522Y023775D01*
X023502Y023806D01*
X023485Y023840D01*
X023471Y023874D01*
X023462Y023910D01*
X023456Y023947D01*
X023454Y023984D01*
X028317Y025754D02*
X028319Y025791D01*
X028325Y025828D01*
X028334Y025864D01*
X028348Y025898D01*
X028365Y025931D01*
X028385Y025963D01*
X028408Y025992D01*
X028434Y026018D01*
X028463Y026041D01*
X028494Y026061D01*
X028528Y026078D01*
X028562Y026092D01*
X028598Y026101D01*
X028635Y026107D01*
X028672Y026109D01*
X028709Y026107D01*
X028746Y026101D01*
X028782Y026092D01*
X028816Y026078D01*
X028849Y026061D01*
X028881Y026041D01*
X028910Y026018D01*
X028936Y025992D01*
X028959Y025963D01*
X028979Y025932D01*
X028996Y025898D01*
X029010Y025864D01*
X029019Y025828D01*
X029025Y025791D01*
X029027Y025754D01*
X029025Y025717D01*
X029019Y025680D01*
X029010Y025644D01*
X028996Y025610D01*
X028979Y025577D01*
X028959Y025545D01*
X028936Y025516D01*
X028910Y025490D01*
X028881Y025467D01*
X028850Y025447D01*
X028816Y025430D01*
X028782Y025416D01*
X028746Y025407D01*
X028709Y025401D01*
X028672Y025399D01*
X028635Y025401D01*
X028598Y025407D01*
X028562Y025416D01*
X028528Y025430D01*
X028495Y025447D01*
X028463Y025467D01*
X028434Y025490D01*
X028408Y025516D01*
X028385Y025545D01*
X028365Y025576D01*
X028348Y025610D01*
X028334Y025644D01*
X028325Y025680D01*
X028319Y025717D01*
X028317Y025754D01*
X028337Y028907D02*
X028339Y028944D01*
X028345Y028981D01*
X028354Y029017D01*
X028368Y029051D01*
X028385Y029084D01*
X028405Y029116D01*
X028428Y029145D01*
X028454Y029171D01*
X028483Y029194D01*
X028514Y029214D01*
X028548Y029231D01*
X028582Y029245D01*
X028618Y029254D01*
X028655Y029260D01*
X028692Y029262D01*
X028729Y029260D01*
X028766Y029254D01*
X028802Y029245D01*
X028836Y029231D01*
X028869Y029214D01*
X028901Y029194D01*
X028930Y029171D01*
X028956Y029145D01*
X028979Y029116D01*
X028999Y029085D01*
X029016Y029051D01*
X029030Y029017D01*
X029039Y028981D01*
X029045Y028944D01*
X029047Y028907D01*
X029045Y028870D01*
X029039Y028833D01*
X029030Y028797D01*
X029016Y028763D01*
X028999Y028730D01*
X028979Y028698D01*
X028956Y028669D01*
X028930Y028643D01*
X028901Y028620D01*
X028870Y028600D01*
X028836Y028583D01*
X028802Y028569D01*
X028766Y028560D01*
X028729Y028554D01*
X028692Y028552D01*
X028655Y028554D01*
X028618Y028560D01*
X028582Y028569D01*
X028548Y028583D01*
X028515Y028600D01*
X028483Y028620D01*
X028454Y028643D01*
X028428Y028669D01*
X028405Y028698D01*
X028385Y028729D01*
X028368Y028763D01*
X028354Y028797D01*
X028345Y028833D01*
X028339Y028870D01*
X028337Y028907D01*
X028337Y032447D02*
X028339Y032484D01*
X028345Y032521D01*
X028354Y032557D01*
X028368Y032591D01*
X028385Y032624D01*
X028405Y032656D01*
X028428Y032685D01*
X028454Y032711D01*
X028483Y032734D01*
X028514Y032754D01*
X028548Y032771D01*
X028582Y032785D01*
X028618Y032794D01*
X028655Y032800D01*
X028692Y032802D01*
X028729Y032800D01*
X028766Y032794D01*
X028802Y032785D01*
X028836Y032771D01*
X028869Y032754D01*
X028901Y032734D01*
X028930Y032711D01*
X028956Y032685D01*
X028979Y032656D01*
X028999Y032625D01*
X029016Y032591D01*
X029030Y032557D01*
X029039Y032521D01*
X029045Y032484D01*
X029047Y032447D01*
X029045Y032410D01*
X029039Y032373D01*
X029030Y032337D01*
X029016Y032303D01*
X028999Y032270D01*
X028979Y032238D01*
X028956Y032209D01*
X028930Y032183D01*
X028901Y032160D01*
X028870Y032140D01*
X028836Y032123D01*
X028802Y032109D01*
X028766Y032100D01*
X028729Y032094D01*
X028692Y032092D01*
X028655Y032094D01*
X028618Y032100D01*
X028582Y032109D01*
X028548Y032123D01*
X028515Y032140D01*
X028483Y032160D01*
X028454Y032183D01*
X028428Y032209D01*
X028405Y032238D01*
X028385Y032269D01*
X028368Y032303D01*
X028354Y032337D01*
X028345Y032373D01*
X028339Y032410D01*
X028337Y032447D01*
X028318Y034752D02*
X028320Y034771D01*
X028325Y034790D01*
X028335Y034806D01*
X028347Y034821D01*
X028362Y034833D01*
X028378Y034843D01*
X028397Y034848D01*
X028416Y034850D01*
X028435Y034848D01*
X028454Y034843D01*
X028470Y034833D01*
X028485Y034821D01*
X028497Y034806D01*
X028507Y034790D01*
X028512Y034771D01*
X028514Y034752D01*
X028512Y034733D01*
X028507Y034714D01*
X028497Y034698D01*
X028485Y034683D01*
X028470Y034671D01*
X028454Y034661D01*
X028435Y034656D01*
X028416Y034654D01*
X028397Y034656D01*
X028378Y034661D01*
X028362Y034671D01*
X028347Y034683D01*
X028335Y034698D01*
X028325Y034714D01*
X028320Y034733D01*
X028318Y034752D01*
X027964Y034752D02*
X027966Y034771D01*
X027971Y034790D01*
X027981Y034806D01*
X027993Y034821D01*
X028008Y034833D01*
X028024Y034843D01*
X028043Y034848D01*
X028062Y034850D01*
X028081Y034848D01*
X028100Y034843D01*
X028116Y034833D01*
X028131Y034821D01*
X028143Y034806D01*
X028153Y034790D01*
X028158Y034771D01*
X028160Y034752D01*
X028158Y034733D01*
X028153Y034714D01*
X028143Y034698D01*
X028131Y034683D01*
X028116Y034671D01*
X028100Y034661D01*
X028081Y034656D01*
X028062Y034654D01*
X028043Y034656D01*
X028024Y034661D01*
X028008Y034671D01*
X027993Y034683D01*
X027981Y034698D01*
X027971Y034714D01*
X027966Y034733D01*
X027964Y034752D01*
X027315Y034752D02*
X027317Y034771D01*
X027322Y034790D01*
X027332Y034806D01*
X027344Y034821D01*
X027359Y034833D01*
X027375Y034843D01*
X027394Y034848D01*
X027413Y034850D01*
X027432Y034848D01*
X027451Y034843D01*
X027467Y034833D01*
X027482Y034821D01*
X027494Y034806D01*
X027504Y034790D01*
X027509Y034771D01*
X027511Y034752D01*
X027509Y034733D01*
X027504Y034714D01*
X027494Y034698D01*
X027482Y034683D01*
X027467Y034671D01*
X027451Y034661D01*
X027432Y034656D01*
X027413Y034654D01*
X027394Y034656D01*
X027375Y034661D01*
X027359Y034671D01*
X027344Y034683D01*
X027332Y034698D01*
X027322Y034714D01*
X027317Y034733D01*
X027315Y034752D01*
X026960Y034752D02*
X026962Y034771D01*
X026967Y034790D01*
X026977Y034806D01*
X026989Y034821D01*
X027004Y034833D01*
X027020Y034843D01*
X027039Y034848D01*
X027058Y034850D01*
X027077Y034848D01*
X027096Y034843D01*
X027112Y034833D01*
X027127Y034821D01*
X027139Y034806D01*
X027149Y034790D01*
X027154Y034771D01*
X027156Y034752D01*
X027154Y034733D01*
X027149Y034714D01*
X027139Y034698D01*
X027127Y034683D01*
X027112Y034671D01*
X027096Y034661D01*
X027077Y034656D01*
X027058Y034654D01*
X027039Y034656D01*
X027020Y034661D01*
X027004Y034671D01*
X026989Y034683D01*
X026977Y034698D01*
X026967Y034714D01*
X026962Y034733D01*
X026960Y034752D01*
X026173Y034752D02*
X026175Y034771D01*
X026180Y034790D01*
X026190Y034806D01*
X026202Y034821D01*
X026217Y034833D01*
X026233Y034843D01*
X026252Y034848D01*
X026271Y034850D01*
X026290Y034848D01*
X026309Y034843D01*
X026325Y034833D01*
X026340Y034821D01*
X026352Y034806D01*
X026362Y034790D01*
X026367Y034771D01*
X026369Y034752D01*
X026367Y034733D01*
X026362Y034714D01*
X026352Y034698D01*
X026340Y034683D01*
X026325Y034671D01*
X026309Y034661D01*
X026290Y034656D01*
X026271Y034654D01*
X026252Y034656D01*
X026233Y034661D01*
X026217Y034671D01*
X026202Y034683D01*
X026190Y034698D01*
X026180Y034714D01*
X026175Y034733D01*
X026173Y034752D01*
X025385Y034752D02*
X025387Y034771D01*
X025392Y034790D01*
X025402Y034806D01*
X025414Y034821D01*
X025429Y034833D01*
X025445Y034843D01*
X025464Y034848D01*
X025483Y034850D01*
X025502Y034848D01*
X025521Y034843D01*
X025537Y034833D01*
X025552Y034821D01*
X025564Y034806D01*
X025574Y034790D01*
X025579Y034771D01*
X025581Y034752D01*
X025579Y034733D01*
X025574Y034714D01*
X025564Y034698D01*
X025552Y034683D01*
X025537Y034671D01*
X025521Y034661D01*
X025502Y034656D01*
X025483Y034654D01*
X025464Y034656D01*
X025445Y034661D01*
X025429Y034671D01*
X025414Y034683D01*
X025402Y034698D01*
X025392Y034714D01*
X025387Y034733D01*
X025385Y034752D01*
X024598Y034752D02*
X024600Y034771D01*
X024605Y034790D01*
X024615Y034806D01*
X024627Y034821D01*
X024642Y034833D01*
X024658Y034843D01*
X024677Y034848D01*
X024696Y034850D01*
X024715Y034848D01*
X024734Y034843D01*
X024750Y034833D01*
X024765Y034821D01*
X024777Y034806D01*
X024787Y034790D01*
X024792Y034771D01*
X024794Y034752D01*
X024792Y034733D01*
X024787Y034714D01*
X024777Y034698D01*
X024765Y034683D01*
X024750Y034671D01*
X024734Y034661D01*
X024715Y034656D01*
X024696Y034654D01*
X024677Y034656D01*
X024658Y034661D01*
X024642Y034671D01*
X024627Y034683D01*
X024615Y034698D01*
X024605Y034714D01*
X024600Y034733D01*
X024598Y034752D01*
X023811Y034752D02*
X023813Y034771D01*
X023818Y034790D01*
X023828Y034806D01*
X023840Y034821D01*
X023855Y034833D01*
X023871Y034843D01*
X023890Y034848D01*
X023909Y034850D01*
X023928Y034848D01*
X023947Y034843D01*
X023963Y034833D01*
X023978Y034821D01*
X023990Y034806D01*
X024000Y034790D01*
X024005Y034771D01*
X024007Y034752D01*
X024005Y034733D01*
X024000Y034714D01*
X023990Y034698D01*
X023978Y034683D01*
X023963Y034671D01*
X023947Y034661D01*
X023928Y034656D01*
X023909Y034654D01*
X023890Y034656D01*
X023871Y034661D01*
X023855Y034671D01*
X023840Y034683D01*
X023828Y034698D01*
X023818Y034714D01*
X023813Y034733D01*
X023811Y034752D01*
X023023Y034752D02*
X023025Y034771D01*
X023030Y034790D01*
X023040Y034806D01*
X023052Y034821D01*
X023067Y034833D01*
X023083Y034843D01*
X023102Y034848D01*
X023121Y034850D01*
X023140Y034848D01*
X023159Y034843D01*
X023175Y034833D01*
X023190Y034821D01*
X023202Y034806D01*
X023212Y034790D01*
X023217Y034771D01*
X023219Y034752D01*
X023217Y034733D01*
X023212Y034714D01*
X023202Y034698D01*
X023190Y034683D01*
X023175Y034671D01*
X023159Y034661D01*
X023140Y034656D01*
X023121Y034654D01*
X023102Y034656D01*
X023083Y034661D01*
X023067Y034671D01*
X023052Y034683D01*
X023040Y034698D01*
X023030Y034714D01*
X023025Y034733D01*
X023023Y034752D01*
X022630Y034752D02*
X022632Y034771D01*
X022637Y034790D01*
X022647Y034806D01*
X022659Y034821D01*
X022674Y034833D01*
X022690Y034843D01*
X022709Y034848D01*
X022728Y034850D01*
X022747Y034848D01*
X022766Y034843D01*
X022782Y034833D01*
X022797Y034821D01*
X022809Y034806D01*
X022819Y034790D01*
X022824Y034771D01*
X022826Y034752D01*
X022824Y034733D01*
X022819Y034714D01*
X022809Y034698D01*
X022797Y034683D01*
X022782Y034671D01*
X022766Y034661D01*
X022747Y034656D01*
X022728Y034654D01*
X022709Y034656D01*
X022690Y034661D01*
X022674Y034671D01*
X022659Y034683D01*
X022647Y034698D01*
X022637Y034714D01*
X022632Y034733D01*
X022630Y034752D01*
X022236Y034752D02*
X022238Y034771D01*
X022243Y034790D01*
X022253Y034806D01*
X022265Y034821D01*
X022280Y034833D01*
X022296Y034843D01*
X022315Y034848D01*
X022334Y034850D01*
X022353Y034848D01*
X022372Y034843D01*
X022388Y034833D01*
X022403Y034821D01*
X022415Y034806D01*
X022425Y034790D01*
X022430Y034771D01*
X022432Y034752D01*
X022430Y034733D01*
X022425Y034714D01*
X022415Y034698D01*
X022403Y034683D01*
X022388Y034671D01*
X022372Y034661D01*
X022353Y034656D01*
X022334Y034654D01*
X022315Y034656D01*
X022296Y034661D01*
X022280Y034671D01*
X022265Y034683D01*
X022253Y034698D01*
X022243Y034714D01*
X022238Y034733D01*
X022236Y034752D01*
X021842Y034752D02*
X021844Y034771D01*
X021849Y034790D01*
X021859Y034806D01*
X021871Y034821D01*
X021886Y034833D01*
X021902Y034843D01*
X021921Y034848D01*
X021940Y034850D01*
X021959Y034848D01*
X021978Y034843D01*
X021994Y034833D01*
X022009Y034821D01*
X022021Y034806D01*
X022031Y034790D01*
X022036Y034771D01*
X022038Y034752D01*
X022036Y034733D01*
X022031Y034714D01*
X022021Y034698D01*
X022009Y034683D01*
X021994Y034671D01*
X021978Y034661D01*
X021959Y034656D01*
X021940Y034654D01*
X021921Y034656D01*
X021902Y034661D01*
X021886Y034671D01*
X021871Y034683D01*
X021859Y034698D01*
X021849Y034714D01*
X021844Y034733D01*
X021842Y034752D01*
X021448Y034752D02*
X021450Y034771D01*
X021455Y034790D01*
X021465Y034806D01*
X021477Y034821D01*
X021492Y034833D01*
X021508Y034843D01*
X021527Y034848D01*
X021546Y034850D01*
X021565Y034848D01*
X021584Y034843D01*
X021600Y034833D01*
X021615Y034821D01*
X021627Y034806D01*
X021637Y034790D01*
X021642Y034771D01*
X021644Y034752D01*
X021642Y034733D01*
X021637Y034714D01*
X021627Y034698D01*
X021615Y034683D01*
X021600Y034671D01*
X021584Y034661D01*
X021565Y034656D01*
X021546Y034654D01*
X021527Y034656D01*
X021508Y034661D01*
X021492Y034671D01*
X021477Y034683D01*
X021465Y034698D01*
X021455Y034714D01*
X021450Y034733D01*
X021448Y034752D01*
X021055Y034752D02*
X021057Y034771D01*
X021062Y034790D01*
X021072Y034806D01*
X021084Y034821D01*
X021099Y034833D01*
X021115Y034843D01*
X021134Y034848D01*
X021153Y034850D01*
X021172Y034848D01*
X021191Y034843D01*
X021207Y034833D01*
X021222Y034821D01*
X021234Y034806D01*
X021244Y034790D01*
X021249Y034771D01*
X021251Y034752D01*
X021249Y034733D01*
X021244Y034714D01*
X021234Y034698D01*
X021222Y034683D01*
X021207Y034671D01*
X021191Y034661D01*
X021172Y034656D01*
X021153Y034654D01*
X021134Y034656D01*
X021115Y034661D01*
X021099Y034671D01*
X021084Y034683D01*
X021072Y034698D01*
X021062Y034714D01*
X021057Y034733D01*
X021055Y034752D01*
X020661Y034752D02*
X020663Y034771D01*
X020668Y034790D01*
X020678Y034806D01*
X020690Y034821D01*
X020705Y034833D01*
X020721Y034843D01*
X020740Y034848D01*
X020759Y034850D01*
X020778Y034848D01*
X020797Y034843D01*
X020813Y034833D01*
X020828Y034821D01*
X020840Y034806D01*
X020850Y034790D01*
X020855Y034771D01*
X020857Y034752D01*
X020855Y034733D01*
X020850Y034714D01*
X020840Y034698D01*
X020828Y034683D01*
X020813Y034671D01*
X020797Y034661D01*
X020778Y034656D01*
X020759Y034654D01*
X020740Y034656D01*
X020721Y034661D01*
X020705Y034671D01*
X020690Y034683D01*
X020678Y034698D01*
X020668Y034714D01*
X020663Y034733D01*
X020661Y034752D01*
X020267Y034752D02*
X020269Y034771D01*
X020274Y034790D01*
X020284Y034806D01*
X020296Y034821D01*
X020311Y034833D01*
X020327Y034843D01*
X020346Y034848D01*
X020365Y034850D01*
X020384Y034848D01*
X020403Y034843D01*
X020419Y034833D01*
X020434Y034821D01*
X020446Y034806D01*
X020456Y034790D01*
X020461Y034771D01*
X020463Y034752D01*
X020461Y034733D01*
X020456Y034714D01*
X020446Y034698D01*
X020434Y034683D01*
X020419Y034671D01*
X020403Y034661D01*
X020384Y034656D01*
X020365Y034654D01*
X020346Y034656D01*
X020327Y034661D01*
X020311Y034671D01*
X020296Y034683D01*
X020284Y034698D01*
X020274Y034714D01*
X020269Y034733D01*
X020267Y034752D01*
X019874Y034752D02*
X019876Y034771D01*
X019881Y034790D01*
X019891Y034806D01*
X019903Y034821D01*
X019918Y034833D01*
X019934Y034843D01*
X019953Y034848D01*
X019972Y034850D01*
X019991Y034848D01*
X020010Y034843D01*
X020026Y034833D01*
X020041Y034821D01*
X020053Y034806D01*
X020063Y034790D01*
X020068Y034771D01*
X020070Y034752D01*
X020068Y034733D01*
X020063Y034714D01*
X020053Y034698D01*
X020041Y034683D01*
X020026Y034671D01*
X020010Y034661D01*
X019991Y034656D01*
X019972Y034654D01*
X019953Y034656D01*
X019934Y034661D01*
X019918Y034671D01*
X019903Y034683D01*
X019891Y034698D01*
X019881Y034714D01*
X019876Y034733D01*
X019874Y034752D01*
X019480Y034752D02*
X019482Y034771D01*
X019487Y034790D01*
X019497Y034806D01*
X019509Y034821D01*
X019524Y034833D01*
X019540Y034843D01*
X019559Y034848D01*
X019578Y034850D01*
X019597Y034848D01*
X019616Y034843D01*
X019632Y034833D01*
X019647Y034821D01*
X019659Y034806D01*
X019669Y034790D01*
X019674Y034771D01*
X019676Y034752D01*
X019674Y034733D01*
X019669Y034714D01*
X019659Y034698D01*
X019647Y034683D01*
X019632Y034671D01*
X019616Y034661D01*
X019597Y034656D01*
X019578Y034654D01*
X019559Y034656D01*
X019540Y034661D01*
X019524Y034671D01*
X019509Y034683D01*
X019497Y034698D01*
X019487Y034714D01*
X019482Y034733D01*
X019480Y034752D01*
X019086Y034752D02*
X019088Y034771D01*
X019093Y034790D01*
X019103Y034806D01*
X019115Y034821D01*
X019130Y034833D01*
X019146Y034843D01*
X019165Y034848D01*
X019184Y034850D01*
X019203Y034848D01*
X019222Y034843D01*
X019238Y034833D01*
X019253Y034821D01*
X019265Y034806D01*
X019275Y034790D01*
X019280Y034771D01*
X019282Y034752D01*
X019280Y034733D01*
X019275Y034714D01*
X019265Y034698D01*
X019253Y034683D01*
X019238Y034671D01*
X019222Y034661D01*
X019203Y034656D01*
X019184Y034654D01*
X019165Y034656D01*
X019146Y034661D01*
X019130Y034671D01*
X019115Y034683D01*
X019103Y034698D01*
X019093Y034714D01*
X019088Y034733D01*
X019086Y034752D01*
X018692Y034752D02*
X018694Y034771D01*
X018699Y034790D01*
X018709Y034806D01*
X018721Y034821D01*
X018736Y034833D01*
X018752Y034843D01*
X018771Y034848D01*
X018790Y034850D01*
X018809Y034848D01*
X018828Y034843D01*
X018844Y034833D01*
X018859Y034821D01*
X018871Y034806D01*
X018881Y034790D01*
X018886Y034771D01*
X018888Y034752D01*
X018886Y034733D01*
X018881Y034714D01*
X018871Y034698D01*
X018859Y034683D01*
X018844Y034671D01*
X018828Y034661D01*
X018809Y034656D01*
X018790Y034654D01*
X018771Y034656D01*
X018752Y034661D01*
X018736Y034671D01*
X018721Y034683D01*
X018709Y034698D01*
X018699Y034714D01*
X018694Y034733D01*
X018692Y034752D01*
X019794Y036653D02*
X019796Y036701D01*
X019802Y036749D01*
X019812Y036796D01*
X019825Y036842D01*
X019843Y036887D01*
X019863Y036931D01*
X019888Y036973D01*
X019916Y037012D01*
X019946Y037049D01*
X019980Y037083D01*
X020017Y037115D01*
X020055Y037144D01*
X020096Y037169D01*
X020139Y037191D01*
X020184Y037209D01*
X020230Y037223D01*
X020277Y037234D01*
X020325Y037241D01*
X020373Y037244D01*
X020421Y037243D01*
X020469Y037238D01*
X020517Y037229D01*
X020563Y037217D01*
X020608Y037200D01*
X020652Y037180D01*
X020694Y037157D01*
X020734Y037130D01*
X020772Y037100D01*
X020807Y037067D01*
X020839Y037031D01*
X020869Y036993D01*
X020895Y036952D01*
X020917Y036909D01*
X020937Y036865D01*
X020952Y036820D01*
X020964Y036773D01*
X020972Y036725D01*
X020976Y036677D01*
X020976Y036629D01*
X020972Y036581D01*
X020964Y036533D01*
X020952Y036486D01*
X020937Y036441D01*
X020917Y036397D01*
X020895Y036354D01*
X020869Y036313D01*
X020839Y036275D01*
X020807Y036239D01*
X020772Y036206D01*
X020734Y036176D01*
X020694Y036149D01*
X020652Y036126D01*
X020608Y036106D01*
X020563Y036089D01*
X020517Y036077D01*
X020469Y036068D01*
X020421Y036063D01*
X020373Y036062D01*
X020325Y036065D01*
X020277Y036072D01*
X020230Y036083D01*
X020184Y036097D01*
X020139Y036115D01*
X020096Y036137D01*
X020055Y036162D01*
X020017Y036191D01*
X019980Y036223D01*
X019946Y036257D01*
X019916Y036294D01*
X019888Y036333D01*
X019863Y036375D01*
X019843Y036419D01*
X019825Y036464D01*
X019812Y036510D01*
X019802Y036557D01*
X019796Y036605D01*
X019794Y036653D01*
X020581Y031850D02*
X020583Y031898D01*
X020589Y031946D01*
X020599Y031993D01*
X020612Y032039D01*
X020630Y032084D01*
X020650Y032128D01*
X020675Y032170D01*
X020703Y032209D01*
X020733Y032246D01*
X020767Y032280D01*
X020804Y032312D01*
X020842Y032341D01*
X020883Y032366D01*
X020926Y032388D01*
X020971Y032406D01*
X021017Y032420D01*
X021064Y032431D01*
X021112Y032438D01*
X021160Y032441D01*
X021208Y032440D01*
X021256Y032435D01*
X021304Y032426D01*
X021350Y032414D01*
X021395Y032397D01*
X021439Y032377D01*
X021481Y032354D01*
X021521Y032327D01*
X021559Y032297D01*
X021594Y032264D01*
X021626Y032228D01*
X021656Y032190D01*
X021682Y032149D01*
X021704Y032106D01*
X021724Y032062D01*
X021739Y032017D01*
X021751Y031970D01*
X021759Y031922D01*
X021763Y031874D01*
X021763Y031826D01*
X021759Y031778D01*
X021751Y031730D01*
X021739Y031683D01*
X021724Y031638D01*
X021704Y031594D01*
X021682Y031551D01*
X021656Y031510D01*
X021626Y031472D01*
X021594Y031436D01*
X021559Y031403D01*
X021521Y031373D01*
X021481Y031346D01*
X021439Y031323D01*
X021395Y031303D01*
X021350Y031286D01*
X021304Y031274D01*
X021256Y031265D01*
X021208Y031260D01*
X021160Y031259D01*
X021112Y031262D01*
X021064Y031269D01*
X021017Y031280D01*
X020971Y031294D01*
X020926Y031312D01*
X020883Y031334D01*
X020842Y031359D01*
X020804Y031388D01*
X020767Y031420D01*
X020733Y031454D01*
X020703Y031491D01*
X020675Y031530D01*
X020650Y031572D01*
X020630Y031616D01*
X020612Y031661D01*
X020599Y031707D01*
X020589Y031754D01*
X020583Y031802D01*
X020581Y031850D01*
X028317Y022214D02*
X028319Y022251D01*
X028325Y022288D01*
X028334Y022324D01*
X028348Y022358D01*
X028365Y022391D01*
X028385Y022423D01*
X028408Y022452D01*
X028434Y022478D01*
X028463Y022501D01*
X028494Y022521D01*
X028528Y022538D01*
X028562Y022552D01*
X028598Y022561D01*
X028635Y022567D01*
X028672Y022569D01*
X028709Y022567D01*
X028746Y022561D01*
X028782Y022552D01*
X028816Y022538D01*
X028849Y022521D01*
X028881Y022501D01*
X028910Y022478D01*
X028936Y022452D01*
X028959Y022423D01*
X028979Y022392D01*
X028996Y022358D01*
X029010Y022324D01*
X029019Y022288D01*
X029025Y022251D01*
X029027Y022214D01*
X029025Y022177D01*
X029019Y022140D01*
X029010Y022104D01*
X028996Y022070D01*
X028979Y022037D01*
X028959Y022005D01*
X028936Y021976D01*
X028910Y021950D01*
X028881Y021927D01*
X028850Y021907D01*
X028816Y021890D01*
X028782Y021876D01*
X028746Y021867D01*
X028709Y021861D01*
X028672Y021859D01*
X028635Y021861D01*
X028598Y021867D01*
X028562Y021876D01*
X028528Y021890D01*
X028495Y021907D01*
X028463Y021927D01*
X028434Y021950D01*
X028408Y021976D01*
X028385Y022005D01*
X028365Y022036D01*
X028348Y022070D01*
X028334Y022104D01*
X028325Y022140D01*
X028319Y022177D01*
X028317Y022214D01*
X028317Y019120D02*
X028319Y019157D01*
X028325Y019194D01*
X028334Y019230D01*
X028348Y019264D01*
X028365Y019297D01*
X028385Y019329D01*
X028408Y019358D01*
X028434Y019384D01*
X028463Y019407D01*
X028494Y019427D01*
X028528Y019444D01*
X028562Y019458D01*
X028598Y019467D01*
X028635Y019473D01*
X028672Y019475D01*
X028709Y019473D01*
X028746Y019467D01*
X028782Y019458D01*
X028816Y019444D01*
X028849Y019427D01*
X028881Y019407D01*
X028910Y019384D01*
X028936Y019358D01*
X028959Y019329D01*
X028979Y019298D01*
X028996Y019264D01*
X029010Y019230D01*
X029019Y019194D01*
X029025Y019157D01*
X029027Y019120D01*
X029025Y019083D01*
X029019Y019046D01*
X029010Y019010D01*
X028996Y018976D01*
X028979Y018943D01*
X028959Y018911D01*
X028936Y018882D01*
X028910Y018856D01*
X028881Y018833D01*
X028850Y018813D01*
X028816Y018796D01*
X028782Y018782D01*
X028746Y018773D01*
X028709Y018767D01*
X028672Y018765D01*
X028635Y018767D01*
X028598Y018773D01*
X028562Y018782D01*
X028528Y018796D01*
X028495Y018813D01*
X028463Y018833D01*
X028434Y018856D01*
X028408Y018882D01*
X028385Y018911D01*
X028365Y018942D01*
X028348Y018976D01*
X028334Y019010D01*
X028325Y019046D01*
X028319Y019083D01*
X028317Y019120D01*
X028317Y015580D02*
X028319Y015617D01*
X028325Y015654D01*
X028334Y015690D01*
X028348Y015724D01*
X028365Y015757D01*
X028385Y015789D01*
X028408Y015818D01*
X028434Y015844D01*
X028463Y015867D01*
X028494Y015887D01*
X028528Y015904D01*
X028562Y015918D01*
X028598Y015927D01*
X028635Y015933D01*
X028672Y015935D01*
X028709Y015933D01*
X028746Y015927D01*
X028782Y015918D01*
X028816Y015904D01*
X028849Y015887D01*
X028881Y015867D01*
X028910Y015844D01*
X028936Y015818D01*
X028959Y015789D01*
X028979Y015758D01*
X028996Y015724D01*
X029010Y015690D01*
X029019Y015654D01*
X029025Y015617D01*
X029027Y015580D01*
X029025Y015543D01*
X029019Y015506D01*
X029010Y015470D01*
X028996Y015436D01*
X028979Y015403D01*
X028959Y015371D01*
X028936Y015342D01*
X028910Y015316D01*
X028881Y015293D01*
X028850Y015273D01*
X028816Y015256D01*
X028782Y015242D01*
X028746Y015233D01*
X028709Y015227D01*
X028672Y015225D01*
X028635Y015227D01*
X028598Y015233D01*
X028562Y015242D01*
X028528Y015256D01*
X028495Y015273D01*
X028463Y015293D01*
X028434Y015316D01*
X028408Y015342D01*
X028385Y015371D01*
X028365Y015402D01*
X028348Y015436D01*
X028334Y015470D01*
X028325Y015506D01*
X028319Y015543D01*
X028317Y015580D01*
X033181Y023984D02*
X033183Y024021D01*
X033189Y024058D01*
X033198Y024094D01*
X033212Y024128D01*
X033229Y024161D01*
X033249Y024193D01*
X033272Y024222D01*
X033298Y024248D01*
X033327Y024271D01*
X033358Y024291D01*
X033392Y024308D01*
X033426Y024322D01*
X033462Y024331D01*
X033499Y024337D01*
X033536Y024339D01*
X033573Y024337D01*
X033610Y024331D01*
X033646Y024322D01*
X033680Y024308D01*
X033713Y024291D01*
X033745Y024271D01*
X033774Y024248D01*
X033800Y024222D01*
X033823Y024193D01*
X033843Y024162D01*
X033860Y024128D01*
X033874Y024094D01*
X033883Y024058D01*
X033889Y024021D01*
X033891Y023984D01*
X033889Y023947D01*
X033883Y023910D01*
X033874Y023874D01*
X033860Y023840D01*
X033843Y023807D01*
X033823Y023775D01*
X033800Y023746D01*
X033774Y023720D01*
X033745Y023697D01*
X033714Y023677D01*
X033680Y023660D01*
X033646Y023646D01*
X033610Y023637D01*
X033573Y023631D01*
X033536Y023629D01*
X033499Y023631D01*
X033462Y023637D01*
X033426Y023646D01*
X033392Y023660D01*
X033359Y023677D01*
X033327Y023697D01*
X033298Y023720D01*
X033272Y023746D01*
X033249Y023775D01*
X033229Y023806D01*
X033212Y023840D01*
X033198Y023874D01*
X033189Y023910D01*
X033183Y023947D01*
X033181Y023984D01*
X036721Y023984D02*
X036723Y024021D01*
X036729Y024058D01*
X036738Y024094D01*
X036752Y024128D01*
X036769Y024161D01*
X036789Y024193D01*
X036812Y024222D01*
X036838Y024248D01*
X036867Y024271D01*
X036898Y024291D01*
X036932Y024308D01*
X036966Y024322D01*
X037002Y024331D01*
X037039Y024337D01*
X037076Y024339D01*
X037113Y024337D01*
X037150Y024331D01*
X037186Y024322D01*
X037220Y024308D01*
X037253Y024291D01*
X037285Y024271D01*
X037314Y024248D01*
X037340Y024222D01*
X037363Y024193D01*
X037383Y024162D01*
X037400Y024128D01*
X037414Y024094D01*
X037423Y024058D01*
X037429Y024021D01*
X037431Y023984D01*
X037429Y023947D01*
X037423Y023910D01*
X037414Y023874D01*
X037400Y023840D01*
X037383Y023807D01*
X037363Y023775D01*
X037340Y023746D01*
X037314Y023720D01*
X037285Y023697D01*
X037254Y023677D01*
X037220Y023660D01*
X037186Y023646D01*
X037150Y023637D01*
X037113Y023631D01*
X037076Y023629D01*
X037039Y023631D01*
X037002Y023637D01*
X036966Y023646D01*
X036932Y023660D01*
X036899Y023677D01*
X036867Y023697D01*
X036838Y023720D01*
X036812Y023746D01*
X036789Y023775D01*
X036769Y023806D01*
X036752Y023840D01*
X036738Y023874D01*
X036729Y023910D01*
X036723Y023947D01*
X036721Y023984D01*
X035581Y018838D02*
X035583Y018886D01*
X035589Y018934D01*
X035599Y018981D01*
X035612Y019027D01*
X035630Y019072D01*
X035650Y019116D01*
X035675Y019158D01*
X035703Y019197D01*
X035733Y019234D01*
X035767Y019268D01*
X035804Y019300D01*
X035842Y019329D01*
X035883Y019354D01*
X035926Y019376D01*
X035971Y019394D01*
X036017Y019408D01*
X036064Y019419D01*
X036112Y019426D01*
X036160Y019429D01*
X036208Y019428D01*
X036256Y019423D01*
X036304Y019414D01*
X036350Y019402D01*
X036395Y019385D01*
X036439Y019365D01*
X036481Y019342D01*
X036521Y019315D01*
X036559Y019285D01*
X036594Y019252D01*
X036626Y019216D01*
X036656Y019178D01*
X036682Y019137D01*
X036704Y019094D01*
X036724Y019050D01*
X036739Y019005D01*
X036751Y018958D01*
X036759Y018910D01*
X036763Y018862D01*
X036763Y018814D01*
X036759Y018766D01*
X036751Y018718D01*
X036739Y018671D01*
X036724Y018626D01*
X036704Y018582D01*
X036682Y018539D01*
X036656Y018498D01*
X036626Y018460D01*
X036594Y018424D01*
X036559Y018391D01*
X036521Y018361D01*
X036481Y018334D01*
X036439Y018311D01*
X036395Y018291D01*
X036350Y018274D01*
X036304Y018262D01*
X036256Y018253D01*
X036208Y018248D01*
X036160Y018247D01*
X036112Y018250D01*
X036064Y018257D01*
X036017Y018268D01*
X035971Y018282D01*
X035926Y018300D01*
X035883Y018322D01*
X035842Y018347D01*
X035804Y018376D01*
X035767Y018408D01*
X035733Y018442D01*
X035703Y018479D01*
X035675Y018518D01*
X035650Y018560D01*
X035630Y018604D01*
X035612Y018649D01*
X035599Y018695D01*
X035589Y018742D01*
X035583Y018790D01*
X035581Y018838D01*
X036074Y031858D02*
X036076Y031906D01*
X036082Y031954D01*
X036092Y032001D01*
X036105Y032047D01*
X036123Y032092D01*
X036143Y032136D01*
X036168Y032178D01*
X036196Y032217D01*
X036226Y032254D01*
X036260Y032288D01*
X036297Y032320D01*
X036335Y032349D01*
X036376Y032374D01*
X036419Y032396D01*
X036464Y032414D01*
X036510Y032428D01*
X036557Y032439D01*
X036605Y032446D01*
X036653Y032449D01*
X036701Y032448D01*
X036749Y032443D01*
X036797Y032434D01*
X036843Y032422D01*
X036888Y032405D01*
X036932Y032385D01*
X036974Y032362D01*
X037014Y032335D01*
X037052Y032305D01*
X037087Y032272D01*
X037119Y032236D01*
X037149Y032198D01*
X037175Y032157D01*
X037197Y032114D01*
X037217Y032070D01*
X037232Y032025D01*
X037244Y031978D01*
X037252Y031930D01*
X037256Y031882D01*
X037256Y031834D01*
X037252Y031786D01*
X037244Y031738D01*
X037232Y031691D01*
X037217Y031646D01*
X037197Y031602D01*
X037175Y031559D01*
X037149Y031518D01*
X037119Y031480D01*
X037087Y031444D01*
X037052Y031411D01*
X037014Y031381D01*
X036974Y031354D01*
X036932Y031331D01*
X036888Y031311D01*
X036843Y031294D01*
X036797Y031282D01*
X036749Y031273D01*
X036701Y031268D01*
X036653Y031267D01*
X036605Y031270D01*
X036557Y031277D01*
X036510Y031288D01*
X036464Y031302D01*
X036419Y031320D01*
X036376Y031342D01*
X036335Y031367D01*
X036297Y031396D01*
X036260Y031428D01*
X036226Y031462D01*
X036196Y031499D01*
X036168Y031538D01*
X036143Y031580D01*
X036123Y031624D01*
X036105Y031669D01*
X036092Y031715D01*
X036082Y031762D01*
X036076Y031810D01*
X036074Y031858D01*
X036114Y034752D02*
X036116Y034771D01*
X036121Y034790D01*
X036131Y034806D01*
X036143Y034821D01*
X036158Y034833D01*
X036174Y034843D01*
X036193Y034848D01*
X036212Y034850D01*
X036231Y034848D01*
X036250Y034843D01*
X036266Y034833D01*
X036281Y034821D01*
X036293Y034806D01*
X036303Y034790D01*
X036308Y034771D01*
X036310Y034752D01*
X036308Y034733D01*
X036303Y034714D01*
X036293Y034698D01*
X036281Y034683D01*
X036266Y034671D01*
X036250Y034661D01*
X036231Y034656D01*
X036212Y034654D01*
X036193Y034656D01*
X036174Y034661D01*
X036158Y034671D01*
X036143Y034683D01*
X036131Y034698D01*
X036121Y034714D01*
X036116Y034733D01*
X036114Y034752D01*
X036567Y034752D02*
X036569Y034771D01*
X036574Y034790D01*
X036584Y034806D01*
X036596Y034821D01*
X036611Y034833D01*
X036627Y034843D01*
X036646Y034848D01*
X036665Y034850D01*
X036684Y034848D01*
X036703Y034843D01*
X036719Y034833D01*
X036734Y034821D01*
X036746Y034806D01*
X036756Y034790D01*
X036761Y034771D01*
X036763Y034752D01*
X036761Y034733D01*
X036756Y034714D01*
X036746Y034698D01*
X036734Y034683D01*
X036719Y034671D01*
X036703Y034661D01*
X036684Y034656D01*
X036665Y034654D01*
X036646Y034656D01*
X036627Y034661D01*
X036611Y034671D01*
X036596Y034683D01*
X036584Y034698D01*
X036574Y034714D01*
X036569Y034733D01*
X036567Y034752D01*
X036960Y034752D02*
X036962Y034771D01*
X036967Y034790D01*
X036977Y034806D01*
X036989Y034821D01*
X037004Y034833D01*
X037020Y034843D01*
X037039Y034848D01*
X037058Y034850D01*
X037077Y034848D01*
X037096Y034843D01*
X037112Y034833D01*
X037127Y034821D01*
X037139Y034806D01*
X037149Y034790D01*
X037154Y034771D01*
X037156Y034752D01*
X037154Y034733D01*
X037149Y034714D01*
X037139Y034698D01*
X037127Y034683D01*
X037112Y034671D01*
X037096Y034661D01*
X037077Y034656D01*
X037058Y034654D01*
X037039Y034656D01*
X037020Y034661D01*
X037004Y034671D01*
X036989Y034683D01*
X036977Y034698D01*
X036967Y034714D01*
X036962Y034733D01*
X036960Y034752D01*
X037315Y034752D02*
X037317Y034771D01*
X037322Y034790D01*
X037332Y034806D01*
X037344Y034821D01*
X037359Y034833D01*
X037375Y034843D01*
X037394Y034848D01*
X037413Y034850D01*
X037432Y034848D01*
X037451Y034843D01*
X037467Y034833D01*
X037482Y034821D01*
X037494Y034806D01*
X037504Y034790D01*
X037509Y034771D01*
X037511Y034752D01*
X037509Y034733D01*
X037504Y034714D01*
X037494Y034698D01*
X037482Y034683D01*
X037467Y034671D01*
X037451Y034661D01*
X037432Y034656D01*
X037413Y034654D01*
X037394Y034656D01*
X037375Y034661D01*
X037359Y034671D01*
X037344Y034683D01*
X037332Y034698D01*
X037322Y034714D01*
X037317Y034733D01*
X037315Y034752D01*
X037708Y034752D02*
X037710Y034771D01*
X037715Y034790D01*
X037725Y034806D01*
X037737Y034821D01*
X037752Y034833D01*
X037768Y034843D01*
X037787Y034848D01*
X037806Y034850D01*
X037825Y034848D01*
X037844Y034843D01*
X037860Y034833D01*
X037875Y034821D01*
X037887Y034806D01*
X037897Y034790D01*
X037902Y034771D01*
X037904Y034752D01*
X037902Y034733D01*
X037897Y034714D01*
X037887Y034698D01*
X037875Y034683D01*
X037860Y034671D01*
X037844Y034661D01*
X037825Y034656D01*
X037806Y034654D01*
X037787Y034656D01*
X037768Y034661D01*
X037752Y034671D01*
X037737Y034683D01*
X037725Y034698D01*
X037715Y034714D01*
X037710Y034733D01*
X037708Y034752D01*
X038102Y034752D02*
X038104Y034771D01*
X038109Y034790D01*
X038119Y034806D01*
X038131Y034821D01*
X038146Y034833D01*
X038162Y034843D01*
X038181Y034848D01*
X038200Y034850D01*
X038219Y034848D01*
X038238Y034843D01*
X038254Y034833D01*
X038269Y034821D01*
X038281Y034806D01*
X038291Y034790D01*
X038296Y034771D01*
X038298Y034752D01*
X038296Y034733D01*
X038291Y034714D01*
X038281Y034698D01*
X038269Y034683D01*
X038254Y034671D01*
X038238Y034661D01*
X038219Y034656D01*
X038200Y034654D01*
X038181Y034656D01*
X038162Y034661D01*
X038146Y034671D01*
X038131Y034683D01*
X038119Y034698D01*
X038109Y034714D01*
X038104Y034733D01*
X038102Y034752D01*
X035326Y034752D02*
X035328Y034771D01*
X035333Y034790D01*
X035343Y034806D01*
X035355Y034821D01*
X035370Y034833D01*
X035386Y034843D01*
X035405Y034848D01*
X035424Y034850D01*
X035443Y034848D01*
X035462Y034843D01*
X035478Y034833D01*
X035493Y034821D01*
X035505Y034806D01*
X035515Y034790D01*
X035520Y034771D01*
X035522Y034752D01*
X035520Y034733D01*
X035515Y034714D01*
X035505Y034698D01*
X035493Y034683D01*
X035478Y034671D01*
X035462Y034661D01*
X035443Y034656D01*
X035424Y034654D01*
X035405Y034656D01*
X035386Y034661D01*
X035370Y034671D01*
X035355Y034683D01*
X035343Y034698D01*
X035333Y034714D01*
X035328Y034733D01*
X035326Y034752D01*
X034972Y034752D02*
X034974Y034771D01*
X034979Y034790D01*
X034989Y034806D01*
X035001Y034821D01*
X035016Y034833D01*
X035032Y034843D01*
X035051Y034848D01*
X035070Y034850D01*
X035089Y034848D01*
X035108Y034843D01*
X035124Y034833D01*
X035139Y034821D01*
X035151Y034806D01*
X035161Y034790D01*
X035166Y034771D01*
X035168Y034752D01*
X035166Y034733D01*
X035161Y034714D01*
X035151Y034698D01*
X035139Y034683D01*
X035124Y034671D01*
X035108Y034661D01*
X035089Y034656D01*
X035070Y034654D01*
X035051Y034656D01*
X035032Y034661D01*
X035016Y034671D01*
X035001Y034683D01*
X034989Y034698D01*
X034979Y034714D01*
X034974Y034733D01*
X034972Y034752D01*
X034322Y034752D02*
X034324Y034771D01*
X034329Y034790D01*
X034339Y034806D01*
X034351Y034821D01*
X034366Y034833D01*
X034382Y034843D01*
X034401Y034848D01*
X034420Y034850D01*
X034439Y034848D01*
X034458Y034843D01*
X034474Y034833D01*
X034489Y034821D01*
X034501Y034806D01*
X034511Y034790D01*
X034516Y034771D01*
X034518Y034752D01*
X034516Y034733D01*
X034511Y034714D01*
X034501Y034698D01*
X034489Y034683D01*
X034474Y034671D01*
X034458Y034661D01*
X034439Y034656D01*
X034420Y034654D01*
X034401Y034656D01*
X034382Y034661D01*
X034366Y034671D01*
X034351Y034683D01*
X034339Y034698D01*
X034329Y034714D01*
X034324Y034733D01*
X034322Y034752D01*
X033968Y034752D02*
X033970Y034771D01*
X033975Y034790D01*
X033985Y034806D01*
X033997Y034821D01*
X034012Y034833D01*
X034028Y034843D01*
X034047Y034848D01*
X034066Y034850D01*
X034085Y034848D01*
X034104Y034843D01*
X034120Y034833D01*
X034135Y034821D01*
X034147Y034806D01*
X034157Y034790D01*
X034162Y034771D01*
X034164Y034752D01*
X034162Y034733D01*
X034157Y034714D01*
X034147Y034698D01*
X034135Y034683D01*
X034120Y034671D01*
X034104Y034661D01*
X034085Y034656D01*
X034066Y034654D01*
X034047Y034656D01*
X034028Y034661D01*
X034012Y034671D01*
X033997Y034683D01*
X033985Y034698D01*
X033975Y034714D01*
X033970Y034733D01*
X033968Y034752D01*
X033318Y034752D02*
X033320Y034771D01*
X033325Y034790D01*
X033335Y034806D01*
X033347Y034821D01*
X033362Y034833D01*
X033378Y034843D01*
X033397Y034848D01*
X033416Y034850D01*
X033435Y034848D01*
X033454Y034843D01*
X033470Y034833D01*
X033485Y034821D01*
X033497Y034806D01*
X033507Y034790D01*
X033512Y034771D01*
X033514Y034752D01*
X033512Y034733D01*
X033507Y034714D01*
X033497Y034698D01*
X033485Y034683D01*
X033470Y034671D01*
X033454Y034661D01*
X033435Y034656D01*
X033416Y034654D01*
X033397Y034656D01*
X033378Y034661D01*
X033362Y034671D01*
X033347Y034683D01*
X033335Y034698D01*
X033325Y034714D01*
X033320Y034733D01*
X033318Y034752D01*
X032964Y034752D02*
X032966Y034771D01*
X032971Y034790D01*
X032981Y034806D01*
X032993Y034821D01*
X033008Y034833D01*
X033024Y034843D01*
X033043Y034848D01*
X033062Y034850D01*
X033081Y034848D01*
X033100Y034843D01*
X033116Y034833D01*
X033131Y034821D01*
X033143Y034806D01*
X033153Y034790D01*
X033158Y034771D01*
X033160Y034752D01*
X033158Y034733D01*
X033153Y034714D01*
X033143Y034698D01*
X033131Y034683D01*
X033116Y034671D01*
X033100Y034661D01*
X033081Y034656D01*
X033062Y034654D01*
X033043Y034656D01*
X033024Y034661D01*
X033008Y034671D01*
X032993Y034683D01*
X032981Y034698D01*
X032971Y034714D01*
X032966Y034733D01*
X032964Y034752D01*
X032315Y034752D02*
X032317Y034771D01*
X032322Y034790D01*
X032332Y034806D01*
X032344Y034821D01*
X032359Y034833D01*
X032375Y034843D01*
X032394Y034848D01*
X032413Y034850D01*
X032432Y034848D01*
X032451Y034843D01*
X032467Y034833D01*
X032482Y034821D01*
X032494Y034806D01*
X032504Y034790D01*
X032509Y034771D01*
X032511Y034752D01*
X032509Y034733D01*
X032504Y034714D01*
X032494Y034698D01*
X032482Y034683D01*
X032467Y034671D01*
X032451Y034661D01*
X032432Y034656D01*
X032413Y034654D01*
X032394Y034656D01*
X032375Y034661D01*
X032359Y034671D01*
X032344Y034683D01*
X032332Y034698D01*
X032322Y034714D01*
X032317Y034733D01*
X032315Y034752D01*
X031960Y034752D02*
X031962Y034771D01*
X031967Y034790D01*
X031977Y034806D01*
X031989Y034821D01*
X032004Y034833D01*
X032020Y034843D01*
X032039Y034848D01*
X032058Y034850D01*
X032077Y034848D01*
X032096Y034843D01*
X032112Y034833D01*
X032127Y034821D01*
X032139Y034806D01*
X032149Y034790D01*
X032154Y034771D01*
X032156Y034752D01*
X032154Y034733D01*
X032149Y034714D01*
X032139Y034698D01*
X032127Y034683D01*
X032112Y034671D01*
X032096Y034661D01*
X032077Y034656D01*
X032058Y034654D01*
X032039Y034656D01*
X032020Y034661D01*
X032004Y034671D01*
X031989Y034683D01*
X031977Y034698D01*
X031967Y034714D01*
X031962Y034733D01*
X031960Y034752D01*
X031330Y034752D02*
X031332Y034771D01*
X031337Y034790D01*
X031347Y034806D01*
X031359Y034821D01*
X031374Y034833D01*
X031390Y034843D01*
X031409Y034848D01*
X031428Y034850D01*
X031447Y034848D01*
X031466Y034843D01*
X031482Y034833D01*
X031497Y034821D01*
X031509Y034806D01*
X031519Y034790D01*
X031524Y034771D01*
X031526Y034752D01*
X031524Y034733D01*
X031519Y034714D01*
X031509Y034698D01*
X031497Y034683D01*
X031482Y034671D01*
X031466Y034661D01*
X031447Y034656D01*
X031428Y034654D01*
X031409Y034656D01*
X031390Y034661D01*
X031374Y034671D01*
X031359Y034683D01*
X031347Y034698D01*
X031337Y034714D01*
X031332Y034733D01*
X031330Y034752D01*
X030976Y034752D02*
X030978Y034771D01*
X030983Y034790D01*
X030993Y034806D01*
X031005Y034821D01*
X031020Y034833D01*
X031036Y034843D01*
X031055Y034848D01*
X031074Y034850D01*
X031093Y034848D01*
X031112Y034843D01*
X031128Y034833D01*
X031143Y034821D01*
X031155Y034806D01*
X031165Y034790D01*
X031170Y034771D01*
X031172Y034752D01*
X031170Y034733D01*
X031165Y034714D01*
X031155Y034698D01*
X031143Y034683D01*
X031128Y034671D01*
X031112Y034661D01*
X031093Y034656D01*
X031074Y034654D01*
X031055Y034656D01*
X031036Y034661D01*
X031020Y034671D01*
X031005Y034683D01*
X030993Y034698D01*
X030983Y034714D01*
X030978Y034733D01*
X030976Y034752D01*
X030189Y034752D02*
X030191Y034771D01*
X030196Y034790D01*
X030206Y034806D01*
X030218Y034821D01*
X030233Y034833D01*
X030249Y034843D01*
X030268Y034848D01*
X030287Y034850D01*
X030306Y034848D01*
X030325Y034843D01*
X030341Y034833D01*
X030356Y034821D01*
X030368Y034806D01*
X030378Y034790D01*
X030383Y034771D01*
X030385Y034752D01*
X030383Y034733D01*
X030378Y034714D01*
X030368Y034698D01*
X030356Y034683D01*
X030341Y034671D01*
X030325Y034661D01*
X030306Y034656D01*
X030287Y034654D01*
X030268Y034656D01*
X030249Y034661D01*
X030233Y034671D01*
X030218Y034683D01*
X030206Y034698D01*
X030196Y034714D01*
X030191Y034733D01*
X030189Y034752D01*
X029795Y034752D02*
X029797Y034771D01*
X029802Y034790D01*
X029812Y034806D01*
X029824Y034821D01*
X029839Y034833D01*
X029855Y034843D01*
X029874Y034848D01*
X029893Y034850D01*
X029912Y034848D01*
X029931Y034843D01*
X029947Y034833D01*
X029962Y034821D01*
X029974Y034806D01*
X029984Y034790D01*
X029989Y034771D01*
X029991Y034752D01*
X029989Y034733D01*
X029984Y034714D01*
X029974Y034698D01*
X029962Y034683D01*
X029947Y034671D01*
X029931Y034661D01*
X029912Y034656D01*
X029893Y034654D01*
X029874Y034656D01*
X029855Y034661D01*
X029839Y034671D01*
X029824Y034683D01*
X029812Y034698D01*
X029802Y034714D01*
X029797Y034733D01*
X029795Y034752D01*
X029401Y034752D02*
X029403Y034771D01*
X029408Y034790D01*
X029418Y034806D01*
X029430Y034821D01*
X029445Y034833D01*
X029461Y034843D01*
X029480Y034848D01*
X029499Y034850D01*
X029518Y034848D01*
X029537Y034843D01*
X029553Y034833D01*
X029568Y034821D01*
X029580Y034806D01*
X029590Y034790D01*
X029595Y034771D01*
X029597Y034752D01*
X029595Y034733D01*
X029590Y034714D01*
X029580Y034698D01*
X029568Y034683D01*
X029553Y034671D01*
X029537Y034661D01*
X029518Y034656D01*
X029499Y034654D01*
X029480Y034656D01*
X029461Y034661D01*
X029445Y034671D01*
X029430Y034683D01*
X029418Y034698D01*
X029408Y034714D01*
X029403Y034733D01*
X029401Y034752D01*
X029007Y034752D02*
X029009Y034771D01*
X029014Y034790D01*
X029024Y034806D01*
X029036Y034821D01*
X029051Y034833D01*
X029067Y034843D01*
X029086Y034848D01*
X029105Y034850D01*
X029124Y034848D01*
X029143Y034843D01*
X029159Y034833D01*
X029174Y034821D01*
X029186Y034806D01*
X029196Y034790D01*
X029201Y034771D01*
X029203Y034752D01*
X029201Y034733D01*
X029196Y034714D01*
X029186Y034698D01*
X029174Y034683D01*
X029159Y034671D01*
X029143Y034661D01*
X029124Y034656D01*
X029105Y034654D01*
X029086Y034656D01*
X029067Y034661D01*
X029051Y034671D01*
X029036Y034683D01*
X029024Y034698D01*
X029014Y034714D01*
X029009Y034733D01*
X029007Y034752D01*
X020581Y049947D02*
X020583Y049995D01*
X020589Y050043D01*
X020599Y050090D01*
X020612Y050136D01*
X020630Y050181D01*
X020650Y050225D01*
X020675Y050267D01*
X020703Y050306D01*
X020733Y050343D01*
X020767Y050377D01*
X020804Y050409D01*
X020842Y050438D01*
X020883Y050463D01*
X020926Y050485D01*
X020971Y050503D01*
X021017Y050517D01*
X021064Y050528D01*
X021112Y050535D01*
X021160Y050538D01*
X021208Y050537D01*
X021256Y050532D01*
X021304Y050523D01*
X021350Y050511D01*
X021395Y050494D01*
X021439Y050474D01*
X021481Y050451D01*
X021521Y050424D01*
X021559Y050394D01*
X021594Y050361D01*
X021626Y050325D01*
X021656Y050287D01*
X021682Y050246D01*
X021704Y050203D01*
X021724Y050159D01*
X021739Y050114D01*
X021751Y050067D01*
X021759Y050019D01*
X021763Y049971D01*
X021763Y049923D01*
X021759Y049875D01*
X021751Y049827D01*
X021739Y049780D01*
X021724Y049735D01*
X021704Y049691D01*
X021682Y049648D01*
X021656Y049607D01*
X021626Y049569D01*
X021594Y049533D01*
X021559Y049500D01*
X021521Y049470D01*
X021481Y049443D01*
X021439Y049420D01*
X021395Y049400D01*
X021350Y049383D01*
X021304Y049371D01*
X021256Y049362D01*
X021208Y049357D01*
X021160Y049356D01*
X021112Y049359D01*
X021064Y049366D01*
X021017Y049377D01*
X020971Y049391D01*
X020926Y049409D01*
X020883Y049431D01*
X020842Y049456D01*
X020804Y049485D01*
X020767Y049517D01*
X020733Y049551D01*
X020703Y049588D01*
X020675Y049627D01*
X020650Y049669D01*
X020630Y049713D01*
X020612Y049758D01*
X020599Y049804D01*
X020589Y049851D01*
X020583Y049899D01*
X020581Y049947D01*
X035581Y052447D02*
X035583Y052495D01*
X035589Y052543D01*
X035599Y052590D01*
X035612Y052636D01*
X035630Y052681D01*
X035650Y052725D01*
X035675Y052767D01*
X035703Y052806D01*
X035733Y052843D01*
X035767Y052877D01*
X035804Y052909D01*
X035842Y052938D01*
X035883Y052963D01*
X035926Y052985D01*
X035971Y053003D01*
X036017Y053017D01*
X036064Y053028D01*
X036112Y053035D01*
X036160Y053038D01*
X036208Y053037D01*
X036256Y053032D01*
X036304Y053023D01*
X036350Y053011D01*
X036395Y052994D01*
X036439Y052974D01*
X036481Y052951D01*
X036521Y052924D01*
X036559Y052894D01*
X036594Y052861D01*
X036626Y052825D01*
X036656Y052787D01*
X036682Y052746D01*
X036704Y052703D01*
X036724Y052659D01*
X036739Y052614D01*
X036751Y052567D01*
X036759Y052519D01*
X036763Y052471D01*
X036763Y052423D01*
X036759Y052375D01*
X036751Y052327D01*
X036739Y052280D01*
X036724Y052235D01*
X036704Y052191D01*
X036682Y052148D01*
X036656Y052107D01*
X036626Y052069D01*
X036594Y052033D01*
X036559Y052000D01*
X036521Y051970D01*
X036481Y051943D01*
X036439Y051920D01*
X036395Y051900D01*
X036350Y051883D01*
X036304Y051871D01*
X036256Y051862D01*
X036208Y051857D01*
X036160Y051856D01*
X036112Y051859D01*
X036064Y051866D01*
X036017Y051877D01*
X035971Y051891D01*
X035926Y051909D01*
X035883Y051931D01*
X035842Y051956D01*
X035804Y051985D01*
X035767Y052017D01*
X035733Y052051D01*
X035703Y052088D01*
X035675Y052127D01*
X035650Y052169D01*
X035630Y052213D01*
X035612Y052258D01*
X035599Y052304D01*
X035589Y052351D01*
X035583Y052399D01*
X035581Y052447D01*
D11*
X036195Y045522D02*
X036195Y042845D01*
X038577Y042845D01*
X038577Y045522D01*
X036195Y045522D01*
X036510Y045483D02*
X036510Y042865D01*
X036882Y042296D02*
X037496Y042296D01*
X037189Y041989D02*
X037189Y042603D01*
X037966Y042885D02*
X037966Y045483D01*
X038458Y045483D02*
X038458Y042885D01*
X036805Y043495D02*
X036807Y043535D01*
X036813Y043576D01*
X036823Y043615D01*
X036836Y043653D01*
X036854Y043690D01*
X036875Y043724D01*
X036899Y043757D01*
X036926Y043787D01*
X036956Y043814D01*
X036989Y043838D01*
X037023Y043859D01*
X037060Y043877D01*
X037098Y043890D01*
X037137Y043900D01*
X037178Y043906D01*
X037218Y043908D01*
X037258Y043906D01*
X037299Y043900D01*
X037338Y043890D01*
X037376Y043877D01*
X037413Y043859D01*
X037447Y043838D01*
X037480Y043814D01*
X037510Y043787D01*
X037537Y043757D01*
X037561Y043724D01*
X037582Y043690D01*
X037600Y043653D01*
X037613Y043615D01*
X037623Y043576D01*
X037629Y043535D01*
X037631Y043495D01*
X037629Y043455D01*
X037623Y043414D01*
X037613Y043375D01*
X037600Y043337D01*
X037582Y043300D01*
X037561Y043266D01*
X037537Y043233D01*
X037510Y043203D01*
X037480Y043176D01*
X037447Y043152D01*
X037413Y043131D01*
X037376Y043113D01*
X037338Y043100D01*
X037299Y043090D01*
X037258Y043084D01*
X037218Y043082D01*
X037178Y043084D01*
X037137Y043090D01*
X037098Y043100D01*
X037060Y043113D01*
X037023Y043131D01*
X036989Y043152D01*
X036956Y043176D01*
X036926Y043203D01*
X036899Y043233D01*
X036875Y043266D01*
X036854Y043300D01*
X036836Y043337D01*
X036823Y043375D01*
X036813Y043414D01*
X036807Y043455D01*
X036805Y043495D01*
X036805Y044873D02*
X036807Y044913D01*
X036813Y044954D01*
X036823Y044993D01*
X036836Y045031D01*
X036854Y045068D01*
X036875Y045102D01*
X036899Y045135D01*
X036926Y045165D01*
X036956Y045192D01*
X036989Y045216D01*
X037023Y045237D01*
X037060Y045255D01*
X037098Y045268D01*
X037137Y045278D01*
X037178Y045284D01*
X037218Y045286D01*
X037258Y045284D01*
X037299Y045278D01*
X037338Y045268D01*
X037376Y045255D01*
X037413Y045237D01*
X037447Y045216D01*
X037480Y045192D01*
X037510Y045165D01*
X037537Y045135D01*
X037561Y045102D01*
X037582Y045068D01*
X037600Y045031D01*
X037613Y044993D01*
X037623Y044954D01*
X037629Y044913D01*
X037631Y044873D01*
X037629Y044833D01*
X037623Y044792D01*
X037613Y044753D01*
X037600Y044715D01*
X037582Y044678D01*
X037561Y044644D01*
X037537Y044611D01*
X037510Y044581D01*
X037480Y044554D01*
X037447Y044530D01*
X037413Y044509D01*
X037376Y044491D01*
X037338Y044478D01*
X037299Y044468D01*
X037258Y044462D01*
X037218Y044460D01*
X037178Y044462D01*
X037137Y044468D01*
X037098Y044478D01*
X037060Y044491D01*
X037023Y044509D01*
X036989Y044530D01*
X036956Y044554D01*
X036926Y044581D01*
X036899Y044611D01*
X036875Y044644D01*
X036854Y044678D01*
X036836Y044715D01*
X036823Y044753D01*
X036813Y044792D01*
X036807Y044833D01*
X036805Y044873D01*
D12*
X035228Y045992D02*
X035228Y046363D01*
X035043Y046363D01*
X034981Y046301D01*
X034981Y046178D01*
X035043Y046116D01*
X035228Y046116D01*
X035104Y046116D02*
X034981Y045992D01*
X034860Y045992D02*
X034613Y046239D01*
X034860Y046239D02*
X034613Y045992D01*
X034076Y045998D02*
X034076Y046368D01*
X034199Y046368D02*
X033952Y046368D01*
X033831Y046245D02*
X033584Y045998D01*
X033831Y045998D02*
X033584Y046245D01*
X030513Y044378D02*
X030513Y044193D01*
X030143Y044193D01*
X030143Y044378D01*
X030204Y044440D01*
X030451Y044440D01*
X030513Y044378D01*
X030513Y044071D02*
X030143Y044071D01*
X030513Y043824D01*
X030143Y043824D01*
X030204Y043703D02*
X030328Y043703D01*
X030328Y043580D01*
X030451Y043703D02*
X030513Y043641D01*
X030513Y043518D01*
X030451Y043456D01*
X030204Y043456D01*
X030143Y043518D01*
X030143Y043641D01*
X030204Y043703D01*
X028871Y042731D02*
X028810Y042608D01*
X028686Y042484D01*
X028686Y042670D01*
X028624Y042731D01*
X028563Y042731D01*
X028501Y042670D01*
X028501Y042546D01*
X028563Y042484D01*
X028686Y042484D01*
X028686Y042363D02*
X028686Y042116D01*
X028748Y042116D02*
X028871Y042240D01*
X028748Y042363D01*
X028501Y042363D01*
X028501Y042116D02*
X028748Y042116D01*
X027946Y042259D02*
X027823Y042383D01*
X027576Y042383D01*
X027761Y042383D02*
X027761Y042136D01*
X027823Y042136D02*
X027946Y042259D01*
X027823Y042136D02*
X027576Y042136D01*
X027761Y042504D02*
X027761Y042751D01*
X027576Y042689D02*
X027946Y042689D01*
X027761Y042504D01*
X026903Y042605D02*
X026841Y042544D01*
X026903Y042605D02*
X026903Y042729D01*
X026841Y042790D01*
X026779Y042790D01*
X026532Y042544D01*
X026532Y042790D01*
X026532Y042422D02*
X026779Y042422D01*
X026903Y042299D01*
X026779Y042175D01*
X026532Y042175D01*
X026718Y042175D02*
X026718Y042422D01*
X025879Y042279D02*
X025756Y042402D01*
X025509Y042402D01*
X025571Y042524D02*
X025817Y042771D01*
X025571Y042771D01*
X025509Y042709D01*
X025509Y042586D01*
X025571Y042524D01*
X025817Y042524D01*
X025879Y042586D01*
X025879Y042709D01*
X025817Y042771D01*
X025694Y042402D02*
X025694Y042156D01*
X025756Y042156D02*
X025879Y042279D01*
X025756Y042156D02*
X025509Y042156D01*
X024895Y042254D02*
X024710Y042254D01*
X024771Y042377D01*
X024771Y042439D01*
X024710Y042501D01*
X024586Y042501D01*
X024525Y042439D01*
X024525Y042316D01*
X024586Y042254D01*
X024895Y042254D02*
X024895Y042501D01*
X024895Y042622D02*
X024648Y042622D01*
X024525Y042746D01*
X024648Y042869D01*
X024895Y042869D01*
X023903Y042855D02*
X023533Y042855D01*
X023533Y042732D02*
X023533Y042979D01*
X023780Y042732D02*
X023903Y042855D01*
X023903Y042487D02*
X023533Y042487D01*
X023533Y042364D02*
X023533Y042611D01*
X023780Y042364D02*
X023903Y042487D01*
X023841Y042242D02*
X023903Y042180D01*
X023903Y041995D01*
X023533Y041995D01*
X023533Y042180D01*
X023595Y042242D01*
X023841Y042242D01*
X022080Y043384D02*
X022080Y043508D01*
X022018Y043570D01*
X021957Y043570D01*
X021895Y043508D01*
X021833Y043570D01*
X021771Y043570D01*
X021710Y043508D01*
X021710Y043384D01*
X021771Y043323D01*
X021895Y043446D02*
X021895Y043508D01*
X021833Y043691D02*
X021710Y043814D01*
X021833Y043938D01*
X022080Y043938D01*
X022018Y044059D02*
X022080Y044121D01*
X022080Y044244D01*
X022018Y044306D01*
X021957Y044306D01*
X021895Y044244D01*
X021833Y044306D01*
X021771Y044306D01*
X021710Y044244D01*
X021710Y044121D01*
X021771Y044059D01*
X021895Y044183D02*
X021895Y044244D01*
X021833Y043691D02*
X022080Y043691D01*
X022080Y043384D02*
X022018Y043323D01*
X023474Y044889D02*
X023474Y045074D01*
X023536Y045136D01*
X023782Y045136D01*
X023844Y045074D01*
X023844Y044889D01*
X023474Y044889D01*
X023474Y045257D02*
X023474Y045504D01*
X023474Y045626D02*
X023721Y045873D01*
X023782Y045873D01*
X023844Y045811D01*
X023844Y045687D01*
X023782Y045626D01*
X023844Y045381D02*
X023474Y045381D01*
X023474Y045626D02*
X023474Y045873D01*
X023844Y045381D02*
X023721Y045257D01*
X024537Y045381D02*
X024660Y045504D01*
X024907Y045504D01*
X024907Y045257D02*
X024660Y045257D01*
X024537Y045381D01*
X024599Y045136D02*
X024537Y045074D01*
X024537Y044951D01*
X024599Y044889D01*
X024722Y044889D02*
X024784Y045012D01*
X024784Y045074D01*
X024722Y045136D01*
X024599Y045136D01*
X024722Y044889D02*
X024907Y044889D01*
X024907Y045136D01*
X025560Y045153D02*
X025560Y044968D01*
X025931Y044968D01*
X025931Y045153D01*
X025869Y045215D01*
X025622Y045215D01*
X025560Y045153D01*
X025560Y045336D02*
X025560Y045583D01*
X025560Y045460D02*
X025931Y045460D01*
X025807Y045336D01*
X025869Y045704D02*
X025931Y045766D01*
X025931Y045890D01*
X025869Y045951D01*
X025807Y045951D01*
X025746Y045890D01*
X025684Y045951D01*
X025622Y045951D01*
X025560Y045890D01*
X025560Y045766D01*
X025622Y045704D01*
X025746Y045828D02*
X025746Y045890D01*
X026584Y045583D02*
X026584Y045336D01*
X026584Y045215D02*
X026831Y045215D01*
X026954Y045091D01*
X026831Y044968D01*
X026584Y044968D01*
X026769Y044968D02*
X026769Y045215D01*
X026831Y045336D02*
X026954Y045460D01*
X026584Y045460D01*
X027608Y045502D02*
X027608Y045378D01*
X027669Y045316D01*
X027608Y045195D02*
X027855Y045195D01*
X027978Y045072D01*
X027855Y044948D01*
X027608Y044948D01*
X027793Y044948D02*
X027793Y045195D01*
X027916Y045316D02*
X027978Y045378D01*
X027978Y045502D01*
X027916Y045563D01*
X027855Y045563D01*
X027793Y045502D01*
X027731Y045563D01*
X027669Y045563D01*
X027608Y045502D01*
X027793Y045502D02*
X027793Y045440D01*
X028612Y045482D02*
X028612Y045358D01*
X028673Y045297D01*
X028797Y045297D02*
X028858Y045420D01*
X028858Y045482D01*
X028797Y045544D01*
X028673Y045544D01*
X028612Y045482D01*
X028797Y045297D02*
X028982Y045297D01*
X028982Y045544D01*
X028858Y045175D02*
X028612Y045175D01*
X028797Y045175D02*
X028797Y044928D01*
X028858Y044928D02*
X028612Y044928D01*
X028858Y044928D02*
X028982Y045052D01*
X028858Y045175D01*
X027391Y049434D02*
X027267Y049434D01*
X027206Y049496D01*
X027084Y049496D02*
X027022Y049434D01*
X026899Y049434D01*
X026837Y049496D01*
X026837Y049743D02*
X026899Y049805D01*
X027022Y049805D01*
X027084Y049743D01*
X027084Y049496D01*
X027206Y049743D02*
X027267Y049805D01*
X027391Y049805D01*
X027452Y049743D01*
X027452Y049496D01*
X027391Y049434D01*
X026348Y049434D02*
X026162Y049434D01*
X026101Y049496D01*
X026101Y049558D01*
X026162Y049619D01*
X026348Y049619D01*
X026348Y049434D02*
X026348Y049805D01*
X026162Y049805D01*
X026101Y049743D01*
X026101Y049681D01*
X026162Y049619D01*
X025979Y049743D02*
X025856Y049619D01*
X025856Y049434D01*
X025856Y049619D02*
X025732Y049743D01*
X025732Y049805D01*
X025611Y049619D02*
X025364Y049619D01*
X025243Y049681D02*
X025181Y049619D01*
X025057Y049619D01*
X024996Y049558D01*
X024996Y049496D01*
X025057Y049434D01*
X025181Y049434D01*
X025243Y049496D01*
X025243Y049681D02*
X025243Y049743D01*
X025181Y049805D01*
X025057Y049805D01*
X024996Y049743D01*
X024874Y049681D02*
X024751Y049805D01*
X024627Y049681D01*
X024627Y049434D01*
X024627Y049619D02*
X024874Y049619D01*
X024874Y049681D02*
X024874Y049434D01*
X024138Y049619D02*
X023891Y049619D01*
X023769Y049496D02*
X023708Y049496D01*
X023708Y049434D01*
X023769Y049434D01*
X023769Y049496D01*
X023585Y049496D02*
X023338Y049743D01*
X023338Y049496D01*
X023400Y049434D01*
X023523Y049434D01*
X023585Y049496D01*
X023585Y049743D01*
X023523Y049805D01*
X023400Y049805D01*
X023338Y049743D01*
X023952Y049805D02*
X024138Y049619D01*
X023952Y049434D02*
X023952Y049805D01*
X025979Y049805D02*
X025979Y049743D01*
X036457Y051105D02*
X036602Y051105D01*
X036651Y051154D01*
X036651Y051250D01*
X036602Y051299D01*
X036457Y051299D01*
X036752Y051299D02*
X036897Y051299D01*
X036945Y051250D01*
X036945Y051154D01*
X036897Y051105D01*
X036752Y051105D01*
X037047Y051202D02*
X037047Y051395D01*
X037240Y051395D02*
X037240Y051202D01*
X037143Y051105D01*
X037047Y051202D01*
X037393Y050688D02*
X037639Y050688D01*
X037516Y050688D02*
X037516Y050318D01*
X037761Y050379D02*
X037823Y050318D01*
X038008Y050318D01*
X038008Y050688D01*
X037823Y050688D01*
X037761Y050626D01*
X037761Y050565D01*
X037823Y050503D01*
X038008Y050503D01*
X037823Y050503D02*
X037761Y050441D01*
X037761Y050379D01*
X037770Y049913D02*
X037400Y049913D01*
X037400Y049790D02*
X037400Y050037D01*
X037647Y049790D02*
X037770Y049913D01*
X037709Y049668D02*
X037462Y049422D01*
X037400Y049483D01*
X037400Y049607D01*
X037462Y049668D01*
X037709Y049668D01*
X037770Y049607D01*
X037770Y049483D01*
X037709Y049422D01*
X037462Y049422D01*
X037585Y049300D02*
X037585Y049053D01*
X037585Y048932D02*
X037523Y048870D01*
X037523Y048685D01*
X037523Y048563D02*
X037462Y048563D01*
X037400Y048502D01*
X037400Y048378D01*
X037462Y048317D01*
X037400Y048195D02*
X037400Y047948D01*
X037770Y047948D01*
X037770Y048195D01*
X037709Y048317D02*
X037647Y048317D01*
X037585Y048378D01*
X037585Y048502D01*
X037523Y048563D01*
X037400Y048685D02*
X037770Y048685D01*
X037770Y048870D01*
X037709Y048932D01*
X037585Y048932D01*
X037709Y048563D02*
X037770Y048502D01*
X037770Y048378D01*
X037709Y048317D01*
X037585Y048072D02*
X037585Y047948D01*
X030678Y024214D02*
X030740Y024152D01*
X030740Y023905D01*
X030678Y023844D01*
X030555Y023844D01*
X030493Y023905D01*
X030372Y023905D02*
X030310Y023844D01*
X030186Y023844D01*
X030125Y023905D01*
X030372Y023905D02*
X030372Y024152D01*
X030310Y024214D01*
X030186Y024214D01*
X030125Y024152D01*
X030493Y024152D02*
X030555Y024214D01*
X030678Y024214D01*
X029635Y024214D02*
X029450Y024214D01*
X029388Y024152D01*
X029388Y024091D01*
X029450Y024029D01*
X029635Y024029D01*
X029635Y023844D02*
X029635Y024214D01*
X029450Y024029D02*
X029388Y023967D01*
X029388Y023905D01*
X029450Y023844D01*
X029635Y023844D01*
X029267Y024152D02*
X029143Y024029D01*
X029143Y023844D01*
X029143Y024029D02*
X029020Y024152D01*
X029020Y024214D01*
X028898Y024029D02*
X028651Y024029D01*
X028530Y024091D02*
X028468Y024029D01*
X028345Y024029D01*
X028283Y023967D01*
X028283Y023905D01*
X028345Y023844D01*
X028468Y023844D01*
X028530Y023905D01*
X028530Y024091D02*
X028530Y024152D01*
X028468Y024214D01*
X028345Y024214D01*
X028283Y024152D01*
X028162Y024091D02*
X028038Y024214D01*
X027915Y024091D01*
X027915Y023844D01*
X027915Y024029D02*
X028162Y024029D01*
X028162Y024091D02*
X028162Y023844D01*
X027425Y024029D02*
X027178Y024029D01*
X027057Y023905D02*
X026995Y023905D01*
X026995Y023844D01*
X027057Y023844D01*
X027057Y023905D01*
X026873Y023905D02*
X026626Y024152D01*
X026626Y023905D01*
X026687Y023844D01*
X026811Y023844D01*
X026873Y023905D01*
X026873Y024152D01*
X026811Y024214D01*
X026687Y024214D01*
X026626Y024152D01*
X027240Y024214D02*
X027425Y024029D01*
X027240Y023844D02*
X027240Y024214D01*
X029267Y024214D02*
X029267Y024152D01*
X024110Y018297D02*
X023924Y018297D01*
X024110Y018297D02*
X024171Y018236D01*
X024171Y018051D01*
X023924Y018051D01*
X023986Y017929D02*
X024110Y017929D01*
X024171Y017867D01*
X024171Y017744D01*
X024110Y017682D01*
X023986Y017682D01*
X023924Y017744D01*
X023924Y017867D01*
X023986Y017929D01*
X024110Y017561D02*
X024110Y017314D01*
X024171Y017193D02*
X024171Y017007D01*
X024110Y016946D01*
X024048Y017007D01*
X024048Y017131D01*
X023986Y017193D01*
X023924Y017131D01*
X023924Y016946D01*
X023924Y016824D02*
X023924Y016639D01*
X023986Y016577D01*
X024110Y016577D01*
X024171Y016639D01*
X024171Y016824D01*
X024295Y016824D02*
X023924Y016824D01*
X024048Y016456D02*
X024048Y016209D01*
X023986Y016209D02*
X024110Y016209D01*
X024171Y016271D01*
X024171Y016394D01*
X024110Y016456D01*
X024048Y016456D01*
X023924Y016394D02*
X023924Y016271D01*
X023986Y016209D01*
X023924Y016088D02*
X023924Y015841D01*
X024295Y015841D01*
D13*
X024214Y039674D02*
X024010Y039674D01*
X023908Y039776D01*
X023908Y039979D01*
X024010Y040081D01*
X024214Y040081D01*
X024315Y039979D01*
X024315Y039776D01*
X024214Y039674D01*
X024516Y039776D02*
X024516Y039979D01*
X024618Y040081D01*
X024923Y040081D01*
X024923Y040285D02*
X024923Y039674D01*
X024618Y039674D01*
X024516Y039776D01*
X023708Y040081D02*
X023504Y040081D01*
X023606Y040183D02*
X023606Y039776D01*
X023504Y039674D01*
X023303Y039674D02*
X023201Y039674D01*
X023201Y039776D01*
X023303Y039776D01*
X023303Y039674D01*
X022999Y039776D02*
X022897Y039674D01*
X022592Y039674D01*
X022391Y039776D02*
X022289Y039674D01*
X022086Y039674D01*
X021984Y039776D01*
X021984Y039979D01*
X022086Y040081D01*
X022289Y040081D01*
X022391Y039979D01*
X022391Y039776D01*
X022592Y040081D02*
X022897Y040081D01*
X022999Y039979D01*
X022999Y039776D01*
X021783Y039674D02*
X021783Y040081D01*
X021682Y040081D01*
X021580Y039979D01*
X021478Y040081D01*
X021376Y039979D01*
X021376Y039674D01*
X021580Y039674D02*
X021580Y039979D01*
X025124Y039979D02*
X025124Y039674D01*
X025429Y039674D01*
X025531Y039776D01*
X025429Y039878D01*
X025124Y039878D01*
X025124Y039979D02*
X025226Y040081D01*
X025429Y040081D01*
X025732Y039979D02*
X025732Y039674D01*
X025732Y039979D02*
X025833Y040081D01*
X026139Y040081D01*
X026139Y039674D01*
X026340Y040081D02*
X026442Y040081D01*
X026645Y039878D01*
X026645Y040081D02*
X026645Y039674D01*
X026846Y039776D02*
X026846Y039979D01*
X026947Y040081D01*
X027151Y040081D01*
X027253Y039979D01*
X027253Y039776D01*
X027151Y039674D01*
X026947Y039674D01*
X026846Y039776D01*
X027453Y039674D02*
X027759Y039674D01*
X027860Y039776D01*
X027860Y039979D01*
X027759Y040081D01*
X027453Y040081D01*
X028061Y040081D02*
X028366Y040081D01*
X028468Y039979D01*
X028366Y039878D01*
X028163Y039878D01*
X028061Y039776D01*
X028163Y039674D01*
X028468Y039674D01*
X028669Y039878D02*
X029076Y039878D01*
X029076Y039979D02*
X028974Y040081D01*
X028771Y040081D01*
X028669Y039979D01*
X028669Y039878D01*
X028771Y039674D02*
X028974Y039674D01*
X029076Y039776D01*
X029076Y039979D01*
X029277Y040285D02*
X029684Y039674D01*
X030291Y039674D02*
X029884Y040285D01*
X030493Y040081D02*
X030493Y039979D01*
X030595Y039979D01*
X030595Y040081D01*
X030493Y040081D01*
X030493Y039776D02*
X030493Y039674D01*
X030595Y039674D01*
X030595Y039776D01*
X030493Y039776D01*
X030796Y039776D02*
X030898Y039674D01*
X031203Y039674D01*
X031405Y039674D02*
X031506Y039776D01*
X031506Y040183D01*
X031405Y040081D02*
X031608Y040081D01*
X031810Y040081D02*
X032013Y040081D01*
X031911Y040183D02*
X031911Y039776D01*
X031810Y039674D01*
X032214Y039674D02*
X032214Y039979D01*
X032316Y040081D01*
X032519Y040081D01*
X032621Y039979D01*
X032621Y039674D02*
X032621Y040285D01*
X031203Y040081D02*
X031203Y039471D01*
X030796Y039776D02*
X030796Y039979D01*
X030898Y040081D01*
X031203Y040081D01*
X031294Y052047D02*
X027751Y052047D01*
X027751Y052244D01*
X027357Y052244D01*
X027357Y052047D01*
X027751Y052047D01*
X027357Y052047D02*
X026609Y052047D01*
X026609Y054311D01*
X032475Y054311D01*
X032475Y052047D01*
X031688Y052047D01*
X031688Y052244D01*
X031294Y052244D01*
X031294Y052047D01*
X031688Y052047D01*
X026525Y052047D02*
X025738Y052047D01*
X025738Y052244D01*
X025344Y052244D01*
X025344Y052047D01*
X025738Y052047D01*
X025344Y052047D02*
X021801Y052047D01*
X021801Y052244D01*
X021407Y052244D01*
X021407Y052047D01*
X021801Y052047D01*
X021407Y052047D02*
X020659Y052047D01*
X020659Y054311D01*
X026525Y054311D01*
X026525Y052047D01*
D14*
X031157Y045287D02*
X031157Y045211D01*
X031003Y045057D01*
X030850Y045057D02*
X031157Y045057D01*
X031080Y044904D02*
X031157Y044827D01*
X031157Y044674D01*
X031080Y044597D01*
X030927Y044597D01*
X030850Y044674D01*
X030850Y044827D01*
X030927Y044904D01*
X031080Y044904D01*
X031499Y044849D02*
X031576Y044925D01*
X031730Y044925D01*
X031806Y044849D01*
X031806Y044695D01*
X031730Y044618D01*
X031576Y044618D01*
X031499Y044695D01*
X031499Y044849D01*
X031499Y045079D02*
X031806Y045079D01*
X031806Y045309D01*
X031730Y045386D01*
X031499Y045386D01*
X031499Y044465D02*
X031499Y044312D01*
X031499Y044388D02*
X031806Y044388D01*
X031806Y044312D01*
X031806Y044158D02*
X031806Y043928D01*
X031730Y043851D01*
X031653Y043928D01*
X031653Y044081D01*
X031576Y044158D01*
X031499Y044081D01*
X031499Y043851D01*
X031499Y043698D02*
X031730Y043698D01*
X031806Y043621D01*
X031806Y043391D01*
X031499Y043391D01*
X031499Y043237D02*
X031499Y043007D01*
X031576Y042930D01*
X031653Y043007D01*
X031653Y043237D01*
X031730Y043237D02*
X031499Y043237D01*
X031730Y043237D02*
X031806Y043161D01*
X031806Y043007D01*
X031730Y042777D02*
X031576Y042777D01*
X031499Y042700D01*
X031499Y042470D01*
X031346Y042470D02*
X031806Y042470D01*
X031806Y042700D01*
X031730Y042777D01*
X031806Y042317D02*
X031499Y042010D01*
X031499Y041856D02*
X031499Y041549D01*
X031960Y041549D01*
X031960Y041856D01*
X031806Y042010D02*
X031499Y042317D01*
X031157Y042218D02*
X031157Y042065D01*
X031080Y041988D01*
X030927Y041988D01*
X030850Y042065D01*
X030850Y042218D01*
X030927Y042295D01*
X031080Y042295D01*
X031157Y042218D01*
X031157Y042448D02*
X031157Y042679D01*
X031080Y042755D01*
X030850Y042755D01*
X030850Y042909D02*
X031157Y042909D01*
X031157Y043139D01*
X031080Y043216D01*
X030850Y043216D01*
X030927Y043369D02*
X031080Y043369D01*
X031157Y043446D01*
X031157Y043599D01*
X031080Y043676D01*
X031003Y043676D01*
X031003Y043369D01*
X030927Y043369D02*
X030850Y043446D01*
X030850Y043599D01*
X030927Y043829D02*
X030850Y043906D01*
X030850Y044136D01*
X030927Y044367D02*
X030850Y044443D01*
X030927Y044367D02*
X031234Y044367D01*
X031157Y044290D02*
X031157Y044443D01*
X031157Y044136D02*
X031157Y043906D01*
X031080Y043829D01*
X030927Y043829D01*
X031960Y044388D02*
X032037Y044388D01*
X031157Y042448D02*
X030850Y042448D01*
X030850Y041834D02*
X030850Y041604D01*
X030927Y041528D01*
X031080Y041528D01*
X031157Y041604D01*
X031157Y041834D01*
X031730Y041703D02*
X031730Y041549D01*
X038006Y043101D02*
X038399Y043101D01*
X038399Y043889D02*
X038006Y043889D01*
X038006Y044479D02*
X038399Y044479D01*
X038399Y045267D02*
X038006Y045267D01*
X033155Y053135D02*
X033155Y053656D01*
X032894Y053656D01*
X032808Y053569D01*
X032808Y053395D01*
X032894Y053309D01*
X033155Y053309D01*
X032981Y053309D02*
X032808Y053135D01*
X020402Y053396D02*
X020055Y053396D01*
X020402Y053396D02*
X020402Y053917D01*
X019262Y053890D02*
X019262Y053770D01*
X019202Y053710D01*
X018962Y053710D01*
X018902Y053770D01*
X018902Y053890D01*
X018962Y053950D01*
X019082Y053950D01*
X019082Y053830D01*
X019202Y053950D02*
X019262Y053890D01*
X019262Y053585D02*
X019262Y053465D01*
X019262Y053525D02*
X018902Y053525D01*
X018902Y053465D02*
X018902Y053585D01*
X018962Y053336D02*
X018902Y053276D01*
X018902Y053156D01*
X018962Y053096D01*
X019082Y053156D02*
X019082Y053276D01*
X019022Y053336D01*
X018962Y053336D01*
X019082Y053156D02*
X019142Y053096D01*
X019202Y053096D01*
X019262Y053156D01*
X019262Y053276D01*
X019202Y053336D01*
X019082Y052968D02*
X019022Y052968D01*
X019022Y052728D01*
X019082Y052728D02*
X019142Y052788D01*
X019142Y052908D01*
X019082Y052968D01*
X018902Y052908D02*
X018902Y052788D01*
X018962Y052728D01*
X019082Y052728D01*
X019202Y052600D02*
X019262Y052540D01*
X019262Y052360D01*
X018902Y052360D01*
X018902Y052540D01*
X018962Y052600D01*
X019202Y052600D01*
X019262Y052232D02*
X018902Y051991D01*
X018902Y052232D02*
X019262Y051991D01*
X019903Y028127D02*
X019816Y028040D01*
X019903Y028127D02*
X020077Y028127D01*
X020163Y028040D01*
X020163Y027693D01*
X020077Y027606D01*
X019903Y027606D01*
X019816Y027693D01*
X019816Y027866D01*
X019990Y027866D01*
X020334Y027606D02*
X020507Y027606D01*
X020420Y027606D02*
X020420Y028127D01*
X020334Y028127D02*
X020507Y028127D01*
X020676Y028040D02*
X020763Y028127D01*
X020936Y028127D01*
X021023Y028040D01*
X021023Y027953D01*
X020936Y027866D01*
X020763Y027866D01*
X020676Y027780D01*
X020676Y027693D01*
X020763Y027606D01*
X020936Y027606D01*
X021023Y027693D01*
X021191Y027780D02*
X021538Y027780D01*
X021538Y027866D02*
X021538Y027693D01*
X021452Y027606D01*
X021278Y027606D01*
X021191Y027780D02*
X021191Y027866D01*
X021278Y027953D01*
X021452Y027953D01*
X021538Y027866D01*
X021707Y027693D02*
X021707Y028040D01*
X021794Y028127D01*
X022054Y028127D01*
X022054Y027606D01*
X021794Y027606D01*
X021707Y027693D01*
X022223Y027606D02*
X022570Y028127D01*
X022223Y028127D02*
X022570Y027606D01*
D15*
X030589Y026429D03*
X033581Y036901D03*
D16*
X033590Y036918D03*
X033590Y036968D03*
X033590Y038818D03*
X033590Y038868D03*
X030598Y028396D03*
X030598Y028346D03*
X030598Y026496D03*
X030598Y026446D03*
D17*
X030598Y026462D03*
X030598Y026479D03*
X030598Y028362D03*
X030598Y028379D03*
X030598Y028412D03*
X033590Y036935D03*
X033590Y036951D03*
X033590Y038835D03*
X033590Y038851D03*
X033590Y038885D03*
D18*
X033681Y037051D03*
X030689Y026579D03*
D19*
X030681Y026662D03*
X030414Y026579D03*
X033406Y037051D03*
X033673Y037135D03*
D20*
X033681Y037068D03*
X034481Y037518D03*
X032681Y037518D03*
X031489Y027046D03*
X030689Y026596D03*
X029689Y027046D03*
D21*
X030414Y026646D03*
X030414Y026596D03*
X033406Y037068D03*
X033406Y037118D03*
D22*
X033681Y037101D03*
X033681Y037085D03*
X032681Y037535D03*
X032681Y037551D03*
X032681Y037585D03*
X032681Y037601D03*
X032681Y037635D03*
X032681Y037651D03*
X032681Y037685D03*
X032681Y037701D03*
X032681Y037735D03*
X032681Y037751D03*
X032681Y037785D03*
X032681Y037801D03*
X032681Y037835D03*
X032681Y037851D03*
X032681Y037885D03*
X032681Y037901D03*
X032681Y037935D03*
X032681Y037951D03*
X032681Y037985D03*
X032681Y038001D03*
X032681Y038035D03*
X032681Y038051D03*
X032681Y038085D03*
X032681Y038101D03*
X032681Y038135D03*
X032681Y038151D03*
X032681Y038185D03*
X032681Y038201D03*
X032681Y038235D03*
X029689Y027762D03*
X029689Y027729D03*
X029689Y027712D03*
X029689Y027679D03*
X029689Y027662D03*
X029689Y027629D03*
X029689Y027612D03*
X029689Y027579D03*
X029689Y027562D03*
X029689Y027529D03*
X029689Y027512D03*
X029689Y027479D03*
X029689Y027462D03*
X029689Y027429D03*
X029689Y027412D03*
X029689Y027379D03*
X029689Y027362D03*
X029689Y027329D03*
X029689Y027312D03*
X029689Y027279D03*
X029689Y027262D03*
X029689Y027229D03*
X029689Y027212D03*
X029689Y027179D03*
X029689Y027162D03*
X029689Y027129D03*
X029689Y027112D03*
X029689Y027079D03*
X029689Y027062D03*
X030689Y026629D03*
X030689Y026612D03*
D23*
X030414Y026612D03*
X030414Y026629D03*
X033406Y037085D03*
X033406Y037101D03*
D24*
X033673Y037118D03*
X034490Y037568D03*
X034490Y037618D03*
X034490Y037668D03*
X034490Y037718D03*
X034490Y037768D03*
X034490Y037818D03*
X034490Y037868D03*
X034490Y037918D03*
X034490Y037968D03*
X034490Y038018D03*
X034490Y038068D03*
X034490Y038118D03*
X034490Y038168D03*
X034490Y038218D03*
X031498Y027746D03*
X031498Y027696D03*
X031498Y027646D03*
X031498Y027596D03*
X031498Y027546D03*
X031498Y027496D03*
X031498Y027446D03*
X031498Y027396D03*
X031498Y027346D03*
X031498Y027296D03*
X031498Y027246D03*
X031498Y027196D03*
X031498Y027146D03*
X031498Y027096D03*
X030681Y026646D03*
D25*
X030414Y026662D03*
X033406Y037135D03*
D26*
X033473Y037201D03*
X030481Y026729D03*
D27*
X030498Y026746D03*
X033490Y037218D03*
D28*
X033490Y037235D03*
X033323Y038651D03*
X030331Y028179D03*
X030498Y026762D03*
D29*
X030498Y026779D03*
X033490Y037251D03*
D30*
X033490Y037268D03*
X033323Y038618D03*
X030331Y028146D03*
X030498Y026796D03*
D31*
X030498Y026812D03*
X030848Y027679D03*
X033490Y037285D03*
X033840Y038151D03*
D32*
X033490Y037301D03*
X030498Y026829D03*
D33*
X030489Y026846D03*
X033481Y037318D03*
D34*
X033481Y037335D03*
X033648Y038285D03*
X030656Y027812D03*
X030489Y026862D03*
D35*
X030481Y026879D03*
X030531Y027912D03*
X030514Y027929D03*
X033473Y037351D03*
X033523Y038385D03*
X033506Y038401D03*
D36*
X033473Y037368D03*
X030481Y026896D03*
D37*
X030473Y026912D03*
X033465Y037385D03*
D38*
X033473Y037401D03*
X030481Y026929D03*
D39*
X030481Y026946D03*
X033473Y037418D03*
D40*
X033473Y037435D03*
X030481Y026962D03*
D41*
X030498Y026979D03*
X030631Y027162D03*
X030648Y027179D03*
X033490Y037451D03*
X033623Y037635D03*
X033640Y037651D03*
D42*
X033615Y037618D03*
X033498Y037468D03*
X030623Y027146D03*
X030506Y026996D03*
D43*
X030514Y027012D03*
X033506Y037485D03*
D44*
X033515Y037501D03*
X033548Y037535D03*
X033565Y037551D03*
X033598Y037585D03*
X033598Y037601D03*
X030606Y027129D03*
X030606Y027112D03*
X030573Y027079D03*
X030556Y027062D03*
X030523Y027029D03*
D45*
X030539Y027046D03*
X030589Y027096D03*
X033531Y037518D03*
X033581Y037568D03*
D46*
X034490Y037551D03*
X034490Y037535D03*
X034490Y037585D03*
X034490Y037601D03*
X034490Y037635D03*
X034490Y037651D03*
X034490Y037685D03*
X034490Y037701D03*
X034490Y037735D03*
X034490Y037751D03*
X034490Y037785D03*
X034490Y037801D03*
X034490Y037835D03*
X034490Y037851D03*
X034490Y037885D03*
X034490Y037901D03*
X034490Y037935D03*
X034490Y037951D03*
X034490Y037985D03*
X034490Y038001D03*
X034490Y038035D03*
X034490Y038051D03*
X034490Y038085D03*
X034490Y038101D03*
X034490Y038135D03*
X034490Y038151D03*
X034490Y038185D03*
X034490Y038201D03*
X034490Y038235D03*
X031498Y027762D03*
X031498Y027729D03*
X031498Y027712D03*
X031498Y027679D03*
X031498Y027662D03*
X031498Y027629D03*
X031498Y027612D03*
X031498Y027579D03*
X031498Y027562D03*
X031498Y027529D03*
X031498Y027512D03*
X031498Y027479D03*
X031498Y027462D03*
X031498Y027429D03*
X031498Y027412D03*
X031498Y027379D03*
X031498Y027362D03*
X031498Y027329D03*
X031498Y027312D03*
X031498Y027279D03*
X031498Y027262D03*
X031498Y027229D03*
X031498Y027212D03*
X031498Y027179D03*
X031498Y027162D03*
X031498Y027129D03*
X031498Y027112D03*
X031498Y027079D03*
X031498Y027062D03*
D47*
X029689Y027096D03*
X029689Y027146D03*
X029689Y027196D03*
X029689Y027246D03*
X029689Y027296D03*
X029689Y027346D03*
X029689Y027396D03*
X029689Y027446D03*
X029689Y027496D03*
X029689Y027546D03*
X029689Y027596D03*
X029689Y027646D03*
X029689Y027696D03*
X029689Y027746D03*
X032681Y037568D03*
X032681Y037618D03*
X032681Y037668D03*
X032681Y037718D03*
X032681Y037768D03*
X032681Y037818D03*
X032681Y037868D03*
X032681Y037918D03*
X032681Y037968D03*
X032681Y038018D03*
X032681Y038068D03*
X032681Y038118D03*
X032681Y038168D03*
X032681Y038218D03*
D48*
X033656Y037668D03*
X030664Y027196D03*
D49*
X030673Y027212D03*
X033665Y037685D03*
D50*
X033690Y037701D03*
X030698Y027229D03*
D51*
X030706Y027246D03*
X033698Y037718D03*
D52*
X033715Y037735D03*
X030723Y027262D03*
D53*
X030739Y027279D03*
X033731Y037751D03*
D54*
X033748Y037768D03*
X030756Y027296D03*
D55*
X030773Y027312D03*
X033765Y037785D03*
D56*
X033798Y037801D03*
X030806Y027329D03*
D57*
X030823Y027346D03*
X033815Y037818D03*
D58*
X033840Y037835D03*
X033423Y038485D03*
X030431Y028012D03*
X030848Y027362D03*
D59*
X030881Y027379D03*
X033873Y037851D03*
D60*
X033906Y037868D03*
X030914Y027396D03*
D61*
X030948Y027412D03*
X033940Y037885D03*
D62*
X033981Y037901D03*
X033915Y038101D03*
X030923Y027629D03*
X030989Y027429D03*
D63*
X031048Y027446D03*
X034040Y037918D03*
D64*
X033656Y037918D03*
X030664Y027446D03*
D65*
X031123Y027462D03*
X034115Y037935D03*
D66*
X034223Y037951D03*
X031231Y027479D03*
D67*
X031198Y027496D03*
X034190Y037968D03*
D68*
X034165Y037985D03*
X031173Y027512D03*
D69*
X031131Y027529D03*
X034123Y038001D03*
D70*
X034081Y038018D03*
X031089Y027546D03*
D71*
X031064Y027562D03*
X034056Y038035D03*
D72*
X034015Y038051D03*
X031023Y027579D03*
D73*
X030989Y027596D03*
X033981Y038068D03*
D74*
X033948Y038085D03*
X030956Y027612D03*
D75*
X030898Y027646D03*
X033890Y038118D03*
D76*
X033865Y038135D03*
X033331Y038601D03*
X030339Y028129D03*
X030873Y027662D03*
D77*
X030823Y027696D03*
X033815Y038168D03*
D78*
X033781Y038185D03*
X030789Y027712D03*
D79*
X030773Y027729D03*
X033765Y038201D03*
D80*
X033740Y038218D03*
X033390Y038518D03*
X030398Y028046D03*
X030748Y027746D03*
D81*
X030723Y027762D03*
X030706Y027779D03*
X030406Y028029D03*
X033715Y038235D03*
X033698Y038251D03*
X033398Y038501D03*
D82*
X034481Y038251D03*
X031489Y027779D03*
D83*
X030681Y027796D03*
X033673Y038268D03*
D84*
X033623Y038301D03*
X033473Y038435D03*
X030481Y027962D03*
X030631Y027829D03*
D85*
X030614Y027846D03*
X033606Y038318D03*
D86*
X033581Y038335D03*
X030589Y027862D03*
D87*
X030573Y027879D03*
X033565Y038351D03*
D88*
X033540Y038368D03*
X033490Y038418D03*
X030498Y027946D03*
X030548Y027896D03*
D89*
X030464Y027979D03*
X033456Y038451D03*
D90*
X033431Y038468D03*
X030439Y027996D03*
D91*
X030381Y028062D03*
X033373Y038535D03*
D92*
X033356Y038551D03*
X030364Y028079D03*
D93*
X030356Y028096D03*
X033348Y038568D03*
D94*
X033340Y038585D03*
X030348Y028112D03*
D95*
X030331Y028162D03*
X033323Y038635D03*
D96*
X033323Y038668D03*
X030331Y028196D03*
D97*
X030323Y028212D03*
X033315Y038685D03*
D98*
X033315Y038701D03*
X030323Y028229D03*
D99*
X030240Y026394D02*
X030160Y026394D01*
X030133Y026367D01*
X030133Y026341D01*
X030160Y026314D01*
X030240Y026314D01*
X030289Y026314D02*
X030289Y026234D01*
X030369Y026234D01*
X030396Y026261D01*
X030369Y026287D01*
X030289Y026287D01*
X030289Y026314D02*
X030316Y026341D01*
X030369Y026341D01*
X030446Y026314D02*
X030446Y026234D01*
X030446Y026314D02*
X030473Y026341D01*
X030553Y026341D01*
X030553Y026234D01*
X030603Y026341D02*
X030630Y026341D01*
X030683Y026287D01*
X030683Y026234D02*
X030683Y026341D01*
X030733Y026314D02*
X030760Y026341D01*
X030813Y026341D01*
X030840Y026314D01*
X030840Y026261D01*
X030813Y026234D01*
X030760Y026234D01*
X030733Y026261D01*
X030733Y026314D01*
X030889Y026341D02*
X030970Y026341D01*
X030996Y026314D01*
X030996Y026261D01*
X030970Y026234D01*
X030889Y026234D01*
X031046Y026261D02*
X031073Y026287D01*
X031126Y026287D01*
X031153Y026314D01*
X031126Y026341D01*
X031046Y026341D01*
X031046Y026261D02*
X031073Y026234D01*
X031153Y026234D01*
X031203Y026234D02*
X031309Y026234D01*
X031309Y026394D01*
X031203Y026394D01*
X031256Y026314D02*
X031309Y026314D01*
X030240Y026234D02*
X030160Y026234D01*
X030133Y026261D01*
X030133Y026287D01*
X030160Y026314D01*
X030083Y026314D02*
X030083Y026261D01*
X030056Y026234D01*
X030003Y026234D01*
X029976Y026261D01*
X029976Y026314D01*
X030003Y026341D01*
X030056Y026341D01*
X030083Y026314D01*
X029927Y026341D02*
X029873Y026341D01*
X029900Y026367D02*
X029900Y026261D01*
X029873Y026234D01*
X030240Y026234D02*
X030240Y026394D01*
X032865Y036706D02*
X032892Y036733D01*
X032892Y036840D01*
X032919Y036813D02*
X032865Y036813D01*
X032968Y036786D02*
X032995Y036813D01*
X033049Y036813D01*
X033075Y036786D01*
X033075Y036733D01*
X033049Y036706D01*
X032995Y036706D01*
X032968Y036733D01*
X032968Y036786D01*
X033125Y036760D02*
X033125Y036733D01*
X033152Y036706D01*
X033232Y036706D01*
X033232Y036867D01*
X033152Y036867D01*
X033125Y036840D01*
X033125Y036813D01*
X033152Y036786D01*
X033232Y036786D01*
X033282Y036786D02*
X033282Y036706D01*
X033362Y036706D01*
X033388Y036733D01*
X033362Y036760D01*
X033282Y036760D01*
X033282Y036786D02*
X033308Y036813D01*
X033362Y036813D01*
X033438Y036786D02*
X033438Y036706D01*
X033438Y036786D02*
X033465Y036813D01*
X033545Y036813D01*
X033545Y036706D01*
X033595Y036813D02*
X033622Y036813D01*
X033675Y036760D01*
X033675Y036813D02*
X033675Y036706D01*
X033725Y036733D02*
X033752Y036706D01*
X033805Y036706D01*
X033832Y036733D01*
X033832Y036786D01*
X033805Y036813D01*
X033752Y036813D01*
X033725Y036786D01*
X033725Y036733D01*
X033882Y036706D02*
X033962Y036706D01*
X033988Y036733D01*
X033988Y036786D01*
X033962Y036813D01*
X033882Y036813D01*
X034038Y036813D02*
X034118Y036813D01*
X034145Y036786D01*
X034118Y036760D01*
X034065Y036760D01*
X034038Y036733D01*
X034065Y036706D01*
X034145Y036706D01*
X034195Y036706D02*
X034301Y036706D01*
X034301Y036867D01*
X034195Y036867D01*
X034248Y036786D02*
X034301Y036786D01*
X033152Y036786D02*
X033125Y036760D01*
D100*
X026989Y038777D02*
X026798Y038758D01*
X026778Y038694D01*
X026747Y038634D01*
X026868Y038486D01*
X026766Y038384D01*
X026618Y038505D01*
X026558Y038474D01*
X026473Y038679D01*
X026511Y038700D01*
X026543Y038730D01*
X026567Y038766D01*
X026582Y038806D01*
X026587Y038849D01*
X026582Y038893D01*
X026566Y038935D01*
X026541Y038971D01*
X026509Y039001D01*
X026470Y039021D01*
X026427Y039032D01*
X026383Y039033D01*
X026340Y039023D01*
X026300Y039003D01*
X026267Y038974D01*
X026241Y038938D01*
X026224Y038897D01*
X026218Y038853D01*
X026223Y038809D01*
X026237Y038768D01*
X026261Y038731D01*
X026294Y038701D01*
X026332Y038679D01*
X026247Y038474D01*
X026188Y038505D01*
X026039Y038384D01*
X025937Y038486D01*
X026058Y038634D01*
X026028Y038694D01*
X026007Y038758D01*
X025817Y038777D01*
X025817Y038921D01*
X026007Y038941D01*
X026028Y039005D01*
X026058Y039065D01*
X025937Y039213D01*
X026039Y039315D01*
X026188Y039194D01*
X026247Y039225D01*
X026311Y039245D01*
X026331Y039436D01*
X026475Y039436D01*
X026494Y039245D01*
X026558Y039225D01*
X026618Y039194D01*
X026766Y039315D01*
X026868Y039213D01*
X026747Y039065D01*
X026778Y039005D01*
X026798Y038941D01*
X026989Y038921D01*
X026989Y038777D01*
X026989Y038813D02*
X026583Y038813D01*
X026585Y038870D02*
X026989Y038870D01*
X026925Y038928D02*
X026569Y038928D01*
X026525Y038985D02*
X026784Y038985D01*
X026758Y039043D02*
X026047Y039043D01*
X026029Y039100D02*
X026776Y039100D01*
X026823Y039158D02*
X025982Y039158D01*
X025940Y039216D02*
X026161Y039216D01*
X026230Y039216D02*
X026575Y039216D01*
X026645Y039216D02*
X026865Y039216D01*
X026808Y039273D02*
X026715Y039273D01*
X026491Y039273D02*
X026314Y039273D01*
X026320Y039331D02*
X026485Y039331D01*
X026479Y039388D02*
X026326Y039388D01*
X026090Y039273D02*
X025998Y039273D01*
X026021Y038985D02*
X026280Y038985D01*
X026237Y038928D02*
X025880Y038928D01*
X025817Y038870D02*
X026221Y038870D01*
X026222Y038813D02*
X025817Y038813D01*
X026008Y038755D02*
X026245Y038755D01*
X026299Y038698D02*
X026026Y038698D01*
X026055Y038640D02*
X026316Y038640D01*
X026292Y038582D02*
X026016Y038582D01*
X025969Y038525D02*
X026268Y038525D01*
X026141Y038467D02*
X025956Y038467D01*
X026013Y038410D02*
X026071Y038410D01*
X026513Y038582D02*
X026789Y038582D01*
X026750Y038640D02*
X026489Y038640D01*
X026507Y038698D02*
X026779Y038698D01*
X026797Y038755D02*
X026560Y038755D01*
X026537Y038525D02*
X026836Y038525D01*
X026850Y038467D02*
X026664Y038467D01*
X026735Y038410D02*
X026792Y038410D01*
D101*
X026890Y032237D03*
X026653Y027730D03*
X027753Y026940D03*
X027513Y026050D03*
X021506Y028840D03*
X021496Y028850D03*
X021306Y029120D03*
X021306Y029130D03*
X021296Y029150D03*
X021186Y029060D03*
X021176Y029040D03*
X021046Y028850D03*
X021036Y028840D03*
X021026Y028830D03*
X021296Y029600D03*
X021306Y029620D03*
X021316Y029640D03*
X021146Y029700D03*
X021146Y029710D03*
X020976Y029930D03*
X021476Y029870D03*
X021486Y029880D03*
X021496Y029890D03*
X020144Y024605D03*
X033503Y016705D03*
X037076Y026554D03*
D102*
X037081Y026544D03*
X037081Y025084D03*
X026658Y027720D03*
X021521Y028830D03*
X021301Y029140D03*
X021291Y029160D03*
X021191Y029070D03*
X021181Y029050D03*
X021291Y029580D03*
X021291Y029590D03*
X021301Y029610D03*
X021311Y029630D03*
X021161Y029670D03*
X021151Y029690D03*
X020961Y029940D03*
X021511Y029900D03*
X020139Y026075D03*
X020139Y024615D03*
D103*
X020129Y024625D03*
X020119Y024635D03*
X021001Y028810D03*
X021201Y029100D03*
X021211Y029110D03*
X021211Y029120D03*
X021171Y029640D03*
X021171Y029650D03*
X021521Y029910D03*
X021531Y029920D03*
X026668Y027710D03*
X027518Y026070D03*
X037091Y026534D03*
X037101Y026524D03*
D104*
X037111Y026514D03*
X037111Y025114D03*
X027518Y026090D03*
X021561Y028800D03*
X021221Y029140D03*
X021221Y029150D03*
X020971Y028790D03*
X021181Y029610D03*
X021181Y029620D03*
X020931Y029960D03*
X021551Y029930D03*
X020109Y026045D03*
X020109Y024645D03*
D105*
X020099Y024655D03*
X020961Y028780D03*
X021051Y029170D03*
X021181Y029600D03*
X020911Y029970D03*
X026688Y027680D03*
X027518Y026100D03*
X037121Y026504D03*
D106*
X037126Y026494D03*
X037136Y025144D03*
X037126Y025134D03*
X027773Y026900D03*
X027523Y026110D03*
X021586Y028790D03*
X021186Y029580D03*
X021186Y029590D03*
X021566Y029940D03*
X020386Y029610D03*
X020094Y026025D03*
X020084Y026015D03*
X020094Y024665D03*
D107*
X020079Y024675D03*
X021241Y029180D03*
X021191Y029570D03*
X026698Y027670D03*
X026708Y027660D03*
X027518Y026120D03*
X037141Y026484D03*
D108*
X037146Y026474D03*
X037146Y025154D03*
X027783Y026890D03*
X026713Y027650D03*
X021586Y029950D03*
X021196Y029560D03*
X021196Y029550D03*
X021236Y029190D03*
X021246Y029170D03*
X020936Y028770D03*
X020074Y026005D03*
X020074Y024685D03*
D109*
X020064Y024695D03*
X020064Y025995D03*
X021606Y028780D03*
X020876Y029980D03*
X027783Y026880D03*
X027523Y026140D03*
X037156Y026464D03*
X037156Y025164D03*
D110*
X037176Y025184D03*
X037176Y026444D03*
X037166Y026454D03*
X027793Y026870D03*
X027523Y026160D03*
X027523Y026150D03*
X026733Y027620D03*
X022176Y028940D03*
X022176Y028950D03*
X022176Y028960D03*
X022176Y028970D03*
X022176Y028980D03*
X022176Y028990D03*
X022176Y029000D03*
X022176Y029010D03*
X022176Y029020D03*
X022176Y029030D03*
X022176Y029040D03*
X022176Y029050D03*
X022176Y029060D03*
X022176Y029070D03*
X022176Y029080D03*
X022176Y029090D03*
X022176Y029100D03*
X022176Y029110D03*
X022176Y029120D03*
X022176Y029130D03*
X022176Y029140D03*
X022176Y029150D03*
X022176Y029160D03*
X022176Y029170D03*
X022176Y029180D03*
X022176Y029190D03*
X022176Y029200D03*
X022176Y029210D03*
X022176Y029220D03*
X022176Y029230D03*
X022176Y029240D03*
X022176Y029250D03*
X022176Y029260D03*
X022176Y029270D03*
X022176Y029280D03*
X022176Y029290D03*
X022176Y029300D03*
X022176Y029310D03*
X022176Y029320D03*
X022176Y029330D03*
X022176Y029340D03*
X022176Y029350D03*
X022176Y029360D03*
X022176Y029370D03*
X022176Y029380D03*
X022176Y029390D03*
X022176Y029400D03*
X022176Y029410D03*
X022176Y029420D03*
X022176Y029430D03*
X022176Y029440D03*
X022176Y029450D03*
X022176Y029460D03*
X022176Y029470D03*
X022176Y029480D03*
X022176Y029490D03*
X022176Y029500D03*
X022176Y029510D03*
X022176Y029520D03*
X022176Y029530D03*
X022176Y029540D03*
X022176Y029550D03*
X022176Y029560D03*
X022176Y029570D03*
X022176Y029580D03*
X022176Y029590D03*
X022176Y029600D03*
X022176Y029610D03*
X022176Y029620D03*
X022176Y029630D03*
X022176Y029640D03*
X022176Y029650D03*
X022176Y029660D03*
X022176Y029670D03*
X022176Y029680D03*
X022176Y029690D03*
X022176Y029700D03*
X022176Y029710D03*
X022176Y029720D03*
X022176Y029730D03*
X022176Y029740D03*
X022176Y029750D03*
X022176Y029760D03*
X022176Y029770D03*
X022176Y029780D03*
X022176Y029790D03*
X021416Y029580D03*
X021406Y029550D03*
X021406Y029540D03*
X021396Y029490D03*
X021396Y029480D03*
X021396Y029470D03*
X021396Y029270D03*
X021396Y029260D03*
X021396Y029250D03*
X021406Y029200D03*
X021416Y029160D03*
X021426Y029130D03*
X021086Y029150D03*
X021086Y029160D03*
X021076Y029120D03*
X021076Y029110D03*
X021076Y029100D03*
X021066Y029070D03*
X021036Y029600D03*
X021036Y029610D03*
X021036Y029620D03*
X021036Y029680D03*
X021036Y029690D03*
X021036Y029700D03*
X021036Y029710D03*
X021026Y029720D03*
X020376Y029690D03*
X020376Y029680D03*
X020366Y029660D03*
X020366Y029650D03*
X020366Y029640D03*
X020366Y029630D03*
X020336Y029170D03*
X020326Y029150D03*
X020326Y029140D03*
X020326Y029130D03*
X020326Y029120D03*
X020326Y029110D03*
X020326Y029100D03*
X020326Y029090D03*
X020326Y029080D03*
X020336Y029060D03*
X020336Y029050D03*
X020336Y029040D03*
X020346Y029030D03*
X020346Y029020D03*
X020044Y025975D03*
X020044Y024715D03*
X020054Y024705D03*
D111*
X020034Y024725D03*
X020376Y028980D03*
X020366Y028990D03*
X020346Y029200D03*
X020356Y029210D03*
X020396Y029730D03*
X020396Y029740D03*
X020406Y029750D03*
X020996Y029770D03*
X021006Y029760D03*
X021016Y029560D03*
X021196Y029490D03*
X021206Y029500D03*
X021206Y029510D03*
X021196Y029390D03*
X021196Y029380D03*
X021196Y029360D03*
X021436Y029100D03*
X021446Y029080D03*
X021456Y029060D03*
X021466Y029050D03*
X021466Y029040D03*
X021476Y029030D03*
X021046Y029030D03*
X021046Y029020D03*
X021036Y029010D03*
X021436Y029640D03*
X021446Y029650D03*
X021446Y029660D03*
X021456Y029670D03*
X021466Y029690D03*
X021626Y029960D03*
X026743Y027600D03*
X027793Y026860D03*
X027523Y026170D03*
X037186Y026434D03*
D112*
X037191Y026424D03*
X037201Y025214D03*
X037191Y025204D03*
X027528Y026180D03*
X026748Y027590D03*
X021491Y029010D03*
X021481Y029020D03*
X021191Y029340D03*
X021191Y029350D03*
X021191Y029400D03*
X021191Y029470D03*
X021191Y029480D03*
X021011Y029550D03*
X021001Y029540D03*
X021461Y029680D03*
X021471Y029700D03*
X021481Y029710D03*
X021031Y029000D03*
X020381Y028970D03*
X020361Y029220D03*
X020411Y029760D03*
X020029Y025955D03*
X020019Y025945D03*
X020029Y024735D03*
D113*
X020014Y024745D03*
X020396Y028960D03*
X020366Y029230D03*
X020426Y029770D03*
X020436Y029780D03*
X020976Y029790D03*
X020986Y029780D03*
X021186Y029460D03*
X021186Y029420D03*
X021186Y029410D03*
X021186Y029330D03*
X021016Y028990D03*
X021496Y029000D03*
X021506Y028990D03*
X021646Y028770D03*
X021486Y029720D03*
X021496Y029730D03*
X026753Y027580D03*
X027803Y026850D03*
X037206Y026414D03*
D114*
X037211Y026404D03*
X037211Y025224D03*
X027528Y026190D03*
X026768Y027560D03*
X026758Y027570D03*
X021521Y028980D03*
X021181Y029320D03*
X021181Y029430D03*
X021181Y029450D03*
X020991Y029530D03*
X021011Y028980D03*
X021001Y028970D03*
X020381Y029240D03*
X021501Y029740D03*
X020009Y025935D03*
X020009Y024755D03*
D115*
X019999Y024765D03*
X019999Y025925D03*
X020421Y028940D03*
X020981Y029520D03*
X021171Y029290D03*
X021531Y028970D03*
X021541Y029770D03*
X020461Y029800D03*
X026778Y027540D03*
X027528Y026200D03*
X037221Y026394D03*
X037221Y025234D03*
D116*
X037241Y025254D03*
X037241Y026374D03*
X037231Y026384D03*
X026788Y027520D03*
X021161Y029260D03*
X020941Y029810D03*
X020481Y029810D03*
X020441Y028930D03*
X019979Y025905D03*
X019979Y024785D03*
X019989Y024775D03*
D117*
X019969Y024795D03*
X020941Y029500D03*
X020711Y029940D03*
X026798Y027500D03*
X037251Y026364D03*
D118*
X037256Y026354D03*
X037256Y025274D03*
X027823Y026810D03*
X027533Y026240D03*
X026803Y027490D03*
X021156Y029230D03*
X021156Y029240D03*
X020936Y028930D03*
X020436Y029280D03*
X020796Y029990D03*
X020786Y030000D03*
X020786Y030010D03*
X020776Y030020D03*
X020766Y030030D03*
X020756Y030050D03*
X020746Y030060D03*
X020736Y030070D03*
X020726Y030080D03*
X020726Y030090D03*
X020716Y030100D03*
X020706Y030110D03*
X020696Y030120D03*
X020696Y030130D03*
X020686Y030140D03*
X020676Y030150D03*
X020666Y030160D03*
X020666Y030170D03*
X020656Y030180D03*
X020646Y030190D03*
X020636Y030200D03*
X020636Y030210D03*
X020626Y030220D03*
X020616Y030230D03*
X020606Y030240D03*
X020606Y030250D03*
X019964Y025885D03*
X019964Y024805D03*
D119*
X019949Y024815D03*
X019949Y025875D03*
X020471Y028920D03*
X021151Y029220D03*
X021581Y029790D03*
X020761Y030040D03*
X026808Y027480D03*
X027828Y026800D03*
X037271Y026344D03*
X037271Y025284D03*
D120*
X037281Y026334D03*
X027538Y026260D03*
X026818Y027460D03*
X021971Y028390D03*
X021961Y028410D03*
X021951Y028420D03*
X021931Y028450D03*
X021921Y028460D03*
X021901Y028490D03*
X021871Y028530D03*
X021841Y028570D03*
X021821Y028600D03*
X021791Y028640D03*
X021601Y028940D03*
X020821Y028740D03*
X020811Y028730D03*
X020801Y028710D03*
X020791Y028700D03*
X020781Y028690D03*
X020771Y028670D03*
X020761Y028660D03*
X020741Y028630D03*
X020731Y028620D03*
X020721Y028600D03*
X020711Y028590D03*
X020701Y028570D03*
X020691Y028560D03*
X020671Y028530D03*
X020661Y028520D03*
X020641Y028490D03*
X020621Y028460D03*
X020611Y028450D03*
X020591Y028420D03*
X020571Y028390D03*
X020461Y029290D03*
X020901Y029820D03*
X021691Y029970D03*
X021701Y029980D03*
X021721Y030010D03*
X021741Y030040D03*
X021771Y030080D03*
X021791Y030110D03*
X021811Y030140D03*
X021821Y030150D03*
X021841Y030180D03*
X021861Y030210D03*
X021891Y030250D03*
X019939Y024825D03*
D121*
X019934Y024835D03*
X019934Y025855D03*
X020576Y028400D03*
X020586Y028410D03*
X020596Y028430D03*
X020606Y028440D03*
X020626Y028470D03*
X020636Y028480D03*
X020646Y028500D03*
X020656Y028510D03*
X020676Y028540D03*
X020686Y028550D03*
X020706Y028580D03*
X020726Y028610D03*
X020746Y028640D03*
X020756Y028650D03*
X020776Y028680D03*
X020806Y028720D03*
X020906Y028920D03*
X020516Y029820D03*
X026823Y027450D03*
X027363Y026520D03*
X027373Y026510D03*
X027373Y026500D03*
X027833Y026790D03*
X037286Y026324D03*
X037286Y025304D03*
D122*
X037306Y025324D03*
X037306Y026304D03*
X037296Y026314D03*
X027353Y026540D03*
X027343Y026560D03*
X027333Y026570D03*
X027323Y026590D03*
X026843Y027410D03*
X020486Y029300D03*
X019914Y025835D03*
X019914Y024855D03*
X019924Y024845D03*
D123*
X019904Y024865D03*
X020876Y029470D03*
X026853Y027390D03*
X027293Y026640D03*
X027303Y026620D03*
X027313Y026610D03*
X027543Y026290D03*
X027843Y026770D03*
X037316Y026294D03*
D124*
X037321Y026284D03*
X037321Y025344D03*
X027848Y026760D03*
X027298Y026630D03*
X027288Y026650D03*
X027278Y026660D03*
X026858Y027370D03*
X026858Y027380D03*
X020501Y029310D03*
X019899Y025815D03*
X019899Y024875D03*
D125*
X019884Y024885D03*
X019884Y025805D03*
X026863Y027360D03*
X027263Y026690D03*
X027263Y026680D03*
X027273Y026670D03*
X027543Y026300D03*
X037336Y026274D03*
X037336Y025354D03*
D126*
X037346Y026264D03*
X027853Y026750D03*
X027743Y026500D03*
X027543Y026310D03*
X027243Y026720D03*
X027233Y026730D03*
X027223Y026750D03*
X026873Y027340D03*
X020526Y029320D03*
X019874Y024895D03*
D127*
X019869Y024905D03*
X019869Y025785D03*
X020691Y028810D03*
X020711Y029920D03*
X027208Y026770D03*
X027218Y026760D03*
X027228Y026740D03*
X027548Y026320D03*
X027748Y026510D03*
X027758Y026520D03*
X027858Y026740D03*
X037351Y026254D03*
X037351Y025374D03*
D128*
X037371Y025394D03*
X037371Y026234D03*
X037361Y026244D03*
X027778Y026540D03*
X027768Y026530D03*
X027548Y026330D03*
X027188Y026800D03*
X027178Y026810D03*
X026878Y027310D03*
X020551Y029330D03*
X019849Y025765D03*
X019849Y024925D03*
X019859Y024915D03*
D129*
X019839Y024935D03*
X019839Y025755D03*
X020801Y029440D03*
X020711Y029910D03*
X026888Y027290D03*
X026888Y027280D03*
X027138Y026870D03*
X027148Y026860D03*
X027548Y026350D03*
X027868Y026720D03*
X037381Y026224D03*
X037381Y025404D03*
D130*
X037401Y025424D03*
X037401Y026204D03*
X037391Y026214D03*
X027808Y026580D03*
X027548Y026360D03*
X027118Y026900D03*
X027108Y026910D03*
X026898Y027250D03*
X026898Y027260D03*
X020691Y028820D03*
X019819Y025735D03*
X019819Y024955D03*
X019829Y024945D03*
D131*
X019809Y024965D03*
X026898Y027240D03*
X027078Y026950D03*
X027548Y026370D03*
X027878Y026700D03*
X037411Y026194D03*
D132*
X037416Y026184D03*
X037416Y025444D03*
X027843Y026610D03*
X027833Y026600D03*
X027063Y026960D03*
X026903Y027220D03*
X026903Y027230D03*
X020756Y029420D03*
X020626Y029360D03*
X020706Y029900D03*
X019804Y025715D03*
X019804Y024975D03*
D133*
X019794Y024985D03*
X019784Y024995D03*
X019784Y025695D03*
X020666Y029380D03*
X020706Y029400D03*
X026913Y027200D03*
X027033Y027000D03*
X027043Y026990D03*
X027853Y026620D03*
X037426Y026174D03*
X037436Y026164D03*
X037436Y025464D03*
D134*
X037446Y025474D03*
X037446Y026154D03*
X027893Y026670D03*
X027023Y027010D03*
X027013Y027020D03*
X027003Y027030D03*
X026913Y027180D03*
X019774Y025685D03*
X019774Y025005D03*
D135*
X019764Y025015D03*
X019754Y025025D03*
X021976Y028810D03*
X026983Y027050D03*
X026993Y027040D03*
X027563Y026410D03*
X027893Y026650D03*
X037456Y026144D03*
X037466Y026134D03*
D136*
X037476Y026124D03*
X027563Y026420D03*
X026973Y027060D03*
X026923Y027130D03*
X026923Y027140D03*
X020696Y028850D03*
X019744Y025035D03*
D137*
X019739Y025045D03*
X019739Y025645D03*
X020711Y029870D03*
X021961Y029920D03*
X026958Y027070D03*
X037481Y026114D03*
X037481Y025514D03*
D138*
X037491Y025524D03*
X037501Y025534D03*
X037491Y026104D03*
X027568Y026440D03*
X026928Y027100D03*
X026928Y027110D03*
X021951Y028820D03*
X019729Y025635D03*
X019719Y025625D03*
X019729Y025055D03*
D139*
X019714Y025065D03*
X020696Y028860D03*
X020706Y029860D03*
X037506Y026094D03*
D140*
X037511Y026084D03*
X037511Y025544D03*
X027568Y026450D03*
X026928Y027090D03*
X021941Y029910D03*
X019709Y025615D03*
X019709Y025075D03*
D141*
X019699Y025085D03*
X019689Y025095D03*
X021931Y028830D03*
X027568Y026460D03*
X037521Y026074D03*
X037531Y026064D03*
D142*
X037541Y026054D03*
X027568Y026470D03*
X021921Y028840D03*
X020691Y028880D03*
X019679Y025105D03*
D143*
X019674Y025115D03*
X019674Y025575D03*
X020706Y029830D03*
X021916Y029890D03*
X027573Y026480D03*
X037546Y026044D03*
X037546Y025584D03*
D144*
X037556Y025594D03*
X037566Y025604D03*
X037556Y026034D03*
X020696Y028890D03*
X019664Y025565D03*
X019654Y025555D03*
X019664Y025125D03*
D145*
X019649Y025135D03*
X020691Y028900D03*
X021901Y029880D03*
X027578Y026490D03*
X037571Y026024D03*
D146*
X037576Y026014D03*
X037576Y025614D03*
X021896Y028860D03*
X021896Y029870D03*
X019644Y025545D03*
X019644Y025145D03*
D147*
X019634Y025155D03*
X019624Y025165D03*
X020696Y028910D03*
X021886Y029860D03*
X037586Y026004D03*
X037596Y025994D03*
D148*
X037606Y025984D03*
X037606Y025644D03*
X021876Y028890D03*
X019614Y025515D03*
X019614Y025175D03*
D149*
X019604Y025185D03*
X021866Y028910D03*
X021866Y029830D03*
X037616Y025974D03*
D150*
X037621Y025964D03*
X037631Y025674D03*
X037621Y025664D03*
X021861Y028920D03*
X021861Y029820D03*
X019599Y025495D03*
X019589Y025485D03*
X019599Y025195D03*
D151*
X019584Y025205D03*
X021856Y028930D03*
X021856Y029810D03*
X037636Y025954D03*
D152*
X037641Y025944D03*
X037641Y025684D03*
X021851Y029800D03*
X019579Y025475D03*
X019579Y025215D03*
D153*
X019569Y025225D03*
X019559Y025235D03*
X037651Y025934D03*
X037661Y025924D03*
D154*
X037671Y025914D03*
X037671Y025714D03*
X019549Y025445D03*
X019549Y025245D03*
D155*
X019539Y025255D03*
X037681Y025904D03*
D156*
X037686Y025894D03*
X037696Y025744D03*
X037686Y025734D03*
X019534Y025425D03*
X019524Y025415D03*
X019534Y025265D03*
D157*
X019519Y025275D03*
X037701Y025884D03*
D158*
X037706Y025874D03*
X037706Y025754D03*
X019514Y025405D03*
X019514Y025285D03*
D159*
X019504Y025295D03*
X019504Y025395D03*
X037716Y025764D03*
X037716Y025864D03*
D160*
X037726Y025854D03*
X037736Y025844D03*
X037736Y025784D03*
X019494Y025305D03*
X019484Y025315D03*
X019484Y025375D03*
D161*
X019474Y025325D03*
X037746Y025834D03*
D162*
X037751Y025824D03*
X037761Y025814D03*
X037751Y025804D03*
X019469Y025355D03*
X019459Y025345D03*
X019469Y025335D03*
D163*
X019479Y025365D03*
X037741Y025794D03*
D164*
X037721Y025774D03*
X019499Y025385D03*
D165*
X019544Y025435D03*
X037676Y025724D03*
D166*
X037656Y025704D03*
X019564Y025455D03*
D167*
X019574Y025465D03*
X037646Y025694D03*
D168*
X037611Y025654D03*
X021871Y028900D03*
X021871Y029840D03*
X019609Y025505D03*
D169*
X019629Y025525D03*
X021881Y028880D03*
X021881Y029850D03*
X037591Y025634D03*
D170*
X037581Y025624D03*
X021891Y028870D03*
X019639Y025535D03*
D171*
X019684Y025585D03*
X019694Y025595D03*
X020706Y029840D03*
X021926Y029900D03*
X037526Y025564D03*
X037536Y025574D03*
D172*
X037516Y025554D03*
X020696Y028870D03*
X020706Y029850D03*
X019704Y025605D03*
D173*
X019749Y025655D03*
X019759Y025665D03*
X020711Y029880D03*
X026918Y027150D03*
X027898Y026660D03*
X037461Y025494D03*
X037471Y025504D03*
D174*
X037451Y025484D03*
X027878Y026640D03*
X027558Y026400D03*
X026918Y027160D03*
X026918Y027170D03*
X020691Y028840D03*
X019769Y025675D03*
D175*
X019799Y025705D03*
X020691Y028830D03*
X020651Y029370D03*
X020731Y029410D03*
X022001Y029930D03*
X026908Y027210D03*
X027048Y026980D03*
X027058Y026970D03*
X027558Y026380D03*
X027878Y026690D03*
X037421Y025454D03*
D176*
X037406Y025434D03*
X027873Y026710D03*
X027823Y026590D03*
X027103Y026920D03*
X027093Y026930D03*
X027083Y026940D03*
X022016Y028800D03*
X020776Y029430D03*
X020606Y029350D03*
X019814Y025725D03*
D177*
X019834Y025745D03*
X020576Y029340D03*
X026893Y027270D03*
X027123Y026890D03*
X027133Y026880D03*
X027793Y026560D03*
X027803Y026570D03*
X037386Y025414D03*
D178*
X037356Y025384D03*
X027203Y026780D03*
X027193Y026790D03*
X026873Y027320D03*
X026873Y027330D03*
X020826Y029450D03*
X019864Y025775D03*
D179*
X019879Y025795D03*
X020851Y029460D03*
X026868Y027350D03*
X027248Y026710D03*
X027258Y026700D03*
X037341Y025364D03*
D180*
X037311Y025334D03*
X027538Y026280D03*
X027328Y026580D03*
X027318Y026600D03*
X026848Y027400D03*
X020691Y028800D03*
X020711Y029930D03*
X019909Y025825D03*
D181*
X019929Y025845D03*
X020901Y029480D03*
X026828Y027440D03*
X026838Y027430D03*
X026838Y027420D03*
X027348Y026550D03*
X027358Y026530D03*
X027538Y026270D03*
X027838Y026780D03*
X037291Y025314D03*
D182*
X037276Y025294D03*
X027533Y026250D03*
X026813Y027470D03*
X021966Y028400D03*
X021946Y028430D03*
X021936Y028440D03*
X021916Y028470D03*
X021906Y028480D03*
X021896Y028500D03*
X021886Y028510D03*
X021876Y028520D03*
X021866Y028540D03*
X021856Y028550D03*
X021846Y028560D03*
X021836Y028580D03*
X021826Y028590D03*
X021816Y028610D03*
X021806Y028620D03*
X021796Y028630D03*
X021786Y028650D03*
X021776Y028660D03*
X021766Y028670D03*
X021766Y028680D03*
X021756Y028690D03*
X021746Y028700D03*
X021736Y028710D03*
X021736Y028720D03*
X021726Y028730D03*
X021716Y028740D03*
X021706Y028750D03*
X021706Y028760D03*
X021146Y029210D03*
X020926Y029490D03*
X021706Y029990D03*
X021716Y030000D03*
X021726Y030020D03*
X021736Y030030D03*
X021746Y030050D03*
X021756Y030060D03*
X021766Y030070D03*
X021776Y030090D03*
X021786Y030100D03*
X021796Y030120D03*
X021806Y030130D03*
X021826Y030160D03*
X021836Y030170D03*
X021846Y030190D03*
X021856Y030200D03*
X021866Y030220D03*
X021876Y030230D03*
X021886Y030240D03*
X019944Y025865D03*
D183*
X019974Y025895D03*
X020686Y028790D03*
X020956Y028940D03*
X021156Y029250D03*
X021566Y028950D03*
X021556Y029780D03*
X020416Y029270D03*
X026793Y027510D03*
X027813Y026820D03*
X027533Y026230D03*
X027533Y026220D03*
X037246Y025264D03*
D184*
X037226Y025244D03*
X027813Y026830D03*
X027533Y026210D03*
X026783Y027530D03*
X021546Y028960D03*
X021166Y029270D03*
X021166Y029280D03*
X020966Y029510D03*
X020976Y028950D03*
X020866Y028750D03*
X020406Y029260D03*
X019994Y025915D03*
D185*
X020039Y025965D03*
X020361Y029000D03*
X020351Y029010D03*
X020331Y029160D03*
X020341Y029180D03*
X020341Y029190D03*
X020371Y029670D03*
X020381Y029700D03*
X020381Y029710D03*
X020391Y029720D03*
X021011Y029750D03*
X021021Y029740D03*
X021021Y029730D03*
X021031Y029590D03*
X021031Y029580D03*
X021021Y029570D03*
X021211Y029540D03*
X021211Y029530D03*
X021211Y029520D03*
X021201Y029370D03*
X021211Y029200D03*
X021071Y029090D03*
X021071Y029080D03*
X021061Y029060D03*
X021061Y029050D03*
X021051Y029040D03*
X021411Y029170D03*
X021411Y029180D03*
X021411Y029190D03*
X021401Y029210D03*
X021401Y029220D03*
X021401Y029230D03*
X021401Y029240D03*
X021391Y029280D03*
X021391Y029290D03*
X021391Y029300D03*
X021391Y029310D03*
X021391Y029320D03*
X021391Y029330D03*
X021391Y029340D03*
X021391Y029350D03*
X021391Y029360D03*
X021391Y029370D03*
X021391Y029380D03*
X021391Y029390D03*
X021391Y029400D03*
X021391Y029410D03*
X021391Y029420D03*
X021391Y029430D03*
X021391Y029440D03*
X021391Y029450D03*
X021391Y029460D03*
X021401Y029500D03*
X021401Y029510D03*
X021401Y029520D03*
X021401Y029530D03*
X021411Y029560D03*
X021411Y029570D03*
X021421Y029590D03*
X021421Y029600D03*
X021421Y029610D03*
X021431Y029620D03*
X021431Y029630D03*
X021421Y029150D03*
X021421Y029140D03*
X021431Y029120D03*
X021431Y029110D03*
X021441Y029090D03*
X021451Y029070D03*
X026738Y027610D03*
X037181Y025194D03*
D186*
X037161Y025174D03*
X026728Y027630D03*
X021081Y029130D03*
X021081Y029140D03*
X020911Y028760D03*
X020331Y029070D03*
X020361Y029620D03*
X020711Y029950D03*
X021041Y029670D03*
X021041Y029660D03*
X021041Y029650D03*
X021041Y029640D03*
X021041Y029630D03*
X020059Y025985D03*
D187*
X020104Y026035D03*
X020676Y028780D03*
X021226Y029160D03*
X026683Y027690D03*
X027773Y026910D03*
X037116Y025124D03*
D188*
X037096Y025104D03*
X027763Y026920D03*
X027513Y026080D03*
X026673Y027700D03*
X021546Y028810D03*
X021216Y029130D03*
X020986Y028800D03*
X021176Y029630D03*
X020124Y026055D03*
D189*
X020134Y026065D03*
X021016Y028820D03*
X021196Y029080D03*
X021196Y029090D03*
X021526Y028820D03*
X021276Y029550D03*
X021276Y029560D03*
X021286Y029570D03*
X021166Y029660D03*
X021156Y029680D03*
X020946Y029950D03*
X027763Y026930D03*
X027513Y026060D03*
X037086Y025094D03*
D190*
X027518Y026130D03*
X026718Y027640D03*
D191*
X026883Y027300D03*
X027153Y026850D03*
X027163Y026840D03*
X027163Y026830D03*
X027173Y026820D03*
X027543Y026340D03*
X027783Y026550D03*
X027863Y026730D03*
D192*
X027888Y026680D03*
X027868Y026630D03*
X027558Y026390D03*
X026908Y027190D03*
X020691Y029390D03*
X020711Y029890D03*
D193*
X026923Y027120D03*
X026943Y027080D03*
X027563Y026430D03*
D194*
X027803Y026840D03*
X026773Y027550D03*
X021526Y029760D03*
X021516Y029750D03*
X021176Y029440D03*
X021176Y029310D03*
X021176Y029300D03*
X020986Y028960D03*
X020406Y028950D03*
X020386Y029250D03*
X020446Y029790D03*
X020956Y029800D03*
D195*
X026900Y032242D03*
X028360Y032242D03*
X032033Y016700D03*
X033493Y016700D03*
D196*
X033483Y016690D03*
X033473Y016680D03*
X026910Y032252D03*
X026920Y032262D03*
D197*
X026930Y032272D03*
X028330Y032272D03*
X032063Y016670D03*
X033463Y016670D03*
D198*
X033453Y016660D03*
X026940Y032282D03*
D199*
X026950Y032287D03*
X028300Y032297D03*
X028310Y032287D03*
X032083Y016655D03*
X032093Y016645D03*
X033443Y016655D03*
D200*
X033433Y016640D03*
X026960Y032302D03*
D201*
X026970Y032307D03*
X028290Y032307D03*
X032103Y016635D03*
X033423Y016635D03*
D202*
X033413Y016625D03*
X032113Y016625D03*
X028280Y032317D03*
X026980Y032317D03*
D203*
X026990Y032327D03*
X027000Y032337D03*
X028260Y032337D03*
X032133Y016605D03*
X033393Y016605D03*
X033403Y016615D03*
D204*
X033383Y016595D03*
X027010Y032347D03*
D205*
X027020Y032352D03*
X028230Y032362D03*
X028240Y032352D03*
X032153Y016590D03*
X032163Y016580D03*
X033373Y016590D03*
D206*
X033363Y016575D03*
X027030Y032367D03*
D207*
X027040Y032372D03*
X028220Y032372D03*
X032173Y016570D03*
X033353Y016570D03*
D208*
X033343Y016560D03*
X032183Y016560D03*
X028210Y032382D03*
X027050Y032382D03*
D209*
X027060Y032392D03*
X027070Y032402D03*
X028190Y032402D03*
X032203Y016540D03*
X033323Y016540D03*
X033333Y016550D03*
D210*
X033313Y016530D03*
X027080Y032412D03*
D211*
X027090Y032417D03*
X028170Y032417D03*
X032223Y016525D03*
X033303Y016525D03*
D212*
X033293Y016510D03*
X032233Y016510D03*
X028160Y032432D03*
X027100Y032432D03*
D213*
X027110Y032442D03*
X033283Y016500D03*
D214*
X033273Y016495D03*
X032253Y016495D03*
X028140Y032447D03*
X027120Y032447D03*
D215*
X027130Y032457D03*
X027140Y032467D03*
X028120Y032467D03*
X032273Y016475D03*
X033253Y016475D03*
X033263Y016485D03*
D216*
X033243Y016465D03*
X027150Y032477D03*
D217*
X027160Y032482D03*
X028100Y032482D03*
X032293Y016460D03*
X033233Y016460D03*
D218*
X033223Y016445D03*
X032303Y016445D03*
X028090Y032497D03*
X027170Y032497D03*
D219*
X027180Y032507D03*
X033213Y016435D03*
D220*
X033203Y016430D03*
X032323Y016430D03*
X028070Y032512D03*
X027190Y032512D03*
D221*
X027200Y032522D03*
X027210Y032532D03*
X028050Y032532D03*
X032343Y016410D03*
X033183Y016410D03*
X033193Y016420D03*
D222*
X033173Y016400D03*
X032353Y016400D03*
X028040Y032542D03*
X027220Y032542D03*
D223*
X027230Y032552D03*
X027240Y032562D03*
X028020Y032562D03*
X032373Y016380D03*
X033153Y016380D03*
X033163Y016390D03*
D224*
X033143Y016370D03*
X027250Y032572D03*
D225*
X027260Y032577D03*
X028000Y032577D03*
X032393Y016365D03*
X033133Y016365D03*
D226*
X033123Y016355D03*
X033113Y016345D03*
X032413Y016345D03*
X027980Y032597D03*
X027280Y032597D03*
X027270Y032587D03*
D227*
X027290Y032607D03*
X027970Y032607D03*
X032423Y016335D03*
X033103Y016335D03*
D228*
X033093Y016325D03*
X033083Y016315D03*
X027300Y032617D03*
X027310Y032627D03*
D229*
X027320Y032637D03*
X033073Y016305D03*
D230*
X033063Y016300D03*
X032463Y016300D03*
X027930Y032642D03*
X027330Y032642D03*
D231*
X027340Y032652D03*
X027910Y032662D03*
X027920Y032652D03*
X032473Y016290D03*
X032483Y016280D03*
X033053Y016290D03*
D232*
X033043Y016275D03*
X027350Y032667D03*
D233*
X027360Y032672D03*
X027900Y032672D03*
X032493Y016270D03*
X033033Y016270D03*
D234*
X033023Y016260D03*
X033013Y016250D03*
X027370Y032682D03*
X027380Y032692D03*
D235*
X027390Y032702D03*
X033003Y016240D03*
D236*
X032993Y016235D03*
X032533Y016235D03*
X027860Y032707D03*
X027400Y032707D03*
D237*
X027410Y032717D03*
X027840Y032727D03*
X027850Y032717D03*
X032543Y016225D03*
X032553Y016215D03*
X032983Y016225D03*
D238*
X032973Y016210D03*
X027420Y032732D03*
D239*
X027430Y032737D03*
X027830Y032737D03*
X032563Y016205D03*
X032963Y016205D03*
D240*
X032953Y016195D03*
X032943Y016185D03*
X027440Y032747D03*
X027450Y032757D03*
D241*
X027460Y032767D03*
X027800Y032767D03*
X032593Y016175D03*
X032933Y016175D03*
D242*
X032923Y016165D03*
X027470Y032777D03*
D243*
X027480Y032782D03*
X027770Y032792D03*
X027780Y032782D03*
X032613Y016160D03*
X032623Y016150D03*
X032913Y016160D03*
D244*
X032903Y016145D03*
X027490Y032797D03*
D245*
X027500Y032802D03*
X027760Y032802D03*
X032633Y016140D03*
X032893Y016140D03*
D246*
X032883Y016130D03*
X032873Y016120D03*
X027510Y032812D03*
X027520Y032822D03*
D247*
X027530Y032832D03*
X027730Y032832D03*
X032663Y016110D03*
X032863Y016110D03*
D248*
X032853Y016100D03*
X027540Y032842D03*
D249*
X027550Y032847D03*
X027700Y032857D03*
X027710Y032847D03*
X032683Y016095D03*
X032693Y016085D03*
X032843Y016095D03*
D250*
X032833Y016080D03*
X027560Y032862D03*
D251*
X027570Y032867D03*
X027690Y032867D03*
X032703Y016075D03*
X032823Y016075D03*
D252*
X032813Y016065D03*
X032713Y016065D03*
X027680Y032877D03*
X027580Y032877D03*
D253*
X027590Y032887D03*
X027600Y032897D03*
X027660Y032897D03*
X032733Y016045D03*
X032793Y016045D03*
X032803Y016055D03*
D254*
X032783Y016035D03*
X027610Y032907D03*
D255*
X027620Y032912D03*
X027630Y032922D03*
X027640Y032912D03*
X032753Y016030D03*
X032763Y016020D03*
X032773Y016030D03*
D256*
X032743Y016040D03*
X027650Y032902D03*
D257*
X027670Y032882D03*
X032723Y016060D03*
D258*
X032673Y016105D03*
X027720Y032837D03*
D259*
X027740Y032817D03*
X032653Y016125D03*
D260*
X032643Y016135D03*
X027750Y032807D03*
D261*
X027790Y032772D03*
X032603Y016170D03*
D262*
X032583Y016190D03*
X027810Y032752D03*
D263*
X027820Y032742D03*
X032573Y016200D03*
D264*
X032523Y016245D03*
X032513Y016255D03*
X027880Y032687D03*
X027870Y032697D03*
D265*
X027890Y032677D03*
X032503Y016265D03*
D266*
X032453Y016310D03*
X032443Y016320D03*
X027950Y032622D03*
X027940Y032632D03*
D267*
X027960Y032612D03*
X032433Y016330D03*
D268*
X032403Y016360D03*
X027990Y032582D03*
D269*
X028010Y032567D03*
X032383Y016375D03*
D270*
X032363Y016395D03*
X028030Y032547D03*
D271*
X028060Y032517D03*
X032333Y016425D03*
D272*
X032313Y016440D03*
X028080Y032502D03*
D273*
X028110Y032472D03*
X032283Y016470D03*
D274*
X032263Y016490D03*
X028130Y032452D03*
D275*
X028150Y032437D03*
X032243Y016505D03*
D276*
X032213Y016535D03*
X028180Y032407D03*
D277*
X028200Y032387D03*
X032193Y016555D03*
D278*
X032143Y016600D03*
X028250Y032342D03*
D279*
X028270Y032322D03*
X032123Y016620D03*
D280*
X032073Y016665D03*
X028320Y032277D03*
D281*
X028340Y032257D03*
X032053Y016685D03*
D282*
X032043Y016695D03*
X028350Y032247D03*
D283*
X025047Y017488D02*
X024447Y017488D01*
X024430Y017486D01*
X024413Y017482D01*
X024397Y017475D01*
X024383Y017465D01*
X024370Y017452D01*
X024360Y017438D01*
X024353Y017422D01*
X024349Y017405D01*
X024347Y017388D01*
X024347Y016288D01*
X024349Y016271D01*
X024353Y016254D01*
X024360Y016238D01*
X024370Y016224D01*
X024383Y016211D01*
X024397Y016201D01*
X024413Y016194D01*
X024430Y016190D01*
X024447Y016188D01*
X025047Y016188D01*
X025064Y016190D01*
X025081Y016194D01*
X025097Y016201D01*
X025111Y016211D01*
X025124Y016224D01*
X025134Y016238D01*
X025141Y016254D01*
X025145Y016271D01*
X025147Y016288D01*
X025147Y017388D01*
X025145Y017405D01*
X025141Y017422D01*
X025134Y017438D01*
X025124Y017452D01*
X025111Y017465D01*
X025097Y017475D01*
X025081Y017482D01*
X025064Y017486D01*
X025047Y017488D01*
D284*
X021911Y028850D03*
M02*
