G75*
G70*
%OFA0B0*%
%FSLAX24Y24*%
%IPPOS*%
%LPD*%
%AMOC8*
5,1,8,0,0,1.08239X$1,22.5*
%
%ADD10C,0.0161*%
%ADD11C,0.0159*%
%ADD12C,0.0157*%
%ADD13C,0.0161*%
%ADD14C,0.0161*%
%ADD15C,0.0159*%
%ADD16C,0.0158*%
D10*
X023547Y018872D02*
X023547Y019026D01*
X023547Y018872D02*
X023353Y018872D01*
X023353Y019026D01*
X023547Y019026D01*
X023547Y019542D02*
X023547Y019696D01*
X023547Y019542D02*
X023353Y019542D01*
X023353Y019696D01*
X023547Y019696D01*
X023950Y029139D02*
X023950Y029293D01*
X024144Y029293D01*
X024144Y029139D01*
X023950Y029139D01*
X023950Y029808D02*
X023950Y029962D01*
X024144Y029962D01*
X024144Y029808D01*
X023950Y029808D01*
X023253Y029816D02*
X023253Y029970D01*
X023253Y029816D02*
X023059Y029816D01*
X023059Y029970D01*
X023253Y029970D01*
X023253Y029300D02*
X023253Y029146D01*
X023059Y029146D01*
X023059Y029300D01*
X023253Y029300D01*
X031833Y020302D02*
X031833Y020148D01*
X031833Y020302D02*
X032027Y020302D01*
X032027Y020148D01*
X031833Y020148D01*
X031833Y019632D02*
X031833Y019478D01*
X031833Y019632D02*
X032027Y019632D01*
X032027Y019478D01*
X031833Y019478D01*
X032787Y019473D02*
X032787Y019627D01*
X032981Y019627D01*
X032981Y019473D01*
X032787Y019473D01*
X032787Y020143D02*
X032787Y020297D01*
X032981Y020297D01*
X032981Y020143D01*
X032787Y020143D01*
X032985Y029301D02*
X032985Y029455D01*
X033179Y029455D01*
X033179Y029301D01*
X032985Y029301D01*
X032985Y029970D02*
X032985Y030124D01*
X033179Y030124D01*
X033179Y029970D01*
X032985Y029970D01*
X032060Y029970D02*
X032060Y030124D01*
X032254Y030124D01*
X032254Y029970D01*
X032060Y029970D01*
X032060Y029455D02*
X032060Y029301D01*
X032060Y029455D02*
X032254Y029455D01*
X032254Y029301D01*
X032060Y029301D01*
X033910Y029301D02*
X033910Y029455D01*
X034104Y029455D01*
X034104Y029301D01*
X033910Y029301D01*
X033910Y029970D02*
X033910Y030124D01*
X034104Y030124D01*
X034104Y029970D01*
X033910Y029970D01*
X034835Y029970D02*
X034835Y030124D01*
X035029Y030124D01*
X035029Y029970D01*
X034835Y029970D01*
X034835Y029455D02*
X034835Y029301D01*
X034835Y029455D02*
X035029Y029455D01*
X035029Y029301D01*
X034835Y029301D01*
X032269Y042151D02*
X032115Y042151D01*
X032269Y042151D02*
X032269Y041957D01*
X032115Y041957D01*
X032115Y042151D01*
X032115Y042117D02*
X032269Y042117D01*
X031600Y042151D02*
X031446Y042151D01*
X031600Y042151D02*
X031600Y041957D01*
X031446Y041957D01*
X031446Y042151D01*
X031446Y042117D02*
X031600Y042117D01*
X032864Y049045D02*
X032864Y049199D01*
X032864Y049045D02*
X032670Y049045D01*
X032670Y049199D01*
X032864Y049199D01*
X032864Y049714D02*
X032864Y049868D01*
X032864Y049714D02*
X032670Y049714D01*
X032670Y049868D01*
X032864Y049868D01*
X030462Y049517D02*
X030308Y049517D01*
X030308Y049711D01*
X030462Y049711D01*
X030462Y049517D01*
X030462Y049677D02*
X030308Y049677D01*
X029793Y049517D02*
X029639Y049517D01*
X029639Y049711D01*
X029793Y049711D01*
X029793Y049517D01*
X029793Y049677D02*
X029639Y049677D01*
X036765Y046741D02*
X036919Y046741D01*
X036765Y046741D02*
X036765Y046935D01*
X036919Y046935D01*
X036919Y046741D01*
X036919Y046901D02*
X036765Y046901D01*
X037434Y046741D02*
X037588Y046741D01*
X037434Y046741D02*
X037434Y046935D01*
X037588Y046935D01*
X037588Y046741D01*
X037588Y046901D02*
X037434Y046901D01*
D11*
X034771Y044963D02*
X034771Y044791D01*
X034771Y044963D02*
X034955Y044963D01*
X034955Y044791D01*
X034771Y044791D01*
X034771Y044949D02*
X034955Y044949D01*
X034771Y044274D02*
X034771Y044102D01*
X034771Y044274D02*
X034955Y044274D01*
X034955Y044102D01*
X034771Y044102D01*
X034771Y044260D02*
X034955Y044260D01*
X033344Y044257D02*
X033344Y044085D01*
X033344Y044257D02*
X033528Y044257D01*
X033528Y044085D01*
X033344Y044085D01*
X033344Y044243D02*
X033528Y044243D01*
X033344Y044774D02*
X033344Y044946D01*
X033528Y044946D01*
X033528Y044774D01*
X033344Y044774D01*
X033344Y044932D02*
X033528Y044932D01*
X022841Y049167D02*
X022841Y049339D01*
X023025Y049339D01*
X023025Y049167D01*
X022841Y049167D01*
X022841Y049325D02*
X023025Y049325D01*
X022841Y049856D02*
X022841Y050028D01*
X023025Y050028D01*
X023025Y049856D01*
X022841Y049856D01*
X022841Y050014D02*
X023025Y050014D01*
D12*
X032731Y038256D02*
X033205Y038256D01*
X033205Y037782D01*
X032731Y037782D01*
X032731Y038256D01*
X032731Y037938D02*
X033205Y037938D01*
X033205Y038094D02*
X032731Y038094D01*
X032731Y038250D02*
X033205Y038250D01*
X034305Y038256D02*
X034779Y038256D01*
X034779Y037782D01*
X034305Y037782D01*
X034305Y038256D01*
X034305Y037938D02*
X034779Y037938D01*
X034779Y038094D02*
X034305Y038094D01*
X034305Y038250D02*
X034779Y038250D01*
D13*
X034635Y039700D02*
X034979Y039700D01*
X034979Y039276D01*
X034635Y039276D01*
X034635Y039700D01*
X034635Y039436D02*
X034979Y039436D01*
X034979Y039596D02*
X034635Y039596D01*
X033859Y039700D02*
X033515Y039700D01*
X033859Y039700D02*
X033859Y039276D01*
X033515Y039276D01*
X033515Y039700D01*
X033515Y039436D02*
X033859Y039436D01*
X033859Y039596D02*
X033515Y039596D01*
X029014Y027376D02*
X029014Y027284D01*
X028922Y027284D01*
X028922Y027376D01*
X029014Y027376D01*
X028423Y027376D02*
X028423Y027284D01*
X028331Y027284D01*
X028331Y027376D01*
X028423Y027376D01*
X025392Y024325D02*
X025300Y024325D01*
X025392Y024325D02*
X025392Y024233D01*
X025300Y024233D01*
X025300Y024325D01*
X025300Y023735D02*
X025392Y023735D01*
X025392Y023643D01*
X025300Y023643D01*
X025300Y023735D01*
X028423Y020703D02*
X028423Y020611D01*
X028331Y020611D01*
X028331Y020703D01*
X028423Y020703D01*
X029014Y020703D02*
X029014Y020611D01*
X028922Y020611D01*
X028922Y020703D01*
X029014Y020703D01*
X031953Y023735D02*
X032045Y023735D01*
X032045Y023643D01*
X031953Y023643D01*
X031953Y023735D01*
X031953Y024325D02*
X032045Y024325D01*
X032045Y024233D01*
X031953Y024233D01*
X031953Y024325D01*
D14*
X031757Y042983D02*
X031533Y042983D01*
X031533Y043607D01*
X031757Y043607D01*
X031757Y042983D01*
X031757Y043143D02*
X031533Y043143D01*
X031533Y043303D02*
X031757Y043303D01*
X031757Y043463D02*
X031533Y043463D01*
X030847Y042983D02*
X030623Y042983D01*
X030623Y043607D01*
X030847Y043607D01*
X030847Y042983D01*
X030847Y043143D02*
X030623Y043143D01*
X030623Y043303D02*
X030847Y043303D01*
X030847Y043463D02*
X030623Y043463D01*
X032443Y042983D02*
X032667Y042983D01*
X032443Y042983D02*
X032443Y043607D01*
X032667Y043607D01*
X032667Y042983D01*
X032667Y043143D02*
X032443Y043143D01*
X032443Y043303D02*
X032667Y043303D01*
X032667Y043463D02*
X032443Y043463D01*
D15*
X032188Y045468D02*
X031102Y045468D01*
X031102Y046002D01*
X032188Y046002D01*
X032188Y045468D01*
X032188Y045626D02*
X031102Y045626D01*
X031102Y045784D02*
X032188Y045784D01*
X032188Y045942D02*
X031102Y045942D01*
D16*
X022680Y042422D02*
X022470Y042422D01*
X022680Y042422D02*
X022680Y042042D01*
X022470Y042042D01*
X022470Y042422D01*
X022470Y042199D02*
X022680Y042199D01*
X022680Y042356D02*
X022470Y042356D01*
X022080Y042422D02*
X021870Y042422D01*
X022080Y042422D02*
X022080Y042042D01*
X021870Y042042D01*
X021870Y042422D01*
X021870Y042199D02*
X022080Y042199D01*
X022080Y042356D02*
X021870Y042356D01*
M02*
