  0
SECTION
  2
HEADER
  9
$ACADVER
  1
AC1009
  9
$FILLMODE
 70
0
  9
$EXTMIN
 10
-0.8890
 20
-6.5235
 30
0.0000
  9
$EXTMAX
 10
50.9524
 20
51.0780
 30
0.0000
  0
ENDSEC
  0
SECTION
  2
TABLES
  0
TABLE
  2
LTYPE
 70
1
  0
LTYPE
  2
CONTINUOUS
 70
64
  3
Solid line
 72
65
 73
0
 40
0
  0
ENDTAB
  0
TABLE
  2
LAYER
 70
255
  0
LAYER
  2
20
 70
64
 62
7
  6
CONTINUOUS
  0
LAYER
  2
31
 70
64
 62
253
  6
CONTINUOUS
  0
ENDTAB
  0
ENDSEC
  0
SECTION
  2
BLOCKS
  0
BLOCK
  8
0
  2
RECT
 70
64
 10
0.0000
 20
0.0000
 30
0.0000
  3
RECT
  0
SOLID
  8
0
 10
-0.5000
 20
-0.5000
 30
0.0000
 11
0.5000
 21
-0.5000
 31
0.0000
 12
-0.5000
 22
0.5000
 32
0.0000
 13
0.5000
 23
0.5000
 33
0.0000
  0
ENDBLK
  8
0
  0
BLOCK
  8
0
  2
PIE
 70
64
 10
0.0000
 20
0.0000
 30
0.0000
  3
PIE
  0
CIRCLE
  8
0
 10
0.0000
 20
0.0000
 30
0.0000
 40
0.5000
  0
ENDBLK
  8
0
  0
BLOCK
  8
0
  2
OCTAGONP
 70
64
 10
0.0000
 20
0.0000
 30
0.0000
  3
OCTAGONP
  0
POLYLINE
  8
0
 66
1
 10
0.0000
 20
0.0000
 30
0.0000
 40
0.0000
 41
0.0000
 70
1
  0
VERTEX
  8
0
 10
-0.5000
 20
-0.2071
 30
0.0000
  0
VERTEX
  8
0
 10
-0.5000
 20
0.2071
 30
0.0000
  0
VERTEX
  8
0
 10
-0.2071
 20
0.5000
 30
0.0000
  0
VERTEX
  8
0
 10
0.2071
 20
0.5000
 30
0.0000
  0
VERTEX
  8
0
 10
0.5000
 20
0.2071
 30
0.0000
  0
VERTEX
  8
0
 10
0.5000
 20
-0.2071
 30
0.0000
  0
VERTEX
  8
0
 10
0.2071
 20
-0.5000
 30
0.0000
  0
VERTEX
  8
0
 10
-0.2071
 20
-0.5000
 30
0.0000
  0
SEQEND
  8
0
  0
ENDBLK
  8
0
  0
BLOCK
  8
0
  2
SQUAREP
 70
64
 10
0.0000
 20
0.0000
 30
0.0000
  3
SQUAREP
  0
SOLID
  8
0
 10
-0.5000
 20
-0.5000
 30
0.0000
 11
0.5000
 21
-0.5000
 31
0.0000
 12
-0.5000
 22
0.5000
 32
0.0000
 13
0.5000
 23
0.5000
 33
0.0000
  0
ENDBLK
  8
0
  0
BLOCK
  8
0
  2
ROUNDP
 70
64
 10
0.0000
 20
0.0000
 30
0.0000
  3
ROUNDP
  0
CIRCLE
  8
0
 10
0.0000
 20
0.0000
 30
0.0000
 40
0.5000
  0
ENDBLK
  8
0
  0
BLOCK
  8
0
  2
ANNULUSP
 70
64
 10
0.0000
 20
0.0000
 30
0.0000
  3
ANNULUSP
  0
CIRCLE
  8
0
 10
0.0000
 20
0.0000
 30
0.0000
 40
0.5000
  0
ENDBLK
  8
0
  0
BLOCK
  8
0
  2
THERMALP
 70
64
 10
0.0000
 20
0.0000
 30
0.0000
  3
THERMALP
  0
POLYLINE
  8
0
 66
1
 10
0.0000
 20
0.0000
 30
0.0000
 40
0.0000
 41
0.0000
 70
1
  0
VERTEX
  8
0
 10
-0.2379
 20
0.4000
 30
0.0000
  0
VERTEX
  8
0
 10
0.2379
 20
0.4000
 30
0.0000
 42
1.0000
  0
VERTEX
  8
0
 10
0.2379
 20
0.5000
 30
0.0000
  0
VERTEX
  8
0
 10
-0.2379
 20
0.5000
 30
0.0000
 42
1.0000
  0
SEQEND
  8
0
  0
POLYLINE
  8
0
 66
1
 10
0.0000
 20
0.0000
 30
0.0000
 40
0.0000
 41
0.0000
 70
1
  0
VERTEX
  8
0
 10
0.4000
 20
0.2379
 30
0.0000
  0
VERTEX
  8
0
 10
0.4000
 20
-0.2379
 30
0.0000
 42
1.0000
  0
VERTEX
  8
0
 10
0.5000
 20
-0.2379
 30
0.0000
  0
VERTEX
  8
0
 10
0.5000
 20
0.2379
 30
0.0000
 42
1.0000
  0
SEQEND
  8
0
  0
POLYLINE
  8
0
 66
1
 10
0.0000
 20
0.0000
 30
0.0000
 40
0.0000
 41
0.0000
 70
1
  0
VERTEX
  8
0
 10
0.2379
 20
-0.4000
 30
0.0000
  0
VERTEX
  8
0
 10
-0.2379
 20
-0.4000
 30
0.0000
 42
1.0000
  0
VERTEX
  8
0
 10
-0.2379
 20
-0.5000
 30
0.0000
  0
VERTEX
  8
0
 10
0.2379
 20
-0.5000
 30
0.0000
 42
1.0000
  0
SEQEND
  8
0
  0
POLYLINE
  8
0
 66
1
 10
0.0000
 20
0.0000
 30
0.0000
 40
0.0000
 41
0.0000
 70
1
  0
VERTEX
  8
0
 10
-0.4000
 20
-0.2379
 30
0.0000
  0
VERTEX
  8
0
 10
-0.4000
 20
0.2379
 30
0.0000
 42
1.0000
  0
VERTEX
  8
0
 10
-0.5000
 20
0.2379
 30
0.0000
  0
VERTEX
  8
0
 10
-0.5000
 20
-0.2379
 30
0.0000
 42
1.0000
  0
SEQEND
  8
0
  0
ENDBLK
  8
0
  0
BLOCK
  8
0
  2
OCTAGONV
 70
64
 10
0.0000
 20
0.0000
 30
0.0000
  3
OCTAGONV
  0
POLYLINE
  8
0
 66
1
 10
0.0000
 20
0.0000
 30
0.0000
 40
0.0000
 41
0.0000
 70
1
  0
VERTEX
  8
0
 10
-0.5000
 20
-0.2071
 30
0.0000
  0
VERTEX
  8
0
 10
-0.5000
 20
0.2071
 30
0.0000
  0
VERTEX
  8
0
 10
-0.2071
 20
0.5000
 30
0.0000
  0
VERTEX
  8
0
 10
0.2071
 20
0.5000
 30
0.0000
  0
VERTEX
  8
0
 10
0.5000
 20
0.2071
 30
0.0000
  0
VERTEX
  8
0
 10
0.5000
 20
-0.2071
 30
0.0000
  0
VERTEX
  8
0
 10
0.2071
 20
-0.5000
 30
0.0000
  0
VERTEX
  8
0
 10
-0.2071
 20
-0.5000
 30
0.0000
  0
SEQEND
  8
0
  0
ENDBLK
  8
0
  0
BLOCK
  8
0
  2
SQUAREV
 70
64
 10
0.0000
 20
0.0000
 30
0.0000
  3
SQUAREV
  0
SOLID
  8
0
 10
-0.5000
 20
-0.5000
 30
0.0000
 11
0.5000
 21
-0.5000
 31
0.0000
 12
-0.5000
 22
0.5000
 32
0.0000
 13
0.5000
 23
0.5000
 33
0.0000
  0
ENDBLK
  8
0
  0
BLOCK
  8
0
  2
ROUNDV
 70
64
 10
0.0000
 20
0.0000
 30
0.0000
  3
ROUNDV
  0
CIRCLE
  8
0
 10
0.0000
 20
0.0000
 30
0.0000
 40
0.5000
  0
ENDBLK
  8
0
  0
BLOCK
  8
0
  2
ANNULUSV
 70
64
 10
0.0000
 20
0.0000
 30
0.0000
  3
ANNULUSV
  0
CIRCLE
  8
0
 10
0.0000
 20
0.0000
 30
0.0000
 40
0.5000
  0
ENDBLK
  8
0
  0
BLOCK
  8
0
  2
THERMALV
 70
64
 10
0.0000
 20
0.0000
 30
0.0000
  3
THERMALV
  0
POLYLINE
  8
0
 66
1
 10
0.0000
 20
0.0000
 30
0.0000
 40
0.0000
 41
0.0000
 70
1
  0
VERTEX
  8
0
 10
-0.2379
 20
0.4000
 30
0.0000
  0
VERTEX
  8
0
 10
0.2379
 20
0.4000
 30
0.0000
 42
1.0000
  0
VERTEX
  8
0
 10
0.2379
 20
0.5000
 30
0.0000
  0
VERTEX
  8
0
 10
-0.2379
 20
0.5000
 30
0.0000
 42
1.0000
  0
SEQEND
  8
0
  0
POLYLINE
  8
0
 66
1
 10
0.0000
 20
0.0000
 30
0.0000
 40
0.0000
 41
0.0000
 70
1
  0
VERTEX
  8
0
 10
0.4000
 20
0.2379
 30
0.0000
  0
VERTEX
  8
0
 10
0.4000
 20
-0.2379
 30
0.0000
 42
1.0000
  0
VERTEX
  8
0
 10
0.5000
 20
-0.2379
 30
0.0000
  0
VERTEX
  8
0
 10
0.5000
 20
0.2379
 30
0.0000
 42
1.0000
  0
SEQEND
  8
0
  0
POLYLINE
  8
0
 66
1
 10
0.0000
 20
0.0000
 30
0.0000
 40
0.0000
 41
0.0000
 70
1
  0
VERTEX
  8
0
 10
0.2379
 20
-0.4000
 30
0.0000
  0
VERTEX
  8
0
 10
-0.2379
 20
-0.4000
 30
0.0000
 42
1.0000
  0
VERTEX
  8
0
 10
-0.2379
 20
-0.5000
 30
0.0000
  0
VERTEX
  8
0
 10
0.2379
 20
-0.5000
 30
0.0000
 42
1.0000
  0
SEQEND
  8
0
  0
POLYLINE
  8
0
 66
1
 10
0.0000
 20
0.0000
 30
0.0000
 40
0.0000
 41
0.0000
 70
1
  0
VERTEX
  8
0
 10
-0.4000
 20
-0.2379
 30
0.0000
  0
VERTEX
  8
0
 10
-0.4000
 20
0.2379
 30
0.0000
 42
1.0000
  0
VERTEX
  8
0
 10
-0.5000
 20
0.2379
 30
0.0000
  0
VERTEX
  8
0
 10
-0.5000
 20
-0.2379
 30
0.0000
 42
1.0000
  0
SEQEND
  8
0
  0
ENDBLK
  8
0
  0
BLOCK
  8
0
  2
RECT140800X128000R51
 70
64
 10
0.0000
 20
0.0000
 30
0.0000
  3
RECT140800X128000R51
  0
POLYLINE
  8
0
 66
1
 10
0.0000
 20
0.0000
 30
0.0000
 40
0.0000
 41
0.0000
 70
1
  0
VERTEX
  8
0
 10
0.4400
 20
-0.1960
 30
0.0000
  0
VERTEX
  8
0
 10
0.4400
 20
0.1960
 30
0.0000
 42
0.4142
  0
VERTEX
  8
0
 10
0.2360
 20
0.4000
 30
0.0000
  0
VERTEX
  8
0
 10
-0.2360
 20
0.4000
 30
0.0000
 42
0.4142
  0
VERTEX
  8
0
 10
-0.4400
 20
0.1960
 30
0.0000
  0
VERTEX
  8
0
 10
-0.4400
 20
-0.1960
 30
0.0000
 42
0.4142
  0
VERTEX
  8
0
 10
-0.2360
 20
-0.4000
 30
0.0000
  0
VERTEX
  8
0
 10
0.2360
 20
-0.4000
 30
0.0000
 42
0.4142
  0
SEQEND
  8
0
  0
ENDBLK
  8
0
  0
BLOCK
  8
0
  2
RECT204800X307200R32
 70
64
 10
0.0000
 20
0.0000
 30
0.0000
  3
RECT204800X307200R32
  0
POLYLINE
  8
0
 66
1
 10
0.0000
 20
0.0000
 30
0.0000
 40
0.0000
 41
0.0000
 70
1
  0
VERTEX
  8
0
 10
0.6400
 20
-0.7552
 30
0.0000
  0
VERTEX
  8
0
 10
0.6400
 20
0.7552
 30
0.0000
 42
0.4142
  0
VERTEX
  8
0
 10
0.4352
 20
0.9600
 30
0.0000
  0
VERTEX
  8
0
 10
-0.4352
 20
0.9600
 30
0.0000
 42
0.4142
  0
VERTEX
  8
0
 10
-0.6400
 20
0.7552
 30
0.0000
  0
VERTEX
  8
0
 10
-0.6400
 20
-0.7552
 30
0.0000
 42
0.4142
  0
VERTEX
  8
0
 10
-0.4352
 20
-0.9600
 30
0.0000
  0
VERTEX
  8
0
 10
0.4352
 20
-0.9600
 30
0.0000
 42
0.4142
  0
SEQEND
  8
0
  0
ENDBLK
  8
0
  0
BLOCK
  8
0
  2
RECT134400X138240R48
 70
64
 10
0.0000
 20
0.0000
 30
0.0000
  3
RECT134400X138240R48
  0
POLYLINE
  8
0
 66
1
 10
0.0000
 20
0.0000
 30
0.0000
 40
0.0000
 41
0.0000
 70
1
  0
VERTEX
  8
0
 10
0.4200
 20
-0.2304
 30
0.0000
  0
VERTEX
  8
0
 10
0.4200
 20
0.2304
 30
0.0000
 42
0.4142
  0
VERTEX
  8
0
 10
0.2184
 20
0.4320
 30
0.0000
  0
VERTEX
  8
0
 10
-0.2184
 20
0.4320
 30
0.0000
 42
0.4142
  0
VERTEX
  8
0
 10
-0.4200
 20
0.2304
 30
0.0000
  0
VERTEX
  8
0
 10
-0.4200
 20
-0.2304
 30
0.0000
 42
0.4142
  0
VERTEX
  8
0
 10
-0.2184
 20
-0.4320
 30
0.0000
  0
VERTEX
  8
0
 10
0.2184
 20
-0.4320
 30
0.0000
 42
0.4142
  0
SEQEND
  8
0
  0
ENDBLK
  8
0
  0
BLOCK
  8
0
  2
RECT140800X114995R80
 70
64
 10
0.0000
 20
0.0000
 30
0.0000
  3
RECT140800X114995R80
  0
POLYLINE
  8
0
 66
1
 10
0.0000
 20
0.0000
 30
0.0000
 40
0.0000
 41
0.0000
 70
1
  0
VERTEX
  8
0
 10
0.4400
 20
-0.0719
 30
0.0000
  0
VERTEX
  8
0
 10
0.4400
 20
0.0719
 30
0.0000
 42
0.4142
  0
VERTEX
  8
0
 10
0.1525
 20
0.3594
 30
0.0000
  0
VERTEX
  8
0
 10
-0.1525
 20
0.3594
 30
0.0000
 42
0.4142
  0
VERTEX
  8
0
 10
-0.4400
 20
0.0719
 30
0.0000
  0
VERTEX
  8
0
 10
-0.4400
 20
-0.0719
 30
0.0000
 42
0.4142
  0
VERTEX
  8
0
 10
-0.1525
 20
-0.3594
 30
0.0000
  0
VERTEX
  8
0
 10
0.1525
 20
-0.3594
 30
0.0000
 42
0.4142
  0
SEQEND
  8
0
  0
ENDBLK
  8
0
  0
BLOCK
  8
0
  2
RECT256000X256000R25
 70
64
 10
0.0000
 20
0.0000
 30
0.0000
  3
RECT256000X256000R25
  0
POLYLINE
  8
0
 66
1
 10
0.0000
 20
0.0000
 30
0.0000
 40
0.0000
 41
0.0000
 70
1
  0
VERTEX
  8
0
 10
0.8000
 20
-0.6000
 30
0.0000
  0
VERTEX
  8
0
 10
0.8000
 20
0.6000
 30
0.0000
 42
0.4142
  0
VERTEX
  8
0
 10
0.6000
 20
0.8000
 30
0.0000
  0
VERTEX
  8
0
 10
-0.6000
 20
0.8000
 30
0.0000
 42
0.4142
  0
VERTEX
  8
0
 10
-0.8000
 20
0.6000
 30
0.0000
  0
VERTEX
  8
0
 10
-0.8000
 20
-0.6000
 30
0.0000
 42
0.4142
  0
VERTEX
  8
0
 10
-0.6000
 20
-0.8000
 30
0.0000
  0
VERTEX
  8
0
 10
0.6000
 20
-0.8000
 30
0.0000
 42
0.4142
  0
SEQEND
  8
0
  0
ENDBLK
  8
0
  0
BLOCK
  8
0
  2
RECT80640X106240R81
 70
64
 10
0.0000
 20
0.0000
 30
0.0000
  3
RECT80640X106240R81
  0
POLYLINE
  8
0
 66
1
 10
0.0000
 20
0.0000
 30
0.0000
 40
0.0000
 41
0.0000
 70
1
  0
VERTEX
  8
0
 10
0.2520
 20
-0.1279
 30
0.0000
  0
VERTEX
  8
0
 10
0.2520
 20
0.1279
 30
0.0000
 42
0.4142
  0
VERTEX
  8
0
 10
0.0479
 20
0.3320
 30
0.0000
  0
VERTEX
  8
0
 10
-0.0479
 20
0.3320
 30
0.0000
 42
0.4142
  0
VERTEX
  8
0
 10
-0.2520
 20
0.1279
 30
0.0000
  0
VERTEX
  8
0
 10
-0.2520
 20
-0.1279
 30
0.0000
 42
0.4142
  0
VERTEX
  8
0
 10
-0.0479
 20
-0.3320
 30
0.0000
  0
VERTEX
  8
0
 10
0.0479
 20
-0.3320
 30
0.0000
 42
0.4142
  0
SEQEND
  8
0
  0
ENDBLK
  8
0
  0
BLOCK
  8
0
  2
RECT128000X230400R51
 70
64
 10
0.0000
 20
0.0000
 30
0.0000
  3
RECT128000X230400R51
  0
POLYLINE
  8
0
 66
1
 10
0.0000
 20
0.0000
 30
0.0000
 40
0.0000
 41
0.0000
 70
1
  0
VERTEX
  8
0
 10
0.4000
 20
-0.5160
 30
0.0000
  0
VERTEX
  8
0
 10
0.4000
 20
0.5160
 30
0.0000
 42
0.4142
  0
VERTEX
  8
0
 10
0.1960
 20
0.7200
 30
0.0000
  0
VERTEX
  8
0
 10
-0.1960
 20
0.7200
 30
0.0000
 42
0.4142
  0
VERTEX
  8
0
 10
-0.4000
 20
0.5160
 30
0.0000
  0
VERTEX
  8
0
 10
-0.4000
 20
-0.5160
 30
0.0000
 42
0.4142
  0
VERTEX
  8
0
 10
-0.1960
 20
-0.7200
 30
0.0000
  0
VERTEX
  8
0
 10
0.1960
 20
-0.7200
 30
0.0000
 42
0.4142
  0
SEQEND
  8
0
  0
ENDBLK
  8
0
  0
BLOCK
  8
0
  2
RECT156058X286106R42
 70
64
 10
0.0000
 20
0.0000
 30
0.0000
  3
RECT156058X286106R42
  0
POLYLINE
  8
0
 66
1
 10
0.0000
 20
0.0000
 30
0.0000
 40
0.0000
 41
0.0000
 70
1
  0
VERTEX
  8
0
 10
0.4877
 20
-0.6893
 30
0.0000
  0
VERTEX
  8
0
 10
0.4877
 20
0.6893
 30
0.0000
 42
0.4142
  0
VERTEX
  8
0
 10
0.2829
 20
0.8941
 30
0.0000
  0
VERTEX
  8
0
 10
-0.2829
 20
0.8941
 30
0.0000
 42
0.4142
  0
VERTEX
  8
0
 10
-0.4877
 20
0.6893
 30
0.0000
  0
VERTEX
  8
0
 10
-0.4877
 20
-0.6893
 30
0.0000
 42
0.4142
  0
VERTEX
  8
0
 10
-0.2829
 20
-0.8941
 30
0.0000
  0
VERTEX
  8
0
 10
0.2829
 20
-0.8941
 30
0.0000
 42
0.4142
  0
SEQEND
  8
0
  0
ENDBLK
  8
0
  0
BLOCK
  8
0
  2
RECT460800X281600R23
 70
64
 10
0.0000
 20
0.0000
 30
0.0000
  3
RECT460800X281600R23
  0
POLYLINE
  8
0
 66
1
 10
0.0000
 20
0.0000
 30
0.0000
 40
0.0000
 41
0.0000
 70
1
  0
VERTEX
  8
0
 10
1.4400
 20
-0.6776
 30
0.0000
  0
VERTEX
  8
0
 10
1.4400
 20
0.6776
 30
0.0000
 42
0.4142
  0
VERTEX
  8
0
 10
1.2376
 20
0.8800
 30
0.0000
  0
VERTEX
  8
0
 10
-1.2376
 20
0.8800
 30
0.0000
 42
0.4142
  0
VERTEX
  8
0
 10
-1.4400
 20
0.6776
 30
0.0000
  0
VERTEX
  8
0
 10
-1.4400
 20
-0.6776
 30
0.0000
 42
0.4142
  0
VERTEX
  8
0
 10
-1.2376
 20
-0.8800
 30
0.0000
  0
VERTEX
  8
0
 10
1.2376
 20
-0.8800
 30
0.0000
 42
0.4142
  0
SEQEND
  8
0
  0
ENDBLK
  8
0
  0
BLOCK
  8
0
  2
LONGP50
 70
64
 10
0.0000
 20
0.0000
 30
0.0000
  3
LONGP50
  0
POLYLINE
  8
0
 66
1
 10
0.0000
 20
0.0000
 30
0.0000
 40
0.0000
 41
0.0000
 70
1
  0
VERTEX
  8
0
 10
-0.2500
 20
-0.5000
 30
0.0000
  0
VERTEX
  8
0
 10
0.2500
 20
-0.5000
 30
0.0000
 42
1.0000
  0
VERTEX
  8
0
 10
0.2500
 20
0.5000
 30
0.0000
  0
VERTEX
  8
0
 10
-0.2500
 20
0.5000
 30
0.0000
 42
1.0000
  0
SEQEND
  8
0
  0
ENDBLK
  8
0
  0
BLOCK
  8
0
  2
RECT128000X128000R51
 70
64
 10
0.0000
 20
0.0000
 30
0.0000
  3
RECT128000X128000R51
  0
POLYLINE
  8
0
 66
1
 10
0.0000
 20
0.0000
 30
0.0000
 40
0.0000
 41
0.0000
 70
1
  0
VERTEX
  8
0
 10
0.4000
 20
-0.1960
 30
0.0000
  0
VERTEX
  8
0
 10
0.4000
 20
0.1960
 30
0.0000
 42
0.4142
  0
VERTEX
  8
0
 10
0.1960
 20
0.4000
 30
0.0000
  0
VERTEX
  8
0
 10
-0.1960
 20
0.4000
 30
0.0000
 42
0.4142
  0
VERTEX
  8
0
 10
-0.4000
 20
0.1960
 30
0.0000
  0
VERTEX
  8
0
 10
-0.4000
 20
-0.1960
 30
0.0000
 42
0.4142
  0
VERTEX
  8
0
 10
-0.1960
 20
-0.4000
 30
0.0000
  0
VERTEX
  8
0
 10
0.1960
 20
-0.4000
 30
0.0000
 42
0.4142
  0
SEQEND
  8
0
  0
ENDBLK
  8
0
  0
BLOCK
  8
0
  2
RECT102400X102400R64
 70
64
 10
0.0000
 20
0.0000
 30
0.0000
  3
RECT102400X102400R64
  0
POLYLINE
  8
0
 66
1
 10
0.0000
 20
0.0000
 30
0.0000
 40
0.0000
 41
0.0000
 70
1
  0
VERTEX
  8
0
 10
0.3200
 20
-0.1152
 30
0.0000
  0
VERTEX
  8
0
 10
0.3200
 20
0.1152
 30
0.0000
 42
0.4142
  0
VERTEX
  8
0
 10
0.1152
 20
0.3200
 30
0.0000
  0
VERTEX
  8
0
 10
-0.1152
 20
0.3200
 30
0.0000
 42
0.4142
  0
VERTEX
  8
0
 10
-0.3200
 20
0.1152
 30
0.0000
  0
VERTEX
  8
0
 10
-0.3200
 20
-0.1152
 30
0.0000
 42
0.4142
  0
VERTEX
  8
0
 10
-0.1152
 20
-0.3200
 30
0.0000
  0
VERTEX
  8
0
 10
0.1152
 20
-0.3200
 30
0.0000
 42
0.4142
  0
SEQEND
  8
0
  0
ENDBLK
  8
0
  0
BLOCK
  8
0
  2
RECT153600X179200R42
 70
64
 10
0.0000
 20
0.0000
 30
0.0000
  3
RECT153600X179200R42
  0
POLYLINE
  8
0
 66
1
 10
0.0000
 20
0.0000
 30
0.0000
 40
0.0000
 41
0.0000
 70
1
  0
VERTEX
  8
0
 10
0.4800
 20
-0.3584
 30
0.0000
  0
VERTEX
  8
0
 10
0.4800
 20
0.3584
 30
0.0000
 42
0.4142
  0
VERTEX
  8
0
 10
0.2784
 20
0.5600
 30
0.0000
  0
VERTEX
  8
0
 10
-0.2784
 20
0.5600
 30
0.0000
 42
0.4142
  0
VERTEX
  8
0
 10
-0.4800
 20
0.3584
 30
0.0000
  0
VERTEX
  8
0
 10
-0.4800
 20
-0.3584
 30
0.0000
 42
0.4142
  0
VERTEX
  8
0
 10
-0.2784
 20
-0.5600
 30
0.0000
  0
VERTEX
  8
0
 10
0.2784
 20
-0.5600
 30
0.0000
 42
0.4142
  0
SEQEND
  8
0
  0
ENDBLK
  8
0
  0
BLOCK
  8
0
  2
RECT179200X55744R100
 70
64
 10
0.0000
 20
0.0000
 30
0.0000
  3
RECT179200X55744R100
  0
POLYLINE
  8
0
 66
1
 10
0.0000
 20
0.0000
 30
0.0000
 40
0.0000
 41
0.0000
 70
1
  0
VERTEX
  8
0
 10
0.5600
 20
0.0000
 30
0.0000
  0
VERTEX
  8
0
 10
0.5600
 20
0.0000
 30
0.0000
 42
0.4142
  0
VERTEX
  8
0
 10
0.3858
 20
0.1742
 30
0.0000
  0
VERTEX
  8
0
 10
-0.3858
 20
0.1742
 30
0.0000
 42
0.4142
  0
VERTEX
  8
0
 10
-0.5600
 20
0.0000
 30
0.0000
  0
VERTEX
  8
0
 10
-0.5600
 20
0.0000
 30
0.0000
 42
0.4142
  0
VERTEX
  8
0
 10
-0.3858
 20
-0.1742
 30
0.0000
  0
VERTEX
  8
0
 10
0.3858
 20
-0.1742
 30
0.0000
 42
0.4142
  0
SEQEND
  8
0
  0
ENDBLK
  8
0
  0
BLOCK
  8
0
  2
RECT55744X179200R100
 70
64
 10
0.0000
 20
0.0000
 30
0.0000
  3
RECT55744X179200R100
  0
POLYLINE
  8
0
 66
1
 10
0.0000
 20
0.0000
 30
0.0000
 40
0.0000
 41
0.0000
 70
1
  0
VERTEX
  8
0
 10
0.1742
 20
-0.3858
 30
0.0000
  0
VERTEX
  8
0
 10
0.1742
 20
0.3858
 30
0.0000
 42
0.4142
  0
VERTEX
  8
0
 10
0.0000
 20
0.5600
 30
0.0000
  0
VERTEX
  8
0
 10
0.0000
 20
0.5600
 30
0.0000
 42
0.4142
  0
VERTEX
  8
0
 10
-0.1742
 20
0.3858
 30
0.0000
  0
VERTEX
  8
0
 10
-0.1742
 20
-0.3858
 30
0.0000
 42
0.4142
  0
VERTEX
  8
0
 10
0.0000
 20
-0.5600
 30
0.0000
  0
VERTEX
  8
0
 10
0.0000
 20
-0.5600
 30
0.0000
 42
0.4142
  0
SEQEND
  8
0
  0
ENDBLK
  8
0
  0
BLOCK
  8
0
  2
RECT128000X128000R100
 70
64
 10
0.0000
 20
0.0000
 30
0.0000
  3
RECT128000X128000R100
  0
POLYLINE
  8
0
 66
1
 10
0.0000
 20
0.0000
 30
0.0000
 40
0.0000
 41
0.0000
 70
1
  0
VERTEX
  8
0
 10
0.4000
 20
0.0000
 30
0.0000
  0
VERTEX
  8
0
 10
0.4000
 20
0.0000
 30
0.0000
 42
0.4142
  0
VERTEX
  8
0
 10
0.0000
 20
0.4000
 30
0.0000
  0
VERTEX
  8
0
 10
0.0000
 20
0.4000
 30
0.0000
 42
0.4142
  0
VERTEX
  8
0
 10
-0.4000
 20
0.0000
 30
0.0000
  0
VERTEX
  8
0
 10
-0.4000
 20
0.0000
 30
0.0000
 42
0.4142
  0
VERTEX
  8
0
 10
0.0000
 20
-0.4000
 30
0.0000
  0
VERTEX
  8
0
 10
0.0000
 20
-0.4000
 30
0.0000
 42
0.4142
  0
SEQEND
  8
0
  0
ENDBLK
  8
0
  0
BLOCK
  8
0
  2
RECT47744X179200R100
 70
64
 10
0.0000
 20
0.0000
 30
0.0000
  3
RECT47744X179200R100
  0
POLYLINE
  8
0
 66
1
 10
0.0000
 20
0.0000
 30
0.0000
 40
0.0000
 41
0.0000
 70
1
  0
VERTEX
  8
0
 10
0.1492
 20
-0.4108
 30
0.0000
  0
VERTEX
  8
0
 10
0.1492
 20
0.4108
 30
0.0000
 42
0.4142
  0
VERTEX
  8
0
 10
0.0000
 20
0.5600
 30
0.0000
  0
VERTEX
  8
0
 10
0.0000
 20
0.5600
 30
0.0000
 42
0.4142
  0
VERTEX
  8
0
 10
-0.1492
 20
0.4108
 30
0.0000
  0
VERTEX
  8
0
 10
-0.1492
 20
-0.4108
 30
0.0000
 42
0.4142
  0
VERTEX
  8
0
 10
0.0000
 20
-0.5600
 30
0.0000
  0
VERTEX
  8
0
 10
0.0000
 20
-0.5600
 30
0.0000
 42
0.4142
  0
SEQEND
  8
0
  0
ENDBLK
  8
0
  0
BLOCK
  8
0
  2
RECT281600X243200R27
 70
64
 10
0.0000
 20
0.0000
 30
0.0000
  3
RECT281600X243200R27
  0
POLYLINE
  8
0
 66
1
 10
0.0000
 20
0.0000
 30
0.0000
 40
0.0000
 41
0.0000
 70
1
  0
VERTEX
  8
0
 10
0.8800
 20
-0.5548
 30
0.0000
  0
VERTEX
  8
0
 10
0.8800
 20
0.5548
 30
0.0000
 42
0.4142
  0
VERTEX
  8
0
 10
0.6748
 20
0.7600
 30
0.0000
  0
VERTEX
  8
0
 10
-0.6748
 20
0.7600
 30
0.0000
 42
0.4142
  0
VERTEX
  8
0
 10
-0.8800
 20
0.5548
 30
0.0000
  0
VERTEX
  8
0
 10
-0.8800
 20
-0.5548
 30
0.0000
 42
0.4142
  0
VERTEX
  8
0
 10
-0.6748
 20
-0.7600
 30
0.0000
  0
VERTEX
  8
0
 10
0.6748
 20
-0.7600
 30
0.0000
 42
0.4142
  0
SEQEND
  8
0
  0
ENDBLK
  8
0
  0
BLOCK
  8
0
  2
RECT256000X243200R27
 70
64
 10
0.0000
 20
0.0000
 30
0.0000
  3
RECT256000X243200R27
  0
POLYLINE
  8
0
 66
1
 10
0.0000
 20
0.0000
 30
0.0000
 40
0.0000
 41
0.0000
 70
1
  0
VERTEX
  8
0
 10
0.8000
 20
-0.5548
 30
0.0000
  0
VERTEX
  8
0
 10
0.8000
 20
0.5548
 30
0.0000
 42
0.4142
  0
VERTEX
  8
0
 10
0.5948
 20
0.7600
 30
0.0000
  0
VERTEX
  8
0
 10
-0.5948
 20
0.7600
 30
0.0000
 42
0.4142
  0
VERTEX
  8
0
 10
-0.8000
 20
0.5548
 30
0.0000
  0
VERTEX
  8
0
 10
-0.8000
 20
-0.5548
 30
0.0000
 42
0.4142
  0
VERTEX
  8
0
 10
-0.5948
 20
-0.7600
 30
0.0000
  0
VERTEX
  8
0
 10
0.5948
 20
-0.7600
 30
0.0000
 42
0.4142
  0
SEQEND
  8
0
  0
ENDBLK
  8
0
  0
BLOCK
  8
0
  2
RECT70400X153600R92
 70
64
 10
0.0000
 20
0.0000
 30
0.0000
  3
RECT70400X153600R92
  0
POLYLINE
  8
0
 66
1
 10
0.0000
 20
0.0000
 30
0.0000
 40
0.0000
 41
0.0000
 70
1
  0
VERTEX
  8
0
 10
0.2200
 20
-0.2776
 30
0.0000
  0
VERTEX
  8
0
 10
0.2200
 20
0.2776
 30
0.0000
 42
0.4142
  0
VERTEX
  8
0
 10
0.0176
 20
0.4800
 30
0.0000
  0
VERTEX
  8
0
 10
-0.0176
 20
0.4800
 30
0.0000
 42
0.4142
  0
VERTEX
  8
0
 10
-0.2200
 20
0.2776
 30
0.0000
  0
VERTEX
  8
0
 10
-0.2200
 20
-0.2776
 30
0.0000
 42
0.4142
  0
VERTEX
  8
0
 10
-0.0176
 20
-0.4800
 30
0.0000
  0
VERTEX
  8
0
 10
0.0176
 20
-0.4800
 30
0.0000
 42
0.4142
  0
SEQEND
  8
0
  0
ENDBLK
  8
0
  0
ENDSEC
  0
SECTION
  2
ENTITIES
  0
LINE
  8
20
 10
50.5500
 20
50.8000
 30
0.0000
 11
0.0800
 21
50.8000
 31
0.0000
  0
LINE
  8
20
 10
0.0800
 20
50.8000
 30
0.0000
 11
0.0800
 21
0.0100
 31
0.0000
  0
LINE
  8
20
 10
0.0800
 20
0.0100
 30
0.0000
 11
50.5500
 21
0.0100
 31
0.0000
  0
LINE
  8
20
 10
50.5500
 20
0.0100
 30
0.0000
 11
50.5500
 21
50.8000
 31
0.0000
  0
CIRCLE
  8
20
 10
2.5400
 20
45.3350
 30
0.0000
 40
1.6000
  0
CIRCLE
  8
20
 10
48.2600
 20
48.2600
 30
0.0000
 40
1.6000
  0
CIRCLE
  8
20
 10
2.5400
 20
2.5400
 30
0.0000
 40
1.6000
  0
CIRCLE
  8
20
 10
48.2600
 20
2.5400
 30
0.0000
 40
1.6000
  0
INSERT
  8
31
  2
RECT140800X128000R51
 10
26.3650
 20
13.4450
 30
0.0000
 41
1.0000
 42
1.0000
 43
1.0000
 50
0.0000
  0
INSERT
  8
31
  2
RECT140800X128000R51
 10
28.0650
 20
13.4450
 30
0.0000
 41
1.0000
 42
1.0000
 43
1.0000
 50
0.0000
  0
INSERT
  8
31
  2
RECT140800X128000R51
 10
30.1450
 20
13.4950
 30
0.0000
 41
1.0000
 42
1.0000
 43
1.0000
 50
0.0000
  0
INSERT
  8
31
  2
RECT140800X128000R51
 10
31.8450
 20
13.4950
 30
0.0000
 41
1.0000
 42
1.0000
 43
1.0000
 50
0.0000
  0
INSERT
  8
31
  2
RECT140800X128000R51
 10
9.0700
 20
21.9500
 30
0.0000
 41
1.0000
 42
1.0000
 43
1.0000
 50
0.0000
  0
INSERT
  8
31
  2
RECT140800X128000R51
 10
10.7700
 20
21.9500
 30
0.0000
 41
1.0000
 42
1.0000
 43
1.0000
 50
0.0000
  0
INSERT
  8
31
  2
RECT204800X307200R32
 10
16.0950
 20
12.5500
 30
0.0000
 41
1.0000
 42
1.0000
 43
1.0000
 50
180.0000
  0
INSERT
  8
31
  2
RECT204800X307200R32
 10
13.0950
 20
12.5500
 30
0.0000
 41
1.0000
 42
1.0000
 43
1.0000
 50
0.0000
  0
INSERT
  8
31
  2
RECT140800X128000R51
 10
36.1500
 20
22.2250
 30
0.0000
 41
1.0000
 42
1.0000
 43
1.0000
 50
180.0000
  0
INSERT
  8
31
  2
RECT140800X128000R51
 10
34.4500
 20
22.2250
 30
0.0000
 41
1.0000
 42
1.0000
 43
1.0000
 50
180.0000
  0
INSERT
  8
31
  2
RECT140800X128000R51
 10
22.2200
 20
8.6250
 30
0.0000
 41
1.0000
 42
1.0000
 43
1.0000
 50
90.0000
  0
INSERT
  8
31
  2
RECT140800X128000R51
 10
22.2200
 20
10.3250
 30
0.0000
 41
1.0000
 42
1.0000
 43
1.0000
 50
90.0000
  0
INSERT
  8
31
  2
RECT134400X138240R48
 10
43.6000
 20
40.6150
 30
0.0000
 41
1.0000
 42
1.0000
 43
1.0000
 50
90.0000
  0
INSERT
  8
31
  2
RECT134400X138240R48
 10
43.6000
 20
42.3650
 30
0.0000
 41
1.0000
 42
1.0000
 43
1.0000
 50
90.0000
  0
INSERT
  8
31
  2
RECT134400X138240R48
 10
10.2300
 20
45.9600
 30
0.0000
 41
1.0000
 42
1.0000
 43
1.0000
 50
0.0000
  0
INSERT
  8
31
  2
RECT134400X138240R48
 10
11.9800
 20
45.9600
 30
0.0000
 41
1.0000
 42
1.0000
 43
1.0000
 50
0.0000
  0
INSERT
  8
31
  2
RECT140800X128000R51
 10
20.4400
 20
10.3650
 30
0.0000
 41
1.0000
 42
1.0000
 43
1.0000
 50
270.0000
  0
INSERT
  8
31
  2
RECT140800X128000R51
 10
20.4400
 20
8.6650
 30
0.0000
 41
1.0000
 42
1.0000
 43
1.0000
 50
270.0000
  0
INSERT
  8
31
  2
RECT140800X114995R80
 10
29.9600
 20
30.2810
 30
0.0000
 41
1.0000
 42
1.0000
 43
1.0000
 50
180.0000
  0
INSERT
  8
31
  2
RECT140800X114995R80
 10
29.9600
 20
32.0590
 30
0.0000
 41
1.0000
 42
1.0000
 43
1.0000
 50
180.0000
  0
INSERT
  8
31
  2
RECT140800X114995R80
 10
24.5750
 20
30.3160
 30
0.0000
 41
1.0000
 42
1.0000
 43
1.0000
 50
180.0000
  0
INSERT
  8
31
  2
RECT140800X114995R80
 10
24.5750
 20
32.0940
 30
0.0000
 41
1.0000
 42
1.0000
 43
1.0000
 50
180.0000
  0
INSERT
  8
31
  2
RECT204800X307200R32
 10
6.8250
 20
12.5150
 30
0.0000
 41
1.0000
 42
1.0000
 43
1.0000
 50
0.0000
  0
INSERT
  8
31
  2
RECT204800X307200R32
 10
9.8250
 20
12.5150
 30
0.0000
 41
1.0000
 42
1.0000
 43
1.0000
 50
180.0000
  0
INSERT
  8
31
  2
RECT256000X256000R25
 10
12.6000
 20
9.0550
 30
0.0000
 41
1.0000
 42
1.0000
 43
1.0000
 50
0.0000
  0
INSERT
  8
31
  2
RECT256000X256000R25
 10
8.6000
 20
9.0550
 30
0.0000
 41
1.0000
 42
1.0000
 43
1.0000
 50
0.0000
  0
INSERT
  8
31
  2
RECT80640X106240R81
 10
17.7450
 20
6.3400
 30
0.0000
 41
1.0000
 42
1.0000
 43
1.0000
 50
0.0000
  0
INSERT
  8
31
  2
RECT80640X106240R81
 10
20.0450
 20
6.3400
 30
0.0000
 41
1.0000
 42
1.0000
 43
1.0000
 50
0.0000
  0
INSERT
  8
31
  2
RECT80640X106240R81
 10
39.9100
 20
8.6000
 30
0.0000
 41
1.0000
 42
1.0000
 43
1.0000
 50
270.0000
  0
INSERT
  8
31
  2
RECT80640X106240R81
 10
39.9100
 20
6.3000
 30
0.0000
 41
1.0000
 42
1.0000
 43
1.0000
 50
270.0000
  0
INSERT
  8
31
  2
RECT128000X230400R51
 10
24.1200
 20
6.3350
 30
0.0000
 41
1.0000
 42
1.0000
 43
1.0000
 50
180.0000
  0
INSERT
  8
31
  2
RECT128000X230400R51
 10
21.3200
 20
6.3350
 30
0.0000
 41
1.0000
 42
1.0000
 43
1.0000
 50
180.0000
  0
INSERT
  8
31
  2
RECT128000X230400R51
 10
5.9850
 20
6.4000
 30
0.0000
 41
1.0000
 42
1.0000
 43
1.0000
 50
0.0000
  0
INSERT
  8
31
  2
RECT128000X230400R51
 10
8.7850
 20
6.4000
 30
0.0000
 41
1.0000
 42
1.0000
 43
1.0000
 50
0.0000
  0
INSERT
  8
31
  2
RECT156058X286106R42
 10
6.8062
 20
19.8014
 30
0.0000
 41
1.0000
 42
1.0000
 43
1.0000
 50
270.0000
  0
INSERT
  8
31
  2
RECT156058X286106R42
 10
6.8062
 20
17.4900
 30
0.0000
 41
1.0000
 42
1.0000
 43
1.0000
 50
270.0000
  0
INSERT
  8
31
  2
RECT156058X286106R42
 10
6.8062
 20
15.1786
 30
0.0000
 41
1.0000
 42
1.0000
 43
1.0000
 50
270.0000
  0
INSERT
  8
31
  2
RECT460800X281600R23
 10
13.0040
 20
17.4900
 30
0.0000
 41
1.0000
 42
1.0000
 43
1.0000
 50
270.0000
  0
INSERT
  8
31
  2
RECT128000X128000R51
 10
38.2950
 20
11.0200
 30
0.0000
 41
1.0000
 42
1.0000
 43
1.0000
 50
90.0000
  0
INSERT
  8
31
  2
RECT128000X128000R51
 10
38.2950
 20
13.0200
 30
0.0000
 41
1.0000
 42
1.0000
 43
1.0000
 50
90.0000
  0
INSERT
  8
31
  2
RECT102400X102400R64
 10
16.8650
 20
6.3550
 30
0.0000
 41
1.0000
 42
1.0000
 43
1.0000
 50
90.0000
  0
INSERT
  8
31
  2
RECT102400X102400R64
 10
15.3650
 20
6.3550
 30
0.0000
 41
1.0000
 42
1.0000
 43
1.0000
 50
90.0000
  0
INSERT
  8
31
  2
RECT102400X102400R64
 10
44.6200
 20
6.3050
 30
0.0000
 41
1.0000
 42
1.0000
 43
1.0000
 50
270.0000
  0
INSERT
  8
31
  2
RECT102400X102400R64
 10
46.1200
 20
6.3050
 30
0.0000
 41
1.0000
 42
1.0000
 43
1.0000
 50
270.0000
  0
INSERT
  8
31
  2
RECT102400X102400R64
 10
44.6450
 20
8.8200
 30
0.0000
 41
1.0000
 42
1.0000
 43
1.0000
 50
270.0000
  0
INSERT
  8
31
  2
RECT102400X102400R64
 10
46.1450
 20
8.8200
 30
0.0000
 41
1.0000
 42
1.0000
 43
1.0000
 50
270.0000
  0
INSERT
  8
31
  2
RECT102400X102400R64
 10
44.6650
 20
12.7050
 30
0.0000
 41
1.0000
 42
1.0000
 43
1.0000
 50
270.0000
  0
INSERT
  8
31
  2
RECT102400X102400R64
 10
46.1650
 20
12.7050
 30
0.0000
 41
1.0000
 42
1.0000
 43
1.0000
 50
270.0000
  0
INSERT
  8
31
  2
RECT153600X179200R42
 10
28.4500
 20
32.0650
 30
0.0000
 41
1.0000
 42
1.0000
 43
1.0000
 50
270.0000
  0
INSERT
  8
31
  2
RECT153600X179200R42
 10
26.2500
 20
32.0650
 30
0.0000
 41
1.0000
 42
1.0000
 43
1.0000
 50
270.0000
  0
INSERT
  8
31
  2
RECT153600X179200R42
 10
26.2500
 20
30.4650
 30
0.0000
 41
1.0000
 42
1.0000
 43
1.0000
 50
270.0000
  0
INSERT
  8
31
  2
RECT153600X179200R42
 10
28.4500
 20
30.4650
 30
0.0000
 41
1.0000
 42
1.0000
 43
1.0000
 50
270.0000
  0
INSERT
  8
31
  2
RECT140800X128000R51
 10
43.4950
 20
12.7000
 30
0.0000
 41
1.0000
 42
1.0000
 43
1.0000
 50
180.0000
  0
INSERT
  8
31
  2
RECT140800X128000R51
 10
41.7950
 20
12.7000
 30
0.0000
 41
1.0000
 42
1.0000
 43
1.0000
 50
180.0000
  0
INSERT
  8
31
  2
RECT140800X128000R51
 10
38.2800
 20
6.6950
 30
0.0000
 41
1.0000
 42
1.0000
 43
1.0000
 50
90.0000
  0
INSERT
  8
31
  2
RECT140800X128000R51
 10
38.2800
 20
8.3950
 30
0.0000
 41
1.0000
 42
1.0000
 43
1.0000
 50
90.0000
  0
INSERT
  8
31
  2
RECT140800X128000R51
 10
43.4600
 20
8.8350
 30
0.0000
 41
1.0000
 42
1.0000
 43
1.0000
 50
180.0000
  0
INSERT
  8
31
  2
RECT140800X128000R51
 10
41.7600
 20
8.8350
 30
0.0000
 41
1.0000
 42
1.0000
 43
1.0000
 50
180.0000
  0
INSERT
  8
31
  2
RECT140800X128000R51
 10
31.3350
 20
8.1150
 30
0.0000
 41
1.0000
 42
1.0000
 43
1.0000
 50
270.0000
  0
INSERT
  8
31
  2
RECT140800X128000R51
 10
31.3350
 20
6.4150
 30
0.0000
 41
1.0000
 42
1.0000
 43
1.0000
 50
270.0000
  0
INSERT
  8
31
  2
RECT140800X128000R51
 10
43.4250
 20
6.3000
 30
0.0000
 41
1.0000
 42
1.0000
 43
1.0000
 50
180.0000
  0
INSERT
  8
31
  2
RECT140800X128000R51
 10
41.7250
 20
6.3000
 30
0.0000
 41
1.0000
 42
1.0000
 43
1.0000
 50
180.0000
  0
INSERT
  8
31
  2
RECT140800X128000R51
 10
30.0050
 20
8.1350
 30
0.0000
 41
1.0000
 42
1.0000
 43
1.0000
 50
270.0000
  0
INSERT
  8
31
  2
RECT140800X128000R51
 10
30.0050
 20
6.4350
 30
0.0000
 41
1.0000
 42
1.0000
 43
1.0000
 50
270.0000
  0
INSERT
  8
31
  2
RECT140800X128000R51
 10
12.1700
 20
6.3700
 30
0.0000
 41
1.0000
 42
1.0000
 43
1.0000
 50
0.0000
  0
INSERT
  8
31
  2
RECT140800X128000R51
 10
13.8700
 20
6.3700
 30
0.0000
 41
1.0000
 42
1.0000
 43
1.0000
 50
0.0000
  0
INSERT
  8
31
  2
RECT179200X55744R100
 10
32.3200
 20
18.2100
 30
0.0000
 41
1.0000
 42
1.0000
 43
1.0000
 50
180.0000
  0
INSERT
  8
31
  2
RECT179200X55744R100
 10
32.3200
 20
19.0100
 30
0.0000
 41
1.0000
 42
1.0000
 43
1.0000
 50
180.0000
  0
INSERT
  8
31
  2
RECT179200X55744R100
 10
32.3200
 20
19.8100
 30
0.0000
 41
1.0000
 42
1.0000
 43
1.0000
 50
180.0000
  0
INSERT
  8
31
  2
RECT179200X55744R100
 10
32.3200
 20
20.6100
 30
0.0000
 41
1.0000
 42
1.0000
 43
1.0000
 50
180.0000
  0
INSERT
  8
31
  2
RECT179200X55744R100
 10
32.3200
 20
21.4100
 30
0.0000
 41
1.0000
 42
1.0000
 43
1.0000
 50
180.0000
  0
INSERT
  8
31
  2
RECT179200X55744R100
 10
32.3200
 20
22.2100
 30
0.0000
 41
1.0000
 42
1.0000
 43
1.0000
 50
180.0000
  0
INSERT
  8
31
  2
RECT179200X55744R100
 10
32.3200
 20
23.0100
 30
0.0000
 41
1.0000
 42
1.0000
 43
1.0000
 50
180.0000
  0
INSERT
  8
31
  2
RECT179200X55744R100
 10
32.3200
 20
23.8100
 30
0.0000
 41
1.0000
 42
1.0000
 43
1.0000
 50
180.0000
  0
INSERT
  8
31
  2
RECT179200X55744R100
 10
32.3200
 20
24.6100
 30
0.0000
 41
1.0000
 42
1.0000
 43
1.0000
 50
180.0000
  0
INSERT
  8
31
  2
RECT179200X55744R100
 10
32.3200
 20
25.4100
 30
0.0000
 41
1.0000
 42
1.0000
 43
1.0000
 50
180.0000
  0
INSERT
  8
31
  2
RECT179200X55744R100
 10
32.3200
 20
26.2100
 30
0.0000
 41
1.0000
 42
1.0000
 43
1.0000
 50
180.0000
  0
INSERT
  8
31
  2
RECT55744X179200R100
 10
30.5200
 20
28.0100
 30
0.0000
 41
1.0000
 42
1.0000
 43
1.0000
 50
180.0000
  0
INSERT
  8
31
  2
RECT55744X179200R100
 10
29.7200
 20
28.0100
 30
0.0000
 41
1.0000
 42
1.0000
 43
1.0000
 50
180.0000
  0
INSERT
  8
31
  2
RECT55744X179200R100
 10
28.9200
 20
28.0100
 30
0.0000
 41
1.0000
 42
1.0000
 43
1.0000
 50
180.0000
  0
INSERT
  8
31
  2
RECT55744X179200R100
 10
28.1200
 20
28.0100
 30
0.0000
 41
1.0000
 42
1.0000
 43
1.0000
 50
180.0000
  0
INSERT
  8
31
  2
RECT55744X179200R100
 10
27.3200
 20
28.0100
 30
0.0000
 41
1.0000
 42
1.0000
 43
1.0000
 50
180.0000
  0
INSERT
  8
31
  2
RECT55744X179200R100
 10
26.5200
 20
28.0100
 30
0.0000
 41
1.0000
 42
1.0000
 43
1.0000
 50
180.0000
  0
INSERT
  8
31
  2
RECT55744X179200R100
 10
25.7200
 20
28.0100
 30
0.0000
 41
1.0000
 42
1.0000
 43
1.0000
 50
180.0000
  0
INSERT
  8
31
  2
RECT55744X179200R100
 10
24.9200
 20
28.0100
 30
0.0000
 41
1.0000
 42
1.0000
 43
1.0000
 50
180.0000
  0
INSERT
  8
31
  2
RECT55744X179200R100
 10
24.1200
 20
28.0100
 30
0.0000
 41
1.0000
 42
1.0000
 43
1.0000
 50
180.0000
  0
INSERT
  8
31
  2
RECT55744X179200R100
 10
23.3200
 20
28.0100
 30
0.0000
 41
1.0000
 42
1.0000
 43
1.0000
 50
180.0000
  0
INSERT
  8
31
  2
RECT55744X179200R100
 10
22.5200
 20
28.0100
 30
0.0000
 41
1.0000
 42
1.0000
 43
1.0000
 50
180.0000
  0
INSERT
  8
31
  2
RECT179200X55744R100
 10
20.7200
 20
26.2100
 30
0.0000
 41
1.0000
 42
1.0000
 43
1.0000
 50
180.0000
  0
INSERT
  8
31
  2
RECT179200X55744R100
 10
20.7200
 20
25.4100
 30
0.0000
 41
1.0000
 42
1.0000
 43
1.0000
 50
180.0000
  0
INSERT
  8
31
  2
RECT179200X55744R100
 10
20.7200
 20
24.6100
 30
0.0000
 41
1.0000
 42
1.0000
 43
1.0000
 50
180.0000
  0
INSERT
  8
31
  2
RECT179200X55744R100
 10
20.7200
 20
23.8100
 30
0.0000
 41
1.0000
 42
1.0000
 43
1.0000
 50
180.0000
  0
INSERT
  8
31
  2
RECT179200X55744R100
 10
20.7200
 20
23.0100
 30
0.0000
 41
1.0000
 42
1.0000
 43
1.0000
 50
180.0000
  0
INSERT
  8
31
  2
RECT179200X55744R100
 10
20.7200
 20
22.2100
 30
0.0000
 41
1.0000
 42
1.0000
 43
1.0000
 50
180.0000
  0
INSERT
  8
31
  2
RECT179200X55744R100
 10
20.7200
 20
21.4100
 30
0.0000
 41
1.0000
 42
1.0000
 43
1.0000
 50
180.0000
  0
INSERT
  8
31
  2
RECT179200X55744R100
 10
20.7200
 20
20.6100
 30
0.0000
 41
1.0000
 42
1.0000
 43
1.0000
 50
180.0000
  0
INSERT
  8
31
  2
RECT179200X55744R100
 10
20.7200
 20
19.8100
 30
0.0000
 41
1.0000
 42
1.0000
 43
1.0000
 50
180.0000
  0
INSERT
  8
31
  2
RECT179200X55744R100
 10
20.7200
 20
19.0100
 30
0.0000
 41
1.0000
 42
1.0000
 43
1.0000
 50
180.0000
  0
INSERT
  8
31
  2
RECT179200X55744R100
 10
20.7200
 20
18.2100
 30
0.0000
 41
1.0000
 42
1.0000
 43
1.0000
 50
180.0000
  0
INSERT
  8
31
  2
RECT55744X179200R100
 10
22.5200
 20
16.4100
 30
0.0000
 41
1.0000
 42
1.0000
 43
1.0000
 50
180.0000
  0
INSERT
  8
31
  2
RECT55744X179200R100
 10
23.3200
 20
16.4100
 30
0.0000
 41
1.0000
 42
1.0000
 43
1.0000
 50
180.0000
  0
INSERT
  8
31
  2
RECT55744X179200R100
 10
24.1200
 20
16.4100
 30
0.0000
 41
1.0000
 42
1.0000
 43
1.0000
 50
180.0000
  0
INSERT
  8
31
  2
RECT55744X179200R100
 10
24.9200
 20
16.4100
 30
0.0000
 41
1.0000
 42
1.0000
 43
1.0000
 50
180.0000
  0
INSERT
  8
31
  2
RECT55744X179200R100
 10
25.7200
 20
16.4100
 30
0.0000
 41
1.0000
 42
1.0000
 43
1.0000
 50
180.0000
  0
INSERT
  8
31
  2
RECT55744X179200R100
 10
26.5200
 20
16.4100
 30
0.0000
 41
1.0000
 42
1.0000
 43
1.0000
 50
180.0000
  0
INSERT
  8
31
  2
RECT55744X179200R100
 10
27.3200
 20
16.4100
 30
0.0000
 41
1.0000
 42
1.0000
 43
1.0000
 50
180.0000
  0
INSERT
  8
31
  2
RECT55744X179200R100
 10
28.1200
 20
16.4100
 30
0.0000
 41
1.0000
 42
1.0000
 43
1.0000
 50
180.0000
  0
INSERT
  8
31
  2
RECT55744X179200R100
 10
28.9200
 20
16.4100
 30
0.0000
 41
1.0000
 42
1.0000
 43
1.0000
 50
180.0000
  0
INSERT
  8
31
  2
RECT55744X179200R100
 10
29.7200
 20
16.4100
 30
0.0000
 41
1.0000
 42
1.0000
 43
1.0000
 50
180.0000
  0
INSERT
  8
31
  2
RECT55744X179200R100
 10
30.5200
 20
16.4100
 30
0.0000
 41
1.0000
 42
1.0000
 43
1.0000
 50
180.0000
  0
INSERT
  8
31
  2
PIE
 10
26.5200
 20
22.2100
 30
0.0000
 41
0.8000
 42
0.8000
 43
1.0000
 50
0.0000
  0
INSERT
  8
31
  2
RECT47744X179200R100
 10
30.9700
 20
4.8250
 30
0.0000
 41
1.0000
 42
1.0000
 43
1.0000
 50
180.0000
  0
INSERT
  8
31
  2
RECT47744X179200R100
 10
30.3200
 20
4.8250
 30
0.0000
 41
1.0000
 42
1.0000
 43
1.0000
 50
180.0000
  0
INSERT
  8
31
  2
RECT47744X179200R100
 10
32.2700
 20
4.8250
 30
0.0000
 41
1.0000
 42
1.0000
 43
1.0000
 50
180.0000
  0
INSERT
  8
31
  2
RECT47744X179200R100
 10
31.6200
 20
4.8250
 30
0.0000
 41
1.0000
 42
1.0000
 43
1.0000
 50
180.0000
  0
INSERT
  8
31
  2
RECT281600X243200R27
 10
26.9700
 20
1.9750
 30
0.0000
 41
1.0000
 42
1.0000
 43
1.0000
 50
180.0000
  0
INSERT
  8
31
  2
RECT256000X243200R27
 10
29.7200
 20
1.9750
 30
0.0000
 41
1.0000
 42
1.0000
 43
1.0000
 50
180.0000
  0
INSERT
  8
31
  2
RECT256000X243200R27
 10
32.2200
 20
1.9750
 30
0.0000
 41
1.0000
 42
1.0000
 43
1.0000
 50
180.0000
  0
INSERT
  8
31
  2
RECT281600X243200R27
 10
34.9700
 20
1.9750
 30
0.0000
 41
1.0000
 42
1.0000
 43
1.0000
 50
180.0000
  0
INSERT
  8
31
  2
RECT47744X179200R100
 10
29.6700
 20
4.8250
 30
0.0000
 41
1.0000
 42
1.0000
 43
1.0000
 50
180.0000
  0
INSERT
  8
31
  2
RECT70400X153600R92
 10
16.1300
 20
10.1700
 30
0.0000
 41
1.0000
 42
1.0000
 43
1.0000
 50
270.0000
  0
INSERT
  8
31
  2
RECT70400X153600R92
 10
16.1300
 20
9.2200
 30
0.0000
 41
1.0000
 42
1.0000
 43
1.0000
 50
270.0000
  0
INSERT
  8
31
  2
RECT70400X153600R92
 10
16.1300
 20
8.2700
 30
0.0000
 41
1.0000
 42
1.0000
 43
1.0000
 50
270.0000
  0
INSERT
  8
31
  2
RECT70400X153600R92
 10
18.7300
 20
8.2700
 30
0.0000
 41
1.0000
 42
1.0000
 43
1.0000
 50
270.0000
  0
INSERT
  8
31
  2
RECT70400X153600R92
 10
18.7300
 20
10.1700
 30
0.0000
 41
1.0000
 42
1.0000
 43
1.0000
 50
270.0000
  0
ENDSEC
  0
EOF
