  0
SECTION
  2
HEADER
  9
$ACADVER
  1
AC1009
  9
$FILLMODE
 70
1
  9
$EXTMIN
 10
-2.0955
 20
-7.3490
 30
0.0000
  9
$EXTMAX
 10
53.0225
 20
65.1190
 30
0.0000
  0
ENDSEC
  0
SECTION
  2
TABLES
  0
TABLE
  2
LTYPE
 70
1
  0
LTYPE
  2
CONTINUOUS
 70
64
  3
Solid line
 72
65
 73
0
 40
0
  0
ENDTAB
  0
TABLE
  2
LAYER
 70
255
  0
LAYER
  2
20
 70
64
 62
7
  6
CONTINUOUS
  0
LAYER
  2
31
 70
64
 62
253
  6
CONTINUOUS
  0
ENDTAB
  0
ENDSEC
  0
SECTION
  2
BLOCKS
  0
BLOCK
  8
0
  2
RECT
 70
64
 10
0.0000
 20
0.0000
 30
0.0000
  3
RECT
  0
SOLID
  8
0
 10
-0.5000
 20
-0.5000
 30
0.0000
 11
0.5000
 21
-0.5000
 31
0.0000
 12
-0.5000
 22
0.5000
 32
0.0000
 13
0.5000
 23
0.5000
 33
0.0000
  0
ENDBLK
  8
0
  0
BLOCK
  8
0
  2
PIE
 70
64
 10
0.0000
 20
0.0000
 30
0.0000
  3
PIE
  0
POLYLINE
  8
0
 66
1
 10
0.0000
 20
0.0000
 30
0.0000
 40
0.5000
 41
0.5000
 70
0
  0
VERTEX
  8
0
 10
0.0000
 20
-0.2500
 30
0.0000
 42
1.0000
  0
VERTEX
  8
0
 10
0.0000
 20
0.2500
 30
0.0000
 42
1.0000
  0
VERTEX
  8
0
 10
0.0000
 20
-0.2500
 30
0.0000
  0
SEQEND
  8
0
  0
ENDBLK
  8
0
  0
BLOCK
  8
0
  2
OCTAGONP
 70
64
 10
0.0000
 20
0.0000
 30
0.0000
  3
OCTAGONP
  0
POLYLINE
  8
0
 66
1
 10
0.0000
 20
0.0000
 30
0.0000
 40
0.5000
 41
0.5000
 70
0
  0
VERTEX
  8
0
 10
-0.2500
 20
-0.1036
 30
0.0000
  0
VERTEX
  8
0
 10
-0.2500
 20
0.1036
 30
0.0000
  0
VERTEX
  8
0
 10
-0.1036
 20
0.2500
 30
0.0000
  0
VERTEX
  8
0
 10
0.1036
 20
0.2500
 30
0.0000
  0
VERTEX
  8
0
 10
0.2500
 20
0.1036
 30
0.0000
  0
VERTEX
  8
0
 10
0.2500
 20
-0.1036
 30
0.0000
  0
VERTEX
  8
0
 10
0.1036
 20
-0.2500
 30
0.0000
  0
VERTEX
  8
0
 10
-0.1036
 20
-0.2500
 30
0.0000
  0
VERTEX
  8
0
 10
-0.2500
 20
-0.1036
 30
0.0000
  0
VERTEX
  8
0
 10
-0.2500
 20
0.1036
 30
0.0000
  0
SEQEND
  8
0
  0
ENDBLK
  8
0
  0
BLOCK
  8
0
  2
SQUAREP
 70
64
 10
0.0000
 20
0.0000
 30
0.0000
  3
SQUAREP
  0
SOLID
  8
0
 10
-0.5000
 20
-0.5000
 30
0.0000
 11
0.5000
 21
-0.5000
 31
0.0000
 12
-0.5000
 22
0.5000
 32
0.0000
 13
0.5000
 23
0.5000
 33
0.0000
  0
ENDBLK
  8
0
  0
BLOCK
  8
0
  2
ROUNDP
 70
64
 10
0.0000
 20
0.0000
 30
0.0000
  3
ROUNDP
  0
POLYLINE
  8
0
 66
1
 10
0.0000
 20
0.0000
 30
0.0000
 40
0.5000
 41
0.5000
 70
0
  0
VERTEX
  8
0
 10
0.0000
 20
-0.2500
 30
0.0000
 42
1.0000
  0
VERTEX
  8
0
 10
0.0000
 20
0.2500
 30
0.0000
 42
1.0000
  0
VERTEX
  8
0
 10
0.0000
 20
-0.2500
 30
0.0000
  0
SEQEND
  8
0
  0
ENDBLK
  8
0
  0
BLOCK
  8
0
  2
ANNULUSP
 70
64
 10
0.0000
 20
0.0000
 30
0.0000
  3
ANNULUSP
  0
POLYLINE
  8
0
 66
1
 10
0.0000
 20
0.0000
 30
0.0000
 40
0.5000
 41
0.5000
 70
0
  0
VERTEX
  8
0
 10
0.0000
 20
-0.2500
 30
0.0000
 42
1.0000
  0
VERTEX
  8
0
 10
0.0000
 20
0.2500
 30
0.0000
 42
1.0000
  0
VERTEX
  8
0
 10
0.0000
 20
-0.2500
 30
0.0000
  0
SEQEND
  8
0
  0
ENDBLK
  8
0
  0
BLOCK
  8
0
  2
THERMALP
 70
64
 10
0.0000
 20
0.0000
 30
0.0000
  3
THERMALP
  0
POLYLINE
  8
0
 66
1
 10
0.0000
 20
0.0000
 30
0.0000
 40
0.1000
 41
0.1000
 70
0
  0
VERTEX
  8
0
 10
-0.2379
 20
0.4500
 30
0.0000
  0
VERTEX
  8
0
 10
0.2379
 20
0.4500
 30
0.0000
  0
SEQEND
  8
0
  0
POLYLINE
  8
0
 66
1
 10
0.0000
 20
0.0000
 30
0.0000
 40
0.0500
 41
0.0500
 70
0
  0
VERTEX
  8
0
 10
0.2379
 20
0.4250
 30
0.0000
 42
1.0000
  0
VERTEX
  8
0
 10
0.2379
 20
0.4750
 30
0.0000
  0
SEQEND
  8
0
  0
POLYLINE
  8
0
 66
1
 10
0.0000
 20
0.0000
 30
0.0000
 40
0.0500
 41
0.0500
 70
0
  0
VERTEX
  8
0
 10
-0.2379
 20
0.4750
 30
0.0000
 42
1.0000
  0
VERTEX
  8
0
 10
-0.2379
 20
0.4250
 30
0.0000
  0
SEQEND
  8
0
  0
POLYLINE
  8
0
 66
1
 10
0.0000
 20
0.0000
 30
0.0000
 40
0.1000
 41
0.1000
 70
0
  0
VERTEX
  8
0
 10
0.4500
 20
0.2379
 30
0.0000
  0
VERTEX
  8
0
 10
0.4500
 20
-0.2379
 30
0.0000
  0
SEQEND
  8
0
  0
POLYLINE
  8
0
 66
1
 10
0.0000
 20
0.0000
 30
0.0000
 40
0.0500
 41
0.0500
 70
0
  0
VERTEX
  8
0
 10
0.4250
 20
-0.2379
 30
0.0000
 42
1.0000
  0
VERTEX
  8
0
 10
0.4750
 20
-0.2379
 30
0.0000
  0
SEQEND
  8
0
  0
POLYLINE
  8
0
 66
1
 10
0.0000
 20
0.0000
 30
0.0000
 40
0.0500
 41
0.0500
 70
0
  0
VERTEX
  8
0
 10
0.4750
 20
0.2379
 30
0.0000
 42
1.0000
  0
VERTEX
  8
0
 10
0.4250
 20
0.2379
 30
0.0000
  0
SEQEND
  8
0
  0
POLYLINE
  8
0
 66
1
 10
0.0000
 20
0.0000
 30
0.0000
 40
0.1000
 41
0.1000
 70
0
  0
VERTEX
  8
0
 10
0.2379
 20
-0.4500
 30
0.0000
  0
VERTEX
  8
0
 10
-0.2379
 20
-0.4500
 30
0.0000
  0
SEQEND
  8
0
  0
POLYLINE
  8
0
 66
1
 10
0.0000
 20
0.0000
 30
0.0000
 40
0.0500
 41
0.0500
 70
0
  0
VERTEX
  8
0
 10
-0.2379
 20
-0.4250
 30
0.0000
 42
1.0000
  0
VERTEX
  8
0
 10
-0.2379
 20
-0.4750
 30
0.0000
  0
SEQEND
  8
0
  0
POLYLINE
  8
0
 66
1
 10
0.0000
 20
0.0000
 30
0.0000
 40
0.0500
 41
0.0500
 70
0
  0
VERTEX
  8
0
 10
0.2379
 20
-0.4750
 30
0.0000
 42
1.0000
  0
VERTEX
  8
0
 10
0.2379
 20
-0.4250
 30
0.0000
  0
SEQEND
  8
0
  0
POLYLINE
  8
0
 66
1
 10
0.0000
 20
0.0000
 30
0.0000
 40
0.1000
 41
0.1000
 70
0
  0
VERTEX
  8
0
 10
-0.4500
 20
-0.2379
 30
0.0000
  0
VERTEX
  8
0
 10
-0.4500
 20
0.2379
 30
0.0000
  0
SEQEND
  8
0
  0
POLYLINE
  8
0
 66
1
 10
0.0000
 20
0.0000
 30
0.0000
 40
0.0500
 41
0.0500
 70
0
  0
VERTEX
  8
0
 10
-0.4250
 20
0.2379
 30
0.0000
 42
1.0000
  0
VERTEX
  8
0
 10
-0.4750
 20
0.2379
 30
0.0000
  0
SEQEND
  8
0
  0
POLYLINE
  8
0
 66
1
 10
0.0000
 20
0.0000
 30
0.0000
 40
0.0500
 41
0.0500
 70
0
  0
VERTEX
  8
0
 10
-0.4750
 20
-0.2379
 30
0.0000
 42
1.0000
  0
VERTEX
  8
0
 10
-0.4250
 20
-0.2379
 30
0.0000
  0
SEQEND
  8
0
  0
ENDBLK
  8
0
  0
BLOCK
  8
0
  2
OCTAGONV
 70
64
 10
0.0000
 20
0.0000
 30
0.0000
  3
OCTAGONV
  0
POLYLINE
  8
0
 66
1
 10
0.0000
 20
0.0000
 30
0.0000
 40
0.5000
 41
0.5000
 70
0
  0
VERTEX
  8
0
 10
-0.2500
 20
-0.1036
 30
0.0000
  0
VERTEX
  8
0
 10
-0.2500
 20
0.1036
 30
0.0000
  0
VERTEX
  8
0
 10
-0.1036
 20
0.2500
 30
0.0000
  0
VERTEX
  8
0
 10
0.1036
 20
0.2500
 30
0.0000
  0
VERTEX
  8
0
 10
0.2500
 20
0.1036
 30
0.0000
  0
VERTEX
  8
0
 10
0.2500
 20
-0.1036
 30
0.0000
  0
VERTEX
  8
0
 10
0.1036
 20
-0.2500
 30
0.0000
  0
VERTEX
  8
0
 10
-0.1036
 20
-0.2500
 30
0.0000
  0
VERTEX
  8
0
 10
-0.2500
 20
-0.1036
 30
0.0000
  0
VERTEX
  8
0
 10
-0.2500
 20
0.1036
 30
0.0000
  0
SEQEND
  8
0
  0
ENDBLK
  8
0
  0
BLOCK
  8
0
  2
SQUAREV
 70
64
 10
0.0000
 20
0.0000
 30
0.0000
  3
SQUAREV
  0
SOLID
  8
0
 10
-0.5000
 20
-0.5000
 30
0.0000
 11
0.5000
 21
-0.5000
 31
0.0000
 12
-0.5000
 22
0.5000
 32
0.0000
 13
0.5000
 23
0.5000
 33
0.0000
  0
ENDBLK
  8
0
  0
BLOCK
  8
0
  2
ROUNDV
 70
64
 10
0.0000
 20
0.0000
 30
0.0000
  3
ROUNDV
  0
POLYLINE
  8
0
 66
1
 10
0.0000
 20
0.0000
 30
0.0000
 40
0.5000
 41
0.5000
 70
0
  0
VERTEX
  8
0
 10
0.0000
 20
-0.2500
 30
0.0000
 42
1.0000
  0
VERTEX
  8
0
 10
0.0000
 20
0.2500
 30
0.0000
 42
1.0000
  0
VERTEX
  8
0
 10
0.0000
 20
-0.2500
 30
0.0000
  0
SEQEND
  8
0
  0
ENDBLK
  8
0
  0
BLOCK
  8
0
  2
ANNULUSV
 70
64
 10
0.0000
 20
0.0000
 30
0.0000
  3
ANNULUSV
  0
POLYLINE
  8
0
 66
1
 10
0.0000
 20
0.0000
 30
0.0000
 40
0.5000
 41
0.5000
 70
0
  0
VERTEX
  8
0
 10
0.0000
 20
-0.2500
 30
0.0000
 42
1.0000
  0
VERTEX
  8
0
 10
0.0000
 20
0.2500
 30
0.0000
 42
1.0000
  0
VERTEX
  8
0
 10
0.0000
 20
-0.2500
 30
0.0000
  0
SEQEND
  8
0
  0
ENDBLK
  8
0
  0
BLOCK
  8
0
  2
THERMALV
 70
64
 10
0.0000
 20
0.0000
 30
0.0000
  3
THERMALV
  0
POLYLINE
  8
0
 66
1
 10
0.0000
 20
0.0000
 30
0.0000
 40
0.1000
 41
0.1000
 70
0
  0
VERTEX
  8
0
 10
-0.2379
 20
0.4500
 30
0.0000
  0
VERTEX
  8
0
 10
0.2379
 20
0.4500
 30
0.0000
  0
SEQEND
  8
0
  0
POLYLINE
  8
0
 66
1
 10
0.0000
 20
0.0000
 30
0.0000
 40
0.0500
 41
0.0500
 70
0
  0
VERTEX
  8
0
 10
0.2379
 20
0.4250
 30
0.0000
 42
1.0000
  0
VERTEX
  8
0
 10
0.2379
 20
0.4750
 30
0.0000
  0
SEQEND
  8
0
  0
POLYLINE
  8
0
 66
1
 10
0.0000
 20
0.0000
 30
0.0000
 40
0.0500
 41
0.0500
 70
0
  0
VERTEX
  8
0
 10
-0.2379
 20
0.4750
 30
0.0000
 42
1.0000
  0
VERTEX
  8
0
 10
-0.2379
 20
0.4250
 30
0.0000
  0
SEQEND
  8
0
  0
POLYLINE
  8
0
 66
1
 10
0.0000
 20
0.0000
 30
0.0000
 40
0.1000
 41
0.1000
 70
0
  0
VERTEX
  8
0
 10
0.4500
 20
0.2379
 30
0.0000
  0
VERTEX
  8
0
 10
0.4500
 20
-0.2379
 30
0.0000
  0
SEQEND
  8
0
  0
POLYLINE
  8
0
 66
1
 10
0.0000
 20
0.0000
 30
0.0000
 40
0.0500
 41
0.0500
 70
0
  0
VERTEX
  8
0
 10
0.4250
 20
-0.2379
 30
0.0000
 42
1.0000
  0
VERTEX
  8
0
 10
0.4750
 20
-0.2379
 30
0.0000
  0
SEQEND
  8
0
  0
POLYLINE
  8
0
 66
1
 10
0.0000
 20
0.0000
 30
0.0000
 40
0.0500
 41
0.0500
 70
0
  0
VERTEX
  8
0
 10
0.4750
 20
0.2379
 30
0.0000
 42
1.0000
  0
VERTEX
  8
0
 10
0.4250
 20
0.2379
 30
0.0000
  0
SEQEND
  8
0
  0
POLYLINE
  8
0
 66
1
 10
0.0000
 20
0.0000
 30
0.0000
 40
0.1000
 41
0.1000
 70
0
  0
VERTEX
  8
0
 10
0.2379
 20
-0.4500
 30
0.0000
  0
VERTEX
  8
0
 10
-0.2379
 20
-0.4500
 30
0.0000
  0
SEQEND
  8
0
  0
POLYLINE
  8
0
 66
1
 10
0.0000
 20
0.0000
 30
0.0000
 40
0.0500
 41
0.0500
 70
0
  0
VERTEX
  8
0
 10
-0.2379
 20
-0.4250
 30
0.0000
 42
1.0000
  0
VERTEX
  8
0
 10
-0.2379
 20
-0.4750
 30
0.0000
  0
SEQEND
  8
0
  0
POLYLINE
  8
0
 66
1
 10
0.0000
 20
0.0000
 30
0.0000
 40
0.0500
 41
0.0500
 70
0
  0
VERTEX
  8
0
 10
0.2379
 20
-0.4750
 30
0.0000
 42
1.0000
  0
VERTEX
  8
0
 10
0.2379
 20
-0.4250
 30
0.0000
  0
SEQEND
  8
0
  0
POLYLINE
  8
0
 66
1
 10
0.0000
 20
0.0000
 30
0.0000
 40
0.1000
 41
0.1000
 70
0
  0
VERTEX
  8
0
 10
-0.4500
 20
-0.2379
 30
0.0000
  0
VERTEX
  8
0
 10
-0.4500
 20
0.2379
 30
0.0000
  0
SEQEND
  8
0
  0
POLYLINE
  8
0
 66
1
 10
0.0000
 20
0.0000
 30
0.0000
 40
0.0500
 41
0.0500
 70
0
  0
VERTEX
  8
0
 10
-0.4250
 20
0.2379
 30
0.0000
 42
1.0000
  0
VERTEX
  8
0
 10
-0.4750
 20
0.2379
 30
0.0000
  0
SEQEND
  8
0
  0
POLYLINE
  8
0
 66
1
 10
0.0000
 20
0.0000
 30
0.0000
 40
0.0500
 41
0.0500
 70
0
  0
VERTEX
  8
0
 10
-0.4750
 20
-0.2379
 30
0.0000
 42
1.0000
  0
VERTEX
  8
0
 10
-0.4250
 20
-0.2379
 30
0.0000
  0
SEQEND
  8
0
  0
ENDBLK
  8
0
  0
BLOCK
  8
0
  2
RECT140800X128000R25
 70
64
 10
0.0000
 20
0.0000
 30
0.0000
  3
RECT140800X128000R25
  0
POLYLINE
  8
0
 66
1
 10
0.0000
 20
0.0000
 30
0.0000
 40
0.1000
 41
0.1000
 70
1
  0
VERTEX
  8
0
 10
0.3900
 20
-0.3000
 30
0.0000
  0
VERTEX
  8
0
 10
0.3900
 20
0.3000
 30
0.0000
 42
0.4142
  0
VERTEX
  8
0
 10
0.3400
 20
0.3500
 30
0.0000
  0
VERTEX
  8
0
 10
-0.3400
 20
0.3500
 30
0.0000
 42
0.4142
  0
VERTEX
  8
0
 10
-0.3900
 20
0.3000
 30
0.0000
  0
VERTEX
  8
0
 10
-0.3900
 20
-0.3000
 30
0.0000
 42
0.4142
  0
VERTEX
  8
0
 10
-0.3400
 20
-0.3500
 30
0.0000
  0
VERTEX
  8
0
 10
0.3400
 20
-0.3500
 30
0.0000
 42
0.4142
  0
SEQEND
  8
0
  0
SOLID
  8
0
 10
-0.3650
 20
-0.3250
 30
0.0000
 11
0.3650
 21
-0.3250
 31
0.0000
 12
-0.3650
 22
0.3250
 32
0.0000
 13
0.3650
 23
0.3250
 33
0.0000
  0
ENDBLK
  8
0
  0
BLOCK
  8
0
  2
RECT204800X307200R25
 70
64
 10
0.0000
 20
0.0000
 30
0.0000
  3
RECT204800X307200R25
  0
POLYLINE
  8
0
 66
1
 10
0.0000
 20
0.0000
 30
0.0000
 40
0.1600
 41
0.1600
 70
1
  0
VERTEX
  8
0
 10
0.5600
 20
-0.8000
 30
0.0000
  0
VERTEX
  8
0
 10
0.5600
 20
0.8000
 30
0.0000
 42
0.4142
  0
VERTEX
  8
0
 10
0.4800
 20
0.8800
 30
0.0000
  0
VERTEX
  8
0
 10
-0.4800
 20
0.8800
 30
0.0000
 42
0.4142
  0
VERTEX
  8
0
 10
-0.5600
 20
0.8000
 30
0.0000
  0
VERTEX
  8
0
 10
-0.5600
 20
-0.8000
 30
0.0000
 42
0.4142
  0
VERTEX
  8
0
 10
-0.4800
 20
-0.8800
 30
0.0000
  0
VERTEX
  8
0
 10
0.4800
 20
-0.8800
 30
0.0000
 42
0.4142
  0
SEQEND
  8
0
  0
SOLID
  8
0
 10
-0.5054
 20
-0.8254
 30
0.0000
 11
0.5054
 21
-0.8254
 31
0.0000
 12
-0.5054
 22
0.8254
 32
0.0000
 13
0.5054
 23
0.8254
 33
0.0000
  0
ENDBLK
  8
0
  0
BLOCK
  8
0
  2
RECT134400X138240R25
 70
64
 10
0.0000
 20
0.0000
 30
0.0000
  3
RECT134400X138240R25
  0
POLYLINE
  8
0
 66
1
 10
0.0000
 20
0.0000
 30
0.0000
 40
0.1050
 41
0.1050
 70
1
  0
VERTEX
  8
0
 10
0.3675
 20
-0.3270
 30
0.0000
  0
VERTEX
  8
0
 10
0.3675
 20
0.3270
 30
0.0000
 42
0.4142
  0
VERTEX
  8
0
 10
0.3150
 20
0.3795
 30
0.0000
  0
VERTEX
  8
0
 10
-0.3150
 20
0.3795
 30
0.0000
 42
0.4142
  0
VERTEX
  8
0
 10
-0.3675
 20
0.3270
 30
0.0000
  0
VERTEX
  8
0
 10
-0.3675
 20
-0.3270
 30
0.0000
 42
0.4142
  0
VERTEX
  8
0
 10
-0.3150
 20
-0.3795
 30
0.0000
  0
VERTEX
  8
0
 10
0.3150
 20
-0.3795
 30
0.0000
 42
0.4142
  0
SEQEND
  8
0
  0
SOLID
  8
0
 10
-0.3404
 20
-0.3524
 30
0.0000
 11
0.3404
 21
-0.3524
 31
0.0000
 12
-0.3404
 22
0.3524
 32
0.0000
 13
0.3404
 23
0.3524
 33
0.0000
  0
ENDBLK
  8
0
  0
BLOCK
  8
0
  2
RECT140800X114995R80
 70
64
 10
0.0000
 20
0.0000
 30
0.0000
  3
RECT140800X114995R80
  0
POLYLINE
  8
0
 66
1
 10
0.0000
 20
0.0000
 30
0.0000
 40
0.2875
 41
0.2875
 70
1
  0
VERTEX
  8
0
 10
0.2963
 20
-0.0719
 30
0.0000
  0
VERTEX
  8
0
 10
0.2963
 20
0.0719
 30
0.0000
 42
0.4142
  0
VERTEX
  8
0
 10
0.1525
 20
0.2156
 30
0.0000
  0
VERTEX
  8
0
 10
-0.1525
 20
0.2156
 30
0.0000
 42
0.4142
  0
VERTEX
  8
0
 10
-0.2963
 20
0.0719
 30
0.0000
  0
VERTEX
  8
0
 10
-0.2963
 20
-0.0719
 30
0.0000
 42
0.4142
  0
VERTEX
  8
0
 10
-0.1525
 20
-0.2156
 30
0.0000
  0
VERTEX
  8
0
 10
0.1525
 20
-0.2156
 30
0.0000
 42
0.4142
  0
SEQEND
  8
0
  0
SOLID
  8
0
 10
-0.1779
 20
-0.0973
 30
0.0000
 11
0.1779
 21
-0.0973
 31
0.0000
 12
-0.1779
 22
0.0973
 32
0.0000
 13
0.1779
 23
0.0973
 33
0.0000
  0
ENDBLK
  8
0
  0
BLOCK
  8
0
  2
RECT256000X256000R25
 70
64
 10
0.0000
 20
0.0000
 30
0.0000
  3
RECT256000X256000R25
  0
POLYLINE
  8
0
 66
1
 10
0.0000
 20
0.0000
 30
0.0000
 40
0.2000
 41
0.2000
 70
1
  0
VERTEX
  8
0
 10
0.7000
 20
-0.6000
 30
0.0000
  0
VERTEX
  8
0
 10
0.7000
 20
0.6000
 30
0.0000
 42
0.4142
  0
VERTEX
  8
0
 10
0.6000
 20
0.7000
 30
0.0000
  0
VERTEX
  8
0
 10
-0.6000
 20
0.7000
 30
0.0000
 42
0.4142
  0
VERTEX
  8
0
 10
-0.7000
 20
0.6000
 30
0.0000
  0
VERTEX
  8
0
 10
-0.7000
 20
-0.6000
 30
0.0000
 42
0.4142
  0
VERTEX
  8
0
 10
-0.6000
 20
-0.7000
 30
0.0000
  0
VERTEX
  8
0
 10
0.6000
 20
-0.7000
 30
0.0000
 42
0.4142
  0
SEQEND
  8
0
  0
SOLID
  8
0
 10
-0.6254
 20
-0.6254
 30
0.0000
 11
0.6254
 21
-0.6254
 31
0.0000
 12
-0.6254
 22
0.6254
 32
0.0000
 13
0.6254
 23
0.6254
 33
0.0000
  0
ENDBLK
  8
0
  0
BLOCK
  8
0
  2
RECT80640X106240R25
 70
64
 10
0.0000
 20
0.0000
 30
0.0000
  3
RECT80640X106240R25
  0
POLYLINE
  8
0
 66
1
 10
0.0000
 20
0.0000
 30
0.0000
 40
0.0630
 41
0.0630
 70
1
  0
VERTEX
  8
0
 10
0.2205
 20
-0.2690
 30
0.0000
  0
VERTEX
  8
0
 10
0.2205
 20
0.2690
 30
0.0000
 42
0.4142
  0
VERTEX
  8
0
 10
0.1890
 20
0.3005
 30
0.0000
  0
VERTEX
  8
0
 10
-0.1890
 20
0.3005
 30
0.0000
 42
0.4142
  0
VERTEX
  8
0
 10
-0.2205
 20
0.2690
 30
0.0000
  0
VERTEX
  8
0
 10
-0.2205
 20
-0.2690
 30
0.0000
 42
0.4142
  0
VERTEX
  8
0
 10
-0.1890
 20
-0.3005
 30
0.0000
  0
VERTEX
  8
0
 10
0.1890
 20
-0.3005
 30
0.0000
 42
0.4142
  0
SEQEND
  8
0
  0
SOLID
  8
0
 10
-0.2048
 20
-0.2848
 30
0.0000
 11
0.2048
 21
-0.2848
 31
0.0000
 12
-0.2048
 22
0.2848
 32
0.0000
 13
0.2048
 23
0.2848
 33
0.0000
  0
ENDBLK
  8
0
  0
BLOCK
  8
0
  2
RECT179200X230400R25
 70
64
 10
0.0000
 20
0.0000
 30
0.0000
  3
RECT179200X230400R25
  0
POLYLINE
  8
0
 66
1
 10
0.0000
 20
0.0000
 30
0.0000
 40
0.1400
 41
0.1400
 70
1
  0
VERTEX
  8
0
 10
0.4900
 20
-0.5800
 30
0.0000
  0
VERTEX
  8
0
 10
0.4900
 20
0.5800
 30
0.0000
 42
0.4142
  0
VERTEX
  8
0
 10
0.4200
 20
0.6500
 30
0.0000
  0
VERTEX
  8
0
 10
-0.4200
 20
0.6500
 30
0.0000
 42
0.4142
  0
VERTEX
  8
0
 10
-0.4900
 20
0.5800
 30
0.0000
  0
VERTEX
  8
0
 10
-0.4900
 20
-0.5800
 30
0.0000
 42
0.4142
  0
VERTEX
  8
0
 10
-0.4200
 20
-0.6500
 30
0.0000
  0
VERTEX
  8
0
 10
0.4200
 20
-0.6500
 30
0.0000
 42
0.4142
  0
SEQEND
  8
0
  0
SOLID
  8
0
 10
-0.4454
 20
-0.6054
 30
0.0000
 11
0.4454
 21
-0.6054
 31
0.0000
 12
-0.4454
 22
0.6054
 32
0.0000
 13
0.4454
 23
0.6054
 33
0.0000
  0
ENDBLK
  8
0
  0
BLOCK
  8
0
  2
RECT243200X435200R25
 70
64
 10
0.0000
 20
0.0000
 30
0.0000
  3
RECT243200X435200R25
  0
POLYLINE
  8
0
 66
1
 10
0.0000
 20
0.0000
 30
0.0000
 40
0.1900
 41
0.1900
 70
1
  0
VERTEX
  8
0
 10
0.6650
 20
-1.1700
 30
0.0000
  0
VERTEX
  8
0
 10
0.6650
 20
1.1700
 30
0.0000
 42
0.4142
  0
VERTEX
  8
0
 10
0.5700
 20
1.2650
 30
0.0000
  0
VERTEX
  8
0
 10
-0.5700
 20
1.2650
 30
0.0000
 42
0.4142
  0
VERTEX
  8
0
 10
-0.6650
 20
1.1700
 30
0.0000
  0
VERTEX
  8
0
 10
-0.6650
 20
-1.1700
 30
0.0000
 42
0.4142
  0
VERTEX
  8
0
 10
-0.5700
 20
-1.2650
 30
0.0000
  0
VERTEX
  8
0
 10
0.5700
 20
-1.2650
 30
0.0000
 42
0.4142
  0
SEQEND
  8
0
  0
SOLID
  8
0
 10
-0.5954
 20
-1.1954
 30
0.0000
 11
0.5954
 21
-1.1954
 31
0.0000
 12
-0.5954
 22
1.1954
 32
0.0000
 13
0.5954
 23
1.1954
 33
0.0000
  0
ENDBLK
  8
0
  0
BLOCK
  8
0
  2
LONGP50
 70
64
 10
0.0000
 20
0.0000
 30
0.0000
  3
LONGP50
  0
POLYLINE
  8
0
 66
1
 10
0.0000
 20
0.0000
 30
0.0000
 40
1.0000
 41
1.0000
 70
0
  0
VERTEX
  8
0
 10
-0.2500
 20
0.0000
 30
0.0000
  0
VERTEX
  8
0
 10
0.2500
 20
0.0000
 30
0.0000
  0
SEQEND
  8
0
  0
POLYLINE
  8
0
 66
1
 10
0.0000
 20
0.0000
 30
0.0000
 40
0.5000
 41
0.5000
 70
0
  0
VERTEX
  8
0
 10
0.2500
 20
-0.2500
 30
0.0000
 42
1.0000
  0
VERTEX
  8
0
 10
0.2500
 20
0.2500
 30
0.0000
  0
SEQEND
  8
0
  0
POLYLINE
  8
0
 66
1
 10
0.0000
 20
0.0000
 30
0.0000
 40
0.5000
 41
0.5000
 70
0
  0
VERTEX
  8
0
 10
-0.2500
 20
0.2500
 30
0.0000
 42
1.0000
  0
VERTEX
  8
0
 10
-0.2500
 20
-0.2500
 30
0.0000
  0
SEQEND
  8
0
  0
ENDBLK
  8
0
  0
BLOCK
  8
0
  2
RECT166400X192000R25
 70
64
 10
0.0000
 20
0.0000
 30
0.0000
  3
RECT166400X192000R25
  0
POLYLINE
  8
0
 66
1
 10
0.0000
 20
0.0000
 30
0.0000
 40
0.1300
 41
0.1300
 70
1
  0
VERTEX
  8
0
 10
0.4550
 20
-0.4700
 30
0.0000
  0
VERTEX
  8
0
 10
0.4550
 20
0.4700
 30
0.0000
 42
0.4142
  0
VERTEX
  8
0
 10
0.3900
 20
0.5350
 30
0.0000
  0
VERTEX
  8
0
 10
-0.3900
 20
0.5350
 30
0.0000
 42
0.4142
  0
VERTEX
  8
0
 10
-0.4550
 20
0.4700
 30
0.0000
  0
VERTEX
  8
0
 10
-0.4550
 20
-0.4700
 30
0.0000
 42
0.4142
  0
VERTEX
  8
0
 10
-0.3900
 20
-0.5350
 30
0.0000
  0
VERTEX
  8
0
 10
0.3900
 20
-0.5350
 30
0.0000
 42
0.4142
  0
SEQEND
  8
0
  0
SOLID
  8
0
 10
-0.4154
 20
-0.4954
 30
0.0000
 11
0.4154
 21
-0.4954
 31
0.0000
 12
-0.4154
 22
0.4954
 32
0.0000
 13
0.4154
 23
0.4954
 33
0.0000
  0
ENDBLK
  8
0
  0
BLOCK
  8
0
  2
RECT102400X102400R25
 70
64
 10
0.0000
 20
0.0000
 30
0.0000
  3
RECT102400X102400R25
  0
POLYLINE
  8
0
 66
1
 10
0.0000
 20
0.0000
 30
0.0000
 40
0.0800
 41
0.0800
 70
1
  0
VERTEX
  8
0
 10
0.2800
 20
-0.2400
 30
0.0000
  0
VERTEX
  8
0
 10
0.2800
 20
0.2400
 30
0.0000
 42
0.4142
  0
VERTEX
  8
0
 10
0.2400
 20
0.2800
 30
0.0000
  0
VERTEX
  8
0
 10
-0.2400
 20
0.2800
 30
0.0000
 42
0.4142
  0
VERTEX
  8
0
 10
-0.2800
 20
0.2400
 30
0.0000
  0
VERTEX
  8
0
 10
-0.2800
 20
-0.2400
 30
0.0000
 42
0.4142
  0
VERTEX
  8
0
 10
-0.2400
 20
-0.2800
 30
0.0000
  0
VERTEX
  8
0
 10
0.2400
 20
-0.2800
 30
0.0000
 42
0.4142
  0
SEQEND
  8
0
  0
SOLID
  8
0
 10
-0.2600
 20
-0.2600
 30
0.0000
 11
0.2600
 21
-0.2600
 31
0.0000
 12
-0.2600
 22
0.2600
 32
0.0000
 13
0.2600
 23
0.2600
 33
0.0000
  0
ENDBLK
  8
0
  0
BLOCK
  8
0
  2
RECT153600X179200R25
 70
64
 10
0.0000
 20
0.0000
 30
0.0000
  3
RECT153600X179200R25
  0
POLYLINE
  8
0
 66
1
 10
0.0000
 20
0.0000
 30
0.0000
 40
0.1200
 41
0.1200
 70
1
  0
VERTEX
  8
0
 10
0.4200
 20
-0.4400
 30
0.0000
  0
VERTEX
  8
0
 10
0.4200
 20
0.4400
 30
0.0000
 42
0.4142
  0
VERTEX
  8
0
 10
0.3600
 20
0.5000
 30
0.0000
  0
VERTEX
  8
0
 10
-0.3600
 20
0.5000
 30
0.0000
 42
0.4142
  0
VERTEX
  8
0
 10
-0.4200
 20
0.4400
 30
0.0000
  0
VERTEX
  8
0
 10
-0.4200
 20
-0.4400
 30
0.0000
 42
0.4142
  0
VERTEX
  8
0
 10
-0.3600
 20
-0.5000
 30
0.0000
  0
VERTEX
  8
0
 10
0.3600
 20
-0.5000
 30
0.0000
 42
0.4142
  0
SEQEND
  8
0
  0
SOLID
  8
0
 10
-0.3854
 20
-0.4654
 30
0.0000
 11
0.3854
 21
-0.4654
 31
0.0000
 12
-0.3854
 22
0.4654
 32
0.0000
 13
0.3854
 23
0.4654
 33
0.0000
  0
ENDBLK
  8
0
  0
BLOCK
  8
0
  2
RECT128000X140800R25
 70
64
 10
0.0000
 20
0.0000
 30
0.0000
  3
RECT128000X140800R25
  0
POLYLINE
  8
0
 66
1
 10
0.0000
 20
0.0000
 30
0.0000
 40
0.1000
 41
0.1000
 70
1
  0
VERTEX
  8
0
 10
0.3500
 20
-0.3400
 30
0.0000
  0
VERTEX
  8
0
 10
0.3500
 20
0.3400
 30
0.0000
 42
0.4142
  0
VERTEX
  8
0
 10
0.3000
 20
0.3900
 30
0.0000
  0
VERTEX
  8
0
 10
-0.3000
 20
0.3900
 30
0.0000
 42
0.4142
  0
VERTEX
  8
0
 10
-0.3500
 20
0.3400
 30
0.0000
  0
VERTEX
  8
0
 10
-0.3500
 20
-0.3400
 30
0.0000
 42
0.4142
  0
VERTEX
  8
0
 10
-0.3000
 20
-0.3900
 30
0.0000
  0
VERTEX
  8
0
 10
0.3000
 20
-0.3900
 30
0.0000
 42
0.4142
  0
SEQEND
  8
0
  0
SOLID
  8
0
 10
-0.3250
 20
-0.3650
 30
0.0000
 11
0.3250
 21
-0.3650
 31
0.0000
 12
-0.3250
 22
0.3650
 32
0.0000
 13
0.3250
 23
0.3650
 33
0.0000
  0
ENDBLK
  8
0
  0
BLOCK
  8
0
  2
RECT63744X83200R25
 70
64
 10
0.0000
 20
0.0000
 30
0.0000
  3
RECT63744X83200R25
  0
POLYLINE
  8
0
 66
1
 10
0.0000
 20
0.0000
 30
0.0000
 40
0.0498
 41
0.0498
 70
1
  0
VERTEX
  8
0
 10
0.1743
 20
-0.2102
 30
0.0000
  0
VERTEX
  8
0
 10
0.1743
 20
0.2102
 30
0.0000
 42
0.4142
  0
VERTEX
  8
0
 10
0.1494
 20
0.2351
 30
0.0000
  0
VERTEX
  8
0
 10
-0.1494
 20
0.2351
 30
0.0000
 42
0.4142
  0
VERTEX
  8
0
 10
-0.1743
 20
0.2102
 30
0.0000
  0
VERTEX
  8
0
 10
-0.1743
 20
-0.2102
 30
0.0000
 42
0.4142
  0
VERTEX
  8
0
 10
-0.1494
 20
-0.2351
 30
0.0000
  0
VERTEX
  8
0
 10
0.1494
 20
-0.2351
 30
0.0000
 42
0.4142
  0
SEQEND
  8
0
  0
SOLID
  8
0
 10
-0.1619
 20
-0.2227
 30
0.0000
 11
0.1619
 21
-0.2227
 31
0.0000
 12
-0.1619
 22
0.2227
 32
0.0000
 13
0.1619
 23
0.2227
 33
0.0000
  0
ENDBLK
  8
0
  0
BLOCK
  8
0
  2
RECT149555X204826R25
 70
64
 10
0.0000
 20
0.0000
 30
0.0000
  3
RECT149555X204826R25
  0
POLYLINE
  8
0
 66
1
 10
0.0000
 20
0.0000
 30
0.0000
 40
0.1168
 41
0.1168
 70
1
  0
VERTEX
  8
0
 10
0.4089
 20
-0.5232
 30
0.0000
  0
VERTEX
  8
0
 10
0.4089
 20
0.5232
 30
0.0000
 42
0.4142
  0
VERTEX
  8
0
 10
0.3505
 20
0.5817
 30
0.0000
  0
VERTEX
  8
0
 10
-0.3505
 20
0.5817
 30
0.0000
 42
0.4142
  0
VERTEX
  8
0
 10
-0.4089
 20
0.5232
 30
0.0000
  0
VERTEX
  8
0
 10
-0.4089
 20
-0.5232
 30
0.0000
 42
0.4142
  0
VERTEX
  8
0
 10
-0.3505
 20
-0.5817
 30
0.0000
  0
VERTEX
  8
0
 10
0.3505
 20
-0.5817
 30
0.0000
 42
0.4142
  0
SEQEND
  8
0
  0
SOLID
  8
0
 10
-0.3759
 20
-0.5486
 30
0.0000
 11
0.3759
 21
-0.5486
 31
0.0000
 12
-0.3759
 22
0.5486
 32
0.0000
 13
0.3759
 23
0.5486
 33
0.0000
  0
ENDBLK
  8
0
  0
BLOCK
  8
0
  2
RECT192000X63744R25
 70
64
 10
0.0000
 20
0.0000
 30
0.0000
  3
RECT192000X63744R25
  0
POLYLINE
  8
0
 66
1
 10
0.0000
 20
0.0000
 30
0.0000
 40
0.0498
 41
0.0498
 70
1
  0
VERTEX
  8
0
 10
0.5751
 20
-0.1494
 30
0.0000
  0
VERTEX
  8
0
 10
0.5751
 20
0.1494
 30
0.0000
 42
0.4142
  0
VERTEX
  8
0
 10
0.5502
 20
0.1743
 30
0.0000
  0
VERTEX
  8
0
 10
-0.5502
 20
0.1743
 30
0.0000
 42
0.4142
  0
VERTEX
  8
0
 10
-0.5751
 20
0.1494
 30
0.0000
  0
VERTEX
  8
0
 10
-0.5751
 20
-0.1494
 30
0.0000
 42
0.4142
  0
VERTEX
  8
0
 10
-0.5502
 20
-0.1743
 30
0.0000
  0
VERTEX
  8
0
 10
0.5502
 20
-0.1743
 30
0.0000
 42
0.4142
  0
SEQEND
  8
0
  0
SOLID
  8
0
 10
-0.5626
 20
-0.1619
 30
0.0000
 11
0.5626
 21
-0.1619
 31
0.0000
 12
-0.5626
 22
0.1619
 32
0.0000
 13
0.5626
 23
0.1619
 33
0.0000
  0
ENDBLK
  8
0
  0
BLOCK
  8
0
  2
RECT63744X192000R25
 70
64
 10
0.0000
 20
0.0000
 30
0.0000
  3
RECT63744X192000R25
  0
POLYLINE
  8
0
 66
1
 10
0.0000
 20
0.0000
 30
0.0000
 40
0.0498
 41
0.0498
 70
1
  0
VERTEX
  8
0
 10
0.1743
 20
-0.5502
 30
0.0000
  0
VERTEX
  8
0
 10
0.1743
 20
0.5502
 30
0.0000
 42
0.4142
  0
VERTEX
  8
0
 10
0.1494
 20
0.5751
 30
0.0000
  0
VERTEX
  8
0
 10
-0.1494
 20
0.5751
 30
0.0000
 42
0.4142
  0
VERTEX
  8
0
 10
-0.1743
 20
0.5502
 30
0.0000
  0
VERTEX
  8
0
 10
-0.1743
 20
-0.5502
 30
0.0000
 42
0.4142
  0
VERTEX
  8
0
 10
-0.1494
 20
-0.5751
 30
0.0000
  0
VERTEX
  8
0
 10
0.1494
 20
-0.5751
 30
0.0000
 42
0.4142
  0
SEQEND
  8
0
  0
SOLID
  8
0
 10
-0.1619
 20
-0.5626
 30
0.0000
 11
0.1619
 21
-0.5626
 31
0.0000
 12
-0.1619
 22
0.5626
 32
0.0000
 13
0.1619
 23
0.5626
 33
0.0000
  0
ENDBLK
  8
0
  0
BLOCK
  8
0
  2
RECT156058X286106R25
 70
64
 10
0.0000
 20
0.0000
 30
0.0000
  3
RECT156058X286106R25
  0
POLYLINE
  8
0
 66
1
 10
0.0000
 20
0.0000
 30
0.0000
 40
0.1219
 41
0.1219
 70
1
  0
VERTEX
  8
0
 10
0.4267
 20
-0.7722
 30
0.0000
  0
VERTEX
  8
0
 10
0.4267
 20
0.7722
 30
0.0000
 42
0.4142
  0
VERTEX
  8
0
 10
0.3658
 20
0.8331
 30
0.0000
  0
VERTEX
  8
0
 10
-0.3658
 20
0.8331
 30
0.0000
 42
0.4142
  0
VERTEX
  8
0
 10
-0.4267
 20
0.7722
 30
0.0000
  0
VERTEX
  8
0
 10
-0.4267
 20
-0.7722
 30
0.0000
 42
0.4142
  0
VERTEX
  8
0
 10
-0.3658
 20
-0.8331
 30
0.0000
  0
VERTEX
  8
0
 10
0.3658
 20
-0.8331
 30
0.0000
 42
0.4142
  0
SEQEND
  8
0
  0
SOLID
  8
0
 10
-0.3912
 20
-0.7976
 30
0.0000
 11
0.3912
 21
-0.7976
 31
0.0000
 12
-0.3912
 22
0.7976
 32
0.0000
 13
0.3912
 23
0.7976
 33
0.0000
  0
ENDBLK
  8
0
  0
BLOCK
  8
0
  2
RECT460800X281600R23
 70
64
 10
0.0000
 20
0.0000
 30
0.0000
  3
RECT460800X281600R23
  0
POLYLINE
  8
0
 66
1
 10
0.0000
 20
0.0000
 30
0.0000
 40
0.2024
 41
0.2024
 70
1
  0
VERTEX
  8
0
 10
1.3388
 20
-0.6776
 30
0.0000
  0
VERTEX
  8
0
 10
1.3388
 20
0.6776
 30
0.0000
 42
0.4142
  0
VERTEX
  8
0
 10
1.2376
 20
0.7788
 30
0.0000
  0
VERTEX
  8
0
 10
-1.2376
 20
0.7788
 30
0.0000
 42
0.4142
  0
VERTEX
  8
0
 10
-1.3388
 20
0.6776
 30
0.0000
  0
VERTEX
  8
0
 10
-1.3388
 20
-0.6776
 30
0.0000
 42
0.4142
  0
VERTEX
  8
0
 10
-1.2376
 20
-0.7788
 30
0.0000
  0
VERTEX
  8
0
 10
1.2376
 20
-0.7788
 30
0.0000
 42
0.4142
  0
SEQEND
  8
0
  0
SOLID
  8
0
 10
-1.2630
 20
-0.7030
 30
0.0000
 11
1.2630
 21
-0.7030
 31
0.0000
 12
-1.2630
 22
0.7030
 32
0.0000
 13
1.2630
 23
0.7030
 33
0.0000
  0
ENDBLK
  8
0
  0
BLOCK
  8
0
  2
RECT70400X153600R25
 70
64
 10
0.0000
 20
0.0000
 30
0.0000
  3
RECT70400X153600R25
  0
POLYLINE
  8
0
 66
1
 10
0.0000
 20
0.0000
 30
0.0000
 40
0.0550
 41
0.0550
 70
1
  0
VERTEX
  8
0
 10
0.1925
 20
-0.4250
 30
0.0000
  0
VERTEX
  8
0
 10
0.1925
 20
0.4250
 30
0.0000
 42
0.4142
  0
VERTEX
  8
0
 10
0.1650
 20
0.4525
 30
0.0000
  0
VERTEX
  8
0
 10
-0.1650
 20
0.4525
 30
0.0000
 42
0.4142
  0
VERTEX
  8
0
 10
-0.1925
 20
0.4250
 30
0.0000
  0
VERTEX
  8
0
 10
-0.1925
 20
-0.4250
 30
0.0000
 42
0.4142
  0
VERTEX
  8
0
 10
-0.1650
 20
-0.4525
 30
0.0000
  0
VERTEX
  8
0
 10
0.1650
 20
-0.4525
 30
0.0000
 42
0.4142
  0
SEQEND
  8
0
  0
SOLID
  8
0
 10
-0.1788
 20
-0.4388
 30
0.0000
 11
0.1788
 21
-0.4388
 31
0.0000
 12
-0.1788
 22
0.4388
 32
0.0000
 13
0.1788
 23
0.4388
 33
0.0000
  0
ENDBLK
  8
0
  0
BLOCK
  8
0
  2
RECT48768X172314R25
 70
64
 10
0.0000
 20
0.0000
 30
0.0000
  3
RECT48768X172314R25
  0
POLYLINE
  8
0
 66
1
 10
0.0000
 20
0.0000
 30
0.0000
 40
0.0381
 41
0.0381
 70
1
  0
VERTEX
  8
0
 10
0.1333
 20
-0.5004
 30
0.0000
  0
VERTEX
  8
0
 10
0.1333
 20
0.5004
 30
0.0000
 42
0.4142
  0
VERTEX
  8
0
 10
0.1143
 20
0.5194
 30
0.0000
  0
VERTEX
  8
0
 10
-0.1143
 20
0.5194
 30
0.0000
 42
0.4142
  0
VERTEX
  8
0
 10
-0.1333
 20
0.5004
 30
0.0000
  0
VERTEX
  8
0
 10
-0.1333
 20
-0.5004
 30
0.0000
 42
0.4142
  0
VERTEX
  8
0
 10
-0.1143
 20
-0.5194
 30
0.0000
  0
VERTEX
  8
0
 10
0.1143
 20
-0.5194
 30
0.0000
 42
0.4142
  0
SEQEND
  8
0
  0
SOLID
  8
0
 10
-0.1238
 20
-0.5099
 30
0.0000
 11
0.1238
 21
-0.5099
 31
0.0000
 12
-0.1238
 22
0.5099
 32
0.0000
 13
0.1238
 23
0.5099
 33
0.0000
  0
ENDBLK
  8
0
  0
BLOCK
  8
0
  2
RECT0X0R25
 70
64
 10
0.0000
 20
0.0000
 30
0.0000
  3
RECT0X0R25
  0
POLYLINE
  8
0
 66
1
 10
0.0000
 20
0.0000
 30
0.0000
 40
0.0000
 41
0.0000
 70
1
  0
VERTEX
  8
0
 10
0.0000
 20
0.0000
 30
0.0000
  0
VERTEX
  8
0
 10
0.0000
 20
0.0000
 30
0.0000
 42
0.4142
  0
VERTEX
  8
0
 10
0.0000
 20
0.0000
 30
0.0000
  0
VERTEX
  8
0
 10
0.0000
 20
0.0000
 30
0.0000
 42
0.4142
  0
VERTEX
  8
0
 10
0.0000
 20
0.0000
 30
0.0000
  0
VERTEX
  8
0
 10
0.0000
 20
0.0000
 30
0.0000
 42
0.4142
  0
VERTEX
  8
0
 10
0.0000
 20
0.0000
 30
0.0000
  0
VERTEX
  8
0
 10
0.0000
 20
0.0000
 30
0.0000
 42
0.4142
  0
SEQEND
  8
0
  0
SOLID
  8
0
 10
0.0000
 20
0.0000
 30
0.0000
 11
0.0000
 21
0.0000
 31
0.0000
 12
0.0000
 22
0.0000
 32
0.0000
 13
0.0000
 23
0.0000
 33
0.0000
  0
ENDBLK
  8
0
  0
BLOCK
  8
0
  2
RECT0X0R80
 70
64
 10
0.0000
 20
0.0000
 30
0.0000
  3
RECT0X0R80
  0
POLYLINE
  8
0
 66
1
 10
0.0000
 20
0.0000
 30
0.0000
 40
0.0000
 41
0.0000
 70
1
  0
VERTEX
  8
0
 10
0.0000
 20
0.0000
 30
0.0000
  0
VERTEX
  8
0
 10
0.0000
 20
0.0000
 30
0.0000
 42
0.4142
  0
VERTEX
  8
0
 10
0.0000
 20
0.0000
 30
0.0000
  0
VERTEX
  8
0
 10
0.0000
 20
0.0000
 30
0.0000
 42
0.4142
  0
VERTEX
  8
0
 10
0.0000
 20
0.0000
 30
0.0000
  0
VERTEX
  8
0
 10
0.0000
 20
0.0000
 30
0.0000
 42
0.4142
  0
VERTEX
  8
0
 10
0.0000
 20
0.0000
 30
0.0000
  0
VERTEX
  8
0
 10
0.0000
 20
0.0000
 30
0.0000
 42
0.4142
  0
SEQEND
  8
0
  0
SOLID
  8
0
 10
0.0000
 20
0.0000
 30
0.0000
 11
0.0000
 21
0.0000
 31
0.0000
 12
0.0000
 22
0.0000
 32
0.0000
 13
0.0000
 23
0.0000
 33
0.0000
  0
ENDBLK
  8
0
  0
BLOCK
  8
0
  2
RECT195072X195072R25
 70
64
 10
0.0000
 20
0.0000
 30
0.0000
  3
RECT195072X195072R25
  0
POLYLINE
  8
0
 66
1
 10
0.0000
 20
0.0000
 30
0.0000
 40
0.1524
 41
0.1524
 70
1
  0
VERTEX
  8
0
 10
0.5334
 20
-0.4572
 30
0.0000
  0
VERTEX
  8
0
 10
0.5334
 20
0.4572
 30
0.0000
 42
0.4142
  0
VERTEX
  8
0
 10
0.4572
 20
0.5334
 30
0.0000
  0
VERTEX
  8
0
 10
-0.4572
 20
0.5334
 30
0.0000
 42
0.4142
  0
VERTEX
  8
0
 10
-0.5334
 20
0.4572
 30
0.0000
  0
VERTEX
  8
0
 10
-0.5334
 20
-0.4572
 30
0.0000
 42
0.4142
  0
VERTEX
  8
0
 10
-0.4572
 20
-0.5334
 30
0.0000
  0
VERTEX
  8
0
 10
0.4572
 20
-0.5334
 30
0.0000
 42
0.4142
  0
SEQEND
  8
0
  0
SOLID
  8
0
 10
-0.4826
 20
-0.4826
 30
0.0000
 11
0.4826
 21
-0.4826
 31
0.0000
 12
-0.4826
 22
0.4826
 32
0.0000
 13
0.4826
 23
0.4826
 33
0.0000
  0
ENDBLK
  8
0
  0
ENDSEC
  0
SECTION
  2
ENTITIES
  0
LINE
  8
20
 10
50.8283
 20
50.0748
 30
0.0000
 11
-0.0020
 21
50.0755
 31
0.0000
  0
LINE
  8
20
 10
-0.0020
 20
50.0755
 30
0.0000
 11
0.0007
 21
-0.0008
 31
0.0000
  0
LINE
  8
20
 10
0.0007
 20
-0.0008
 30
0.0000
 11
50.8283
 21
0.0055
 31
0.0000
  0
LINE
  8
20
 10
50.8283
 20
0.0055
 30
0.0000
 11
50.8283
 21
50.0748
 31
0.0000
  0
CIRCLE
  8
20
 10
6.3775
 20
48.3170
 30
0.0000
 40
1.6000
  0
CIRCLE
  8
20
 10
48.3985
 20
2.4305
 30
0.0000
 40
1.6000
  0
CIRCLE
  8
20
 10
2.3835
 20
2.4205
 30
0.0000
 40
1.6000
  0
CIRCLE
  8
20
 10
47.6535
 20
33.2355
 30
0.0000
 40
1.6000
  0
INSERT
  8
31
  2
RECT140800X128000R25
 10
3.2035
 20
5.9010
 30
0.0000
 41
1.0000
 42
1.0000
 43
1.0000
 50
180.0000
  0
INSERT
  8
31
  2
RECT140800X128000R25
 10
1.5035
 20
5.9010
 30
0.0000
 41
1.0000
 42
1.0000
 43
1.0000
 50
180.0000
  0
INSERT
  8
31
  2
RECT140800X128000R25
 10
24.6135
 20
26.9855
 30
0.0000
 41
1.0000
 42
1.0000
 43
1.0000
 50
270.0000
  0
INSERT
  8
31
  2
RECT140800X128000R25
 10
24.6135
 20
25.2855
 30
0.0000
 41
1.0000
 42
1.0000
 43
1.0000
 50
270.0000
  0
INSERT
  8
31
  2
RECT140800X128000R25
 10
16.9270
 20
6.8325
 30
0.0000
 41
1.0000
 42
1.0000
 43
1.0000
 50
90.0000
  0
INSERT
  8
31
  2
RECT140800X128000R25
 10
16.9270
 20
8.5325
 30
0.0000
 41
1.0000
 42
1.0000
 43
1.0000
 50
90.0000
  0
INSERT
  8
31
  2
RECT204800X307200R25
 10
14.8940
 20
10.2240
 30
0.0000
 41
1.0000
 42
1.0000
 43
1.0000
 50
180.0000
  0
INSERT
  8
31
  2
RECT204800X307200R25
 10
11.8940
 20
10.2240
 30
0.0000
 41
1.0000
 42
1.0000
 43
1.0000
 50
0.0000
  0
INSERT
  8
31
  2
RECT140800X128000R25
 10
41.4085
 20
21.3705
 30
0.0000
 41
1.0000
 42
1.0000
 43
1.0000
 50
180.0000
  0
INSERT
  8
31
  2
RECT140800X128000R25
 10
39.7085
 20
21.3705
 30
0.0000
 41
1.0000
 42
1.0000
 43
1.0000
 50
180.0000
  0
INSERT
  8
31
  2
RECT140800X128000R25
 10
22.0785
 20
8.1675
 30
0.0000
 41
1.0000
 42
1.0000
 43
1.0000
 50
270.0000
  0
INSERT
  8
31
  2
RECT140800X128000R25
 10
22.0785
 20
6.4675
 30
0.0000
 41
1.0000
 42
1.0000
 43
1.0000
 50
270.0000
  0
INSERT
  8
31
  2
RECT134400X138240R25
 10
43.5335
 20
39.5055
 30
0.0000
 41
1.0000
 42
1.0000
 43
1.0000
 50
90.0000
  0
INSERT
  8
31
  2
RECT134400X138240R25
 10
43.5335
 20
41.2555
 30
0.0000
 41
1.0000
 42
1.0000
 43
1.0000
 50
90.0000
  0
INSERT
  8
31
  2
RECT134400X138240R25
 10
12.0485
 20
36.6555
 30
0.0000
 41
1.0000
 42
1.0000
 43
1.0000
 50
0.0000
  0
INSERT
  8
31
  2
RECT134400X138240R25
 10
13.7985
 20
36.6555
 30
0.0000
 41
1.0000
 42
1.0000
 43
1.0000
 50
0.0000
  0
INSERT
  8
31
  2
RECT140800X128000R25
 10
22.0950
 20
12.1490
 30
0.0000
 41
1.0000
 42
1.0000
 43
1.0000
 50
270.0000
  0
INSERT
  8
31
  2
RECT140800X128000R25
 10
22.0950
 20
10.4490
 30
0.0000
 41
1.0000
 42
1.0000
 43
1.0000
 50
270.0000
  0
INSERT
  8
31
  2
RECT140800X114995R80
 10
35.2935
 20
29.7665
 30
0.0000
 41
1.0000
 42
1.0000
 43
1.0000
 50
180.0000
  0
INSERT
  8
31
  2
RECT140800X114995R80
 10
35.2935
 20
31.5445
 30
0.0000
 41
1.0000
 42
1.0000
 43
1.0000
 50
180.0000
  0
INSERT
  8
31
  2
RECT140800X114995R80
 10
29.9735
 20
29.8015
 30
0.0000
 41
1.0000
 42
1.0000
 43
1.0000
 50
180.0000
  0
INSERT
  8
31
  2
RECT140800X114995R80
 10
29.9735
 20
31.5795
 30
0.0000
 41
1.0000
 42
1.0000
 43
1.0000
 50
180.0000
  0
INSERT
  8
31
  2
RECT204800X307200R25
 10
7.5955
 20
14.3905
 30
0.0000
 41
1.0000
 42
1.0000
 43
1.0000
 50
90.0000
  0
INSERT
  8
31
  2
RECT204800X307200R25
 10
7.5955
 20
17.3905
 30
0.0000
 41
1.0000
 42
1.0000
 43
1.0000
 50
270.0000
  0
INSERT
  8
31
  2
RECT256000X256000R25
 10
6.9620
 20
11.1205
 30
0.0000
 41
1.0000
 42
1.0000
 43
1.0000
 50
90.0000
  0
INSERT
  8
31
  2
RECT256000X256000R25
 10
6.9620
 20
7.1205
 30
0.0000
 41
1.0000
 42
1.0000
 43
1.0000
 50
90.0000
  0
INSERT
  8
31
  2
RECT80640X106240R25
 10
18.8600
 20
8.5375
 30
0.0000
 41
1.0000
 42
1.0000
 43
1.0000
 50
270.0000
  0
INSERT
  8
31
  2
RECT80640X106240R25
 10
18.8600
 20
6.2375
 30
0.0000
 41
1.0000
 42
1.0000
 43
1.0000
 50
270.0000
  0
INSERT
  8
31
  2
RECT179200X230400R25
 10
38.5445
 20
6.9995
 30
0.0000
 41
1.0000
 42
1.0000
 43
1.0000
 50
270.0000
  0
INSERT
  8
31
  2
RECT179200X230400R25
 10
38.5445
 20
10.3995
 30
0.0000
 41
1.0000
 42
1.0000
 43
1.0000
 50
270.0000
  0
INSERT
  8
31
  2
RECT243200X435200R25
 10
9.6835
 20
6.5805
 30
0.0000
 41
1.0000
 42
1.0000
 43
1.0000
 50
0.0000
  0
INSERT
  8
31
  2
RECT243200X435200R25
 10
13.5835
 20
6.5805
 30
0.0000
 41
1.0000
 42
1.0000
 43
1.0000
 50
0.0000
  0
INSERT
  8
31
  2
RECT166400X192000R25
 10
22.8125
 20
27.2275
 30
0.0000
 41
1.0000
 42
1.0000
 43
1.0000
 50
270.0000
  0
INSERT
  8
31
  2
RECT166400X192000R25
 10
22.8125
 20
25.3275
 30
0.0000
 41
1.0000
 42
1.0000
 43
1.0000
 50
270.0000
  0
INSERT
  8
31
  2
RECT102400X102400R25
 10
45.4025
 20
11.9895
 30
0.0000
 41
1.0000
 42
1.0000
 43
1.0000
 50
180.0000
  0
INSERT
  8
31
  2
RECT102400X102400R25
 10
45.4025
 20
10.4895
 30
0.0000
 41
1.0000
 42
1.0000
 43
1.0000
 50
180.0000
  0
INSERT
  8
31
  2
RECT102400X102400R25
 10
41.0845
 20
11.9895
 30
0.0000
 41
1.0000
 42
1.0000
 43
1.0000
 50
180.0000
  0
INSERT
  8
31
  2
RECT102400X102400R25
 10
41.0845
 20
10.4895
 30
0.0000
 41
1.0000
 42
1.0000
 43
1.0000
 50
180.0000
  0
INSERT
  8
31
  2
RECT102400X102400R25
 10
43.1165
 20
11.9895
 30
0.0000
 41
1.0000
 42
1.0000
 43
1.0000
 50
180.0000
  0
INSERT
  8
31
  2
RECT102400X102400R25
 10
43.1165
 20
10.4895
 30
0.0000
 41
1.0000
 42
1.0000
 43
1.0000
 50
180.0000
  0
INSERT
  8
31
  2
RECT102400X102400R25
 10
46.8630
 20
11.9895
 30
0.0000
 41
1.0000
 42
1.0000
 43
1.0000
 50
180.0000
  0
INSERT
  8
31
  2
RECT102400X102400R25
 10
46.8630
 20
10.4895
 30
0.0000
 41
1.0000
 42
1.0000
 43
1.0000
 50
180.0000
  0
INSERT
  8
31
  2
RECT153600X179200R25
 10
33.7835
 20
31.4205
 30
0.0000
 41
1.0000
 42
1.0000
 43
1.0000
 50
270.0000
  0
INSERT
  8
31
  2
RECT153600X179200R25
 10
31.5835
 20
31.4205
 30
0.0000
 41
1.0000
 42
1.0000
 43
1.0000
 50
270.0000
  0
INSERT
  8
31
  2
RECT153600X179200R25
 10
31.5835
 20
29.8205
 30
0.0000
 41
1.0000
 42
1.0000
 43
1.0000
 50
270.0000
  0
INSERT
  8
31
  2
RECT153600X179200R25
 10
33.7835
 20
29.8205
 30
0.0000
 41
1.0000
 42
1.0000
 43
1.0000
 50
270.0000
  0
INSERT
  8
31
  2
RECT128000X140800R25
 10
35.9410
 20
6.7700
 30
0.0000
 41
1.0000
 42
1.0000
 43
1.0000
 50
90.0000
  0
INSERT
  8
31
  2
RECT128000X140800R25
 10
35.9410
 20
8.4700
 30
0.0000
 41
1.0000
 42
1.0000
 43
1.0000
 50
90.0000
  0
INSERT
  8
31
  2
RECT63744X83200R25
 10
29.8385
 20
7.5855
 30
0.0000
 41
1.0000
 42
1.0000
 43
1.0000
 50
0.0000
  0
INSERT
  8
31
  2
RECT63744X83200R25
 10
30.6385
 20
7.5855
 30
0.0000
 41
1.0000
 42
1.0000
 43
1.0000
 50
0.0000
  0
INSERT
  8
31
  2
RECT63744X83200R25
 10
31.4385
 20
7.5855
 30
0.0000
 41
1.0000
 42
1.0000
 43
1.0000
 50
0.0000
  0
INSERT
  8
31
  2
RECT63744X83200R25
 10
32.2385
 20
7.5855
 30
0.0000
 41
1.0000
 42
1.0000
 43
1.0000
 50
0.0000
  0
INSERT
  8
31
  2
RECT63744X83200R25
 10
32.2385
 20
8.9355
 30
0.0000
 41
1.0000
 42
1.0000
 43
1.0000
 50
0.0000
  0
INSERT
  8
31
  2
RECT63744X83200R25
 10
31.4385
 20
8.9355
 30
0.0000
 41
1.0000
 42
1.0000
 43
1.0000
 50
0.0000
  0
INSERT
  8
31
  2
RECT63744X83200R25
 10
30.6385
 20
8.9355
 30
0.0000
 41
1.0000
 42
1.0000
 43
1.0000
 50
0.0000
  0
INSERT
  8
31
  2
RECT63744X83200R25
 10
29.8385
 20
8.9355
 30
0.0000
 41
1.0000
 42
1.0000
 43
1.0000
 50
0.0000
  0
INSERT
  8
31
  2
RECT63744X83200R25
 10
45.5385
 20
9.0655
 30
0.0000
 41
1.0000
 42
1.0000
 43
1.0000
 50
180.0000
  0
INSERT
  8
31
  2
RECT63744X83200R25
 10
44.7385
 20
9.0655
 30
0.0000
 41
1.0000
 42
1.0000
 43
1.0000
 50
180.0000
  0
INSERT
  8
31
  2
RECT63744X83200R25
 10
43.9385
 20
9.0655
 30
0.0000
 41
1.0000
 42
1.0000
 43
1.0000
 50
180.0000
  0
INSERT
  8
31
  2
RECT63744X83200R25
 10
43.1385
 20
9.0655
 30
0.0000
 41
1.0000
 42
1.0000
 43
1.0000
 50
180.0000
  0
INSERT
  8
31
  2
RECT63744X83200R25
 10
43.1385
 20
7.7155
 30
0.0000
 41
1.0000
 42
1.0000
 43
1.0000
 50
180.0000
  0
INSERT
  8
31
  2
RECT63744X83200R25
 10
43.9385
 20
7.7155
 30
0.0000
 41
1.0000
 42
1.0000
 43
1.0000
 50
180.0000
  0
INSERT
  8
31
  2
RECT63744X83200R25
 10
44.7385
 20
7.7155
 30
0.0000
 41
1.0000
 42
1.0000
 43
1.0000
 50
180.0000
  0
INSERT
  8
31
  2
RECT63744X83200R25
 10
45.5385
 20
7.7155
 30
0.0000
 41
1.0000
 42
1.0000
 43
1.0000
 50
180.0000
  0
INSERT
  8
31
  2
RECT149555X204826R25
 10
44.5705
 20
13.7655
 30
0.0000
 41
1.0000
 42
1.0000
 43
1.0000
 50
180.0000
  0
INSERT
  8
31
  2
RECT149555X204826R25
 10
43.0465
 20
13.7655
 30
0.0000
 41
1.0000
 42
1.0000
 43
1.0000
 50
180.0000
  0
INSERT
  8
31
  2
RECT192000X63744R25
 10
38.0335
 20
17.3305
 30
0.0000
 41
1.0000
 42
1.0000
 43
1.0000
 50
180.0000
  0
INSERT
  8
31
  2
RECT192000X63744R25
 10
38.0335
 20
18.1305
 30
0.0000
 41
1.0000
 42
1.0000
 43
1.0000
 50
180.0000
  0
INSERT
  8
31
  2
RECT192000X63744R25
 10
38.0335
 20
18.9305
 30
0.0000
 41
1.0000
 42
1.0000
 43
1.0000
 50
180.0000
  0
INSERT
  8
31
  2
RECT192000X63744R25
 10
38.0335
 20
19.7305
 30
0.0000
 41
1.0000
 42
1.0000
 43
1.0000
 50
180.0000
  0
INSERT
  8
31
  2
RECT192000X63744R25
 10
38.0335
 20
20.5305
 30
0.0000
 41
1.0000
 42
1.0000
 43
1.0000
 50
180.0000
  0
INSERT
  8
31
  2
RECT192000X63744R25
 10
38.0335
 20
21.3305
 30
0.0000
 41
1.0000
 42
1.0000
 43
1.0000
 50
180.0000
  0
INSERT
  8
31
  2
RECT192000X63744R25
 10
38.0335
 20
22.1305
 30
0.0000
 41
1.0000
 42
1.0000
 43
1.0000
 50
180.0000
  0
INSERT
  8
31
  2
RECT192000X63744R25
 10
38.0335
 20
22.9305
 30
0.0000
 41
1.0000
 42
1.0000
 43
1.0000
 50
180.0000
  0
INSERT
  8
31
  2
RECT192000X63744R25
 10
38.0335
 20
23.7305
 30
0.0000
 41
1.0000
 42
1.0000
 43
1.0000
 50
180.0000
  0
INSERT
  8
31
  2
RECT192000X63744R25
 10
38.0335
 20
24.5305
 30
0.0000
 41
1.0000
 42
1.0000
 43
1.0000
 50
180.0000
  0
INSERT
  8
31
  2
RECT192000X63744R25
 10
38.0335
 20
25.3305
 30
0.0000
 41
1.0000
 42
1.0000
 43
1.0000
 50
180.0000
  0
INSERT
  8
31
  2
RECT63744X192000R25
 10
36.2335
 20
27.1305
 30
0.0000
 41
1.0000
 42
1.0000
 43
1.0000
 50
180.0000
  0
INSERT
  8
31
  2
RECT63744X192000R25
 10
35.4335
 20
27.1305
 30
0.0000
 41
1.0000
 42
1.0000
 43
1.0000
 50
180.0000
  0
INSERT
  8
31
  2
RECT63744X192000R25
 10
34.6335
 20
27.1305
 30
0.0000
 41
1.0000
 42
1.0000
 43
1.0000
 50
180.0000
  0
INSERT
  8
31
  2
RECT63744X192000R25
 10
33.8335
 20
27.1305
 30
0.0000
 41
1.0000
 42
1.0000
 43
1.0000
 50
180.0000
  0
INSERT
  8
31
  2
RECT63744X192000R25
 10
33.0335
 20
27.1305
 30
0.0000
 41
1.0000
 42
1.0000
 43
1.0000
 50
180.0000
  0
INSERT
  8
31
  2
RECT63744X192000R25
 10
32.2335
 20
27.1305
 30
0.0000
 41
1.0000
 42
1.0000
 43
1.0000
 50
180.0000
  0
INSERT
  8
31
  2
RECT63744X192000R25
 10
31.4335
 20
27.1305
 30
0.0000
 41
1.0000
 42
1.0000
 43
1.0000
 50
180.0000
  0
INSERT
  8
31
  2
RECT63744X192000R25
 10
30.6335
 20
27.1305
 30
0.0000
 41
1.0000
 42
1.0000
 43
1.0000
 50
180.0000
  0
INSERT
  8
31
  2
RECT63744X192000R25
 10
29.8335
 20
27.1305
 30
0.0000
 41
1.0000
 42
1.0000
 43
1.0000
 50
180.0000
  0
INSERT
  8
31
  2
RECT63744X192000R25
 10
29.0335
 20
27.1305
 30
0.0000
 41
1.0000
 42
1.0000
 43
1.0000
 50
180.0000
  0
INSERT
  8
31
  2
RECT63744X192000R25
 10
28.2335
 20
27.1305
 30
0.0000
 41
1.0000
 42
1.0000
 43
1.0000
 50
180.0000
  0
INSERT
  8
31
  2
RECT192000X63744R25
 10
26.4335
 20
25.3305
 30
0.0000
 41
1.0000
 42
1.0000
 43
1.0000
 50
180.0000
  0
INSERT
  8
31
  2
RECT192000X63744R25
 10
26.4335
 20
24.5305
 30
0.0000
 41
1.0000
 42
1.0000
 43
1.0000
 50
180.0000
  0
INSERT
  8
31
  2
RECT192000X63744R25
 10
26.4335
 20
23.7305
 30
0.0000
 41
1.0000
 42
1.0000
 43
1.0000
 50
180.0000
  0
INSERT
  8
31
  2
RECT192000X63744R25
 10
26.4335
 20
22.9305
 30
0.0000
 41
1.0000
 42
1.0000
 43
1.0000
 50
180.0000
  0
INSERT
  8
31
  2
RECT192000X63744R25
 10
26.4335
 20
22.1305
 30
0.0000
 41
1.0000
 42
1.0000
 43
1.0000
 50
180.0000
  0
INSERT
  8
31
  2
RECT192000X63744R25
 10
26.4335
 20
21.3305
 30
0.0000
 41
1.0000
 42
1.0000
 43
1.0000
 50
180.0000
  0
INSERT
  8
31
  2
RECT192000X63744R25
 10
26.4335
 20
20.5305
 30
0.0000
 41
1.0000
 42
1.0000
 43
1.0000
 50
180.0000
  0
INSERT
  8
31
  2
RECT192000X63744R25
 10
26.4335
 20
19.7305
 30
0.0000
 41
1.0000
 42
1.0000
 43
1.0000
 50
180.0000
  0
INSERT
  8
31
  2
RECT192000X63744R25
 10
26.4335
 20
18.9305
 30
0.0000
 41
1.0000
 42
1.0000
 43
1.0000
 50
180.0000
  0
INSERT
  8
31
  2
RECT192000X63744R25
 10
26.4335
 20
18.1305
 30
0.0000
 41
1.0000
 42
1.0000
 43
1.0000
 50
180.0000
  0
INSERT
  8
31
  2
RECT192000X63744R25
 10
26.4335
 20
17.3305
 30
0.0000
 41
1.0000
 42
1.0000
 43
1.0000
 50
180.0000
  0
INSERT
  8
31
  2
RECT63744X192000R25
 10
28.2335
 20
15.5305
 30
0.0000
 41
1.0000
 42
1.0000
 43
1.0000
 50
180.0000
  0
INSERT
  8
31
  2
RECT63744X192000R25
 10
29.0335
 20
15.5305
 30
0.0000
 41
1.0000
 42
1.0000
 43
1.0000
 50
180.0000
  0
INSERT
  8
31
  2
RECT63744X192000R25
 10
29.8335
 20
15.5305
 30
0.0000
 41
1.0000
 42
1.0000
 43
1.0000
 50
180.0000
  0
INSERT
  8
31
  2
RECT63744X192000R25
 10
30.6335
 20
15.5305
 30
0.0000
 41
1.0000
 42
1.0000
 43
1.0000
 50
180.0000
  0
INSERT
  8
31
  2
RECT63744X192000R25
 10
31.4335
 20
15.5305
 30
0.0000
 41
1.0000
 42
1.0000
 43
1.0000
 50
180.0000
  0
INSERT
  8
31
  2
RECT63744X192000R25
 10
32.2335
 20
15.5305
 30
0.0000
 41
1.0000
 42
1.0000
 43
1.0000
 50
180.0000
  0
INSERT
  8
31
  2
RECT63744X192000R25
 10
33.0335
 20
15.5305
 30
0.0000
 41
1.0000
 42
1.0000
 43
1.0000
 50
180.0000
  0
INSERT
  8
31
  2
RECT63744X192000R25
 10
33.8335
 20
15.5305
 30
0.0000
 41
1.0000
 42
1.0000
 43
1.0000
 50
180.0000
  0
INSERT
  8
31
  2
RECT63744X192000R25
 10
34.6335
 20
15.5305
 30
0.0000
 41
1.0000
 42
1.0000
 43
1.0000
 50
180.0000
  0
INSERT
  8
31
  2
RECT63744X192000R25
 10
35.4335
 20
15.5305
 30
0.0000
 41
1.0000
 42
1.0000
 43
1.0000
 50
180.0000
  0
INSERT
  8
31
  2
RECT63744X192000R25
 10
36.2335
 20
15.5305
 30
0.0000
 41
1.0000
 42
1.0000
 43
1.0000
 50
180.0000
  0
INSERT
  8
31
  2
RECT156058X286106R25
 10
10.8882
 20
17.7269
 30
0.0000
 41
1.0000
 42
1.0000
 43
1.0000
 50
270.0000
  0
INSERT
  8
31
  2
RECT156058X286106R25
 10
10.8882
 20
15.4155
 30
0.0000
 41
1.0000
 42
1.0000
 43
1.0000
 50
270.0000
  0
INSERT
  8
31
  2
RECT156058X286106R25
 10
10.8882
 20
13.1041
 30
0.0000
 41
1.0000
 42
1.0000
 43
1.0000
 50
270.0000
  0
INSERT
  8
31
  2
RECT460800X281600R23
 10
17.0860
 20
15.4155
 30
0.0000
 41
1.0000
 42
1.0000
 43
1.0000
 50
270.0000
  0
INSERT
  8
31
  2
RECT70400X153600R25
 10
16.9735
 20
12.0505
 30
0.0000
 41
1.0000
 42
1.0000
 43
1.0000
 50
270.0000
  0
INSERT
  8
31
  2
RECT70400X153600R25
 10
16.9735
 20
11.1005
 30
0.0000
 41
1.0000
 42
1.0000
 43
1.0000
 50
270.0000
  0
INSERT
  8
31
  2
RECT70400X153600R25
 10
16.9735
 20
10.1505
 30
0.0000
 41
1.0000
 42
1.0000
 43
1.0000
 50
270.0000
  0
INSERT
  8
31
  2
RECT70400X153600R25
 10
19.5735
 20
10.1505
 30
0.0000
 41
1.0000
 42
1.0000
 43
1.0000
 50
270.0000
  0
INSERT
  8
31
  2
RECT70400X153600R25
 10
19.5735
 20
12.0505
 30
0.0000
 41
1.0000
 42
1.0000
 43
1.0000
 50
270.0000
  0
POLYLINE
  8
31
 66
1
 10
0.0000
 20
0.0000
 30
0.0000
 40
0.1270
 41
0.1270
 70
0
  0
VERTEX
  8
31
 10
27.7241
 20
0.7747
 30
0.0000
 42
0.4142
  0
VERTEX
  8
31
 10
27.9781
 20
1.0287
 30
0.0000
  0
SEQEND
  8
0
  0
POLYLINE
  8
31
 66
1
 10
0.0000
 20
0.0000
 30
0.0000
 40
0.0635
 41
0.0635
 70
0
  0
VERTEX
  8
31
 10
27.7241
 20
0.8065
 30
0.0000
 42
1.0000
  0
VERTEX
  8
31
 10
27.7241
 20
0.7429
 30
0.0000
  0
SEQEND
  8
0
  0
POLYLINE
  8
31
 66
1
 10
0.0000
 20
0.0000
 30
0.0000
 40
0.0635
 41
0.0635
 70
0
  0
VERTEX
  8
31
 10
28.0099
 20
1.0287
 30
0.0000
 42
1.0000
  0
VERTEX
  8
31
 10
27.9464
 20
1.0287
 30
0.0000
  0
SEQEND
  8
0
  0
POLYLINE
  8
31
 66
1
 10
0.0000
 20
0.0000
 30
0.0000
 40
0.1270
 41
0.1270
 70
0
  0
VERTEX
  8
31
 10
27.7241
 20
0.7747
 30
0.0000
  0
VERTEX
  8
31
 10
26.7589
 20
0.7747
 30
0.0000
  0
SEQEND
  8
0
  0
POLYLINE
  8
31
 66
1
 10
0.0000
 20
0.0000
 30
0.0000
 40
0.0635
 41
0.0635
 70
0
  0
VERTEX
  8
31
 10
26.7589
 20
0.8065
 30
0.0000
 42
1.0000
  0
VERTEX
  8
31
 10
26.7589
 20
0.7429
 30
0.0000
  0
SEQEND
  8
0
  0
POLYLINE
  8
31
 66
1
 10
0.0000
 20
0.0000
 30
0.0000
 40
0.0635
 41
0.0635
 70
0
  0
VERTEX
  8
31
 10
27.7241
 20
0.7429
 30
0.0000
 42
1.0000
  0
VERTEX
  8
31
 10
27.7241
 20
0.8065
 30
0.0000
  0
SEQEND
  8
0
  0
POLYLINE
  8
31
 66
1
 10
0.0000
 20
0.0000
 30
0.0000
 40
0.1270
 41
0.1270
 70
0
  0
VERTEX
  8
31
 10
26.5049
 20
1.0287
 30
0.0000
 42
0.4142
  0
VERTEX
  8
31
 10
26.7589
 20
0.7747
 30
0.0000
  0
SEQEND
  8
0
  0
POLYLINE
  8
31
 66
1
 10
0.0000
 20
0.0000
 30
0.0000
 40
0.0635
 41
0.0635
 70
0
  0
VERTEX
  8
31
 10
26.5367
 20
1.0287
 30
0.0000
 42
1.0000
  0
VERTEX
  8
31
 10
26.4732
 20
1.0287
 30
0.0000
  0
SEQEND
  8
0
  0
POLYLINE
  8
31
 66
1
 10
0.0000
 20
0.0000
 30
0.0000
 40
0.0635
 41
0.0635
 70
0
  0
VERTEX
  8
31
 10
26.7589
 20
0.7429
 30
0.0000
 42
1.0000
  0
VERTEX
  8
31
 10
26.7589
 20
0.8065
 30
0.0000
  0
SEQEND
  8
0
  0
POLYLINE
  8
31
 66
1
 10
0.0000
 20
0.0000
 30
0.0000
 40
0.1270
 41
0.1270
 70
0
  0
VERTEX
  8
31
 10
26.5049
 20
1.0287
 30
0.0000
  0
VERTEX
  8
31
 10
26.5049
 20
1.8923
 30
0.0000
  0
SEQEND
  8
0
  0
POLYLINE
  8
31
 66
1
 10
0.0000
 20
0.0000
 30
0.0000
 40
0.0635
 41
0.0635
 70
0
  0
VERTEX
  8
31
 10
26.5367
 20
1.8923
 30
0.0000
 42
1.0000
  0
VERTEX
  8
31
 10
26.4732
 20
1.8923
 30
0.0000
  0
SEQEND
  8
0
  0
POLYLINE
  8
31
 66
1
 10
0.0000
 20
0.0000
 30
0.0000
 40
0.0635
 41
0.0635
 70
0
  0
VERTEX
  8
31
 10
26.4732
 20
1.0287
 30
0.0000
 42
1.0000
  0
VERTEX
  8
31
 10
26.5367
 20
1.0287
 30
0.0000
  0
SEQEND
  8
0
  0
POLYLINE
  8
31
 66
1
 10
0.0000
 20
0.0000
 30
0.0000
 40
0.1270
 41
0.1270
 70
0
  0
VERTEX
  8
31
 10
26.7589
 20
2.1463
 30
0.0000
 42
0.4142
  0
VERTEX
  8
31
 10
26.5049
 20
1.8923
 30
0.0000
  0
SEQEND
  8
0
  0
POLYLINE
  8
31
 66
1
 10
0.0000
 20
0.0000
 30
0.0000
 40
0.0635
 41
0.0635
 70
0
  0
VERTEX
  8
31
 10
26.7589
 20
2.1145
 30
0.0000
 42
1.0000
  0
VERTEX
  8
31
 10
26.7589
 20
2.1781
 30
0.0000
  0
SEQEND
  8
0
  0
POLYLINE
  8
31
 66
1
 10
0.0000
 20
0.0000
 30
0.0000
 40
0.0635
 41
0.0635
 70
0
  0
VERTEX
  8
31
 10
26.4732
 20
1.8923
 30
0.0000
 42
1.0000
  0
VERTEX
  8
31
 10
26.5367
 20
1.8923
 30
0.0000
  0
SEQEND
  8
0
  0
POLYLINE
  8
31
 66
1
 10
0.0000
 20
0.0000
 30
0.0000
 40
0.1270
 41
0.1270
 70
0
  0
VERTEX
  8
31
 10
26.7589
 20
2.1463
 30
0.0000
  0
VERTEX
  8
31
 10
27.7241
 20
2.1463
 30
0.0000
  0
SEQEND
  8
0
  0
POLYLINE
  8
31
 66
1
 10
0.0000
 20
0.0000
 30
0.0000
 40
0.0635
 41
0.0635
 70
0
  0
VERTEX
  8
31
 10
27.7241
 20
2.1145
 30
0.0000
 42
1.0000
  0
VERTEX
  8
31
 10
27.7241
 20
2.1781
 30
0.0000
  0
SEQEND
  8
0
  0
POLYLINE
  8
31
 66
1
 10
0.0000
 20
0.0000
 30
0.0000
 40
0.0635
 41
0.0635
 70
0
  0
VERTEX
  8
31
 10
26.7589
 20
2.1781
 30
0.0000
 42
1.0000
  0
VERTEX
  8
31
 10
26.7589
 20
2.1145
 30
0.0000
  0
SEQEND
  8
0
  0
POLYLINE
  8
31
 66
1
 10
0.0000
 20
0.0000
 30
0.0000
 40
0.1270
 41
0.1270
 70
0
  0
VERTEX
  8
31
 10
27.9781
 20
1.8923
 30
0.0000
 42
0.4142
  0
VERTEX
  8
31
 10
27.7241
 20
2.1463
 30
0.0000
  0
SEQEND
  8
0
  0
POLYLINE
  8
31
 66
1
 10
0.0000
 20
0.0000
 30
0.0000
 40
0.0635
 41
0.0635
 70
0
  0
VERTEX
  8
31
 10
27.9464
 20
1.8923
 30
0.0000
 42
1.0000
  0
VERTEX
  8
31
 10
28.0099
 20
1.8923
 30
0.0000
  0
SEQEND
  8
0
  0
POLYLINE
  8
31
 66
1
 10
0.0000
 20
0.0000
 30
0.0000
 40
0.0635
 41
0.0635
 70
0
  0
VERTEX
  8
31
 10
27.7241
 20
2.1781
 30
0.0000
 42
1.0000
  0
VERTEX
  8
31
 10
27.7241
 20
2.1145
 30
0.0000
  0
SEQEND
  8
0
  0
POLYLINE
  8
31
 66
1
 10
0.0000
 20
0.0000
 30
0.0000
 40
0.1270
 41
0.1270
 70
0
  0
VERTEX
  8
31
 10
27.9781
 20
1.8923
 30
0.0000
  0
VERTEX
  8
31
 10
27.9781
 20
1.0287
 30
0.0000
  0
SEQEND
  8
0
  0
POLYLINE
  8
31
 66
1
 10
0.0000
 20
0.0000
 30
0.0000
 40
0.0635
 41
0.0635
 70
0
  0
VERTEX
  8
31
 10
27.9464
 20
1.0287
 30
0.0000
 42
1.0000
  0
VERTEX
  8
31
 10
28.0099
 20
1.0287
 30
0.0000
  0
SEQEND
  8
0
  0
POLYLINE
  8
31
 66
1
 10
0.0000
 20
0.0000
 30
0.0000
 40
0.0635
 41
0.0635
 70
0
  0
VERTEX
  8
31
 10
28.0099
 20
1.8923
 30
0.0000
 42
1.0000
  0
VERTEX
  8
31
 10
27.9464
 20
1.8923
 30
0.0000
  0
SEQEND
  8
0
  0
POLYLINE
  8
31
 66
1
 10
0.0000
 20
0.0000
 30
0.0000
 40
0.1270
 41
0.1270
 70
0
  0
VERTEX
  8
31
 10
26.6065
 20
2.0447
 30
0.0000
  0
VERTEX
  8
31
 10
26.6065
 20
0.8763
 30
0.0000
  0
SEQEND
  8
0
  0
POLYLINE
  8
31
 66
1
 10
0.0000
 20
0.0000
 30
0.0000
 40
0.0635
 41
0.0635
 70
0
  0
VERTEX
  8
31
 10
26.5748
 20
0.8763
 30
0.0000
 42
1.0000
  0
VERTEX
  8
31
 10
26.6382
 20
0.8763
 30
0.0000
  0
SEQEND
  8
0
  0
POLYLINE
  8
31
 66
1
 10
0.0000
 20
0.0000
 30
0.0000
 40
0.0635
 41
0.0635
 70
0
  0
VERTEX
  8
31
 10
26.6382
 20
2.0447
 30
0.0000
 42
1.0000
  0
VERTEX
  8
31
 10
26.5748
 20
2.0447
 30
0.0000
  0
SEQEND
  8
0
  0
POLYLINE
  8
31
 66
1
 10
0.0000
 20
0.0000
 30
0.0000
 40
0.1270
 41
0.1270
 70
0
  0
VERTEX
  8
31
 10
27.4701
 20
0.8255
 30
0.0000
  0
VERTEX
  8
31
 10
27.4701
 20
2.1209
 30
0.0000
  0
SEQEND
  8
0
  0
POLYLINE
  8
31
 66
1
 10
0.0000
 20
0.0000
 30
0.0000
 40
0.0635
 41
0.0635
 70
0
  0
VERTEX
  8
31
 10
27.5019
 20
2.1209
 30
0.0000
 42
1.0000
  0
VERTEX
  8
31
 10
27.4384
 20
2.1209
 30
0.0000
  0
SEQEND
  8
0
  0
POLYLINE
  8
31
 66
1
 10
0.0000
 20
0.0000
 30
0.0000
 40
0.0635
 41
0.0635
 70
0
  0
VERTEX
  8
31
 10
27.4384
 20
0.8255
 30
0.0000
 42
1.0000
  0
VERTEX
  8
31
 10
27.5019
 20
0.8255
 30
0.0000
  0
SEQEND
  8
0
  0
POLYLINE
  8
31
 66
1
 10
0.0000
 20
0.0000
 30
0.0000
 40
0.1270
 41
0.1270
 70
0
  0
VERTEX
  8
31
 10
27.4701
 20
2.1209
 30
0.0000
  0
VERTEX
  8
31
 10
27.5717
 20
2.1209
 30
0.0000
  0
SEQEND
  8
0
  0
POLYLINE
  8
31
 66
1
 10
0.0000
 20
0.0000
 30
0.0000
 40
0.0635
 41
0.0635
 70
0
  0
VERTEX
  8
31
 10
27.5717
 20
2.0892
 30
0.0000
 42
1.0000
  0
VERTEX
  8
31
 10
27.5717
 20
2.1527
 30
0.0000
  0
SEQEND
  8
0
  0
POLYLINE
  8
31
 66
1
 10
0.0000
 20
0.0000
 30
0.0000
 40
0.0635
 41
0.0635
 70
0
  0
VERTEX
  8
31
 10
27.4701
 20
2.1527
 30
0.0000
 42
1.0000
  0
VERTEX
  8
31
 10
27.4701
 20
2.0892
 30
0.0000
  0
SEQEND
  8
0
  0
POLYLINE
  8
31
 66
1
 10
0.0000
 20
0.0000
 30
0.0000
 40
0.1270
 41
0.1270
 70
0
  0
VERTEX
  8
31
 10
27.5971
 20
2.1209
 30
0.0000
  0
VERTEX
  8
31
 10
27.5717
 20
2.1209
 30
0.0000
  0
SEQEND
  8
0
  0
POLYLINE
  8
31
 66
1
 10
0.0000
 20
0.0000
 30
0.0000
 40
0.0635
 41
0.0635
 70
0
  0
VERTEX
  8
31
 10
27.5717
 20
2.1527
 30
0.0000
 42
1.0000
  0
VERTEX
  8
31
 10
27.5717
 20
2.0892
 30
0.0000
  0
SEQEND
  8
0
  0
POLYLINE
  8
31
 66
1
 10
0.0000
 20
0.0000
 30
0.0000
 40
0.0635
 41
0.0635
 70
0
  0
VERTEX
  8
31
 10
27.5971
 20
2.0892
 30
0.0000
 42
1.0000
  0
VERTEX
  8
31
 10
27.5971
 20
2.1527
 30
0.0000
  0
SEQEND
  8
0
  0
POLYLINE
  8
31
 66
1
 10
0.0000
 20
0.0000
 30
0.0000
 40
0.1270
 41
0.1270
 70
0
  0
VERTEX
  8
31
 10
27.5717
 20
2.1209
 30
0.0000
  0
VERTEX
  8
31
 10
27.5717
 20
0.8255
 30
0.0000
  0
SEQEND
  8
0
  0
POLYLINE
  8
31
 66
1
 10
0.0000
 20
0.0000
 30
0.0000
 40
0.0635
 41
0.0635
 70
0
  0
VERTEX
  8
31
 10
27.5400
 20
0.8255
 30
0.0000
 42
1.0000
  0
VERTEX
  8
31
 10
27.6034
 20
0.8255
 30
0.0000
  0
SEQEND
  8
0
  0
POLYLINE
  8
31
 66
1
 10
0.0000
 20
0.0000
 30
0.0000
 40
0.0635
 41
0.0635
 70
0
  0
VERTEX
  8
31
 10
27.6034
 20
2.1209
 30
0.0000
 42
1.0000
  0
VERTEX
  8
31
 10
27.5400
 20
2.1209
 30
0.0000
  0
SEQEND
  8
0
  0
POLYLINE
  8
31
 66
1
 10
0.0000
 20
0.0000
 30
0.0000
 40
0.1270
 41
0.1270
 70
0
  0
VERTEX
  8
31
 10
27.5717
 20
0.8255
 30
0.0000
  0
VERTEX
  8
31
 10
27.6987
 20
0.8255
 30
0.0000
  0
SEQEND
  8
0
  0
POLYLINE
  8
31
 66
1
 10
0.0000
 20
0.0000
 30
0.0000
 40
0.0635
 41
0.0635
 70
0
  0
VERTEX
  8
31
 10
27.6987
 20
0.7937
 30
0.0000
 42
1.0000
  0
VERTEX
  8
31
 10
27.6987
 20
0.8573
 30
0.0000
  0
SEQEND
  8
0
  0
POLYLINE
  8
31
 66
1
 10
0.0000
 20
0.0000
 30
0.0000
 40
0.0635
 41
0.0635
 70
0
  0
VERTEX
  8
31
 10
27.5717
 20
0.8573
 30
0.0000
 42
1.0000
  0
VERTEX
  8
31
 10
27.5717
 20
0.7937
 30
0.0000
  0
SEQEND
  8
0
  0
POLYLINE
  8
31
 66
1
 10
0.0000
 20
0.0000
 30
0.0000
 40
0.1270
 41
0.1270
 70
0
  0
VERTEX
  8
31
 10
27.6987
 20
0.8255
 30
0.0000
  0
VERTEX
  8
31
 10
27.6987
 20
2.0955
 30
0.0000
  0
SEQEND
  8
0
  0
POLYLINE
  8
31
 66
1
 10
0.0000
 20
0.0000
 30
0.0000
 40
0.0635
 41
0.0635
 70
0
  0
VERTEX
  8
31
 10
27.7305
 20
2.0955
 30
0.0000
 42
1.0000
  0
VERTEX
  8
31
 10
27.6670
 20
2.0955
 30
0.0000
  0
SEQEND
  8
0
  0
POLYLINE
  8
31
 66
1
 10
0.0000
 20
0.0000
 30
0.0000
 40
0.0635
 41
0.0635
 70
0
  0
VERTEX
  8
31
 10
27.6670
 20
0.8255
 30
0.0000
 42
1.0000
  0
VERTEX
  8
31
 10
27.7305
 20
0.8255
 30
0.0000
  0
SEQEND
  8
0
  0
POLYLINE
  8
31
 66
1
 10
0.0000
 20
0.0000
 30
0.0000
 40
0.1270
 41
0.1270
 70
0
  0
VERTEX
  8
31
 10
27.6987
 20
2.0955
 30
0.0000
  0
VERTEX
  8
31
 10
27.8003
 20
2.0955
 30
0.0000
  0
SEQEND
  8
0
  0
POLYLINE
  8
31
 66
1
 10
0.0000
 20
0.0000
 30
0.0000
 40
0.0635
 41
0.0635
 70
0
  0
VERTEX
  8
31
 10
27.8003
 20
2.0637
 30
0.0000
 42
1.0000
  0
VERTEX
  8
31
 10
27.8003
 20
2.1273
 30
0.0000
  0
SEQEND
  8
0
  0
POLYLINE
  8
31
 66
1
 10
0.0000
 20
0.0000
 30
0.0000
 40
0.0635
 41
0.0635
 70
0
  0
VERTEX
  8
31
 10
27.6987
 20
2.1273
 30
0.0000
 42
1.0000
  0
VERTEX
  8
31
 10
27.6987
 20
2.0637
 30
0.0000
  0
SEQEND
  8
0
  0
POLYLINE
  8
31
 66
1
 10
0.0000
 20
0.0000
 30
0.0000
 40
0.1270
 41
0.1270
 70
0
  0
VERTEX
  8
31
 10
27.8003
 20
2.0955
 30
0.0000
  0
VERTEX
  8
31
 10
27.8003
 20
0.8255
 30
0.0000
  0
SEQEND
  8
0
  0
POLYLINE
  8
31
 66
1
 10
0.0000
 20
0.0000
 30
0.0000
 40
0.0635
 41
0.0635
 70
0
  0
VERTEX
  8
31
 10
27.7686
 20
0.8255
 30
0.0000
 42
1.0000
  0
VERTEX
  8
31
 10
27.8320
 20
0.8255
 30
0.0000
  0
SEQEND
  8
0
  0
POLYLINE
  8
31
 66
1
 10
0.0000
 20
0.0000
 30
0.0000
 40
0.0635
 41
0.0635
 70
0
  0
VERTEX
  8
31
 10
27.8320
 20
2.0955
 30
0.0000
 42
1.0000
  0
VERTEX
  8
31
 10
27.7686
 20
2.0955
 30
0.0000
  0
SEQEND
  8
0
  0
POLYLINE
  8
31
 66
1
 10
0.0000
 20
0.0000
 30
0.0000
 40
0.1270
 41
0.1270
 70
0
  0
VERTEX
  8
31
 10
27.8003
 20
0.8255
 30
0.0000
  0
VERTEX
  8
31
 10
27.8511
 20
0.8255
 30
0.0000
  0
SEQEND
  8
0
  0
POLYLINE
  8
31
 66
1
 10
0.0000
 20
0.0000
 30
0.0000
 40
0.0635
 41
0.0635
 70
0
  0
VERTEX
  8
31
 10
27.8511
 20
0.7937
 30
0.0000
 42
1.0000
  0
VERTEX
  8
31
 10
27.8511
 20
0.8573
 30
0.0000
  0
SEQEND
  8
0
  0
POLYLINE
  8
31
 66
1
 10
0.0000
 20
0.0000
 30
0.0000
 40
0.0635
 41
0.0635
 70
0
  0
VERTEX
  8
31
 10
27.8003
 20
0.8573
 30
0.0000
 42
1.0000
  0
VERTEX
  8
31
 10
27.8003
 20
0.7937
 30
0.0000
  0
SEQEND
  8
0
  0
POLYLINE
  8
31
 66
1
 10
0.0000
 20
0.0000
 30
0.0000
 40
0.1270
 41
0.1270
 70
0
  0
VERTEX
  8
31
 10
27.8511
 20
0.8255
 30
0.0000
  0
VERTEX
  8
31
 10
27.8511
 20
2.0955
 30
0.0000
  0
SEQEND
  8
0
  0
POLYLINE
  8
31
 66
1
 10
0.0000
 20
0.0000
 30
0.0000
 40
0.0635
 41
0.0635
 70
0
  0
VERTEX
  8
31
 10
27.8829
 20
2.0955
 30
0.0000
 42
1.0000
  0
VERTEX
  8
31
 10
27.8194
 20
2.0955
 30
0.0000
  0
SEQEND
  8
0
  0
POLYLINE
  8
31
 66
1
 10
0.0000
 20
0.0000
 30
0.0000
 40
0.0635
 41
0.0635
 70
0
  0
VERTEX
  8
31
 10
27.8194
 20
0.8255
 30
0.0000
 42
1.0000
  0
VERTEX
  8
31
 10
27.8829
 20
0.8255
 30
0.0000
  0
SEQEND
  8
0
  0
POLYLINE
  8
31
 66
1
 10
0.0000
 20
0.0000
 30
0.0000
 40
0.1270
 41
0.1270
 70
0
  0
VERTEX
  8
31
 10
33.3883
 20
2.1463
 30
0.0000
 42
0.4142
  0
VERTEX
  8
31
 10
33.1343
 20
1.8923
 30
0.0000
  0
SEQEND
  8
0
  0
POLYLINE
  8
31
 66
1
 10
0.0000
 20
0.0000
 30
0.0000
 40
0.0635
 41
0.0635
 70
0
  0
VERTEX
  8
31
 10
33.3883
 20
2.1145
 30
0.0000
 42
1.0000
  0
VERTEX
  8
31
 10
33.3883
 20
2.1781
 30
0.0000
  0
SEQEND
  8
0
  0
POLYLINE
  8
31
 66
1
 10
0.0000
 20
0.0000
 30
0.0000
 40
0.0635
 41
0.0635
 70
0
  0
VERTEX
  8
31
 10
33.1026
 20
1.8923
 30
0.0000
 42
1.0000
  0
VERTEX
  8
31
 10
33.1661
 20
1.8923
 30
0.0000
  0
SEQEND
  8
0
  0
POLYLINE
  8
31
 66
1
 10
0.0000
 20
0.0000
 30
0.0000
 40
0.1270
 41
0.1270
 70
0
  0
VERTEX
  8
31
 10
33.3883
 20
2.1463
 30
0.0000
  0
VERTEX
  8
31
 10
34.3027
 20
2.1463
 30
0.0000
  0
SEQEND
  8
0
  0
POLYLINE
  8
31
 66
1
 10
0.0000
 20
0.0000
 30
0.0000
 40
0.0635
 41
0.0635
 70
0
  0
VERTEX
  8
31
 10
34.3027
 20
2.1145
 30
0.0000
 42
1.0000
  0
VERTEX
  8
31
 10
34.3027
 20
2.1781
 30
0.0000
  0
SEQEND
  8
0
  0
POLYLINE
  8
31
 66
1
 10
0.0000
 20
0.0000
 30
0.0000
 40
0.0635
 41
0.0635
 70
0
  0
VERTEX
  8
31
 10
33.3883
 20
2.1781
 30
0.0000
 42
1.0000
  0
VERTEX
  8
31
 10
33.3883
 20
2.1145
 30
0.0000
  0
SEQEND
  8
0
  0
POLYLINE
  8
31
 66
1
 10
0.0000
 20
0.0000
 30
0.0000
 40
0.1270
 41
0.1270
 70
0
  0
VERTEX
  8
31
 10
34.5567
 20
1.8923
 30
0.0000
 42
0.4142
  0
VERTEX
  8
31
 10
34.3027
 20
2.1463
 30
0.0000
  0
SEQEND
  8
0
  0
POLYLINE
  8
31
 66
1
 10
0.0000
 20
0.0000
 30
0.0000
 40
0.0635
 41
0.0635
 70
0
  0
VERTEX
  8
31
 10
34.5249
 20
1.8923
 30
0.0000
 42
1.0000
  0
VERTEX
  8
31
 10
34.5885
 20
1.8923
 30
0.0000
  0
SEQEND
  8
0
  0
POLYLINE
  8
31
 66
1
 10
0.0000
 20
0.0000
 30
0.0000
 40
0.0635
 41
0.0635
 70
0
  0
VERTEX
  8
31
 10
34.3027
 20
2.1781
 30
0.0000
 42
1.0000
  0
VERTEX
  8
31
 10
34.3027
 20
2.1145
 30
0.0000
  0
SEQEND
  8
0
  0
POLYLINE
  8
31
 66
1
 10
0.0000
 20
0.0000
 30
0.0000
 40
0.1270
 41
0.1270
 70
0
  0
VERTEX
  8
31
 10
34.5567
 20
1.8923
 30
0.0000
  0
VERTEX
  8
31
 10
34.5567
 20
1.0287
 30
0.0000
  0
SEQEND
  8
0
  0
POLYLINE
  8
31
 66
1
 10
0.0000
 20
0.0000
 30
0.0000
 40
0.0635
 41
0.0635
 70
0
  0
VERTEX
  8
31
 10
34.5249
 20
1.0287
 30
0.0000
 42
1.0000
  0
VERTEX
  8
31
 10
34.5885
 20
1.0287
 30
0.0000
  0
SEQEND
  8
0
  0
POLYLINE
  8
31
 66
1
 10
0.0000
 20
0.0000
 30
0.0000
 40
0.0635
 41
0.0635
 70
0
  0
VERTEX
  8
31
 10
34.5885
 20
1.8923
 30
0.0000
 42
1.0000
  0
VERTEX
  8
31
 10
34.5249
 20
1.8923
 30
0.0000
  0
SEQEND
  8
0
  0
POLYLINE
  8
31
 66
1
 10
0.0000
 20
0.0000
 30
0.0000
 40
0.1270
 41
0.1270
 70
0
  0
VERTEX
  8
31
 10
34.3027
 20
0.7747
 30
0.0000
 42
0.4142
  0
VERTEX
  8
31
 10
34.5567
 20
1.0287
 30
0.0000
  0
SEQEND
  8
0
  0
POLYLINE
  8
31
 66
1
 10
0.0000
 20
0.0000
 30
0.0000
 40
0.0635
 41
0.0635
 70
0
  0
VERTEX
  8
31
 10
34.3027
 20
0.8065
 30
0.0000
 42
1.0000
  0
VERTEX
  8
31
 10
34.3027
 20
0.7429
 30
0.0000
  0
SEQEND
  8
0
  0
POLYLINE
  8
31
 66
1
 10
0.0000
 20
0.0000
 30
0.0000
 40
0.0635
 41
0.0635
 70
0
  0
VERTEX
  8
31
 10
34.5885
 20
1.0287
 30
0.0000
 42
1.0000
  0
VERTEX
  8
31
 10
34.5249
 20
1.0287
 30
0.0000
  0
SEQEND
  8
0
  0
POLYLINE
  8
31
 66
1
 10
0.0000
 20
0.0000
 30
0.0000
 40
0.1270
 41
0.1270
 70
0
  0
VERTEX
  8
31
 10
34.3027
 20
0.7747
 30
0.0000
  0
VERTEX
  8
31
 10
33.3883
 20
0.7747
 30
0.0000
  0
SEQEND
  8
0
  0
POLYLINE
  8
31
 66
1
 10
0.0000
 20
0.0000
 30
0.0000
 40
0.0635
 41
0.0635
 70
0
  0
VERTEX
  8
31
 10
33.3883
 20
0.8065
 30
0.0000
 42
1.0000
  0
VERTEX
  8
31
 10
33.3883
 20
0.7429
 30
0.0000
  0
SEQEND
  8
0
  0
POLYLINE
  8
31
 66
1
 10
0.0000
 20
0.0000
 30
0.0000
 40
0.0635
 41
0.0635
 70
0
  0
VERTEX
  8
31
 10
34.3027
 20
0.7429
 30
0.0000
 42
1.0000
  0
VERTEX
  8
31
 10
34.3027
 20
0.8065
 30
0.0000
  0
SEQEND
  8
0
  0
POLYLINE
  8
31
 66
1
 10
0.0000
 20
0.0000
 30
0.0000
 40
0.1270
 41
0.1270
 70
0
  0
VERTEX
  8
31
 10
33.1343
 20
1.0287
 30
0.0000
 42
0.4142
  0
VERTEX
  8
31
 10
33.3883
 20
0.7747
 30
0.0000
  0
SEQEND
  8
0
  0
POLYLINE
  8
31
 66
1
 10
0.0000
 20
0.0000
 30
0.0000
 40
0.0635
 41
0.0635
 70
0
  0
VERTEX
  8
31
 10
33.1661
 20
1.0287
 30
0.0000
 42
1.0000
  0
VERTEX
  8
31
 10
33.1026
 20
1.0287
 30
0.0000
  0
SEQEND
  8
0
  0
POLYLINE
  8
31
 66
1
 10
0.0000
 20
0.0000
 30
0.0000
 40
0.0635
 41
0.0635
 70
0
  0
VERTEX
  8
31
 10
33.3883
 20
0.7429
 30
0.0000
 42
1.0000
  0
VERTEX
  8
31
 10
33.3883
 20
0.8065
 30
0.0000
  0
SEQEND
  8
0
  0
POLYLINE
  8
31
 66
1
 10
0.0000
 20
0.0000
 30
0.0000
 40
0.1270
 41
0.1270
 70
0
  0
VERTEX
  8
31
 10
33.1343
 20
1.0287
 30
0.0000
  0
VERTEX
  8
31
 10
33.1343
 20
1.8923
 30
0.0000
  0
SEQEND
  8
0
  0
POLYLINE
  8
31
 66
1
 10
0.0000
 20
0.0000
 30
0.0000
 40
0.0635
 41
0.0635
 70
0
  0
VERTEX
  8
31
 10
33.1661
 20
1.8923
 30
0.0000
 42
1.0000
  0
VERTEX
  8
31
 10
33.1026
 20
1.8923
 30
0.0000
  0
SEQEND
  8
0
  0
POLYLINE
  8
31
 66
1
 10
0.0000
 20
0.0000
 30
0.0000
 40
0.0635
 41
0.0635
 70
0
  0
VERTEX
  8
31
 10
33.1026
 20
1.0287
 30
0.0000
 42
1.0000
  0
VERTEX
  8
31
 10
33.1661
 20
1.0287
 30
0.0000
  0
SEQEND
  8
0
  0
POLYLINE
  8
31
 66
1
 10
0.0000
 20
0.0000
 30
0.0000
 40
0.1270
 41
0.1270
 70
0
  0
VERTEX
  8
31
 10
34.4551
 20
2.0447
 30
0.0000
  0
VERTEX
  8
31
 10
34.4551
 20
0.8763
 30
0.0000
  0
SEQEND
  8
0
  0
POLYLINE
  8
31
 66
1
 10
0.0000
 20
0.0000
 30
0.0000
 40
0.0635
 41
0.0635
 70
0
  0
VERTEX
  8
31
 10
34.4233
 20
0.8763
 30
0.0000
 42
1.0000
  0
VERTEX
  8
31
 10
34.4869
 20
0.8763
 30
0.0000
  0
SEQEND
  8
0
  0
POLYLINE
  8
31
 66
1
 10
0.0000
 20
0.0000
 30
0.0000
 40
0.0635
 41
0.0635
 70
0
  0
VERTEX
  8
31
 10
34.4869
 20
2.0447
 30
0.0000
 42
1.0000
  0
VERTEX
  8
31
 10
34.4233
 20
2.0447
 30
0.0000
  0
SEQEND
  8
0
  0
POLYLINE
  8
31
 66
1
 10
0.0000
 20
0.0000
 30
0.0000
 40
0.1270
 41
0.1270
 70
0
  0
VERTEX
  8
31
 10
33.2359
 20
2.0447
 30
0.0000
  0
VERTEX
  8
31
 10
33.2359
 20
0.8763
 30
0.0000
  0
SEQEND
  8
0
  0
POLYLINE
  8
31
 66
1
 10
0.0000
 20
0.0000
 30
0.0000
 40
0.0635
 41
0.0635
 70
0
  0
VERTEX
  8
31
 10
33.2041
 20
0.8763
 30
0.0000
 42
1.0000
  0
VERTEX
  8
31
 10
33.2677
 20
0.8763
 30
0.0000
  0
SEQEND
  8
0
  0
POLYLINE
  8
31
 66
1
 10
0.0000
 20
0.0000
 30
0.0000
 40
0.0635
 41
0.0635
 70
0
  0
VERTEX
  8
31
 10
33.2677
 20
2.0447
 30
0.0000
 42
1.0000
  0
VERTEX
  8
31
 10
33.2041
 20
2.0447
 30
0.0000
  0
SEQEND
  8
0
  0
POLYLINE
  8
31
 66
1
 10
0.0000
 20
0.0000
 30
0.0000
 40
0.1270
 41
0.1270
 70
0
  0
VERTEX
  8
31
 10
33.2359
 20
0.8763
 30
0.0000
  0
VERTEX
  8
31
 10
33.3629
 20
0.8763
 30
0.0000
  0
SEQEND
  8
0
  0
POLYLINE
  8
31
 66
1
 10
0.0000
 20
0.0000
 30
0.0000
 40
0.0635
 41
0.0635
 70
0
  0
VERTEX
  8
31
 10
33.3629
 20
0.8446
 30
0.0000
 42
1.0000
  0
VERTEX
  8
31
 10
33.3629
 20
0.9081
 30
0.0000
  0
SEQEND
  8
0
  0
POLYLINE
  8
31
 66
1
 10
0.0000
 20
0.0000
 30
0.0000
 40
0.0635
 41
0.0635
 70
0
  0
VERTEX
  8
31
 10
33.2359
 20
0.9081
 30
0.0000
 42
1.0000
  0
VERTEX
  8
31
 10
33.2359
 20
0.8446
 30
0.0000
  0
SEQEND
  8
0
  0
POLYLINE
  8
31
 66
1
 10
0.0000
 20
0.0000
 30
0.0000
 40
0.1270
 41
0.1270
 70
0
  0
VERTEX
  8
31
 10
33.3629
 20
0.8763
 30
0.0000
  0
VERTEX
  8
31
 10
33.3629
 20
2.0447
 30
0.0000
  0
SEQEND
  8
0
  0
POLYLINE
  8
31
 66
1
 10
0.0000
 20
0.0000
 30
0.0000
 40
0.0635
 41
0.0635
 70
0
  0
VERTEX
  8
31
 10
33.3947
 20
2.0447
 30
0.0000
 42
1.0000
  0
VERTEX
  8
31
 10
33.3312
 20
2.0447
 30
0.0000
  0
SEQEND
  8
0
  0
POLYLINE
  8
31
 66
1
 10
0.0000
 20
0.0000
 30
0.0000
 40
0.0635
 41
0.0635
 70
0
  0
VERTEX
  8
31
 10
33.3312
 20
0.8763
 30
0.0000
 42
1.0000
  0
VERTEX
  8
31
 10
33.3947
 20
0.8763
 30
0.0000
  0
SEQEND
  8
0
  0
POLYLINE
  8
31
 66
1
 10
0.0000
 20
0.0000
 30
0.0000
 40
0.1270
 41
0.1270
 70
0
  0
VERTEX
  8
31
 10
33.3629
 20
2.0447
 30
0.0000
  0
VERTEX
  8
31
 10
33.4899
 20
2.0447
 30
0.0000
  0
SEQEND
  8
0
  0
POLYLINE
  8
31
 66
1
 10
0.0000
 20
0.0000
 30
0.0000
 40
0.0635
 41
0.0635
 70
0
  0
VERTEX
  8
31
 10
33.4899
 20
2.0130
 30
0.0000
 42
1.0000
  0
VERTEX
  8
31
 10
33.4899
 20
2.0765
 30
0.0000
  0
SEQEND
  8
0
  0
POLYLINE
  8
31
 66
1
 10
0.0000
 20
0.0000
 30
0.0000
 40
0.0635
 41
0.0635
 70
0
  0
VERTEX
  8
31
 10
33.3629
 20
2.0765
 30
0.0000
 42
1.0000
  0
VERTEX
  8
31
 10
33.3629
 20
2.0130
 30
0.0000
  0
SEQEND
  8
0
  0
POLYLINE
  8
31
 66
1
 10
0.0000
 20
0.0000
 30
0.0000
 40
0.1270
 41
0.1270
 70
0
  0
VERTEX
  8
31
 10
33.4899
 20
2.0447
 30
0.0000
  0
VERTEX
  8
31
 10
33.4899
 20
0.8509
 30
0.0000
  0
SEQEND
  8
0
  0
POLYLINE
  8
31
 66
1
 10
0.0000
 20
0.0000
 30
0.0000
 40
0.0635
 41
0.0635
 70
0
  0
VERTEX
  8
31
 10
33.4581
 20
0.8509
 30
0.0000
 42
1.0000
  0
VERTEX
  8
31
 10
33.5217
 20
0.8509
 30
0.0000
  0
SEQEND
  8
0
  0
POLYLINE
  8
31
 66
1
 10
0.0000
 20
0.0000
 30
0.0000
 40
0.0635
 41
0.0635
 70
0
  0
VERTEX
  8
31
 10
33.5217
 20
2.0447
 30
0.0000
 42
1.0000
  0
VERTEX
  8
31
 10
33.4581
 20
2.0447
 30
0.0000
  0
SEQEND
  8
0
  0
POLYLINE
  8
31
 66
1
 10
0.0000
 20
0.0000
 30
0.0000
 40
0.1270
 41
0.1270
 70
0
  0
VERTEX
  8
31
 10
33.4899
 20
0.8509
 30
0.0000
  0
VERTEX
  8
31
 10
33.5915
 20
0.8509
 30
0.0000
  0
SEQEND
  8
0
  0
POLYLINE
  8
31
 66
1
 10
0.0000
 20
0.0000
 30
0.0000
 40
0.0635
 41
0.0635
 70
0
  0
VERTEX
  8
31
 10
33.5915
 20
0.8192
 30
0.0000
 42
1.0000
  0
VERTEX
  8
31
 10
33.5915
 20
0.8826
 30
0.0000
  0
SEQEND
  8
0
  0
POLYLINE
  8
31
 66
1
 10
0.0000
 20
0.0000
 30
0.0000
 40
0.0635
 41
0.0635
 70
0
  0
VERTEX
  8
31
 10
33.4899
 20
0.8826
 30
0.0000
 42
1.0000
  0
VERTEX
  8
31
 10
33.4899
 20
0.8192
 30
0.0000
  0
SEQEND
  8
0
  0
POLYLINE
  8
31
 66
1
 10
0.0000
 20
0.0000
 30
0.0000
 40
0.1270
 41
0.1270
 70
0
  0
VERTEX
  8
31
 10
33.5915
 20
0.8509
 30
0.0000
 42
0.4142
  0
VERTEX
  8
31
 10
33.6169
 20
0.8763
 30
0.0000
  0
SEQEND
  8
0
  0
POLYLINE
  8
31
 66
1
 10
0.0000
 20
0.0000
 30
0.0000
 40
0.0635
 41
0.0635
 70
0
  0
VERTEX
  8
31
 10
33.5915
 20
0.8826
 30
0.0000
 42
1.0000
  0
VERTEX
  8
31
 10
33.5915
 20
0.8192
 30
0.0000
  0
SEQEND
  8
0
  0
POLYLINE
  8
31
 66
1
 10
0.0000
 20
0.0000
 30
0.0000
 40
0.0635
 41
0.0635
 70
0
  0
VERTEX
  8
31
 10
33.6487
 20
0.8763
 30
0.0000
 42
1.0000
  0
VERTEX
  8
31
 10
33.5851
 20
0.8763
 30
0.0000
  0
SEQEND
  8
0
  0
POLYLINE
  8
31
 66
1
 10
0.0000
 20
0.0000
 30
0.0000
 40
0.1270
 41
0.1270
 70
0
  0
VERTEX
  8
31
 10
33.6169
 20
0.8763
 30
0.0000
  0
VERTEX
  8
31
 10
33.6169
 20
2.0701
 30
0.0000
  0
SEQEND
  8
0
  0
POLYLINE
  8
31
 66
1
 10
0.0000
 20
0.0000
 30
0.0000
 40
0.0635
 41
0.0635
 70
0
  0
VERTEX
  8
31
 10
33.6487
 20
2.0701
 30
0.0000
 42
1.0000
  0
VERTEX
  8
31
 10
33.5851
 20
2.0701
 30
0.0000
  0
SEQEND
  8
0
  0
POLYLINE
  8
31
 66
1
 10
0.0000
 20
0.0000
 30
0.0000
 40
0.0635
 41
0.0635
 70
0
  0
VERTEX
  8
31
 10
33.5851
 20
0.8763
 30
0.0000
 42
1.0000
  0
VERTEX
  8
31
 10
33.6487
 20
0.8763
 30
0.0000
  0
SEQEND
  8
0
  0
POLYLINE
  8
31
 66
1
 10
0.0000
 20
0.0000
 30
0.0000
 40
0.1270
 41
0.1270
 70
0
  0
VERTEX
  8
31
 10
28.4607
 20
3.7211
 30
0.0000
 42
0.4142
  0
VERTEX
  8
31
 10
28.7147
 20
3.9751
 30
0.0000
  0
SEQEND
  8
0
  0
POLYLINE
  8
31
 66
1
 10
0.0000
 20
0.0000
 30
0.0000
 40
0.0635
 41
0.0635
 70
0
  0
VERTEX
  8
31
 10
28.4607
 20
3.7529
 30
0.0000
 42
1.0000
  0
VERTEX
  8
31
 10
28.4607
 20
3.6894
 30
0.0000
  0
SEQEND
  8
0
  0
POLYLINE
  8
31
 66
1
 10
0.0000
 20
0.0000
 30
0.0000
 40
0.0635
 41
0.0635
 70
0
  0
VERTEX
  8
31
 10
28.7464
 20
3.9751
 30
0.0000
 42
1.0000
  0
VERTEX
  8
31
 10
28.6830
 20
3.9751
 30
0.0000
  0
SEQEND
  8
0
  0
POLYLINE
  8
31
 66
1
 10
0.0000
 20
0.0000
 30
0.0000
 40
0.1270
 41
0.1270
 70
0
  0
VERTEX
  8
31
 10
28.4607
 20
3.7211
 30
0.0000
  0
VERTEX
  8
31
 10
27.6479
 20
3.7211
 30
0.0000
  0
SEQEND
  8
0
  0
POLYLINE
  8
31
 66
1
 10
0.0000
 20
0.0000
 30
0.0000
 40
0.0635
 41
0.0635
 70
0
  0
VERTEX
  8
31
 10
27.6479
 20
3.7529
 30
0.0000
 42
1.0000
  0
VERTEX
  8
31
 10
27.6479
 20
3.6894
 30
0.0000
  0
SEQEND
  8
0
  0
POLYLINE
  8
31
 66
1
 10
0.0000
 20
0.0000
 30
0.0000
 40
0.0635
 41
0.0635
 70
0
  0
VERTEX
  8
31
 10
28.4607
 20
3.6894
 30
0.0000
 42
1.0000
  0
VERTEX
  8
31
 10
28.4607
 20
3.7529
 30
0.0000
  0
SEQEND
  8
0
  0
POLYLINE
  8
31
 66
1
 10
0.0000
 20
0.0000
 30
0.0000
 40
0.1270
 41
0.1270
 70
0
  0
VERTEX
  8
31
 10
27.3939
 20
3.9751
 30
0.0000
 42
0.4142
  0
VERTEX
  8
31
 10
27.6479
 20
3.7211
 30
0.0000
  0
SEQEND
  8
0
  0
POLYLINE
  8
31
 66
1
 10
0.0000
 20
0.0000
 30
0.0000
 40
0.0635
 41
0.0635
 70
0
  0
VERTEX
  8
31
 10
27.4257
 20
3.9751
 30
0.0000
 42
1.0000
  0
VERTEX
  8
31
 10
27.3622
 20
3.9751
 30
0.0000
  0
SEQEND
  8
0
  0
POLYLINE
  8
31
 66
1
 10
0.0000
 20
0.0000
 30
0.0000
 40
0.0635
 41
0.0635
 70
0
  0
VERTEX
  8
31
 10
27.6479
 20
3.6894
 30
0.0000
 42
1.0000
  0
VERTEX
  8
31
 10
27.6479
 20
3.7529
 30
0.0000
  0
SEQEND
  8
0
  0
POLYLINE
  8
31
 66
1
 10
0.0000
 20
0.0000
 30
0.0000
 40
0.1270
 41
0.1270
 70
0
  0
VERTEX
  8
31
 10
27.3939
 20
3.9751
 30
0.0000
  0
VERTEX
  8
31
 10
27.3939
 20
4.3307
 30
0.0000
  0
SEQEND
  8
0
  0
POLYLINE
  8
31
 66
1
 10
0.0000
 20
0.0000
 30
0.0000
 40
0.0635
 41
0.0635
 70
0
  0
VERTEX
  8
31
 10
27.4257
 20
4.3307
 30
0.0000
 42
1.0000
  0
VERTEX
  8
31
 10
27.3622
 20
4.3307
 30
0.0000
  0
SEQEND
  8
0
  0
POLYLINE
  8
31
 66
1
 10
0.0000
 20
0.0000
 30
0.0000
 40
0.0635
 41
0.0635
 70
0
  0
VERTEX
  8
31
 10
27.3622
 20
3.9751
 30
0.0000
 42
1.0000
  0
VERTEX
  8
31
 10
27.4257
 20
3.9751
 30
0.0000
  0
SEQEND
  8
0
  0
POLYLINE
  8
31
 66
1
 10
0.0000
 20
0.0000
 30
0.0000
 40
0.1270
 41
0.1270
 70
0
  0
VERTEX
  8
31
 10
27.6479
 20
4.5847
 30
0.0000
 42
0.4142
  0
VERTEX
  8
31
 10
27.3939
 20
4.3307
 30
0.0000
  0
SEQEND
  8
0
  0
POLYLINE
  8
31
 66
1
 10
0.0000
 20
0.0000
 30
0.0000
 40
0.0635
 41
0.0635
 70
0
  0
VERTEX
  8
31
 10
27.6479
 20
4.5530
 30
0.0000
 42
1.0000
  0
VERTEX
  8
31
 10
27.6479
 20
4.6165
 30
0.0000
  0
SEQEND
  8
0
  0
POLYLINE
  8
31
 66
1
 10
0.0000
 20
0.0000
 30
0.0000
 40
0.0635
 41
0.0635
 70
0
  0
VERTEX
  8
31
 10
27.3622
 20
4.3307
 30
0.0000
 42
1.0000
  0
VERTEX
  8
31
 10
27.4257
 20
4.3307
 30
0.0000
  0
SEQEND
  8
0
  0
POLYLINE
  8
31
 66
1
 10
0.0000
 20
0.0000
 30
0.0000
 40
0.1270
 41
0.1270
 70
0
  0
VERTEX
  8
31
 10
27.6479
 20
4.5847
 30
0.0000
  0
VERTEX
  8
31
 10
28.4607
 20
4.5847
 30
0.0000
  0
SEQEND
  8
0
  0
POLYLINE
  8
31
 66
1
 10
0.0000
 20
0.0000
 30
0.0000
 40
0.0635
 41
0.0635
 70
0
  0
VERTEX
  8
31
 10
28.4607
 20
4.5530
 30
0.0000
 42
1.0000
  0
VERTEX
  8
31
 10
28.4607
 20
4.6165
 30
0.0000
  0
SEQEND
  8
0
  0
POLYLINE
  8
31
 66
1
 10
0.0000
 20
0.0000
 30
0.0000
 40
0.0635
 41
0.0635
 70
0
  0
VERTEX
  8
31
 10
27.6479
 20
4.6165
 30
0.0000
 42
1.0000
  0
VERTEX
  8
31
 10
27.6479
 20
4.5530
 30
0.0000
  0
SEQEND
  8
0
  0
POLYLINE
  8
31
 66
1
 10
0.0000
 20
0.0000
 30
0.0000
 40
0.1270
 41
0.1270
 70
0
  0
VERTEX
  8
31
 10
28.7147
 20
4.3307
 30
0.0000
 42
0.4142
  0
VERTEX
  8
31
 10
28.4607
 20
4.5847
 30
0.0000
  0
SEQEND
  8
0
  0
POLYLINE
  8
31
 66
1
 10
0.0000
 20
0.0000
 30
0.0000
 40
0.0635
 41
0.0635
 70
0
  0
VERTEX
  8
31
 10
28.6830
 20
4.3307
 30
0.0000
 42
1.0000
  0
VERTEX
  8
31
 10
28.7464
 20
4.3307
 30
0.0000
  0
SEQEND
  8
0
  0
POLYLINE
  8
31
 66
1
 10
0.0000
 20
0.0000
 30
0.0000
 40
0.0635
 41
0.0635
 70
0
  0
VERTEX
  8
31
 10
28.4607
 20
4.6165
 30
0.0000
 42
1.0000
  0
VERTEX
  8
31
 10
28.4607
 20
4.5530
 30
0.0000
  0
SEQEND
  8
0
  0
POLYLINE
  8
31
 66
1
 10
0.0000
 20
0.0000
 30
0.0000
 40
0.1270
 41
0.1270
 70
0
  0
VERTEX
  8
31
 10
28.7147
 20
4.3307
 30
0.0000
  0
VERTEX
  8
31
 10
28.7147
 20
3.9751
 30
0.0000
  0
SEQEND
  8
0
  0
POLYLINE
  8
31
 66
1
 10
0.0000
 20
0.0000
 30
0.0000
 40
0.0635
 41
0.0635
 70
0
  0
VERTEX
  8
31
 10
28.6830
 20
3.9751
 30
0.0000
 42
1.0000
  0
VERTEX
  8
31
 10
28.7464
 20
3.9751
 30
0.0000
  0
SEQEND
  8
0
  0
POLYLINE
  8
31
 66
1
 10
0.0000
 20
0.0000
 30
0.0000
 40
0.0635
 41
0.0635
 70
0
  0
VERTEX
  8
31
 10
28.7464
 20
4.3307
 30
0.0000
 42
1.0000
  0
VERTEX
  8
31
 10
28.6830
 20
4.3307
 30
0.0000
  0
SEQEND
  8
0
  0
POLYLINE
  8
31
 66
1
 10
0.0000
 20
0.0000
 30
0.0000
 40
0.1270
 41
0.1270
 70
0
  0
VERTEX
  8
31
 10
28.4607
 20
3.8227
 30
0.0000
 42
0.4142
  0
VERTEX
  8
31
 10
28.5877
 20
3.9497
 30
0.0000
  0
SEQEND
  8
0
  0
POLYLINE
  8
31
 66
1
 10
0.0000
 20
0.0000
 30
0.0000
 40
0.0635
 41
0.0635
 70
0
  0
VERTEX
  8
31
 10
28.4607
 20
3.8545
 30
0.0000
 42
1.0000
  0
VERTEX
  8
31
 10
28.4607
 20
3.7910
 30
0.0000
  0
SEQEND
  8
0
  0
POLYLINE
  8
31
 66
1
 10
0.0000
 20
0.0000
 30
0.0000
 40
0.0635
 41
0.0635
 70
0
  0
VERTEX
  8
31
 10
28.6195
 20
3.9497
 30
0.0000
 42
1.0000
  0
VERTEX
  8
31
 10
28.5560
 20
3.9497
 30
0.0000
  0
SEQEND
  8
0
  0
POLYLINE
  8
31
 66
1
 10
0.0000
 20
0.0000
 30
0.0000
 40
0.1270
 41
0.1270
 70
0
  0
VERTEX
  8
31
 10
28.5877
 20
3.9497
 30
0.0000
  0
VERTEX
  8
31
 10
28.5877
 20
4.3561
 30
0.0000
  0
SEQEND
  8
0
  0
POLYLINE
  8
31
 66
1
 10
0.0000
 20
0.0000
 30
0.0000
 40
0.0635
 41
0.0635
 70
0
  0
VERTEX
  8
31
 10
28.6195
 20
4.3561
 30
0.0000
 42
1.0000
  0
VERTEX
  8
31
 10
28.5560
 20
4.3561
 30
0.0000
  0
SEQEND
  8
0
  0
POLYLINE
  8
31
 66
1
 10
0.0000
 20
0.0000
 30
0.0000
 40
0.0635
 41
0.0635
 70
0
  0
VERTEX
  8
31
 10
28.5560
 20
3.9497
 30
0.0000
 42
1.0000
  0
VERTEX
  8
31
 10
28.6195
 20
3.9497
 30
0.0000
  0
SEQEND
  8
0
  0
POLYLINE
  8
31
 66
1
 10
0.0000
 20
0.0000
 30
0.0000
 40
0.1270
 41
0.1270
 70
0
  0
VERTEX
  8
31
 10
28.5877
 20
4.3561
 30
0.0000
 42
0.4142
  0
VERTEX
  8
31
 10
28.4607
 20
4.4831
 30
0.0000
  0
SEQEND
  8
0
  0
POLYLINE
  8
31
 66
1
 10
0.0000
 20
0.0000
 30
0.0000
 40
0.0635
 41
0.0635
 70
0
  0
VERTEX
  8
31
 10
28.5560
 20
4.3561
 30
0.0000
 42
1.0000
  0
VERTEX
  8
31
 10
28.6195
 20
4.3561
 30
0.0000
  0
SEQEND
  8
0
  0
POLYLINE
  8
31
 66
1
 10
0.0000
 20
0.0000
 30
0.0000
 40
0.0635
 41
0.0635
 70
0
  0
VERTEX
  8
31
 10
28.4607
 20
4.5149
 30
0.0000
 42
1.0000
  0
VERTEX
  8
31
 10
28.4607
 20
4.4514
 30
0.0000
  0
SEQEND
  8
0
  0
POLYLINE
  8
31
 66
1
 10
0.0000
 20
0.0000
 30
0.0000
 40
0.1270
 41
0.1270
 70
0
  0
VERTEX
  8
31
 10
27.6479
 20
4.4831
 30
0.0000
 42
0.4142
  0
VERTEX
  8
31
 10
27.4955
 20
4.3307
 30
0.0000
  0
SEQEND
  8
0
  0
POLYLINE
  8
31
 66
1
 10
0.0000
 20
0.0000
 30
0.0000
 40
0.0635
 41
0.0635
 70
0
  0
VERTEX
  8
31
 10
27.6479
 20
4.4514
 30
0.0000
 42
1.0000
  0
VERTEX
  8
31
 10
27.6479
 20
4.5149
 30
0.0000
  0
SEQEND
  8
0
  0
POLYLINE
  8
31
 66
1
 10
0.0000
 20
0.0000
 30
0.0000
 40
0.0635
 41
0.0635
 70
0
  0
VERTEX
  8
31
 10
27.4638
 20
4.3307
 30
0.0000
 42
1.0000
  0
VERTEX
  8
31
 10
27.5272
 20
4.3307
 30
0.0000
  0
SEQEND
  8
0
  0
POLYLINE
  8
31
 66
1
 10
0.0000
 20
0.0000
 30
0.0000
 40
0.1270
 41
0.1270
 70
0
  0
VERTEX
  8
31
 10
27.4955
 20
4.3307
 30
0.0000
  0
VERTEX
  8
31
 10
27.5209
 20
3.9497
 30
0.0000
  0
SEQEND
  8
0
  0
POLYLINE
  8
31
 66
1
 10
0.0000
 20
0.0000
 30
0.0000
 40
0.0635
 41
0.0635
 70
0
  0
VERTEX
  8
31
 10
27.4892
 20
3.9476
 30
0.0000
 42
1.0000
  0
VERTEX
  8
31
 10
27.5526
 20
3.9518
 30
0.0000
  0
SEQEND
  8
0
  0
POLYLINE
  8
31
 66
1
 10
0.0000
 20
0.0000
 30
0.0000
 40
0.0635
 41
0.0635
 70
0
  0
VERTEX
  8
31
 10
27.5272
 20
4.3328
 30
0.0000
 42
1.0000
  0
VERTEX
  8
31
 10
27.4638
 20
4.3286
 30
0.0000
  0
SEQEND
  8
0
  0
POLYLINE
  8
31
 66
1
 10
0.0000
 20
0.0000
 30
0.0000
 40
0.1270
 41
0.1270
 70
0
  0
VERTEX
  8
31
 10
27.5209
 20
3.9497
 30
0.0000
 42
0.4142
  0
VERTEX
  8
31
 10
27.6479
 20
3.8227
 30
0.0000
  0
SEQEND
  8
0
  0
POLYLINE
  8
31
 66
1
 10
0.0000
 20
0.0000
 30
0.0000
 40
0.0635
 41
0.0635
 70
0
  0
VERTEX
  8
31
 10
27.5526
 20
3.9497
 30
0.0000
 42
1.0000
  0
VERTEX
  8
31
 10
27.4892
 20
3.9497
 30
0.0000
  0
SEQEND
  8
0
  0
POLYLINE
  8
31
 66
1
 10
0.0000
 20
0.0000
 30
0.0000
 40
0.0635
 41
0.0635
 70
0
  0
VERTEX
  8
31
 10
27.6479
 20
3.7910
 30
0.0000
 42
1.0000
  0
VERTEX
  8
31
 10
27.6479
 20
3.8545
 30
0.0000
  0
SEQEND
  8
0
  0
POLYLINE
  8
31
 66
1
 10
0.0000
 20
0.0000
 30
0.0000
 40
0.1270
 41
0.1270
 70
0
  0
VERTEX
  8
31
 10
33.4391
 20
3.7211
 30
0.0000
 42
0.4142
  0
VERTEX
  8
31
 10
33.6931
 20
3.9751
 30
0.0000
  0
SEQEND
  8
0
  0
POLYLINE
  8
31
 66
1
 10
0.0000
 20
0.0000
 30
0.0000
 40
0.0635
 41
0.0635
 70
0
  0
VERTEX
  8
31
 10
33.4391
 20
3.7529
 30
0.0000
 42
1.0000
  0
VERTEX
  8
31
 10
33.4391
 20
3.6894
 30
0.0000
  0
SEQEND
  8
0
  0
POLYLINE
  8
31
 66
1
 10
0.0000
 20
0.0000
 30
0.0000
 40
0.0635
 41
0.0635
 70
0
  0
VERTEX
  8
31
 10
33.7249
 20
3.9751
 30
0.0000
 42
1.0000
  0
VERTEX
  8
31
 10
33.6613
 20
3.9751
 30
0.0000
  0
SEQEND
  8
0
  0
POLYLINE
  8
31
 66
1
 10
0.0000
 20
0.0000
 30
0.0000
 40
0.1270
 41
0.1270
 70
0
  0
VERTEX
  8
31
 10
33.4391
 20
3.7211
 30
0.0000
  0
VERTEX
  8
31
 10
32.6263
 20
3.7211
 30
0.0000
  0
SEQEND
  8
0
  0
POLYLINE
  8
31
 66
1
 10
0.0000
 20
0.0000
 30
0.0000
 40
0.0635
 41
0.0635
 70
0
  0
VERTEX
  8
31
 10
32.6263
 20
3.7529
 30
0.0000
 42
1.0000
  0
VERTEX
  8
31
 10
32.6263
 20
3.6894
 30
0.0000
  0
SEQEND
  8
0
  0
POLYLINE
  8
31
 66
1
 10
0.0000
 20
0.0000
 30
0.0000
 40
0.0635
 41
0.0635
 70
0
  0
VERTEX
  8
31
 10
33.4391
 20
3.6894
 30
0.0000
 42
1.0000
  0
VERTEX
  8
31
 10
33.4391
 20
3.7529
 30
0.0000
  0
SEQEND
  8
0
  0
POLYLINE
  8
31
 66
1
 10
0.0000
 20
0.0000
 30
0.0000
 40
0.1270
 41
0.1270
 70
0
  0
VERTEX
  8
31
 10
32.3723
 20
3.9751
 30
0.0000
 42
0.4142
  0
VERTEX
  8
31
 10
32.6263
 20
3.7211
 30
0.0000
  0
SEQEND
  8
0
  0
POLYLINE
  8
31
 66
1
 10
0.0000
 20
0.0000
 30
0.0000
 40
0.0635
 41
0.0635
 70
0
  0
VERTEX
  8
31
 10
32.4041
 20
3.9751
 30
0.0000
 42
1.0000
  0
VERTEX
  8
31
 10
32.3406
 20
3.9751
 30
0.0000
  0
SEQEND
  8
0
  0
POLYLINE
  8
31
 66
1
 10
0.0000
 20
0.0000
 30
0.0000
 40
0.0635
 41
0.0635
 70
0
  0
VERTEX
  8
31
 10
32.6263
 20
3.6894
 30
0.0000
 42
1.0000
  0
VERTEX
  8
31
 10
32.6263
 20
3.7529
 30
0.0000
  0
SEQEND
  8
0
  0
POLYLINE
  8
31
 66
1
 10
0.0000
 20
0.0000
 30
0.0000
 40
0.1270
 41
0.1270
 70
0
  0
VERTEX
  8
31
 10
32.3723
 20
3.9751
 30
0.0000
  0
VERTEX
  8
31
 10
32.3723
 20
4.3307
 30
0.0000
  0
SEQEND
  8
0
  0
POLYLINE
  8
31
 66
1
 10
0.0000
 20
0.0000
 30
0.0000
 40
0.0635
 41
0.0635
 70
0
  0
VERTEX
  8
31
 10
32.4041
 20
4.3307
 30
0.0000
 42
1.0000
  0
VERTEX
  8
31
 10
32.3406
 20
4.3307
 30
0.0000
  0
SEQEND
  8
0
  0
POLYLINE
  8
31
 66
1
 10
0.0000
 20
0.0000
 30
0.0000
 40
0.0635
 41
0.0635
 70
0
  0
VERTEX
  8
31
 10
32.3406
 20
3.9751
 30
0.0000
 42
1.0000
  0
VERTEX
  8
31
 10
32.4041
 20
3.9751
 30
0.0000
  0
SEQEND
  8
0
  0
POLYLINE
  8
31
 66
1
 10
0.0000
 20
0.0000
 30
0.0000
 40
0.1270
 41
0.1270
 70
0
  0
VERTEX
  8
31
 10
32.6263
 20
4.5847
 30
0.0000
 42
0.4142
  0
VERTEX
  8
31
 10
32.3723
 20
4.3307
 30
0.0000
  0
SEQEND
  8
0
  0
POLYLINE
  8
31
 66
1
 10
0.0000
 20
0.0000
 30
0.0000
 40
0.0635
 41
0.0635
 70
0
  0
VERTEX
  8
31
 10
32.6263
 20
4.5530
 30
0.0000
 42
1.0000
  0
VERTEX
  8
31
 10
32.6263
 20
4.6165
 30
0.0000
  0
SEQEND
  8
0
  0
POLYLINE
  8
31
 66
1
 10
0.0000
 20
0.0000
 30
0.0000
 40
0.0635
 41
0.0635
 70
0
  0
VERTEX
  8
31
 10
32.3406
 20
4.3307
 30
0.0000
 42
1.0000
  0
VERTEX
  8
31
 10
32.4041
 20
4.3307
 30
0.0000
  0
SEQEND
  8
0
  0
POLYLINE
  8
31
 66
1
 10
0.0000
 20
0.0000
 30
0.0000
 40
0.1270
 41
0.1270
 70
0
  0
VERTEX
  8
31
 10
32.6263
 20
4.5847
 30
0.0000
  0
VERTEX
  8
31
 10
33.4391
 20
4.5847
 30
0.0000
  0
SEQEND
  8
0
  0
POLYLINE
  8
31
 66
1
 10
0.0000
 20
0.0000
 30
0.0000
 40
0.0635
 41
0.0635
 70
0
  0
VERTEX
  8
31
 10
33.4391
 20
4.5530
 30
0.0000
 42
1.0000
  0
VERTEX
  8
31
 10
33.4391
 20
4.6165
 30
0.0000
  0
SEQEND
  8
0
  0
POLYLINE
  8
31
 66
1
 10
0.0000
 20
0.0000
 30
0.0000
 40
0.0635
 41
0.0635
 70
0
  0
VERTEX
  8
31
 10
32.6263
 20
4.6165
 30
0.0000
 42
1.0000
  0
VERTEX
  8
31
 10
32.6263
 20
4.5530
 30
0.0000
  0
SEQEND
  8
0
  0
POLYLINE
  8
31
 66
1
 10
0.0000
 20
0.0000
 30
0.0000
 40
0.1270
 41
0.1270
 70
0
  0
VERTEX
  8
31
 10
33.6931
 20
4.3307
 30
0.0000
 42
0.4142
  0
VERTEX
  8
31
 10
33.4391
 20
4.5847
 30
0.0000
  0
SEQEND
  8
0
  0
POLYLINE
  8
31
 66
1
 10
0.0000
 20
0.0000
 30
0.0000
 40
0.0635
 41
0.0635
 70
0
  0
VERTEX
  8
31
 10
33.6613
 20
4.3307
 30
0.0000
 42
1.0000
  0
VERTEX
  8
31
 10
33.7249
 20
4.3307
 30
0.0000
  0
SEQEND
  8
0
  0
POLYLINE
  8
31
 66
1
 10
0.0000
 20
0.0000
 30
0.0000
 40
0.0635
 41
0.0635
 70
0
  0
VERTEX
  8
31
 10
33.4391
 20
4.6165
 30
0.0000
 42
1.0000
  0
VERTEX
  8
31
 10
33.4391
 20
4.5530
 30
0.0000
  0
SEQEND
  8
0
  0
POLYLINE
  8
31
 66
1
 10
0.0000
 20
0.0000
 30
0.0000
 40
0.1270
 41
0.1270
 70
0
  0
VERTEX
  8
31
 10
33.6931
 20
4.3307
 30
0.0000
  0
VERTEX
  8
31
 10
33.6931
 20
3.9751
 30
0.0000
  0
SEQEND
  8
0
  0
POLYLINE
  8
31
 66
1
 10
0.0000
 20
0.0000
 30
0.0000
 40
0.0635
 41
0.0635
 70
0
  0
VERTEX
  8
31
 10
33.6613
 20
3.9751
 30
0.0000
 42
1.0000
  0
VERTEX
  8
31
 10
33.7249
 20
3.9751
 30
0.0000
  0
SEQEND
  8
0
  0
POLYLINE
  8
31
 66
1
 10
0.0000
 20
0.0000
 30
0.0000
 40
0.0635
 41
0.0635
 70
0
  0
VERTEX
  8
31
 10
33.7249
 20
4.3307
 30
0.0000
 42
1.0000
  0
VERTEX
  8
31
 10
33.6613
 20
4.3307
 30
0.0000
  0
SEQEND
  8
0
  0
POLYLINE
  8
31
 66
1
 10
0.0000
 20
0.0000
 30
0.0000
 40
0.1270
 41
0.1270
 70
0
  0
VERTEX
  8
31
 10
32.6009
 20
4.4577
 30
0.0000
 42
0.4142
  0
VERTEX
  8
31
 10
32.4739
 20
4.3307
 30
0.0000
  0
SEQEND
  8
0
  0
POLYLINE
  8
31
 66
1
 10
0.0000
 20
0.0000
 30
0.0000
 40
0.0635
 41
0.0635
 70
0
  0
VERTEX
  8
31
 10
32.6009
 20
4.4260
 30
0.0000
 42
1.0000
  0
VERTEX
  8
31
 10
32.6009
 20
4.4894
 30
0.0000
  0
SEQEND
  8
0
  0
POLYLINE
  8
31
 66
1
 10
0.0000
 20
0.0000
 30
0.0000
 40
0.0635
 41
0.0635
 70
0
  0
VERTEX
  8
31
 10
32.4421
 20
4.3307
 30
0.0000
 42
1.0000
  0
VERTEX
  8
31
 10
32.5057
 20
4.3307
 30
0.0000
  0
SEQEND
  8
0
  0
POLYLINE
  8
31
 66
1
 10
0.0000
 20
0.0000
 30
0.0000
 40
0.1270
 41
0.1270
 70
0
  0
VERTEX
  8
31
 10
32.4739
 20
4.3307
 30
0.0000
  0
VERTEX
  8
31
 10
32.4739
 20
3.9751
 30
0.0000
  0
SEQEND
  8
0
  0
POLYLINE
  8
31
 66
1
 10
0.0000
 20
0.0000
 30
0.0000
 40
0.0635
 41
0.0635
 70
0
  0
VERTEX
  8
31
 10
32.4421
 20
3.9751
 30
0.0000
 42
1.0000
  0
VERTEX
  8
31
 10
32.5057
 20
3.9751
 30
0.0000
  0
SEQEND
  8
0
  0
POLYLINE
  8
31
 66
1
 10
0.0000
 20
0.0000
 30
0.0000
 40
0.0635
 41
0.0635
 70
0
  0
VERTEX
  8
31
 10
32.5057
 20
4.3307
 30
0.0000
 42
1.0000
  0
VERTEX
  8
31
 10
32.4421
 20
4.3307
 30
0.0000
  0
SEQEND
  8
0
  0
POLYLINE
  8
31
 66
1
 10
0.0000
 20
0.0000
 30
0.0000
 40
0.1270
 41
0.1270
 70
0
  0
VERTEX
  8
31
 10
32.4739
 20
3.9751
 30
0.0000
 42
0.4142
  0
VERTEX
  8
31
 10
32.6009
 20
3.8481
 30
0.0000
  0
SEQEND
  8
0
  0
POLYLINE
  8
31
 66
1
 10
0.0000
 20
0.0000
 30
0.0000
 40
0.0635
 41
0.0635
 70
0
  0
VERTEX
  8
31
 10
32.5057
 20
3.9751
 30
0.0000
 42
1.0000
  0
VERTEX
  8
31
 10
32.4421
 20
3.9751
 30
0.0000
  0
SEQEND
  8
0
  0
POLYLINE
  8
31
 66
1
 10
0.0000
 20
0.0000
 30
0.0000
 40
0.0635
 41
0.0635
 70
0
  0
VERTEX
  8
31
 10
32.6009
 20
3.8163
 30
0.0000
 42
1.0000
  0
VERTEX
  8
31
 10
32.6009
 20
3.8799
 30
0.0000
  0
SEQEND
  8
0
  0
POLYLINE
  8
31
 66
1
 10
0.0000
 20
0.0000
 30
0.0000
 40
0.1270
 41
0.1270
 70
0
  0
VERTEX
  8
31
 10
33.5661
 20
4.3561
 30
0.0000
 42
0.4142
  0
VERTEX
  8
31
 10
33.4391
 20
4.4831
 30
0.0000
  0
SEQEND
  8
0
  0
POLYLINE
  8
31
 66
1
 10
0.0000
 20
0.0000
 30
0.0000
 40
0.0635
 41
0.0635
 70
0
  0
VERTEX
  8
31
 10
33.5343
 20
4.3561
 30
0.0000
 42
1.0000
  0
VERTEX
  8
31
 10
33.5979
 20
4.3561
 30
0.0000
  0
SEQEND
  8
0
  0
POLYLINE
  8
31
 66
1
 10
0.0000
 20
0.0000
 30
0.0000
 40
0.0635
 41
0.0635
 70
0
  0
VERTEX
  8
31
 10
33.4391
 20
4.5149
 30
0.0000
 42
1.0000
  0
VERTEX
  8
31
 10
33.4391
 20
4.4514
 30
0.0000
  0
SEQEND
  8
0
  0
POLYLINE
  8
31
 66
1
 10
0.0000
 20
0.0000
 30
0.0000
 40
0.1270
 41
0.1270
 70
0
  0
VERTEX
  8
31
 10
33.5661
 20
4.3561
 30
0.0000
  0
VERTEX
  8
31
 10
33.5661
 20
3.9497
 30
0.0000
  0
SEQEND
  8
0
  0
POLYLINE
  8
31
 66
1
 10
0.0000
 20
0.0000
 30
0.0000
 40
0.0635
 41
0.0635
 70
0
  0
VERTEX
  8
31
 10
33.5343
 20
3.9497
 30
0.0000
 42
1.0000
  0
VERTEX
  8
31
 10
33.5979
 20
3.9497
 30
0.0000
  0
SEQEND
  8
0
  0
POLYLINE
  8
31
 66
1
 10
0.0000
 20
0.0000
 30
0.0000
 40
0.0635
 41
0.0635
 70
0
  0
VERTEX
  8
31
 10
33.5979
 20
4.3561
 30
0.0000
 42
1.0000
  0
VERTEX
  8
31
 10
33.5343
 20
4.3561
 30
0.0000
  0
SEQEND
  8
0
  0
POLYLINE
  8
31
 66
1
 10
0.0000
 20
0.0000
 30
0.0000
 40
0.1270
 41
0.1270
 70
0
  0
VERTEX
  8
31
 10
33.4391
 20
3.8227
 30
0.0000
 42
0.4142
  0
VERTEX
  8
31
 10
33.5661
 20
3.9497
 30
0.0000
  0
SEQEND
  8
0
  0
POLYLINE
  8
31
 66
1
 10
0.0000
 20
0.0000
 30
0.0000
 40
0.0635
 41
0.0635
 70
0
  0
VERTEX
  8
31
 10
33.4391
 20
3.8545
 30
0.0000
 42
1.0000
  0
VERTEX
  8
31
 10
33.4391
 20
3.7910
 30
0.0000
  0
SEQEND
  8
0
  0
POLYLINE
  8
31
 66
1
 10
0.0000
 20
0.0000
 30
0.0000
 40
0.0635
 41
0.0635
 70
0
  0
VERTEX
  8
31
 10
33.5979
 20
3.9497
 30
0.0000
 42
1.0000
  0
VERTEX
  8
31
 10
33.5343
 20
3.9497
 30
0.0000
  0
SEQEND
  8
0
  0
CIRCLE
  8
20
 10
27.0383
 20
1.7145
 30
0.0000
 40
0.3500
  0
CIRCLE
  8
20
 10
27.0383
 20
1.2065
 30
0.0000
 40
0.3500
  0
CIRCLE
  8
20
 10
34.0487
 20
1.7145
 30
0.0000
 40
0.3500
  0
CIRCLE
  8
20
 10
34.0487
 20
1.2065
 30
0.0000
 40
0.3500
  0
CIRCLE
  8
20
 10
27.9273
 20
4.1529
 30
0.0000
 40
0.3500
  0
CIRCLE
  8
20
 10
28.1813
 20
4.1529
 30
0.0000
 40
0.3500
  0
CIRCLE
  8
20
 10
32.9057
 20
4.1529
 30
0.0000
 40
0.3500
  0
CIRCLE
  8
20
 10
33.1597
 20
4.1529
 30
0.0000
 40
0.3500
  0
INSERT
  8
31
  2
RECT48768X172314R25
 10
29.2227
 20
4.1529
 30
0.0000
 41
1.0000
 42
1.0000
 43
1.0000
 50
0.0000
  0
INSERT
  8
31
  2
RECT48768X172314R25
 10
29.8831
 20
4.1529
 30
0.0000
 41
1.0000
 42
1.0000
 43
1.0000
 50
0.0000
  0
INSERT
  8
31
  2
RECT48768X172314R25
 10
30.5435
 20
4.1529
 30
0.0000
 41
1.0000
 42
1.0000
 43
1.0000
 50
0.0000
  0
INSERT
  8
31
  2
RECT48768X172314R25
 10
31.2039
 20
4.1529
 30
0.0000
 41
1.0000
 42
1.0000
 43
1.0000
 50
0.0000
  0
INSERT
  8
31
  2
RECT48768X172314R25
 10
31.8643
 20
4.1529
 30
0.0000
 41
1.0000
 42
1.0000
 43
1.0000
 50
0.0000
  0
INSERT
  8
31
  2
RECT195072X195072R25
 10
29.5275
 20
1.4605
 30
0.0000
 41
1.0000
 42
1.0000
 43
1.0000
 50
0.0000
  0
INSERT
  8
31
  2
RECT195072X195072R25
 10
31.5595
 20
1.4605
 30
0.0000
 41
1.0000
 42
1.0000
 43
1.0000
 50
0.0000
  0
ENDSEC
  0
EOF
